<svg id="Layer_1" xmlns="http://www.w3.org/2000/svg" viewBox="-246 382 117.7 29"><style>.st0{fill:url(#SVGID_1_)}.st1,.st2,.st3{opacity:.29;fill:#800002;enable-background:new}.st2,.st3{opacity:.44;fill:#e61801}.st3{opacity:.73;fill:#ea5b4a}.st4,.st5{fill:#e61801}.st4{enable-background:new;opacity:.93}.st5{opacity:.49}.st5,.st6,.st7{enable-background:new}.st6{fill:#f2aca3;opacity:.4}.st7{opacity:.18}.st7,.st8{fill:#fff}</style><path d="M-203.4 388.7h-7v6.1h7v-2.1h-3.6V391h5.8v3.3c0 .9-.2 1.5-.5 1.8-.3.3-1 .5-1.9.5h-6.6c-.9 0-1.6-.2-1.9-.5-.3-.3-.5-.9-.5-1.8v-5c0-.9.2-1.5.5-1.8.3-.3 1-.5 1.9-.5h6.6c.9 0 1.6.2 1.9.5s.5.9.5 1.7v.2l-2.2.4v-1.1zm9.1 4.1h4.2l-2.1-3.9-2.1 3.9zm-4.3 3.8l5.4-9.6h2.2l5.5 9.6h-2.5l-1.2-2.1h-6.1l-1.1 2.1h-2.2zm23.4-7.9h-5v2.7h5c.4 0 .7-.1.8-.2.1-.1.2-.3.2-.6v-1.2c0-.3-.1-.5-.2-.6-.1-.1-.4-.1-.8-.1zm-7.2 7.9V387h8.2c.8 0 1.3.1 1.7.4.3.3.5.8.5 1.5v2.3c0 .6-.2 1.1-.5 1.4-.3.3-.9.4-1.7.4h-1.3l4.4 3.6h-3.2l-3.8-3.6h-2.1v3.6h-2.2zm14.9 0V387h1.5l6.8 5.7c.2.2.4.4.6.5l.5.5c0-.5-.1-.9-.1-1.1V387h2v9.6h-1.5l-7.1-5.9-.4-.4-.4-.4c0 .3.1.6.1.8v5.9h-2zm16.3 0V387h9.8v1.6h-7.6v2.1h4.4v1.6h-4.4v2.4h7.7v1.8h-9.9v.1zm18.5-7.9v7.9h-2.2v-7.9h-4.4V387h11.1v1.7h-4.5z"/><linearGradient id="SVGID_1_" gradientUnits="userSpaceOnUse" x1="-231.5" y1="412" x2="-231.5" y2="383.05" gradientTransform="matrix(1 0 0 -1 0 794)"><stop offset="0" stop-color="#e61102"/><stop offset="1" stop-color="#ab0c05"/></linearGradient><path class="st0" d="M-240.9 411h18.7l5.2-5.2v-18.7l-5.2-5.1h-18.7l-5.1 5.1v18.7z"/><path class="st1" d="M-231.5 386.1l10.3 10.4 4.2 9.3-5.2 5.2-9.3-4.2-10.4-10.3-4.1-9.4 5.1-5.1z"/><path class="st2" d="M-241.9 396.5l10.4-10.4 9.3-4.1 5.2 5.1-4.2 9.4-10.3 10.3-9.4 4.2-5.1-5.2z"/><path class="st3" d="M-246 405.8l7.2-2-2.1 7.2zM-222.2 382l-2 7.2 7.2-2.1z"/><path class="st4" d="M-246 387.1l7.2 2.1-2.1-7.2z"/><path class="st5" d="M-222.2 411l-2-7.2 7.2 2z"/><path class="st6" d="M-238.8 389.2h14.6v14.6h-14.6z"/><path transform="rotate(-45.001 -231.565 396.474)" class="st7" d="M-238.9 389.2h14.6v14.6h-14.6z"/><path class="st8" d="M-227.7 392.8h-7.6v7h7.6V397h-3.9v-1.2h5.6v3.1c0 .9-.2 1.5-.5 1.8-.3.3-.9.5-1.8.5h-6.3c-.9 0-1.5-.2-1.8-.5-.3-.3-.5-.9-.5-1.8v-5.1c0-.9.2-1.5.5-1.8.3-.3.9-.5 1.8-.5h6.3c.9 0 1.5.2 1.8.5s.5.9.5 1.7v.2h-1.6l-.1-1.1z"/><path d="M-211.4 402.5v.9h3.2c.1 0 .3.1.3.2.1.1.1.2.2.3 0 .1.1.3.1.5v.6c0 .2 0 .4-.1.5 0 .1-.1.2-.2.3-.1.1-.2.1-.3.2-.1.1-.3 0-.5 0h-3.2c-.1 0-.2-.1-.3-.2-.1-.1-.1-.2-.2-.3 0-.1-.1-.3-.1-.5v-.1l.9-.2v.5h3v-1h-3.2c-.1 0-.3-.1-.3-.2s-.1-.2-.2-.3c0-.1-.1-.3-.1-.5v-.5c0-.2 0-.4.1-.5 0-.1.1-.2.2-.3.1-.1.2-.1.3-.2h3c.4 0 .7.1.8.2.2.1.3.4.3.7v.1l-.8.3v-.4h-2.9v-.1zM-201 402.3c0-.1.1-.2.2-.3.1-.1.2-.1.3-.2h4.2c.1 0 .2.1.3.2s.1.2.2.3c.1.1.1.3.1.5v2.2c0 .2 0 .4-.1.5-.1.1-.1.2-.2.3-.1.1-.2.1-.3.2-.1.1-.3 0-.5 0h-3.7c-.1 0-.2-.1-.3-.2-.1-.1-.1-.2-.2-.3 0-.1-.1-.3-.1-.5v-2.2c0-.2.1-.4.1-.5zm4.3 2.8v-2.6h-3.3v2.6h3.3zM-189.1 401.8h4.4v.7h-3.3v1.1h1.8v.8h-1.8v1.5h-1v-4.1h-.1zM-176.3 405.9h-1v-3.4h-2v-.7h5v.7h-2v3.4zM-168.7 401.8h1.1l1.1 2.9 1.2-2.9h.7l1.2 2.9 1.1-2.9h.9l-1.7 4.1h-.7l-1.3-2.9-1.2 2.9h-.7l-1.7-4.1zM-153.7 401.8h1l2.5 4.1h-1.1l-.5-.9h-2.7l-.5.9h-1l2.3-4.1zm1.4 2.5l-1-1.7-.9 1.7h1.9zM-144.3 401.8h3.7c.3 0 .6.1.7.2.2.1.2.3.2.6v1c0 .3-.1.5-.2.6-.2.1-.4.2-.7.2h-.6l2 1.6h-1.4l-1.7-1.6h-1v1.6h-1v-4.2zm1 .7v1.1h2.3c.2 0 .3 0 .3-.1.1 0 .1-.1.1-.3v-.5c0-.1 0-.2-.1-.3-.1 0-.2-.1-.3-.1h-2.3v.2zM-133 401.8h4.4v.7h-3.4v.9h2v.7h-2v1h3.5v.8h-4.5v-4.1z"/></svg>