<svg id="Layer_1" xmlns="http://www.w3.org/2000/svg" viewBox="-246 398.2 52 12.8"><style>.st0{fill:#fff}.st1{fill:url(#SVGID_1_)}.st2,.st3{opacity:.29;fill:#800002;enable-background:new}.st3{opacity:.44;fill:#e61801}.st4,.st5,.st6,.st7,.st8{opacity:.73;fill:#ea5b4a;enable-background:new}.st5,.st6,.st7,.st8{opacity:.93;fill:#e61801}.st6,.st7,.st8{opacity:.49}.st7,.st8{opacity:.4;fill:#f2aca3}.st8{opacity:.18;fill:#fff}</style><path class="st0" d="M-227.2 401.1h-3.1v2.7h3.1v-.9h-1.6v-.8h2.6v1.5c0 .4-.1.7-.2.8-.1.1-.4.2-.8.2h-2.9c-.4 0-.7-.1-.8-.2-.1-.1-.2-.4-.2-.8v-2.2c0-.4.1-.7.2-.8.1-.1.4-.2.8-.2h2.9c.4 0 .7.1.8.2.1.1.2.4.2.8v.1l-1 .2v-.6zm4 1.9h1.9l-.9-1.7-1 1.7zm-1.9 1.6l2.4-4.2h1l2.4 4.2h-1.1l-.5-.9h-2.7l-.5.9h-1zm10.4-3.5h-2.2v1.2h2.2c.2 0 .3 0 .4-.1 0 0 .1-.1.1-.3v-.5c0-.1 0-.2-.1-.3h-.4zm-3.2 3.5v-4.2h3.6c.4 0 .6 0 .8.2.1.1.2.4.2.7v1c0 .3-.1.5-.2.6-.1.1-.4.2-.8.2h-.6l1.9 1.6h-1.4l-1.7-1.6h-.9v1.6h-.9v-.1zm6.6 0v-4.2h.7l3 2.5c.1.1.2.2.3.2l.2.2v-.5-2.5h.9v4.2h-.7l-3.1-2.6-.2-.2-.2-.2v3h-.9v.1zm7.2 0v-4.2h4.3v.7h-3.4v.9h1.9v.7h-1.9v1.1h3.4v.8h-4.3zm8.1-3.5v3.5h-1v-3.5h-1.9v-.8h4.9v.8h-2z"/><linearGradient id="SVGID_1_" gradientUnits="userSpaceOnUse" x1="-239.595" y1="395.81" x2="-239.595" y2="383.022" gradientTransform="matrix(1 0 0 -1 0 794)"><stop offset="0" stop-color="#e61102"/><stop offset="1" stop-color="#ab0c05"/></linearGradient><path class="st1" d="M-243.7 411h8.2l2.3-2.3v-8.3l-2.3-2.2h-8.2l-2.3 2.2v8.3z"/><path class="st2" d="M-239.6 400l4.6 4.6 1.8 4.1-2.3 2.3-4.1-1.9-4.6-4.5-1.8-4.2 2.3-2.2z"/><path class="st3" d="M-244.2 404.6l4.6-4.6 4.1-1.8 2.3 2.2-1.8 4.2-4.6 4.5-4.1 1.9-2.3-2.3z"/><path class="st4" d="M-246 408.7l3.2-.9-.9 3.2zM-235.5 398.2l-.9 3.2 3.2-1z"/><path class="st5" d="M-246 400.4l3.2 1-.9-3.2z"/><path class="st6" d="M-235.5 411l-.9-3.2 3.2.9z"/><path class="st7" d="M-242.8 401.4h6.4v6.4h-6.4z"/><path transform="rotate(-45.001 -239.627 404.583)" class="st8" d="M-242.8 401.4h6.4v6.4h-6.4z"/><path class="st0" d="M-237.9 403h-3.4v3.1h3.4v-1.2h-1.7v-.5h2.5v1.4c0 .4-.1.7-.2.8s-.4.2-.8.2h-2.8c-.4 0-.7-.1-.8-.2-.1-.1-.2-.4-.2-.8v-2.3c0-.4.1-.7.2-.8.1-.1.4-.2.8-.2h2.8c.4 0 .7.1.8.2.1.1.2.4.2.8v.1h-.7l-.1-.6zM-230.7 407.2v.4h1.4s.1 0 .1.1c0 0 0 .1.1.1v.7s0 .1-.1.1c0 0-.1 0-.1.1H-230.9s-.1 0-.1-.1c0 0 0-.1-.1-.1v-.2l.4-.1v.2h1.3v-.4h-1.4s-.1 0-.1-.1 0-.1-.1-.1v-.4-.2s0-.1.1-.1c0 0 .1 0 .1-.1h1.3c.2 0 .3 0 .4.1.1 0 .1.2.1.3l-.4.1v-.2l-1.3-.1zM-226.1 407.2s0-.1.1-.1.1 0 .1-.1H-224.1s.1 0 .1.1 0 .1.1.1v1.4s0 .1-.1.1c0 0-.1 0-.1.1H-225.9s-.1 0-.1-.1c0 0 0-.1-.1-.1v-1.2c-.1-.1 0-.2 0-.2zm1.9 1.2v-1.1h-1.5v1.1h1.5zM-220.9 406.9h1.9v.3h-1.5v.5h.8v.4h-.8v.7h-.4v-1.9zM-215.2 408.7h-.4v-1.5h-.9v-.3h2.2v.3h-.9v1.5zM-211.9 406.9h.5l.5 1.3.5-1.3h.3l.5 1.3.5-1.3h.4l-.8 1.8h-.3l-.6-1.3-.5 1.3h-.3l-.7-1.8zM-205.2 406.9h.4l1.1 1.8h-.5l-.2-.4h-1.2l-.2.4h-.4l1-1.8zm.6 1.1l-.4-.8-.4.8h.8zM-201.1 406.9h1.6c.1 0 .3 0 .3.1.1 0 .1.1.1.3v.4c0 .1 0 .2-.1.3-.1 0-.2.1-.3.1h-.3l.9.7h-.6l-.8-.7h-.4v.7h-.4v-1.9zm.5.3v.5h1.1V407.4v-.1h-.1l-1-.1zM-196.1 406.9h1.9v.3h-1.5v.4h.9v.3h-.9v.4h1.5v.4h-2v-1.8z"/></svg>