<svg id="Layer_1" xmlns="http://www.w3.org/2000/svg" viewBox="0 0 34 42"><style>.st0{fill:#fff}.st1{fill-rule:evenodd;clip-rule:evenodd;fill:#3f3f3f}.st2{fill:#e74f4c}</style><circle class="st0" cx="16.7" cy="15.8" r="13.8"/><path class="st1" d="M21.7 12.3h-9.2v8.5h9.2v-3.4h-4.8v-1.5h6.7v3.8c0 1.1-.2 1.8-.6 2.2-.4.4-1.1.6-2.2.6h-7.6c-1.1 0-1.8-.2-2.2-.6-.4-.4-.6-1.1-.6-2.2v-6.2c0-1.1.2-1.8.6-2.2.4-.4 1.1-.6 2.2-.6h7.6c1.1 0 1.8.2 2.2.6.4.4.6 1.1.6 2.1v.3h-2v-1.4z"/><path class="st2" d="M17 0C7.6 0 0 7.5 0 16.8 0 31.5 17 42 17 42s17-10.2 17-25.2C34 7.5 26.4 0 17 0zm.1 29c-6.8 0-12.3-5.5-12.3-12.3S10.2 4.3 17.1 4.3c6.8 0 12.3 5.5 12.3 12.3S23.9 29 17.1 29z"/></svg>