<svg id="Layer_1" xmlns="http://www.w3.org/2000/svg" viewBox="0 0 441.5 374.2"><style>.st0{fill:#ebebe7}.st1{fill:#d6d6ce}.st2{fill:#b6b6ae}.st3{fill:#225875}.st4{fill:#30abd6}.st5{fill:#fff2bb}.st6{fill:#acf7f9}.st7{fill:#79bcc2}.st8{fill:#87d2d5}.st9{fill:#88d2d3}.st10{fill:#f2f1ef}.st11{fill:#ced7d8}.st12{fill:#d6e3e5}.st13{fill:#af5056}.st14{fill:#ed5f79}.st15{fill:#ab515a}.st16{fill:#fff}.st17{fill:#ccb06a}.st18{fill:#e8ce82}.st19{fill:#f9e491}.st20{fill:#f4f0d7}.st21{fill:#84d4d5}.st22{fill:#f5e9db}.st23{fill:#cb9d81}.st24{fill:#9e7258}.st25{fill:#fbbe78}.st26{fill:#ddae94}.st27{fill:#b8b9b1}.st28{fill:#e9e9e8}.st29{fill:#f2f2f2}.st30{fill:#464b49}.st31{fill:#c6cccc}.st32{fill:#3d3d3d}.st33{fill:#303030}.st34{fill:#ffd3c8}.st35{fill:#faf7e6}.st36{fill:#213454}.st37{fill:#384f70}.st38{fill:#3d3f3b}.st39{fill:#535959}.st40{fill:#87888e}.st41{fill:#4b4855}.st42{fill:#a8a8a8}.st43{fill:#e0e0e0}.st44{fill:#6bd6f2}.st45{fill:#b4cede}.st46{fill:#f12634}.st47{fill:#f33858}.st48{fill:#243f4a}.st49{fill:#38535e}.st50{fill:#ff6777}.st51{fill:#ffa796}.st52{fill:#f4575c}.st53{fill:#ffaca8}.st54{fill:#fffeff}.st55{fill:#704646}.st56{fill:#96c5df}.st57{fill:#fffffd}.st58{fill:#3b7893}.st59{fill:#f0a795}.st60{fill:#e67d6d}</style><path class="st0" d="M0 215.7l239.5 139.5 202-115.3L200 99.2z"/><path class="st1" d="M0 215.7v18l239.5 140.5v-19z"/><path class="st2" d="M239.5 374.2v-19l202-115.3v18.3z"/><path class="st3" d="M0 215.7l7.3 4.3L165 7.9s-37.8-35-101.6 42.2C12 112.1 0 215.7 0 215.7z"/><path class="st4" d="M7.3 220S27 59.9 114.2 11.2c81.4-45.4 94 93.2 94 93.2L7.3 220z"/><path class="st5" d="M121.6 57.5l27.6 15.7v35.7l-27.6-16z"/><path class="st6" d="M149.2 73.2V109l32-17V55.4l-32 17.8zm30.4 17.7L150.8 106V74.2l28.8-15.8v32.5z"/><path class="st7" d="M179.6 90.9l-28.8-16.7 28.8-15.8z"/><path class="st8" d="M150.8 74.2v31.7l28.8-15z"/><path class="st9" d="M121.6 57.5l30.6-17.8 29 15.7-32 17.8z"/><path class="st10" d="M77.6 80.4l31-17.3 21.7 11.4-31.6 18.3z"/><path class="st11" d="M77.6 80.4v4.1l21.1 13v-4.7z"/><path class="st12" d="M98.7 92.8l31.6-18.3v4.7L98.7 97.5z"/><path class="st13" d="M110.5 65l-9.2-5.1v14.3l9.2 5.5z"/><path class="st14" d="M105.6 67.7v15.2l4.9-3v-15z"/><path class="st15" d="M105.6 67.7l-9.2-5.5V77l9.2 5.9z"/><path class="st16" d="M97.8 63l3.6-1.7 7.8 4.4-3.6 2z"/><path class="st17" d="M104.7 68.4l-9.1-5v14.3l9.1 5.5z"/><path class="st18" d="M99.8 71.2v15.2l4.9-3.1V68.4z"/><path class="st19" d="M99.8 71.2l-9.1-5.5v14.7l9.1 6z"/><path class="st16" d="M92 66.5l3.7-1.7 7.8 4.3-3.7 2.1zM47.3 131.5v49.6l43.6-25.4V106l-43.6 25.5zm38.9 21.9L52 173v-39.3l34.2-20.1v39.8z"/><path class="st20" d="M79.1 117.9v31.5l7.1 4v-39.7z"/><path class="st10" d="M51.9 173.1v-8.5l27.2-15.2 7.1 4z"/><path class="st21" d="M51.9 133.8l27.2-15.9v31.5l-27.2 15.2z"/><path class="st22" d="M47.3 181.1l-2-1.6v-49.2l2 1.2zM90.9 106l-2.8-.8-42.8 25.1 2 1.2z"/><path class="st23" d="M188.2 184.5v44.2l-41.3 23.5v-45.8z"/><path class="st24" d="M146.9 252.2l-2.2-1.4v-45.6l2.2 1.3z"/><path class="st23" d="M129.2 157.5v44.3L88 222.2v-45.5z"/><path class="st24" d="M88 222.2l-2.3-1.2v-45.4l2.3 1.1z"/><path class="st25" d="M189.1 182.3l-57.6-32.8L88.2 171l60.1 34.4z"/><path class="st24" d="M148.3 207.3v-1.9l-59.9-34.3v1.7z"/><path class="st26" d="M148.3 207.3v-1.9l40.8-23.1v1.8z"/><path class="st27" d="M177.9 187.8s.1.2.1.5c0 .5-.4.7-.4.7l-4.1 2.1s-.7.3-1.2.3-.7-.1-1.3-.4-1.9-.9-1.9-.9-.6-.2-.4-1c-.1-.8 9.2-1.3 9.2-1.3z"/><path class="st28" d="M177 187.3l-1.7-.9s-.7-.5-1.7 0-4.7 2.2-4.7 2.2-1 .6.3 1.2 2.1 1 2.1 1 .6.4 2.1-.2c1.6-.6 4-1.9 4-1.9s1.5-.7-.4-1.4z"/><path class="st29" d="M131.8 194.5l14.2-9.1-28.5-15.5-14 8.9z"/><path class="st30" d="M131.8 194.5v.7l13.1-8.5s.2 1.1.9 1c.9-.1 1-.7 1-1.3 0-.6-.3-1-1-.8-.7.2-14 8.9-14 8.9z"/><path class="st31" d="M145 200.9s.6 1.3 2.6 1c2-.2 6.3-3.3 6.3-3.3s1-1 .7-1.7c-.2-.7-9.6 4-9.6 4z"/><path class="st29" d="M145 200.9c1 .7 2 1.1 3.8.2 1.8-.9 2.8-2.2 4-3s2.4-1 1.5-1.8c-.9-.9-2.8-2.4-4.8-1.4-1.9 1-8.1 3.7-4.5 6z"/><path class="st32" d="M131.4 235.7c2.3-.5 3.8-2.7 3.3-5l-4.6-22.7c-.5-2.3-2.7-3.8-5-3.3s-3.8 2.7-3.3 5l4.6 22.7c.4 2.3 2.7 3.8 5 3.3z"/><ellipse transform="rotate(165.766 134.138 233.5)" class="st33" cx="134.1" cy="233.5" rx="6.6" ry="3.8"/><path class="st25" d="M131.6 220.6l-25.7-15.2-31.6 13.3 34 15.3z"/><path class="st23" d="M103.3 241.1V262l6.6-3.7v-21z"/><path class="st24" d="M98.9 259.4v-21.8l4.4 3.2V262z"/><path class="st23" d="M125 228.5v21.2l6.6-3.8v-21z"/><path class="st24" d="M120.6 247.2v-19.8l4.4 1.1v21.2z"/><path class="st23" d="M78.9 223.4v24.5l6.2-3.6v-16.5z"/><path class="st24" d="M78.9 247.9l-4.5-2.6v-25.1l4.5 3.2z"/><path class="st33" d="M94.7 222.1l25-6.1c3.7-.9 6.1-4.7 5.1-8.4-.9-3.7-4.7-6.1-8.4-5.1l-25 6.1c-3.7.9-6.1 4.7-5.1 8.4.9 3.7 4.7 6 8.4 5.1z"/><path class="st32" d="M103.4 228.8l23.3-10.9c3.5-1.6 5-5.8 3.4-9.3-1.6-3.5-5.8-5-9.3-3.4l-23.3 10.9c-3.5 1.6-5 5.8-3.4 9.3 1.7 3.5 5.9 5.1 9.3 3.4z"/><path class="st34" d="M103.9 170.5s1.9-1.5 3.6-2 2.7 0 2.7 0-1.4.8-2.2 1.7-1 1.8-.6 1.8c.4-.1 1.7-.4 2.1-.2.4.2 0 1-.9 1.6-1.2.9-1.6.2-1.6.2s-2.4-2.3-3.1-3.1z"/><path class="st35" d="M106.4 172.7s-2.7-3.8-9.4-5.1c-6.7-1.3-8.6-.5-8.6-.5s-2.2 5.2 7.4 7.4c9.5 2.3 10.6-1.8 10.6-1.8z"/><path class="st36" d="M88.3 167.1s1.8 4 6.7 5.6c5 1.6 11.3 0 11.3 0s2.7 1.3 3.2 16.3c.5 14.9 1.2 26.9-1.9 32.4-3.2 5.5-9.6 12-20.2 1.9s-3.9-32-3.9-32l-.3-13.3s-.9-9.6 5.1-10.9z"/><path class="st37" d="M117.6 199.3c2-1.3 2.6-4 1.3-6l-10-15.5c-1.3-2-4-2.6-6-1.3s-2.6 4-1.3 6l10 15.5c1.3 2 4 2.6 6 1.3z"/><path class="st34" d="M131.6 196.9s3.4-1 5.6-2.2c2.2-1.2 1.3-3.7.9-4.1s-1.2 1.6-2.5 1.6-2.3-1.4-4.6-.4c-2.2 1.1.6 5.1.6 5.1z"/><path class="st37" d="M117.2 191.8c3.9 1.7 5.7.7 13.6 0h.2c.2 1.2.6 3.2.6 5-.5.3-1.1.7-1.9 1-11.9 5.3-17 1.3-17 1.3s.6-9 4.5-7.3z"/><path class="st34" d="M107.8 150.8s1.1 2.5 1.1 7.7c0 5.1.6 8.3-2.5 9.3s-4.6 0-4.6 0l.3 1.7s-1.7-.9-3.5-1.4c-2.2-.6-5.9-1-5.9-1l.2-1.8s6-9.7 8.3-11.1c2.3-1.5 6.6-3.4 6.6-3.4z"/><path class="st24" d="M103.3 199.7v41.4l-28.8-14v-44.3z"/><path class="st25" d="M103.3 199.7l-28.8-16.9 4.9-2.8 28.9 16.9z"/><path class="st23" d="M108.3 196.9l-5 2.8v41.4l28.3-16.2v-4.3L108.3 234z"/><path class="st36" d="M108.7 155.3s1.1-1.3 1-4.8c-.1-2.9-2.4-6.4-7.2-7.1-4.8-.7-9.7.5-12.6 5.3-2.9 4.8-2 10.9.8 14.5s5.9 4 8.6 4.1c2.7.1 2.8-3.6 2.8-3.6s-3.2-.8-3.2-2.9 1.3-2.4 2.6-1.9 1.5 2.2 1.5 2.2v-5.8s1.4-.6 2.4-1.5c1-.8 2.5-2.6 2.5-2.6s.5 1.1.8 4.1z"/><g><path class="st38" d="M162.1 149.4l-41.8-24.1c-.5-.2-1.2.2-1.2.7v29.2c0 .7.2 3.1 2.1 3.9l38.4 22.2c1.5 1 3.5-.9 3.5-2v-28.4c0-.6-.3-1.2-1-1.5z"/><path class="st39" d="M161.2 148.8l-41.8-24.1c-.5-.2-1.2.2-1.2.7v29.1c0 .7.2 3.1 2.1 3.9l38.8 22.7c1.5 1 3 0 3-1.1v-29.7c0-.6-.2-1.2-.9-1.5z"/><path class="st40" d="M162.1 176.1l-43.1-23v1.9c0 .7.2 3.1 2.1 3.9l38.2 22.2c1.8 1 3.7-.8 3.7-2.2v-3.7l-.9.9z"/><path class="st41" d="M136.9 167.2v1.5s.1 1.3-.6 1.8c-.9.6-4.7 2.5-4.7 2.5s-1.1.7.3 1.5c.9.5 4.4 2.7 6.4 4 .3.2.5.3.7.4 0 .2.2.4.4.4s.3-.1.4-.2v-.1-.1c.1-.4.3-.6.9-1 1.1-.6 3.6-1.8 3.6-1.8s1.5-.6 1.5-2.3v-1.4l-8.9-5.2z"/><path class="st40" d="M136.2 166.8v1.5s.1 1.3-.6 1.8c-.9.6-4.7 2.5-4.7 2.5s-1.1.7.3 1.5c1.3.8 8 4.9 8 4.9s-.1-1 1-1.6 3.6-1.8 3.6-1.8 1.5-.6 1.5-2.3v-1.4l-9.1-5.1z"/><path class="st42" d="M118.2 152.1v2.4c0 .7.2 3.1 2.1 3.9l38.8 22.7c1.5 1 3 0 3-1.1v-3l-43.9-24.9z"/><path class="st43" d="M119.9 127.1v23.7l40.3 23.1v-23.8z"/></g><path class="st4" d="M155 179.4c.8-3 2.5-5.1 4.4-6.1v-1.9c0-1.4 1.1-2.5 2.5-2.5s2.5 1.1 2.5 2.5V173.6c1.1.6 2.3 1.7 3.4 3.5 2.6 4.4 1.7 7-1.5 8.6-3.2 1.5-7.6.7-9.2 0-1.5-.7-3.2-2.2-2.1-6.3z"/><path class="st44" d="M155 179.5c.8-3 2.5-5.1 4.4-6.1v-1.9c0-1.4 1.1-2.5 2.5-2.5.5 0 1 .2 1.4.4-1.3.1-2.4 1.2-2.4 2.5v1.9c-1.9 1-3.6 3.1-4.4 6.1-1.1 4.1.6 5.6 2.1 6.3.1 0 .2.1.2.1-.7-.2-1.3-.3-1.7-.5-1.5-.7-3.2-2.3-2.1-6.3z"/><path class="st45" d="M172.7 188.8h.5v-21.9c0-2.1-.9-3.6-2.5-4-1.8-.5-3.3-.1-5.2.6-1.9.6-3.1 1.7-3.6 3.2-.5 1.4-.4 3.2-.4 3.3h.5s-.1-1.8.4-3.1c.4-1.3 1.5-2.3 3.2-2.9 1.7-.6 3.2-1 4.9-.6 1.8.5 2.1 2.4 2.1 3.5v21.9z"/><path class="st16" d="M173 188.8h.5v-22.1c0-2.2-.9-3.7-2.6-4.2-1.9-.5-3.5-.1-5.4.6-2 .7-3.2 1.8-3.8 3.3-.5 1.5-.4 3.4-.4 3.5h.5s-.1-1.9.4-3.3c.5-1.3 1.6-2.3 3.4-3 1.8-.6 3.4-1.1 5.1-.6 1.9.5 2.2 2.5 2.2 3.6v22.2z"/><g><path class="st23" d="M275.3 233.6v44.2L234 301.3v-45.9z"/><path class="st24" d="M234 301.3l-2.2-1.4v-45.6l2.2 1.3z"/><path class="st23" d="M216.3 206.6v44.3L175 271.3v-45.5z"/><path class="st24" d="M175 271.3l-2.2-1.2v-45.5l2.2 1.2z"/><path class="st25" d="M276.2 231.4l-57.6-32.9-43.4 21.6 60.2 34.4z"/><path class="st24" d="M235.4 256.4v-1.9l-59.9-34.4v1.7z"/><path class="st26" d="M235.4 256.4v-1.9l40.8-23.1v1.8z"/><path class="st27" d="M264.9 236.9s.1.2.1.5c0 .5-.4.7-.4.7l-4.1 2.1s-.7.3-1.2.3-.7-.1-1.3-.4c-.7-.3-1.9-.9-1.9-.9s-.6-.2-.4-1c0-.8 9.2-1.3 9.2-1.3z"/><path class="st28" d="M264.1 236.4l-1.7-.9s-.7-.5-1.7 0-4.7 2.2-4.7 2.2-1 .6.3 1.2c1.4.7 2.1 1 2.1 1s.6.4 2.1-.2c1.6-.6 4-1.9 4-1.9s1.5-.7-.4-1.4z"/><path class="st29" d="M218.9 243.6l14.2-9.1-28.5-15.5-14.1 8.9z"/><path class="st30" d="M218.9 243.6v.7l13.1-8.5s.2 1.1.9 1c.9-.1 1-.7 1-1.3 0-.6-.3-1-1-.8-.7.1-14 8.9-14 8.9z"/><path class="st31" d="M232.1 250s.6 1.3 2.6 1c2-.2 6.3-3.3 6.3-3.3s1-1 .7-1.7-9.6 4-9.6 4z"/><path class="st29" d="M232.1 250c1 .7 2 1.1 3.8.2 1.8-.9 2.8-2.2 4-3 1.3-.7 2.4-1 1.5-1.8-.9-.9-2.8-2.4-4.8-1.4-1.9 1-8.2 3.6-4.5 6z"/><path class="st32" d="M218.4 284.8c2.3-.5 3.8-2.7 3.3-5l-4.6-22.7c-.5-2.3-2.7-3.8-5-3.3s-3.8 2.7-3.3 5l4.6 22.7c.5 2.3 2.7 3.8 5 3.3z"/><ellipse transform="rotate(165.766 221.228 282.581)" class="st33" cx="221.2" cy="282.6" rx="6.6" ry="3.8"/><path class="st25" d="M218.7 269.7L193 254.5l-31.6 13.2 34 15.4z"/><path class="st23" d="M190.4 290.1v21l6.6-3.7v-21.1z"/><path class="st24" d="M186 308.5v-21.8l4.4 3.2v21.2z"/><path class="st23" d="M212.1 277.6v21.2l6.6-3.8v-21.1z"/><path class="st24" d="M207.7 296.3v-19.8l4.4 1.1v21.2z"/><path class="st23" d="M166 272.5v24.4l6.2-3.5v-16.5z"/><path class="st24" d="M166 296.9l-4.5-2.5v-25.1l4.5 3.2z"/><path class="st33" d="M181.8 271.1l25-6.1c3.7-.9 6.1-4.7 5.1-8.4-.9-3.7-4.7-6.1-8.4-5.1l-25 6.1c-3.7.9-6.1 4.7-5.1 8.4.9 3.7 4.7 6.1 8.4 5.1z"/><path class="st32" d="M190.5 277.9l23.3-10.9c3.5-1.6 5-5.8 3.4-9.3-1.6-3.5-5.8-5-9.3-3.4l-23.3 10.9c-3.5 1.6-5 5.8-3.4 9.3 1.7 3.5 5.8 5 9.3 3.4z"/><path class="st34" d="M191 219.6s1.9-1.5 3.6-2c1.7-.5 2.7 0 2.7 0s-1.4.8-2.2 1.7c-.8.9-1 1.8-.6 1.8.4-.1 1.7-.4 2.1-.2.4.2 0 1-.9 1.6-1.2.9-1.6.2-1.6.2s-2.4-2.3-3.1-3.1z"/><path class="st35" d="M193.5 221.8s-2.7-3.8-9.4-5.1-8.6-.5-8.6-.5-2.2 5.2 7.4 7.4c9.5 2.3 10.6-1.8 10.6-1.8z"/><path class="st36" d="M175.4 216.2s1.8 4 6.7 5.6c5 1.6 11.3 0 11.3 0s2.7 1.3 3.2 16.3c.5 14.9 1.2 26.9-1.9 32.4s-9.6 12-20.2 1.9-3.9-32-3.9-32l-.3-13.3s-.9-9.6 5.1-10.9z"/><path class="st37" d="M204.7 248.3c2-1.3 2.6-4 1.3-6l-10-15.5c-1.3-2-4-2.6-6-1.3s-2.6 4-1.3 6l10 15.5c1.3 2.1 4 2.6 6 1.3z"/><path class="st34" d="M218.7 246s3.4-1 5.6-2.2c2.2-1.2 1.3-3.7.9-4.1s-1.2 1.6-2.5 1.6-2.3-1.4-4.6-.4.6 5.1.6 5.1z"/><path class="st37" d="M204.3 240.9c3.9 1.7 5.7.7 13.6 0h.2c.2 1.2.6 3.2.6 5-.5.3-1.1.7-1.9 1-11.9 5.3-17 1.3-17 1.3s.6-9 4.5-7.3z"/><path class="st34" d="M194.8 199.9s1.1 2.5 1.1 7.7.6 8.3-2.5 9.3c-3.1.9-4.6 0-4.6 0l.3 1.7s-1.7-.9-3.5-1.4c-2.2-.6-5.9-1-5.9-1l.2-1.8s6-9.7 8.3-11.1c2.4-1.5 6.6-3.4 6.6-3.4z"/><path class="st24" d="M190.4 248.8v41.3l-28.9-14v-44.2z"/><path class="st25" d="M190.4 248.8l-28.9-16.9 5-2.8 28.9 16.8z"/><path class="st23" d="M195.4 245.9l-5 2.9v41.3l28.3-16.2v-4.2l-23.3 13.4z"/><path class="st36" d="M195.8 204.3s1.1-1.3 1-4.8c-.1-2.9-2.4-6.4-7.2-7.1s-9.7.5-12.6 5.3-2 10.9.8 14.5 5.9 4 8.6 4.1c2.7.1 2.8-3.6 2.8-3.6s-3.2-.8-3.2-2.9 1.3-2.4 2.6-1.9 1.5 2.2 1.5 2.2v-5.8s1.4-.6 2.4-1.5 2.5-2.6 2.5-2.6.5 1.2.8 4.1z"/><path class="st38" d="M249.2 198.4l-41.8-24.1c-.5-.2-1.2.2-1.2.7v29.2c0 .7.2 3.1 2.1 3.9l38.4 22.2c1.5 1 3.5-.9 3.5-2v-28.4c-.1-.5-.3-1.1-1-1.5z"/><path class="st39" d="M248.2 197.8l-41.8-24.1c-.5-.2-1.2.2-1.2.7v29.2c0 .7.2 3.1 2.1 3.9l38.8 22.7c1.5 1 3 0 3-1.1V199.3c.1-.5-.1-1.1-.9-1.5z"/><path class="st40" d="M249.2 225.2l-43.1-23v1.9c0 .7.2 3.1 2.1 3.9l38.2 22.2c1.8 1 3.7-.8 3.7-2.2v-3.5l-.9.7z"/><path class="st41" d="M224 216.3v1.5s.1 1.3-.6 1.8c-.9.6-4.7 2.5-4.7 2.5s-1.1.7.3 1.5c.9.5 4.4 2.7 6.4 4 .3.2.5.3.7.4 0 .2.2.4.4.4s.3-.1.4-.2v-.1-.1c.1-.4.3-.6.9-1 1.1-.6 3.6-1.8 3.6-1.8s1.5-.6 1.5-2.3v-1.4l-8.9-5.2z"/><path class="st40" d="M223.3 215.9v1.5s.1 1.3-.6 1.8c-.9.6-4.7 2.5-4.7 2.5s-1.1.7.3 1.5c1.3.8 8 4.9 8 4.9s-.1-1 1-1.6 3.6-1.8 3.6-1.8 1.5-.6 1.5-2.3V221l-9.1-5.1z"/><path class="st42" d="M205.2 201.2v2.4c0 .7.2 3.1 2.1 3.9l38.8 22.7c1.5 1 3 0 3-1.1v-2.9l-43.9-25z"/><path class="st43" d="M207 176.2v23.7l40.3 23.1v-23.8z"/><path class="st46" d="M242.1 228.5c.8-3 2.5-5.1 4.4-6.1v-1.9c0-1.4 1.1-2.5 2.5-2.5s2.5 1.1 2.5 2.5V222.7c1.1.6 2.3 1.7 3.4 3.5 2.6 4.4 1.7 7-1.5 8.6-3.2 1.5-7.6.7-9.2 0-1.5-.7-3.2-2.2-2.1-6.3z"/><path class="st47" d="M242.1 228.5c.8-3 2.5-5.1 4.4-6.1v-1.9c0-1.4 1.1-2.5 2.5-2.5.5 0 1 .2 1.4.4-1.3.1-2.4 1.2-2.4 2.5v1.9c-1.9 1-3.6 3.1-4.4 6.1-1.1 4.1.6 5.6 2.1 6.3.1 0 .2.1.2.1-.7-.2-1.3-.3-1.7-.5-1.5-.6-3.2-2.2-2.1-6.3z"/><path class="st45" d="M259.8 237.9h.5V216c0-2.1-.9-3.6-2.5-4-1.8-.5-3.3-.1-5.2.6-1.9.6-3.1 1.7-3.6 3.2-.5 1.4-.4 3.2-.4 3.3h.5s-.1-1.8.4-3.1c.4-1.3 1.5-2.3 3.2-2.9 1.7-.6 3.2-1 4.9-.6 1.8.5 2.1 2.4 2.1 3.5v21.9z"/><path class="st16" d="M260.1 237.9h.5v-22.1c0-2.2-.9-3.7-2.6-4.2-1.9-.5-3.5-.1-5.4.6-2 .7-3.2 1.8-3.8 3.3-.5 1.5-.4 3.4-.4 3.5h.5s-.1-1.9.4-3.3c.5-1.3 1.6-2.3 3.4-3 1.8-.6 3.4-1.1 5.1-.6 1.9.5 2.2 2.5 2.2 3.6v22.2z"/></g><path class="st48" d="M333.9 292.4s-.7 3.7.4 5.5c1.1 1.8 3.2 1.7 5.6 2.2 2.4.5 5.8 1.1 7.2 0 1.4-1.1 2-2.8.4-4.7-1.6-1.9-6.1-4.5-6.1-4.5l-7.5 1.5z"/><path class="st34" d="M355.1 244.1s1.5 1.7 4 2.9 4.6.7 5.8.2c1.2-.5 1.5-1.7 0-1.9-1.5-.2-3.5-1.3-3.8-1.9s.2-1 1.1-.9c.9.1 1.9-.1 1.9-.7s-1-.9-2.6-1c-1.6 0-3.3-.8-3.3-.8s-2.1-.3-3 .8c-.8 1.2-.1 3.3-.1 3.3z"/><path class="st49" d="M319.1 291.4s2.3 1.7 4.1 5.6c1.8 3.8-1.9 5.6-5.3 4.7-3.5-.9-9.3-6.8-7.2-9.9 2-3.2 8.4-.4 8.4-.4z"/><path class="st24" d="M338.5 243.6s1.5 5.3 2.1 13.5c.5 8.1.1 11.5.7 16 .5 4.5.7 16.8.7 16.8s.4 1.3-.7 2.1-3.4 1.2-4.8 1.2-2.4.2-2.8-1.5c-.4-1.8-1.1-8.1-1.6-11.5s-1-6.2-1.3-10.3c-.3-4.2-1.9-11-1.9-11s1.1 4-1.1 11.7c-2.1 7.7-4.2 13.9-5.6 17-1.4 3.2-1.2 4.7-4.1 5s-7.3-.9-7.3-.9 6.4-12.4 6.6-19.1c.2-6.6-3.3-13-2.6-16.9.7-3.8 23.7-12.1 23.7-12.1z"/><path class="st4" d="M314.6 216.3s1.8-2.6 4.7-4.4c3-1.8 4.4-2 4.4-2s1.9 3.8 5.2 4.1c3.4.2 3.9-3.1 3.9-3.1s2.4-2.5 4.7-.9c2.3 1.5 3.3 3 4.6 7 1.3 4.1 2.6 10.8 2.6 10.8l13.4 12.3s-1.4.1-2.6 1.6c-1.1 1.4-.6 2.5-.6 2.5L340 231.5s.3 9.2-.4 10.6c-.7 1.4-2.4 3-4.3 4.3-1.9 1.3-12.1 4.6-15.7 2.8-3.6-1.9-5-32.9-5-32.9z"/><path class="st50" d="M331.3 241.3s.1-.4-.9-1c-1-.5-17.7-10.6-17.7-10.6s-3.5.6-4 2.7c-.6 2.1 18.4 10.7 18.4 10.7l4.2-1.8z"/><path class="st51" d="M308.7 232.5l18 10.3v20.1l-18-10.4z"/><path class="st34" d="M314.7 257.1s.8-2.1 2.8-2.3 1.8-.3 1.8-.3.9 2.3.8 3.2c-.1.9.4 1.7.9 1.8.5 0 2.3.3 2.6 1.9.2 1.6-.6 1.9-1.7 1.9-1.1-.1-3.3.1-4.9-1.9-1.7-2.2-2.3-4.3-2.3-4.3z"/><path class="st8" d="M316.7 215.8c3.1.8 4.5 3.7 3.5 6.8s-4.8 13.9-4.8 13.9 1.1 6.5 1.9 10.3c.8 3.8 2.1 7.9 2.1 7.9s-.9-.3-2.8.8-1.8 1.6-1.8 1.6-7.5-14.8-5.8-23.2 2.2-19.5 7.7-18.1z"/><path class="st16" d="M327.5 262l3.1-1.7v-18.9s-.8-.6-2.3.5c-1.5 1-1.2 3-1.2 3l.4 17.1z"/><path class="st52" d="M330.7 259.8v1.1l.7-.4v-19.2s-.4-.7-2-.2c-2 .6-2.6 1.7-2.6 1.7v20.1l.9-.4v-19.4s.4-.7 1.7-1.2c1-.4 1.3 0 1.3 0v17.9z"/><path class="st53" d="M330.3 214.2l1.4-.5c1.4-.5 1.1-2.6 1.1-2.6s-.8 1.1-3.2 1-4.7-2.1-4.8-2.1-1-.1-1-.1.1 2.5.7 3 5.8 1.3 5.8 1.3z"/><path class="st54" d="M320.9 211s-.5-.5-.4-1.3c.2-.8.9-1.4.9-1.4s1.2 1 1.8 1.4c.6.4.5.3.5.3s2 2.5 3.3 3.2 2.9.8 3.7.6c.4-.2 1.4-.8 1.6-1.6.2-.6.3-1 .5-1.3.1-.2.4-.4.8-.6.3-.2.5-.3.5-.3s1.2 2.4 1.4 4.2.2 3.1.2 3.1l-4.8-3.3s-.4 3-.7 4.3c-.3 1.3-.7 1.8-.7 1.8l-8.6-9.1z"/><path class="st34" d="M325.8 210.7s1.6 1.5 3.8 1.5c2.2 0 3.2-.3 3.2-.3s6.4-.8 5.7-13.6c-.7-12-16.2 2.1-16.2 2.1l3.5 10.3z"/><path class="st55" d="M326.3 211v-2.7s-.3-1.5-.8-1.6c-.5-.1-1.2-.4-1.2-2.2s.8-3 1.7-2.4c.9.6 1.5 1.8 1.5 1.8l.3-2.7s1.9.7 3.6 0c1.7-.7 2.6-3.3 2.6-3.3s.5.5 1.7.3 1.6-1.4 1.6-1.4 1.1.7 1.2 1.5 0 1.5 0 1.5 1.7-3.4-.7-7-6.1-4.9-10.7-4.1-8.3 2.7-8.3 9c.1 6.3-.9 10.2 7.5 13.3z"/><g><path class="st56" d="M354.2 209.9l1.2 10.4s.7 5.9 9 5.9 9-5.8 9-5.8l1.3-11-20.5.5z"/><ellipse class="st57" cx="364.5" cy="209.6" rx="10.3" ry="5.8"/><ellipse class="st3" cx="364.5" cy="209.4" rx="9" ry="4.9"/><path class="st58" d="M365.3 188.8h-1.6v21.1c0 .4.4.8.8.8s.8-.4.8-.8v-21.1z"/><ellipse class="st59" cx="364.2" cy="176.8" rx="15.5" ry="13.4"/><path class="st60" d="M364.2 182.9c-7.1 0-13-4.1-14.9-9.8-.4 1.2-.6 2.4-.6 3.7 0 7.4 6.9 13.4 15.5 13.4 8.5 0 15.5-6 15.5-13.4 0-1.3-.2-2.5-.6-3.7-1.9 5.6-7.8 9.8-14.9 9.8z"/></g><g><path class="st56" d="M398.6 231.5l1.2 10.4s.7 5.9 9 5.9 9-5.8 9-5.8l1.3-11-20.5.5z"/><ellipse class="st57" cx="408.9" cy="231.2" rx="10.3" ry="5.8"/><ellipse class="st3" cx="408.9" cy="231" rx="9" ry="4.9"/><path class="st58" d="M409.7 210.4h-1.6v21.1c0 .4.4.8.8.8s.8-.4.8-.8v-21.1z"/><ellipse class="st59" cx="408.6" cy="198.4" rx="15.5" ry="13.4"/><path class="st60" d="M408.6 204.5c-7.1 0-13-4.1-14.9-9.8-.4 1.2-.6 2.4-.6 3.7 0 7.4 6.9 13.4 15.5 13.4s15.5-6 15.5-13.4c0-1.3-.2-2.5-.6-3.7-1.9 5.7-7.9 9.8-14.9 9.8z"/></g></svg>