<svg id="Layer_1" xmlns="http://www.w3.org/2000/svg" viewBox="0 0 553.3 576.5"><style>.st0{fill:#b6b6ae}.st1{fill:#d6d6ce}.st2{fill:#ebebe7}.st3{fill:#f4f1ec}.st4{fill:#f48691}.st5{fill:#f2f1ef}.st6{fill:#af5056}.st7{fill:#ed5f79}.st8{fill:#ab515a}.st9{fill:#fff}.st10{fill:#ccb06a}.st11{fill:#e8ce82}.st12{fill:#f9e491}.st13{fill:#ced7d8}.st14{fill:#d6e3e5}.st15{fill:#f4f0d7}.st16{fill:#84d4d5}.st17{fill:#f5e9db}.st18{fill:#fff2bb}.st19{fill:#225875}.st20{fill:#ffb6ba}.st21{fill:#f69294}.st22{fill:#acf7f9}.st23{fill:#79bcc2}.st24{fill:#87d2d5}.st25{fill:#88d2d3}.st26{fill:#34373d}.st27{fill:#545454}.st28{fill:#282828}.st29{fill:#414449}.st30{fill:#dddcd7}.st31{fill:#f3f3f3}.st32{fill:#cfcfcf}.st33{fill:#aaa}.st34{fill:#b9b9b9}.st35{fill:#aaacaf}.st36{fill:#b2dc7f}.st37{fill:#fdd8ae}.st38{fill:#fbbe78}.st39{fill:#cb9d81}.st40{fill:#9e7258}.st41{fill:#c6c6c4}.st42{fill:#c9d3d3}.st43{fill:#464b49}.st44{fill:#fce1c8}.st45{fill:#fd4b50}.st46{fill:#fbdfcb}.st47{fill:#ff7675}.st48{fill:#e8eef4}.st49{fill:#f7dac5}.st50{fill:#232323}.st51{fill:#30332c}.st52{fill:#ffe0cb}.st53{fill:#3d3f3b}.st54{fill:#535959}.st55{fill:#87888e}.st56{fill:#4b4855}.st57{fill:#a8a8a8}.st58{fill:#e0e0e0}.st59{fill:#7f594a}.st60{fill:#eaab6c}.st61{fill:#704646}.st62{fill:#e2e5e8}.st63{fill:#ffd3c8}.st64{fill:#0a1015}.st65{fill:#e3e9f0}.st66{fill:#ffc1c1}.st67{fill:#213454}.st68{fill:#fcffff}.st69{fill:#578bb8}.st70{fill:#0776b6}.st71{fill:#96c5df}.st72{fill:#fffffd}.st73{fill:#3b7893}.st74{fill:#f0a795}.st75{fill:#e67d6d}</style><path class="st0" d="M304.8 576.5V557l248.5-142.5v17z"/><path class="st1" d="M304.8 576.5V557L0 379v18z"/><path class="st2" d="M304.8 557.8l248.5-142.5-307-179L0 379.8z"/><path class="st2" d="M.9 135.8v243.4l7.6 4.6V140.5z"/><path class="st3" d="M8.5 140.5L253.4 0h-13.2L.9 135.8z"/><path class="st4" d="M8.5 383.8l244.9-144.1V0L8.5 140.5z"/><path class="st5" d="M88.9 258l31-17.3 21.7 11.5-31.6 18.2z"/><path class="st6" d="M129 238.3l-9.1-5v14.3l9.1 5.4z"/><path class="st7" d="M124.1 241.1v15.2l4.9-3.1v-14.9z"/><path class="st8" d="M124.1 241.1l-9.1-5.6v14.8l9.1 6z"/><path class="st9" d="M116.3 236.3l3.7-1.6 7.8 4.3-3.7 2.1z"/><path class="st10" d="M123.3 241.8l-9.2-5v14.3l9.2 5.5z"/><path class="st11" d="M118.4 244.5v15.3l4.9-3.1v-14.9z"/><path class="st12" d="M118.4 244.5l-9.1-5.5v14.8l9.1 6z"/><path class="st9" d="M110.6 239.8l3.7-1.7 7.7 4.4-3.6 2z"/><path class="st13" d="M88.9 258v4.2l21.1 13v-4.8z"/><path class="st14" d="M110 270.4l31.6-18.2v4.6L110 275.2z"/><path class="st9" d="M31.2 191.6v62.5l55-32v-62.7l-55 32.2zm49 27.6L37 243.9v-49.5l43.2-25.3v50.1z"/><path class="st15" d="M71.2 174.3v39.8l9 5.1v-50.1z"/><path class="st6" d="M117.5 245.8l-9.2-5v14.3l9.2 5.5z"/><path class="st5" d="M37 243.9v-10.7l34.2-19.1 9 5.1z"/><path class="st16" d="M37 194.4l34.2-20.1v39.8L37 233.2z"/><path class="st17" d="M31.2 254.1l-2.5-2.1v-62.1l2.5 1.7zM86.2 159.4l-3.6-1-53.9 31.5 2.5 1.7z"/><path class="st5" d="M134.3 232.2l30.9-17.3 21.7 11.4-31.5 18.3z"/><path class="st13" d="M134.3 232.2v4.1l21.1 13v-4.7z"/><path class="st14" d="M155.4 244.6l31.5-18.3v4.7l-31.5 18.3z"/><path class="st9" d="M103.2 187l-1.6-.3v-18.4l14-8.3h2.3z"/><path class="st13" d="M103.2 168.5l14.7-8.5v17.5l-14.7 9.5z"/><path class="st9" d="M107.5 161.9l-1.2-.2v-13.1l9.9-5.8h1.7z"/><path class="st16" d="M107.5 148.8l10.4-6v12.4l-10.4 6.7z"/><path class="st7" d="M112.6 248.6v15.2l4.9-3.1v-14.9z"/><path class="st8" d="M112.6 248.6l-9.2-5.5v14.7l9.2 6z"/><path class="st9" d="M104.8 243.8l3.6-1.6 7.8 4.3-3.6 2.1z"/><path class="st10" d="M111.7 249.3l-9.1-5v14.3l9.1 5.5z"/><path class="st9" d="M143.2 141.7l-1.1-.2v-13.1l9.9-5.8h1.6z"/><path class="st18" d="M143.2 128.6l10.4-6v12.3l-10.4 6.8z"/><path class="st9" d="M123.7 182.1l-1.8-.3v-26.2l19.9-11.2h2.4z"/><path class="st19" d="M123.7 156.2l20.5-11.8v24.4l-20.5 13.3z"/><path class="st20" d="M123.5 152.9l-1.6-.3v-22.4l17-9.7h2.1z"/><path class="st21" d="M123.5 130.7l17.5-10.2v22.4l-17.5 10z"/><path class="st11" d="M106.8 252v15.3l4.9-3.1v-14.9z"/><path class="st12" d="M106.8 252l-9.1-5.5v14.8l9.1 6z"/><path class="st9" d="M99 247.3l3.7-1.7 7.8 4.4-3.7 2z"/><path class="st18" d="M153.6 153.4l27.6 15.7v35.7l-27.6-16z"/><path class="st22" d="M181.2 169.1v35.8l32-17v-36.5l-32 17.7zm30.4 17.7l-28.8 15.1v-31.8l28.8-15.8v32.5z"/><path class="st23" d="M211.6 186.8l-28.8-16.7 28.8-15.8z"/><path class="st24" d="M182.8 170.1v31.7l28.8-15z"/><path class="st25" d="M153.6 153.4l30.6-17.8 29 15.7-32 17.8z"/><path class="st26" d="M156.6 420.4l-.2 1.5s-.4 1.7 2.9 2.5c3.3.7 5.2-.9 5.1-2.3-.1-1.5-7.8-1.7-7.8-1.7z"/><path class="st27" d="M157.1 417s-.3 1.5-.4 2.5c-.1 1-.3 3.1 3 3.7 3.3.6 4.3-1.1 6.4-1.1 2.1 0 4.6.7 8.2-.1 3.9-.9 5.4-1.7 4.9-3.9s-6.6-1.8-8.1-2.1c-1.5-.2-1.8-.3-1.8-.3s-5 2.9-12.2 1.3z"/><path class="st28" d="M151.8 385.4l.2-9.2s3.1-2.7 8.4-1.7c5.3 1 6.1 4.2 5.6 8.5-.4 4.3 1 35.5 1 35.5s-5.9-.2-9.9 0c-3.9.1-5.3-33.1-5.3-33.1z"/><path class="st29" d="M133.2 395.3s.2 5.7 14.8 5.7 17.9-6.8 17.9-6.8l-2.9 26.9s1 1.5 6.4 1.5c5.3 0 6.1-2.9 6.2-5 .1-2.1 1.8-27.5 1.8-27.5s1.2-5.3-3.7-7.8c-4.9-2.6-10.9 1-15.2 1.8-4.3.8-6.7 1.3-6.7 1.3l-18.6 9.9z"/><path class="st26" d="M162.4 424.5l-.2 1.5s-.4 1.7 2.9 2.5c3.3.7 5.2-.9 5.1-2.3-.1-1.4-7.8-1.7-7.8-1.7zM171.1 425.9s1.8 1.4 7.4.9c5.6-.5 6.7-2.2 6.6-3.6s-14 2.7-14 2.7z"/><path class="st27" d="M162.9 421.1s-.3 1.5-.4 2.5-.3 3.1 3 3.7c3.3.6 4.3-1.1 6.4-1.1s4.6.7 8.2-.1c3.9-.9 5.4-1.7 4.9-3.9s-6.6-1.8-8.1-2.1-1.8-.3-1.8-.3-4.9 2.9-12.2 1.3z"/><ellipse transform="rotate(30.532 213.558 395.143)" class="st30" cx="213.6" cy="395.1" rx="4.4" ry="7.5"/><path class="st31" d="M350.5 443.2l-11.7-6.9-33.4 19.4v30.8l12.8 7.5v-32.6zM218.3 389.2l-11.7-6.9-33.4 19.5v30.8l12.7 7.5v-32.6z"/><path class="st32" d="M185.9 440.1v-32.6l32.4-18.3v32z"/><path class="st33" d="M185.4 412.1v-2.2l-11.7-6.5v2.3zM185.4 416.1v-2.2l-11.7-6.5v2.3z"/><path class="st32" d="M185.4 422.7v-2.8l-11.7-6.5v2.9zM185.4 427.3v-2.7l-11.7-6.6v3z"/><path class="st34" d="M185.4 437v-2.7l-11.7-6.6v3z"/><ellipse transform="rotate(-43.675 178.657 427.195)" class="st35" cx="178.7" cy="427.2" rx="1.5" ry="2.3"/><ellipse transform="rotate(-43.675 178.657 427.195)" class="st36" cx="178.7" cy="427.2" rx=".8" ry="1.6"/><path class="st37" d="M366.2 414.2L184.8 308.7l-64.5 37.5L301.2 452z"/><path class="st38" d="M302.1 455.8v52.5l-6.4-3.7v-52.2z"/><path class="st39" d="M301.2 452v4.3l65-37.9v-4.2z"/><path class="st38" d="M301.2 456.3V452L120.3 346.2v4.8z"/><path class="st40" d="M302.1 508.3l2.3-1.3v-50.7l57.9-33.7v50.5l2.2-1.3v-52.3l-62.4 36.3z"/><path class="st38" d="M356.6 425.9v44l5.7 3.2v-50.5z"/><path class="st39" d="M366.2 414.2v-36.6l-179-103.3h-1.5l.7 35.3z"/><path class="st38" d="M365.5 413.8V378L185.7 274.3v34.9z"/><path class="st39" d="M363.2 412.5v-32.9L187.8 278.5v32z"/><path class="st40" d="M365.5 378l.7-.4v36.6l-.7-.4z"/><path class="st41" d="M318.2 494v-32.6l32.3-18.2v32z"/><ellipse transform="rotate(30.532 343.364 457.316)" class="st30" cx="343.4" cy="457.3" rx="4.4" ry="7.5"/><path class="st33" d="M317.6 466v-2.1l-11.7-6.6v2.4zM317.6 470v-2.1l-11.7-6.6v2.3z"/><path class="st32" d="M317.6 476.6v-2.7l-11.7-6.6v3zM317.6 481.2v-2.7l-11.7-6.5v2.9z"/><path class="st34" d="M317.6 491v-2.8l-11.7-6.5v2.9z"/><ellipse transform="rotate(-43.675 310.875 481.131)" class="st35" cx="310.9" cy="481.1" rx="1.5" ry="2.3"/><ellipse transform="rotate(-43.675 310.875 481.131)" class="st36" cx="310.9" cy="481.1" rx=".8" ry="1.6"/><path class="st38" d="M188.4 390.7c.2.1 0 50.9 0 50.9l6.2 3.8v-51.1l-6.2-3.6z"/><path class="st40" d="M196.9 395.6v48.5l-2.3 1.3v-51.1z"/><path class="st38" d="M252 347.9l-2.6-1.5v-33.2h2.6zM301.5 376.6l-2.6-1.5v-33.2h2.6z"/><path class="st42" d="M286.4 432.7l15.3-9.8-30.9-16.7-15.1 9.6z"/><path class="st43" d="M286.4 432.7v.7l14.1-9.2s.2 1.2 1 1.1c1-.1 1-.8 1-1.4 0-.6-.4-1.1-1.1-.9-.7.3-15 9.7-15 9.7z"/><path class="st26" d="M263.3 484.7l-.2 1.5s-.4 1.7 2.9 2.5c3.3.7 5.2-.9 5.1-2.3s-7.8-1.7-7.8-1.7z"/><path class="st27" d="M263.8 481.2s-.3 1.5-.4 2.5c-.1 1-.3 3.1 3 3.7 3.3.6 4.3-1.1 6.4-1.1 2.1 0 4.6.7 8.2-.1 3.9-.9 5.4-1.7 4.9-3.9s-6.6-1.8-8.1-2.1c-1.5-.2-1.8-.3-1.8-.3s-4.9 3-12.2 1.3z"/><path class="st28" d="M258.5 449.6l.2-9.2s3.1-2.7 8.4-1.7 6.1 4.2 5.6 8.5c-.4 4.3 1 35.5 1 35.5s-5.9-.2-9.9 0-5.3-33.1-5.3-33.1z"/><path class="st38" d="M269.2 461.5l-28.3-16.7-34.7 14.6 37.3 16.8z"/><path class="st40" d="M237.7 484v23l7.3-4v-23.1z"/><path class="st44" d="M195.1 390.1l65.5-37.3 33.3 19.3-64.7 37.8z"/><path class="st39" d="M232.8 504.2v-23.9l4.9 3.4V507z"/><path class="st40" d="M261.5 470.3v23.2l7.3-4.1v-23.2z"/><path class="st39" d="M256.7 490.8V469l4.8 1.3v23.2z"/><path class="st40" d="M210.9 464.6v26.9l6.9-3.9v-18.1z"/><path class="st39" d="M210.9 491.5l-4.9-2.8v-27.5l4.9 3.4z"/><path class="st45" d="M259.5 420.5l7.9-1s1.2.6 1.5 2.3 0 2.9 0 2.9l-5.1 1.7s-1.7-2.2-4.3-5.9z"/><path class="st46" d="M267.4 419.5s5.8-1.3 8.2-1c2.5.3 4.7 1.4 5.8 2.1 1.1.7 1 1.9.2 1.7-.8-.2-1.8-1-2.8-1.4-1-.4-2.9-.7-3-.3s0 1.2 1.4 1.6c1.4.5 2.6 1.2 2.4 1.8-.2.7-1.8.6-4-.2s-2.7-.1-4.2-.5c-1-.3-2.3-.1-2.3-.1s.3-2.4-1.7-3.7z"/><path class="st47" d="M245.9 409.3s-3.4-1.5-5.6.6c-2.2 2.1-2 6.1-2 6.1l7.6-6.7z"/><path class="st48" d="M255.9 416s-.4-4.8-5.1-7.6c-4.4-2.7-5.6-2.2-6-1.4-.5.7-.4 1.9 0 2 .4.1 5.7 1.3 11.1 7z"/><path class="st49" d="M246.3 406.4l.1-2.9s12.2-8.5 14.2-8.9c2.1-.4 2.2.7 2.2.7s-2.1 8.8-2.7 10.7c-.6 1.9-1.1 3.7-3 3.9-1.9.2-2.9-.9-3.3-.9-.4.1-.1 1.8-.1 1.8s-2.2-3-7.2-4.5"/><path class="st50" d="M263.9 394.2s-2.2 1.8-2.7 3.1c-.4 1.3-.7 4.9-1.8 4.6-1.1-.3-1-1.8-.3-3.4.7-1.6.6-1.9-.2-2.1-.8-.2-2.6.9-3.4 3.7s-2.1 6-4.8 5.8c-2.8-.2-5.1-1.6-6.2-7-1.2-5.4-1-9.4 1.8-12.3 2.9-2.9 8.1-3.7 12.3-1.6 4.2 2.1 6.1 4 6.5 5.3.6 1.7-.1 2.8-1.2 3.9z"/><path class="st51" d="M290.9 442s.7 1.4 2.9 1.1c2.2-.3 6.8-3.6 6.8-3.6s1.1-1.1.8-1.8c-.4-.7-10.5 4.3-10.5 4.3z"/><path class="st29" d="M239.9 459.6s.2 5.7 14.8 5.7 17.9-6.8 17.9-6.8l-2.9 26.9s1 1.5 6.4 1.5 6.1-2.9 6.2-5c.1-2.1 1.8-27.5 1.8-27.5s1.2-5.3-3.7-7.8c-4.9-2.6-10.9 1-15.2 1.8-4.3.8-6.7 1.3-6.7 1.3l-18.6 9.9z"/><path class="st26" d="M269.2 488.8l-.2 1.5s-.4 1.7 2.9 2.5c3.3.7 5.2-.9 5.1-2.3-.1-1.5-7.8-1.7-7.8-1.7zM277.8 490.1s1.8 1.4 7.4.9c5.6-.5 6.7-2.2 6.6-3.6-.2-1.3-14 2.7-14 2.7z"/><path class="st27" d="M269.7 485.3s-.3 1.5-.4 2.5c-.1 1-.3 3.1 3 3.7 3.3.6 4.3-1.1 6.4-1.1 2.1 0 4.6.7 8.2-.1 3.9-.9 5.4-1.7 4.9-3.9s-6.6-1.8-8.1-2.1-1.8-.3-1.8-.3-5 3-12.2 1.3z"/><path class="st45" d="M259.1 426.4s.7-5.2-2.4-9.4c-3.1-4.2-8.8-7.6-11.7-7.9-2.9-.3-5.5 1.9-7.3 9.2-1.7 7.3-2.3 19.6-2.4 27.1-.1 7.4 2 15.2 8.7 15.8 6.6.6 10.2-1.5 12.7-5.1 2.4-3.5 2-11.2 2-13.1s.4-16.6.4-16.6z"/><path class="st29" d="M290.9 442c1.1.7 2.2 1.1 4.1.2 2-1 3-2.4 4.4-3.2 1.4-.8 2.6-1 1.6-2-1-.9-3-2.6-5.2-1.5s-8.9 4-4.9 6.5z"/><path class="st52" d="M283.1 434.4s4.5-.7 7.5 0c2.9.7 4.7 2 6 2.5 1.3.5 1 1.6 0 2.2-1 .6-3.3.8-4.9.5-1.6-.3-5-.9-7-.2s-1.6-5-1.6-5z"/><path class="st47" d="M259.5 420.5s-3-4.6-7.3-2.1c-4.3 2.5-.8 8.3 1.6 11.2 2.3 2.9 10 11.3 14.7 11.4 4.7.1 15.4-1.2 15.4-1.2s1.2.7 1.2-3.6c0-2.5-1.3-3.2-1.3-3.2s-12.7.5-14.9-1c-2.3-1.4-9.4-11.5-9.4-11.5z"/><path class="st39" d="M237.7 438.6V484L206 468.7v-48.6z"/><path class="st38" d="M237.7 438.6L206 420.1l5.4-3.1 31.8 18.5z"/><path class="st40" d="M243.2 435.5l-5.5 3.1V484l31.1-17.8v-4.6l-25.6 14.7z"/><path class="st53" d="M336.9 375.7l-41.8-24.1c-.5-.2-1.2.2-1.2.7v29.2c0 .7.2 3.1 2.1 3.9l38.4 22.2c1.5 1 3.5-.9 3.5-2v-28.4c0-.5-.3-1.1-1-1.5z"/><path class="st54" d="M336 375.2L294.1 351c-.5-.2-1.2.2-1.2.7v29.2c0 .7.2 3.1 2.1 3.9l38.8 22.7c1.5 1 3 0 3-1.1v-29.7c.2-.6-.1-1.2-.8-1.5z"/><path class="st55" d="M337 402.5l-43.1-23v1.9c0 .7.2 3.1 2.1 3.9l38.2 22.2c1.8 1 3.7-.8 3.7-2.2v-3.7l-.9.9z"/><path class="st56" d="M311.7 393.6v1.5s.1 1.3-.6 1.8c-.9.6-4.7 2.5-4.7 2.5s-1.1.7.3 1.5c.9.5 4.4 2.7 6.4 4 .3.2.5.3.7.4 0 .2.2.4.4.4s.3-.1.4-.2v-.1-.1c.1-.4.3-.6.9-1 1.1-.6 3.6-1.8 3.6-1.8s1.5-.6 1.5-2.3v-1.4l-8.9-5.2z"/><path class="st55" d="M311 393.2v1.5s.1 1.3-.6 1.8c-.9.6-4.7 2.5-4.7 2.5s-1.1.7.3 1.5c1.3.8 8 4.9 8 4.9s-.1-1 1-1.6c1.1-.6 3.6-1.8 3.6-1.8s1.5-.6 1.5-2.3v-1.4l-9.1-5.1z"/><path class="st57" d="M293 378.5v2.4c0 .7.2 3.1 2.1 3.9l38.8 22.7c1.5 1 3 0 3-1.1v-2.9l-43.9-25z"/><path class="st58" d="M294.7 353.5v23.7l40.3 23.1v-23.8z"/><path class="st42" d="M179.6 368.5l15.3-9.8-30.8-16.8-15.1 9.6z"/><path class="st43" d="M179.6 368.5v.7l14.1-9.2s.2 1.2 1 1.1c1-.1 1-.8 1-1.4 0-.6-.4-1.1-1.1-.9-.6.2-15 9.7-15 9.7z"/><path class="st38" d="M162.5 397.3l-28.3-16.7-34.7 14.5 37.3 16.9z"/><path class="st40" d="M131 419.8v23l7.3-4.1v-23.1z"/><path class="st39" d="M126.1 440v-24l4.9 3.5v23.3z"/><path class="st40" d="M154.8 406v23.3l7.3-4.1V402z"/><path class="st39" d="M149.9 426.5v-21.7l4.9 1.2v23.3z"/><path class="st40" d="M104.1 400.4v26.8l6.9-3.9v-18.1z"/><path class="st39" d="M104.1 427.2l-4.8-2.8v-27.5l4.8 3.5z"/><path class="st28" d="M152.8 356.2l7.9-1s1.2.6 1.5 2.3c.3 1.7 0 2.9 0 2.9l-5.1 1.7s-1.7-2.2-4.3-5.9z"/><path class="st46" d="M160.7 355.2s5.8-1.3 8.2-1c2.5.3 4.7 1.4 5.8 2.1 1.1.7 1 1.9.2 1.7-.8-.2-1.8-1-2.8-1.4-1-.4-2.9-.7-3-.3-.1.5 0 1.2 1.4 1.6 1.4.5 2.6 1.2 2.4 1.8-.2.7-1.8.6-4-.2s-2.7-.1-4.2-.5c-1-.3-2.3-.1-2.3-.1s.2-2.3-1.7-3.7z"/><path class="st29" d="M139.2 345.1s-3.4-1.5-5.6.6c-2.2 2.1-2 6.1-2 6.1l7.6-6.7z"/><path class="st48" d="M149.2 351.8s-.4-4.8-5.1-7.6c-4.4-2.7-5.6-2.2-6-1.4-.5.7-.4 1.9 0 2 .4 0 5.7 1.3 11.1 7z"/><path class="st49" d="M139.6 342.1l.1-2.9s12.2-8.5 14.2-8.9c2.1-.4 2.2.7 2.2.7s-2.1 8.8-2.7 10.7c-.6 1.9-1.1 3.7-3 3.9s-2.9-.9-3.3-.9c-.4.1-.1 1.8-.1 1.8s-2.2-3-7.2-4.5"/><path class="st59" d="M157.2 330s-2.2 1.8-2.7 3.1c-.4 1.3-.7 4.9-1.8 4.6-1.1-.3-1-1.8-.3-3.4.7-1.6.6-1.9-.2-2.1-.8-.2-2.6.9-3.4 3.7-.8 2.8-2.1 6-4.8 5.8-2.8-.2-5.1-1.6-6.2-7-1.2-5.4-1-9.4 1.8-12.3 2.9-2.9 8.1-3.7 12.3-1.6 4.2 2.1 6.1 4 6.5 5.3.5 1.6-.1 2.7-1.2 3.9z"/><path class="st51" d="M184.1 377.7s.7 1.4 2.9 1.1c2.2-.3 6.8-3.6 6.8-3.6s1.1-1.1.8-1.8-10.5 4.3-10.5 4.3z"/><path class="st28" d="M152.4 362.2s.7-5.2-2.4-9.4-8.8-7.6-11.7-7.9c-2.9-.3-5.5 1.9-7.3 9.2-1.7 7.3-2.3 19.6-2.4 27.1s2 15.2 8.7 15.8c6.6.6 10.2-1.5 12.7-5.1 2.4-3.5 2-11.2 2-13.1s.4-16.6.4-16.6z"/><path class="st29" d="M184.1 377.7c1.1.7 2.2 1.1 4.1.2 2-1 3-2.4 4.4-3.2 1.4-.8 2.6-1 1.6-2s-3-2.6-5.2-1.5c-2.1 1.1-8.8 4-4.9 6.5z"/><path class="st52" d="M176.3 370.2s4.5-.7 7.5 0c2.9.7 4.7 2 6 2.5 1.3.5 1 1.6 0 2.2s-3.3.8-4.9.5c-1.6-.3-5-.9-7-.2s-1.6-5-1.6-5z"/><path class="st29" d="M152.8 356.2s-3-4.6-7.3-2.1c-4.3 2.5-.8 8.3 1.6 11.2 2.3 2.9 10 11.3 14.7 11.4s15.4-1.2 15.4-1.2 1.2.7 1.2-3.6c0-2.5-1.3-3.2-1.3-3.2s-12.7.5-14.9-1c-2.3-1.3-9.4-11.5-9.4-11.5z"/><path class="st39" d="M131 374.4v45.4l-31.7-15.4v-48.6z"/><path class="st38" d="M131 374.4l-31.7-18.6 5.4-3.1 31.7 18.5z"/><path class="st40" d="M136.4 371.2l-5.4 3.2v45.4l31.1-17.8v-4.7L136.4 412z"/><g><path class="st53" d="M230.2 311.5l-41.8-24.1c-.5-.2-1.2.2-1.2.7v29.2c0 .7.2 3.1 2.1 3.9l38.4 22.2c1.5 1 3.5-.9 3.5-2V313c-.1-.5-.3-1.1-1-1.5z"/><path class="st54" d="M229.2 310.9l-41.8-24.1c-.5-.2-1.2.2-1.2.7v29.2c0 .7.2 3.1 2.1 3.9l38.8 22.7c1.5 1 3 0 3-1.1v-29.7c.1-.6-.1-1.2-.9-1.6z"/><path class="st55" d="M230.2 338.3l-43.1-23v1.9c0 .7.2 3.1 2.1 3.9l38.2 22.2c1.8 1 3.7-.8 3.7-2.2v-3.6l-.9.8z"/><path class="st56" d="M205 329.4v1.5s.1 1.3-.6 1.8c-.9.6-4.7 2.5-4.7 2.5s-1.1.7.3 1.5c.9.5 4.4 2.7 6.4 4 .3.2.5.3.7.4 0 .2.2.4.4.4s.3-.1.4-.2v-.1-.1c.1-.4.3-.6.9-1 1.1-.6 3.6-1.8 3.6-1.8s1.5-.6 1.5-2.3v-1.4l-8.9-5.2z"/><path class="st55" d="M204.3 329v1.5s.1 1.3-.6 1.8c-.9.6-4.7 2.5-4.7 2.5s-1.1.7.3 1.5c1.3.8 8 4.9 8 4.9s-.1-1 1-1.6c1.1-.6 3.6-1.8 3.6-1.8s1.5-.6 1.5-2.3v-1.4l-9.1-5.1z"/><path class="st57" d="M186.2 314.3v2.4c0 .7.2 3.1 2.1 3.9l38.8 22.7c1.5 1 3 0 3-1.1v-2.9l-43.9-25z"/><path class="st58" d="M188 289.3v23.6l40.3 23.1v-23.7z"/></g><path class="st60" d="M195.1 390.1v4.4l34.1 19.9v-4.5z"/><g><path class="st40" d="M263.1 279.9l-4.1-3v-13.4l4.1-2.2zM217.1 282.5l-4-2.4v-20.6l4 3.1z"/><path class="st39" d="M221.2 258.5v21.6l-4.1 2.4v-21.6z"/><path class="st40" d="M237.8 294.5l-4-2.4V274l4 2.8z"/><path class="st38" d="M267.2 256.9l-20.5-12-29.4 17 20.5 12.1z"/><path class="st39" d="M246.7 244.9v-31.8l-29.4 17.2V262z"/><path class="st38" d="M246.7 213.1l-4.1-2.3-29.5 17.1 4.2 2.5z"/><path class="st40" d="M217.3 230.4l-4.2-2.5v34.5l24.7 14.4V274l-20.5-12.1z"/><path class="st39" d="M267.2 256.9v3.7l-29.4 17V274z"/><path class="st39" d="M267.2 258.3v19.2l-4.1 2.4V261zM241.9 274.7v17.4l-4.1 2.4v-17.7z"/></g><g><path class="st40" d="M346.4 484.8l4-3v-13.3l-4-2.3zM392.3 487.4l4-2.3v-20.7l-4 3.1z"/><path class="st39" d="M388.2 463.5V485l4.1 2.4v-21.6z"/><path class="st40" d="M371.6 499.4l4-2.3v-18.2l-4 2.8z"/><path class="st38" d="M342.3 461.8l20.4-11.9 29.4 17-20.5 12z"/><path class="st39" d="M362.7 449.9v-31.8l29.4 17.1V467z"/><path class="st38" d="M362.7 418.1l4.1-2.4 29.5 17.2-4.2 2.4z"/><path class="st40" d="M392.1 435.3l4.2-2.4v34.5l-24.7 14.3v-2.8l20.5-12z"/><path class="st39" d="M342.3 461.8v3.8l29.3 16.9v-3.6z"/><path class="st39" d="M342.3 463.2v19.2l4.1 2.4V466zM367.5 479.6V497l4.1 2.4v-17.7z"/><path class="st61" d="M340.8 496.7s-2.7 2.4-3.9 5.2c-1.2 2.8-1.1 4.4.7 5.4 2.5 1.3 4.8-1.2 5.6-1.8s3.9-2.9 4.2-4.2-.5-1.8-.5-4.3c-.1-2.4-6.1-.3-6.1-.3zM352.6 500.6s-2.6 2.3-3.8 5c-1.1 2.7-1.1 4.2.7 5.2 2.4 1.3 4.6-1.2 5.3-1.8.7-.6 3.8-2.7 4-4 .2-1.3-.5-1.8-.5-4.2s-5.7-.2-5.7-.2z"/><path class="st62" d="M348.6 462.4s-.2.5-1.2-1.5c-1-1.9-2.2-3.6-2.2-3.6s4.2 1.3 3.4 5.1z"/><path class="st63" d="M346.3 456.6s-2.4 2-3.1 2.5c-.7.5-1.1 1.1-1.6 2.4-.5 1.3-2.7 6-1.3 7 1.4.9 2.8-.1 3.3-.7.4-.6.6-2.5 1.8-3.8 1.3-1.3 2.7-2.3 3-3.3.3-1 .7-1.4.7-1.4s-.5-1.7-2.8-2.7z"/><path class="st9" d="M354.7 429.5s0-4.7 2.9-5.8c2.9-1.1 4.4 1.3 5.2 4.3.8 3-.1 5.3-.4 9-.3 3.7-.7 10.5-2.3 13.1-1.6 2.7-11.5 12.3-11.5 12.3s.1-2.1-1.3-3.5-2.1-1.5-2.1-1.5 8-10.9 8.9-14.9c.9-4 .6-13 .6-13z"/><path class="st64" d="M358.1 457.4s-12.9 8.1-14.6 13.2-2.4 17.9-2.9 21.2c-.6 3.3-1.4 5.1 1.2 5.9s5.4 2.1 5.8-1.2 4.4-21.8 4.4-21.8l13.6-10.2-2.5-4-5-3.1z"/><path class="st64" d="M381.1 458.2s1.7 1.9 1.5 5.3c-.2 3.4-2.3 6-7.4 8.8-5 2.9-12 6.3-12.5 8.8s-2.1 10.7-2.7 14.3c-.7 3.7-1.5 7.2-1.5 7.2s-.7.4-3.8 0c-3.1-.4-3.1-1.3-3.1-1.3s1.9-12.6 1.9-14.6.7-12.6 3.7-14.9 14.7-12.4 23.9-13.6z"/><path class="st65" d="M360.7 422.3s-3.6.7-4.3 5.9.6 16.4 1.2 21.7-.1 7.9 1.4 9.8 8.2 4.3 14.9 3.7 7.4-3.9 7.4-8.3v-13c0-5.5.8-10.4-1.5-13.4s-5.2-5.3-5.2-5.3l-13.9-1.1z"/><path class="st66" d="M363.1 424.6s-.5 2.5 2.7 3.3c3.2.8 6.9-3.1 7.4-4.4.6-1.3-10.1 1.1-10.1 1.1z"/><path class="st67" d="M373.5 421.5s2.5.7 4.1-2.6c1.6-3.3 2.9-6.8 0-13.8-2.9-7.1-12.9-5-15.6-4-2.7 1-5.4 4.8-5.3 7.2s-.6 3.8 4.8 4.4 9.9 3.1 9.9 3.1l2.1 5.7z"/><path class="st63" d="M358.3 411.9s.3 7.6 2.4 10.4c2.1 2.9 3.1 3.8 7.1 3.4 4-.4 6.3-2.7 6.4-3.5s-.5-1.9 0-2 1.7-.8 1.9-2.6c.2-1.7-.7-1.6-1.5-1.4-.8.2-.9.9-1.3-.8s-.3-3-.7-3.3c-.4-.3-4.7 1.3-8.9.7-4.2-.4-5.4-.9-5.4-.9z"/><path class="st68" d="M362.3 424.3l-1.5 6.4 4.7-2.9 2.9 5.6 6.9-9.5-1.1-1.7s-3.2 4.9-6.5 5.7c-3.8.9-4.6-2.9-4.6-2.9l-.8-.7z"/><path class="st69" d="M363.1 429.3l.5 3.8 2 .4 1.6-2.4-1.7-3.3z"/><path class="st70" d="M363.6 433.1l2 .4.1 20.4-2.9 2.7-2-2.8z"/><path class="st62" d="M363.1 462.6s-.5.1 1.3 3.3c1.7 3.1 2 2 2 1.4-.1-.6-.5-4.5-3.3-4.7z"/><path class="st9" d="M374.3 435.3s.3-4.7 3.2-5.6c2.9-.9 4.3 1.6 4.9 4.6.6 3.1-.4 5.3-.9 9-.6 3.7-1.3 10.4-3 13-1.7 2.6-12.2 11.6-12.2 11.6s.2-2.1-1.1-3.6-2-1.6-2-1.6 8.6-10.4 9.8-14.3 1.3-13.1 1.3-13.1z"/><path class="st63" d="M363.9 463s-2.7 1.5-3.5 1.8c-.8.4-1.3.9-2.1 2-.7 1.1-3.9 5.4-2.7 6.5 1.2 1.2 2.8.5 3.4 0 .6-.5 1.1-2.4 2.6-3.4s3.1-1.7 3.6-2.6c.5-.9 1-1.2 1-1.2s-.2-1.6-2.3-3.1z"/></g><g><path class="st71" d="M493.3 411.3l1.2 10.4s.7 5.9 9 5.9 9-5.8 9-5.8l1.3-11-20.5.5z"/><ellipse class="st72" cx="503.6" cy="410.9" rx="10.3" ry="5.8"/><ellipse class="st19" cx="503.6" cy="410.7" rx="9" ry="4.9"/><path class="st73" d="M504.4 390.1h-1.6v21.1c0 .4.4.8.8.8s.8-.4.8-.8v-21.1z"/><ellipse class="st74" cx="503.3" cy="378.1" rx="15.5" ry="13.4"/><path class="st75" d="M503.3 384.2c-7.1 0-13-4.1-14.9-9.8-.4 1.2-.6 2.4-.6 3.7 0 7.4 6.9 13.4 15.5 13.4 8.5 0 15.5-6 15.5-13.4 0-1.3-.2-2.5-.6-3.7-1.9 5.7-7.8 9.8-14.9 9.8z"/></g><g><path class="st71" d="M36.1 370.9l1.2 10.4s.7 5.9 9 5.9 9-5.8 9-5.8l1.3-11-20.5.5z"/><ellipse class="st72" cx="46.4" cy="370.6" rx="10.3" ry="5.8"/><ellipse class="st19" cx="46.4" cy="370.4" rx="9" ry="4.9"/><path class="st73" d="M47.2 349.8h-1.6v21.1c0 .4.4.8.8.8s.8-.4.8-.8v-21.1z"/><ellipse class="st74" cx="46.1" cy="337.8" rx="15.5" ry="13.4"/><path class="st75" d="M46.1 343.9c-7.1 0-13-4.1-14.9-9.8-.4 1.2-.6 2.4-.6 3.7 0 7.4 6.9 13.4 15.5 13.4s15.5-6 15.5-13.4c0-1.3-.2-2.5-.6-3.7-1.9 5.6-7.9 9.8-14.9 9.8z"/></g></svg>