<svg id="Layer_1" xmlns="http://www.w3.org/2000/svg" viewBox="0 0 440.3 435.1"><style>.st0{fill:#fff}.st1{fill:#e8eeef}.st2{fill:#dae0e0}.st3{fill:#f0a795}.st4{fill:#e67d6d}.st5{fill:#f7a996}.st6{fill:#f48d82}.st7{fill:#e4eae9}.st8{fill:#f6fefd}.st9{fill:#0f3d62}.st10{fill:#ebebe7}.st11{fill:#fff2bb}.st12{fill:#30abd6}.st13{fill:#84d4d5}.st14{fill:#f48691}.st15{fill:#3f301d}.st16{fill:#ffbea4}.st17{fill:#111a2c}.st18{fill:#e6f2f9}.st19{fill:#213454}.st20{fill:#142742}.st21{fill:#ff747f}.st22{fill:#3ca7dd}.st23{fill:#006bbc}.st24{fill:#fbbe78}.st25{fill:#fdd8ae}.st26{fill:#f4b59f}.st27{fill:#ece7ed}.st28{fill:#3f3947}.st29{fill:#1a1f14}.st30{fill:#225875}.st31{fill:#2c94ba}.st32{fill:#f9faf7}.st33{fill:#e0e0e0}.st34{fill:#b97136}.st35{fill:#2c9181}.st36{fill:#cb9d81}.st37{fill:#9e7258}.st38{fill:#ddae94}.st39{fill:#b8b9b1}.st40{fill:#e9e9e8}.st41{fill:#f2f2f2}.st42{fill:#464b49}.st43{fill:#c6cccc}.st44{fill:#3d3f3b}.st45{fill:#535959}.st46{fill:#87888e}.st47{fill:#4b4855}.st48{fill:#a8a8a8}.st49{fill:#6bd6f2}.st50{fill:#b4cede}.st51{fill:#d9e2e2}.st52{fill:#96c5df}.st53{fill:#fffffd}.st54{fill:#3b7893}</style><path class="st0" d="M0 299.1l240-141 200.3 116.3-239.6 140z"/><path class="st1" d="M108.3 330.7l105-61.7 87.6 50.9-104.8 61.3zM0 299.1v19.7l200.7 116.3v-20.7z"/><path class="st2" d="M200.7 435.1v-20.7l239.6-140v18.7z"/><path class="st3" d="M0 299.1V221l47.5-107.1L239.9 0l60.4 125.5 140 53.6v95.3L240 163.6 4.9 301.9z"/><path class="st4" d="M372 76L239.9 0v158.2l.1 5.4 195.7 113.7 4.6-2.9v-95.3L387 148.8z"/><path class="st5" d="M440.3 179.1l-4.5 2.7v95.4l4.5-2.7z"/><path class="st0" d="M435.8 181.8l4.5-2.7-53.3-30.3-4.4 2.5z"/><path class="st5" d="M382.6 151.3l-15.1-72.7L372 76l15 72.8z"/><path class="st0" d="M372 76L239.9 0 47.5 113.9l4.8 2.7L240 5.2l127.5 73.4z"/><path class="st6" d="M47.5 113.9L0 221l4.9 2.8 47.4-107.2z"/><path class="st4" d="M0 221v78.1l4.9 2.8v-78.1z"/><path class="st7" d="M98.9 128v98l115.4-64.9v-96z"/><path class="st8" d="M100.8 128v95l113.5-64.5v-93z"/><path class="st9" d="M92 130.3c-.9-1.6-.3-3.6 1.3-4.4l122-68.1c1.6-.9 3.6-.3 4.4 1.3.9 1.6.3 3.6-1.3 4.4l-122 68.1c-1.5.8-3.5.2-4.4-1.3z"/><path class="st4" d="M114 152.9l12.2-7.3v10.5l-12.2 6.8z"/><path class="st10" d="M134.7 129.8l12.3-7.3V133l-12.3 6.8z"/><path class="st11" d="M134.7 152.9l12.3-7.3v10.5l-12.3 6.8z"/><path class="st12" d="M186.7 109.6l12.3-7.4v10.6l-12.3 6.8z"/><path class="st13" d="M168.3 138.8l12.2-7.3v10.6l-12.2 6.7z"/><path class="st14" d="M186.7 147.1l12.3-7.3v10.6l-12.3 6.7z"/><path class="st13" d="M120.1 179.4l12.2-7.3v10.5l-12.2 6.8z"/><path class="st15" d="M56.9 302.5s1.5 2.8 6.4 5.2c4.9 2.5 6.2 1.3 7.2.6s1.1-2.2-1-3.8-4.1-3.6-4.1-3.6l-8.5 1.6zM70.2 299.3s1.5 2.8 6.4 5.2c4.9 2.5 6.2 1.3 7.2.6s1.1-2.2-1-3.8c-2.2-1.6-4.1-3.6-4.1-3.6l-8.5 1.6z"/><path class="st16" d="M60.6 212s1-.2.9-2.2V208l8.1.2s-.2 1.5.1 2.3c.3.8-.3 5.9-3.6 5.6-3.3-.2-5.5-4.1-5.5-4.1z"/><path class="st17" d="M54.9 259.8s.7 27.1.6 32c0 4.9 1 10.6 1 10.6s3.6 1 6.6.6c2.9-.4 3.2-1.2 3.2-1.2s.3-23.1.5-28c.2-4.8.9-9.3.9-9.3l2.2 34.7s2.3 1 5.4.9c3.1-.2 3.6-1.8 3.6-1.8l-.8-44.3-23.2 5.8z"/><path class="st18" d="M59.3 213.4s.7-.9 1.1-1.2c.7-.5 1.3.3 3.4 2 2.4 1.9 3.4 1.8 3.4 1.8s1.3-.9 1.9-2.9c.3-1.1.7-2.5.7-2.5h.9s3 6-.1 17.8-11.3-15-11.3-15z"/><path class="st16" d="M104.4 207.1s.7-1.3 1.9-2 1.6-1.8 2.4-1.6c.8.2.5 1.6 1 1.7.5.1-.1-1.3 1-2 1.1-.6 2.1.4 1.6 2.3s-1.9 3.3-4 4c-2.1.7-3.2.4-4.1 1.1-.9.6.2-3.5.2-3.5z"/><path class="st19" d="M105.8 208.8c-.7-1.4-2-2.1-2-2.1s-4.4 2.2-11.3 3.9c-6.9 1.7-10.4 1-13.8.6-3.4-.4-8-.6-8-.6s1.1 4.1.6 9.2c-.4 5.2-2.2 10.6-2.2 10.6s-1-1-4.1-6.4c-3.1-5.4-5.7-10.7-5.7-10.7s-4.1 2.6-7.8 7.1-5.9 18.6-6.2 24.7c-.3 6 9.2 1.8 9.2 1.8l-.4 12.5s5.2 2.7 8.2 3.1c2.5.4 4.4.8 5.9-1s1.8-5 1.8-5 .9 3.1 1.8 4.2 2.6 1.2 4.3-.3c1.7-1.5 2.9-3.3 2.9-3.3s-1.8-17.7-1.8-24.5c0-6.8.8-12.6.8-12.6s2.8.6 11.8-1.5 15.3-6.6 15.3-6.6 1.4-1.6.7-3.1zm-52.9 32.3l1.4-4.1.7 2.8-2.1 1.3z"/><path class="st20" d="M55 239.8l-1.7-6.7 9-8.2 4.2 16.8-8.7 8.3z"/><path class="st0" d="M55.7 237.2l-.9-3.3 7.1-6.5 3.2 13.7-6.6 6.3z"/><path class="st20" d="M59.9 237.4s.3-.1.4 1.5c.1 2.1.3 5.1-.4 5.2-.7 0-1.6-.6-1.3-2.9.4-3.4 1.3-3.8 1.3-3.8z"/><path class="st16" d="M64.8 234.3s1-.4 1.5.4.9 2.6.6 3.3c-.5 1.8-1.6 1.6-3.5 2.8-1.4.9-4.2 2.4-4.2 2.4s-.1-.9 0-2.6c.1-1.7.2-1.9.2-1.9s1.7-.7 2-2.6c.2-1.3 2.7-4.1 3.3-3.4.8.8.1 1.6.1 1.6z"/><path class="st19" d="M52.9 241.1l7-3.7s-.8.4-.8 4.7c0 1.5.4 1.9.8 2l-7.7 3.7.7-6.7z"/><path class="st21" d="M67.5 218.7c-.7.1-1.3-.4-1.3-1.1v-.1c-.1-.6.4-1.2 1.1-1.3h.1c.6-.1 1.2.4 1.3 1.1v.1c-.1.7-.6 1.2-1.2 1.3z"/><path class="st21" d="M67.4 218.6l-1.3 5.4 3 6.5.8-7.2z"/><path class="st16" d="M71.1 198.1s2.3 10.8-1.5 11.3c-3.7.5-8.6 3.3-12.5-4.9-3.9-8.3 9.8-8.6 14-6.4z"/><path class="st19" d="M57.7 204.3s-1.5-3.3-.3-3.8c1.9-.8 1.9 1 3 .8s.9-2.4.9-2.4 1.2 2.4 5.6 1.4c4.4-1 5.8-1.3 4-5.5-1.8-4.2-5.9-4.7-9.4-4.4s-7.4 3.4-7 8.6c.2 5.8 4.1 6.9 3.2 5.3z"/><path class="st22" d="M78.6 185.1s2.1-1.3 3.1-2.3c1-1 1.2-2.7 1.2-2.7v-4.6c0-.6.3-2.9-.9-5.1s-3.5-3.1-3.5-3.1-15.6-7.3-18.5-8.7-4-.3-4-.3l-3.2 2.1"/><path class="st0" d="M53.7 183.1l1.7-7.4s-2.1-1.3-3-2.9-.6-4.4-.6-4.4v-5.3s0-2 1-2.6c1-.7 1.6-.6 4.9.7 3.3 1.3 18.1 8.1 18.1 8.1s2.3 1.3 3.2 3 .7 4.6.7 4.6v5.3s0 2.3-1 2.9c-1.1.6-2.6.3-4.8-.7-2-.9-10.7-5.1-10.7-5.1l-9.5 3.8z"/><ellipse transform="rotate(-26.463 59.256 170.449)" class="st23" cx="59.3" cy="170.5" rx="1.2" ry="1.6"/><ellipse transform="rotate(-26.463 65.698 173.452)" class="st23" cx="65.7" cy="173.5" rx="1.2" ry="1.6"/><ellipse transform="rotate(-26.463 72.14 176.455)" class="st23" cx="72.1" cy="176.5" rx="1.2" ry="1.6"/><path class="st24" d="M229 105.8v65.1l9.7-7V99.8z"/><path class="st25" d="M229 106.1l9.4-6.3 31.1 18-9.7 5.9zM229 170.9l30.8 17.9 9.7-7-30.8-17.9zM229 154l30.8 17.9 9.7-7-30.8-17.9zM229 138l30.8 18 9.7-7.1-30.8-17.9zM229 122.1l30.8 17.9 9.7-7-30.8-17.9z"/><path class="st24" d="M259.8 123.7v65.1l9.7-7v-64z"/><path class="st26" d="M146.8 184.9s2.1 6.7 5.8 6.1c3.7-.6 2.4-6.4 2.4-6.4l-8.2.3z"/><path class="st27" d="M146.4 184.9L144 187s-.3 3.1 2.3 7.8c2.6 4.7 8.6 13.7 8.6 13.7l2.5-13.7s-1.4-7.5-2-8.7-1.5.6-1.5.6-.5 3.4-1.5 3.7c-1 .3-4.6-4.2-4.6-4.2l-1.4-1.3z"/><path class="st28" d="M160.9 217.8s-1.9 4.2-8.1 5.7c-6.2 1.4-13.1-2.3-13.1-2.3s-1.3-.2-1.1-3.1c.2-2.9.4-6.2.6-8.9s-1.5-8.5-1.2-11.6c.3-3.1 0-4.1 2.1-6.7s4.2-4.2 4.2-4.2 0 2.5 2.2 4.5c2.1 2 3.3 2.8 3.9 4.7s3.9 6.5 3.9 6.5 1.6-5.2 1.6-6.5c0-1.3-.8-2.8-.3-4.1.6-1.3 0-4.6 0-4.6s3.6-.3 4.2 5.2c.6 5.5-.6 15.9 0 19.1.4 3.2 1.4 2.9 1.1 6.3z"/><path class="st29" d="M141.7 267.1s-1.4 3 .8 5.8c2.3 2.8 4.9 5.6 8.1 4.5 3.3-1.1 2.6-2.7.6-5-2-2.4-3-3.3-2.7-5.3.4-2-6.8 0-6.8 0zM150.8 264.4s-.3 3.3 2.8 5.1 6.5 3.6 9.2 1.4c2.7-2.2 1.5-3.4-1.2-4.9-2.7-1.5-4-2-4.4-4s-6.4 2.4-6.4 2.4z"/><path class="st30" d="M152.9 222.6s3-1.2 5-2.3c2-1.1 3-2.4 3-2.4s-1.3 17.1-1.6 24.1-.2 20.9-.2 20.9 0 1.6-3.2 2.6-5.8-.5-5.8-.5l2.8-42.4z"/><path class="st26" d="M161.5 187s-2.2-4.2-2.9-5c-.7-.9-2.2-2.5-2.2-2.5s-1.6 4.1-1.4 5.9c.2 1.8.9 2.8 1.8 3s.9.6.9.6 4.7-.3 3.8-2z"/><path class="st31" d="M139.7 221.2s-.2 5.7.9 8.1c1 2.4 1.4 11.1 1.2 16.1-.2 5-3.7 22.2 1 23.1 4.7.9 7.4.4 7.9-6.1.5-7.4 2.1-24.4 2.3-28.1.2-3.6 0-11.8 0-11.8s-6.7 1.1-13.3-1.3z"/><path class="st32" d="M156.7 189.7l6.6 12.7 3.8-2.9 1-7-2.1.3-3.6-5.9s-3.1.1-5.7 2.8z"/><path class="st33" d="M165.4 191.7v20.9l13.7-6.4.4-21z"/><path class="st13" d="M165.7 191.7v20.9l13.6-6.4.5-21z"/><path class="st34" d="M146.5 184.5s-4.5 1-6.4-3.7c-1.9-4.7-3.3-7.4-1.9-10.2s3.8-2 7.7-3.2c3.9-1.2 5.2-2.8 7.7-.9s1 7.6 1 7.6l-8.1 10.4z"/><path class="st16" d="M143.8 178.7s-2.3-3.8 0-5.2c2.3-1.3 3.9-.5 6.8-1.9s2.5-1.9 2.5-1.9 1.4 1 2.2 4.2c.8 3.2 1.3 3.5.8 6.8-.6 3.3-.1 6-3.3 6.1-3.2.1-5-.1-6.4-1.9-1.4-1.8-1.4-1.9-2.3-2.3-.9-.3-1.8-.5-2.2-2.1-.4-2 1.2-1.5 1.2-1.5s1.3.9.7-.3z"/><path class="st35" d="M152.4 190.2l-1.1 2.3 1.3 1.2-.4 17.5 3.3 6.6 1.6-7.6-3.9-16.6.8-1.3z"/><path class="st16" d="M160.9 201.6s1.6-2.1 4.2-2.1 4.4.6 4.7 2.1c.3 1.6-3.1 3.6-4.5 4.5s-2.5 1.2-3.5 1.3-.9-5.8-.9-5.8z"/><path class="st32" d="M137.1 198.7s-1-3.4 1.4-5.5 3.6.5 5.6 4c2.1 3.5 4.7 8.2 4.9 9 .2.9.3 1.3.3 1.3l11.6-5.9s-.2 2.1.8 3.7 2 1.7 2 1.7l-11.5 6.9s-2.4 1.7-4.4 1.1c-2-.6-4.4-4-6.7-7.6-2.4-3.5-4-8.7-4-8.7z"/><path class="st36" d="M346.8 188.2v44.2l-41.2 23.5v-45.8z"/><path class="st37" d="M305.6 255.9l-2.3-1.3v-45.7l2.3 1.3z"/><path class="st36" d="M287.8 161.2v44.3l-41.2 20.4v-49.8z"/><path class="st37" d="M246.6 225.9l-2.2-1.2v-49.8l2.2 1.2z"/><path class="st24" d="M347.8 186L282 148.6l-40.5 23.2 65.4 37.4z"/><path class="st37" d="M306.9 211v-1.8l-65.4-37.4v1.7z"/><path class="st38" d="M306.9 211v-1.8l40.9-23.2v1.8z"/><path class="st39" d="M336.5 191.6s.1.2.1.5c0 .5-.4.7-.4.7l-4.1 2.1s-.7.3-1.2.3-.7-.1-1.3-.4c-.7-.3-1.9-.9-1.9-.9s-.6-.2-.4-1c0-.9 9.2-1.3 9.2-1.3z"/><path class="st40" d="M335.6 191l-1.7-.9s-.7-.5-1.7 0-4.7 2.2-4.7 2.2-1 .6.3 1.2 2.1 1 2.1 1 .6.4 2.1-.2c1.6-.6 4-1.9 4-1.9s1.5-.6-.4-1.4z"/><path class="st41" d="M289.8 198.3l15.2-9-26.4-16.1-16.5 9.3z"/><path class="st42" d="M289.8 198.3v.7l13.7-8.5s.2 1.1.9 1c.9-.1 1-.7 1-1.3 0-.6-.3-1-1-.8-.6.1-14.6 8.9-14.6 8.9z"/><path class="st43" d="M303.7 204.6s.6 1.3 2.6 1 6.3-3.3 6.3-3.3 1-1 .7-1.7c-.3-.6-9.6 4-9.6 4z"/><path class="st41" d="M303.7 204.6c1 .7 2 1.1 3.8.2 1.8-.9 2.8-2.2 4-3 1.3-.7 2.4-1 1.5-1.8-.9-.9-2.8-2.4-4.8-1.4-1.9 1-8.2 3.7-4.5 6z"/><path class="st24" d="M290.3 224.3l-25.8-15.2-31.5 13.3 33.9 15.3z"/><path class="st37" d="M262 244.8v20.9l6.6-3.7v-21z"/><path class="st36" d="M257.6 263.1v-21.8l4.4 3.2v21.2z"/><path class="st37" d="M283.7 232.2v21.2l6.6-3.7v-21.1z"/><path class="st36" d="M279.2 250.9v-19.8l4.5 1.1v21.2z"/><path class="st37" d="M237.6 227.1v24.5l6.2-3.6v-16.5z"/><path class="st36" d="M237.6 251.6l-4.5-2.6v-25l4.5 3.1z"/><path class="st36" d="M262 203.4v41.4l-28.9-14v-44.3z"/><path class="st24" d="M262 203.4l-28.9-16.9 5-2.8 28.8 16.9z"/><path class="st37" d="M266.9 200.6l-4.9 2.8v41.4l28.3-16.2v-4.3l-23.4 13.4z"/><g><path class="st44" d="M320.7 153.1L278.9 129c-.5-.2-1.2.2-1.2.7v29.2c0 .7.2 3.1 2.1 3.9l38.4 22.2c1.5 1 3.5-.9 3.5-2v-28.4c0-.6-.2-1.2-1-1.5z"/><path class="st45" d="M319.8 152.5L278 128.4c-.5-.2-1.2.2-1.2.7v29.2c0 .7.2 3.1 2.1 3.9l38.8 22.7c1.5 1 3 0 3-1.1v-29.7c.1-.7-.1-1.3-.9-1.6z"/><path class="st46" d="M320.8 179.8l-43.1-23v1.9c0 .7.2 3.1 2.1 3.9l38.2 22.2c1.8 1 3.7-.8 3.7-2.2v-3.7l-.9.9z"/><path class="st47" d="M295.5 170.9v1.5s.1 1.3-.6 1.8c-.9.6-4.7 2.5-4.7 2.5s-1.1.7.3 1.5c.9.5 4.4 2.7 6.4 4 .3.2.5.3.7.4 0 .2.2.4.4.4s.3-.1.4-.2v-.1-.1c.1-.4.3-.6.9-1 1.1-.6 3.6-1.8 3.6-1.8s1.5-.6 1.5-2.3v-1.4l-8.9-5.2z"/><path class="st46" d="M294.9 170.5v1.5s.1 1.3-.6 1.8c-.9.6-4.7 2.5-4.7 2.5s-1.1.7.3 1.5c1.3.8 8 4.9 8 4.9s-.1-1 1-1.6c1.1-.6 3.6-1.8 3.6-1.8s1.5-.6 1.5-2.3v-1.4l-9.1-5.1z"/><path class="st48" d="M276.8 155.9v2.4c0 .7.2 3.1 2.1 3.9l38.8 22.7c1.5 1 3 0 3-1.1v-2.9l-43.9-25z"/><path class="st33" d="M278.6 130.9v23.6l40.3 23.1v-23.7z"/></g><path class="st12" d="M313.7 183.1c.8-3 2.5-5.1 4.4-6.1v-1.9c0-1.4 1.1-2.5 2.5-2.5s2.5 1.1 2.5 2.5V177.3c1.1.6 2.3 1.7 3.4 3.5 2.6 4.4 1.7 7-1.5 8.6-3.2 1.5-7.6.7-9.2 0s-3.2-2.2-2.1-6.3z"/><path class="st49" d="M313.7 183.2c.8-3 2.5-5.1 4.4-6.1v-1.9c0-1.4 1.1-2.5 2.5-2.5.5 0 1 .2 1.4.4-1.3.1-2.4 1.2-2.4 2.5v1.9c-1.9 1-3.6 3.1-4.4 6.1-1.1 4.1.6 5.6 2.1 6.3.1 0 .2.1.2.1-.7-.2-1.3-.3-1.7-.5-1.5-.7-3.2-2.3-2.1-6.3z"/><path class="st50" d="M331.4 192.5h.5v-21.9c0-2.1-.9-3.6-2.5-4-1.8-.5-3.3-.1-5.2.6-1.9.6-3.1 1.7-3.6 3.2-.5 1.4-.4 3.2-.4 3.3h.5s-.1-1.8.4-3.1c.4-1.3 1.5-2.3 3.2-2.9 1.7-.6 3.2-1 4.9-.6 1.8.5 2.1 2.4 2.1 3.5v21.9z"/><path class="st0" d="M331.7 192.5h.5v-22.1c0-2.2-.9-3.7-2.6-4.2-1.9-.5-3.5-.1-5.4.6-2 .7-3.2 1.8-3.8 3.3-.5 1.5-.4 3.4-.4 3.5h.5s-.1-1.9.4-3.3c.5-1.3 1.6-2.3 3.4-3 1.8-.6 3.4-1.1 5.1-.6 1.9.5 2.2 2.5 2.2 3.6v22.2z"/><path class="st36" d="M415.3 226.9v44.2l-41.2 23.5v-45.8z"/><path class="st37" d="M374.1 294.6l-2.2-1.3v-45.6l2.2 1.2z"/><path class="st36" d="M356.4 199.9v44.4l-41.3 20.4v-49.9z"/><path class="st37" d="M315.1 264.7l-2.2-1.2v-49.9l2.2 1.2z"/><path class="st24" d="M416.3 224.8l-65.7-37.5-40.6 23.2 65.5 37.4z"/><path class="st37" d="M375.5 249.8v-1.9L310 210.5v1.7z"/><path class="st38" d="M375.5 249.8v-1.9l40.8-23.1v1.7z"/><path class="st39" d="M405 230.3s.1.2.1.5c0 .5-.4.7-.4.7l-4.1 2.1s-.7.3-1.2.3-.7-.1-1.3-.4c-.7-.3-1.9-.9-1.9-.9s-.6-.2-.4-1c0-.8 9.2-1.3 9.2-1.3z"/><path class="st40" d="M404.1 229.7l-1.7-.9s-.7-.5-1.7 0-4.7 2.2-4.7 2.2-1 .6.3 1.2c1.4.7 2.1 1 2.1 1s.6.4 2.1-.2c1.6-.6 4-1.9 4-1.9s1.5-.6-.4-1.4z"/><path class="st41" d="M358.3 237l15.2-9-26.4-16.1-16.5 9.3z"/><path class="st42" d="M358.3 237v.7l13.7-8.5s.2 1.1.9 1c.9-.1 1-.7 1-1.3 0-.6-.3-1-1-.8-.6.1-14.6 8.9-14.6 8.9z"/><path class="st43" d="M372.2 243.3s.6 1.3 2.6 1c2-.2 6.3-3.3 6.3-3.3s1-1 .7-1.7-9.6 4-9.6 4z"/><path class="st41" d="M372.2 243.3c1 .7 2 1.1 3.8.2 1.8-.9 2.8-2.2 4-3 1.3-.7 2.4-1 1.5-1.8-.9-.9-2.8-2.4-4.8-1.4-1.9 1-8.2 3.7-4.5 6z"/><path class="st24" d="M358.8 263l-25.7-15.2-31.6 13.3 33.9 15.3z"/><path class="st37" d="M330.5 283.5v20.9l6.6-3.7v-21z"/><path class="st36" d="M326.1 301.9v-21.8l4.4 3.1v21.2z"/><path class="st37" d="M352.2 271v21.2l6.6-3.8v-21.1z"/><path class="st36" d="M347.8 289.6v-19.8l4.4 1.2v21.2z"/><path class="st37" d="M306.1 265.8v24.5l6.2-3.6v-16.4z"/><path class="st36" d="M306.1 290.3l-4.5-2.6v-25l4.5 3.1z"/><path class="st36" d="M330.5 242.2v41.3l-28.9-14v-44.2z"/><path class="st24" d="M330.5 242.2l-28.9-16.9 5-2.8 28.8 16.8z"/><path class="st37" d="M335.4 239.3l-4.9 2.9v41.3l28.3-16.2V263l-23.4 13.4z"/><g><path class="st44" d="M389.3 191.8l-41.8-24.1c-.5-.2-1.2.2-1.2.7v29.2c0 .7.2 3.1 2.1 3.9l38.4 22.2c1.5 1 3.5-.9 3.5-2v-28.4c-.1-.6-.3-1.1-1-1.5z"/><path class="st45" d="M388.3 191.2l-41.8-24.1c-.5-.2-1.2.2-1.2.7V197c0 .7.2 3.1 2.1 3.9l38.8 22.7c1.5 1 3 0 3-1.1v-29.7c.1-.6-.1-1.2-.9-1.6z"/><path class="st46" d="M389.3 218.6l-43.1-23v1.9c0 .7.2 3.1 2.1 3.9l38.2 22.2c1.8 1 3.7-.8 3.7-2.2v-3.7l-.9.9z"/><path class="st47" d="M364.1 209.6v1.5s.1 1.3-.6 1.8c-.9.6-4.7 2.5-4.7 2.5s-1.1.7.3 1.5c.9.5 4.4 2.7 6.4 4 .3.2.5.3.7.4 0 .2.2.4.4.4s.3-.1.4-.2v-.1-.1c.1-.4.3-.6.9-1 1.1-.6 3.6-1.8 3.6-1.8s1.5-.6 1.5-2.3v-1.4l-8.9-5.2z"/><path class="st46" d="M363.4 209.3v1.5s.1 1.3-.6 1.8c-.9.6-4.7 2.5-4.7 2.5s-1.1.7.3 1.5c1.3.8 8 4.9 8 4.9s-.1-1 1-1.6c1.1-.6 3.6-1.8 3.6-1.8s1.5-.6 1.5-2.3v-1.4l-9.1-5.1z"/><path class="st48" d="M345.3 194.6v2.4c0 .7.2 3.1 2.1 3.9l38.8 22.7c1.5 1 3 0 3-1.1v-2.9l-43.9-25z"/><path class="st33" d="M347.1 169.6v23.6l40.3 23.1v-23.7z"/></g><path class="st12" d="M382.2 221.9c.8-3 2.5-5.1 4.4-6.1v-1.9c0-1.4 1.1-2.5 2.5-2.5s2.5 1.1 2.5 2.5V216.1c1.1.6 2.3 1.7 3.4 3.5 2.6 4.4 1.7 7-1.5 8.6-3.2 1.5-7.6.7-9.2 0-1.5-.7-3.2-2.3-2.1-6.3z"/><path class="st49" d="M382.2 221.9c.8-3 2.5-5.1 4.4-6.1v-1.9c0-1.4 1.1-2.5 2.5-2.5.5 0 1 .2 1.4.4-1.3.1-2.4 1.2-2.4 2.5v1.9c-1.9 1-3.6 3.1-4.4 6.1-1.1 4.1.6 5.6 2.1 6.3.1 0 .2.1.2.1-.7-.2-1.3-.3-1.7-.5-1.5-.7-3.2-2.2-2.1-6.3z"/><path class="st50" d="M399.9 231.2h.5v-21.9c0-2.1-.9-3.6-2.5-4-1.8-.5-3.3-.1-5.2.6-1.9.6-3.1 1.7-3.6 3.2-.5 1.4-.4 3.2-.4 3.3h.5s-.1-1.8.4-3.1c.4-1.3 1.5-2.3 3.2-2.9 1.7-.6 3.2-1 4.9-.6 1.8.5 2.1 2.4 2.1 3.5v21.9z"/><path class="st0" d="M400.2 231.2h.5v-22.1c0-2.2-.9-3.7-2.6-4.2-1.9-.5-3.5-.1-5.4.6-2 .7-3.2 1.8-3.8 3.3-.5 1.5-.4 3.4-.4 3.5h.5s-.1-1.9.4-3.3c.5-1.3 1.6-2.3 3.4-3 1.8-.6 3.4-1.1 5.1-.6 1.9.5 2.2 2.5 2.2 3.6v22.2z"/><path class="st51" d="M186.7 305.1l54.8-6-17.9 42.4-57.9 4.6z"/><g><path class="st52" d="M278.9 338l1.2 10.4s.7 5.9 9 5.9 9-5.8 9-5.8l1.3-11-20.5.5z"/><ellipse class="st53" cx="289.2" cy="337.6" rx="10.3" ry="5.8"/><ellipse class="st30" cx="289.2" cy="337.4" rx="9" ry="4.9"/><path class="st54" d="M290 316.8h-1.6v21.1c0 .4.4.8.8.8s.8-.4.8-.8v-21.1z"/><ellipse class="st3" cx="288.9" cy="304.9" rx="15.5" ry="13.4"/><path class="st4" d="M288.9 310.9c-7.1 0-13-4.1-14.9-9.8-.4 1.2-.6 2.4-.6 3.7 0 7.4 6.9 13.4 15.5 13.4 8.5 0 15.5-6 15.5-13.4 0-1.3-.2-2.5-.6-3.7-1.9 5.7-7.8 9.8-14.9 9.8z"/></g><g><path class="st52" d="M246.9 357.4l1.2 10.4s.7 5.9 9 5.9 9-5.8 9-5.8l1.3-11-20.5.5z"/><ellipse class="st53" cx="257.2" cy="357" rx="10.3" ry="5.8"/><ellipse class="st30" cx="257.2" cy="356.8" rx="9" ry="4.9"/><path class="st54" d="M258 336.2h-1.6v21.1c0 .4.4.8.8.8s.8-.4.8-.8v-21.1z"/><ellipse class="st3" cx="256.9" cy="324.3" rx="15.5" ry="13.4"/><path class="st4" d="M256.9 330.3c-7.1 0-13-4.1-14.9-9.8-.4 1.2-.6 2.4-.6 3.7 0 7.4 6.9 13.4 15.5 13.4 8.5 0 15.5-6 15.5-13.4 0-1.3-.2-2.5-.6-3.7-1.9 5.7-7.8 9.8-14.9 9.8z"/></g></svg>