<?xml version="1.0" encoding="utf-8"?>
<!-- Generator: Adobe Illustrator 19.1.1, SVG Export Plug-In . SVG Version: 6.00 Build 0)  -->
<svg version="1.1" id="Layer_1" xmlns="http://www.w3.org/2000/svg" xmlns:xlink="http://www.w3.org/1999/xlink" x="0px" y="0px"
	 viewBox="0 0 440.3 435.1" style="enable-background:new 0 0 440.3 435.1;" xml:space="preserve">
<style type="text/css">
	.st0{fill:#FFFFFF;}
	.st1{fill:#E8EEEF;}
	.st2{fill:#DAE0E0;}
	.st3{fill:#F0A795;}
	.st4{fill:#E67D6D;}
	.st5{fill:#F7A996;}
	.st6{fill:#F48D82;}
	.st7{fill:#E4EAE9;}
	.st8{fill:#F6FEFD;}
	.st9{fill:#0F3D62;}
	.st10{fill:#EBEBE7;}
	.st11{fill:#FFF2BB;}
	.st12{fill:#30ABD6;}
	.st13{fill:#84D4D5;}
	.st14{fill:#F48691;}
	.st15{fill:#3F301D;}
	.st16{fill:#FFBEA4;}
	.st17{fill:#111A2C;}
	.st18{fill:#E6F2F9;}
	.st19{fill:#213454;}
	.st20{fill:#142742;}
	.st21{fill:#FF747F;}
	.st22{fill:#3CA7DD;}
	.st23{fill:#006BBC;}
	.st24{fill:#FBBE78;}
	.st25{fill:#FDD8AE;}
	.st26{fill:#F4B59F;}
	.st27{fill:#ECE7ED;}
	.st28{fill:#3F3947;}
	.st29{fill:#1A1F14;}
	.st30{fill:#225875;}
	.st31{fill:#2C94BA;}
	.st32{fill:#F9FAF7;}
	.st33{fill:#E0E0E0;}
	.st34{fill:#B97136;}
	.st35{fill:#2C9181;}
	.st36{fill:#CB9D81;}
	.st37{fill:#9E7258;}
	.st38{fill:#DDAE94;}
	.st39{fill:#B8B9B1;}
	.st40{fill:#E9E9E8;}
	.st41{fill:#F2F2F2;}
	.st42{fill:#464B49;}
	.st43{fill:#C6CCCC;}
	.st44{fill:#3D3F3B;}
	.st45{fill:#535959;}
	.st46{fill:#87888E;}
	.st47{fill:#4B4855;}
	.st48{fill:#A8A8A8;}
	.st49{fill:#6BD6F2;}
	.st50{fill:#B4CEDE;}
	.st51{fill:#D9E2E2;}
	.st52{fill:#96C5DF;}
	.st53{fill:#FFFFFD;}
	.st54{fill:#3B7893;}
</style>
<polygon class="st0" points="0,299.1 240,158.1 440.3,274.4 200.7,414.4 "/>
<polygon class="st1" points="108.3,330.7 213.3,269 300.9,319.9 196.1,381.2 "/>
<polygon class="st1" points="0,299.1 0,318.8 200.7,435.1 200.7,414.4 "/>
<polygon class="st2" points="200.7,435.1 200.7,414.4 440.3,274.4 440.3,293.1 "/>
<polygon class="st3" points="0,299.1 0,221 47.5,113.9 239.9,0 300.3,125.5 440.3,179.1 440.3,274.4 240,163.6 4.9,301.9 "/>
<polygon class="st4" points="372,76 239.9,0 239.9,0 239.9,158.2 240,163.6 435.7,277.3 440.3,274.4 440.3,179.1 387,148.8 "/>
<polygon class="st5" points="440.3,179.1 435.8,181.8 435.8,277.2 440.3,274.5 "/>
<polygon class="st0" points="435.8,181.8 440.3,179.1 387,148.8 382.6,151.3 "/>
<polygon class="st5" points="382.6,151.3 367.5,78.6 372,76 387,148.8 "/>
<polygon class="st0" points="372,76 239.9,0 47.5,113.9 52.3,116.6 240,5.2 367.5,78.6 "/>
<polygon class="st6" points="47.5,113.9 0,221 4.9,223.8 52.3,116.6 "/>
<polygon class="st4" points="0,221 0,299.1 4.9,301.9 4.9,223.8 "/>
<g>
	<polygon class="st7" points="98.9,128 98.9,226 214.3,161.1 214.3,65.1 	"/>
	<polygon class="st8" points="100.8,128 100.8,223 214.3,158.5 214.3,65.5 	"/>
	<path class="st9" d="M92,130.3L92,130.3c-0.9-1.6-0.3-3.6,1.3-4.4l122-68.1c1.6-0.9,3.6-0.3,4.4,1.3v0c0.9,1.6,0.3,3.6-1.3,4.4
		l-122,68.1C94.9,132.4,92.9,131.8,92,130.3z"/>
	<polygon class="st4" points="114,152.9 126.2,145.6 126.2,156.1 114,162.9 	"/>
	<polygon class="st10" points="134.7,129.8 147,122.5 147,133 134.7,139.8 	"/>
	<polygon class="st11" points="134.7,152.9 147,145.6 147,156.1 134.7,162.9 	"/>
	<polygon class="st12" points="186.7,109.6 199,102.2 199,112.8 186.7,119.6 	"/>
	<polygon class="st13" points="168.3,138.8 180.5,131.5 180.5,142.1 168.3,148.8 	"/>
	<polygon class="st14" points="186.7,147.1 199,139.8 199,150.4 186.7,157.1 	"/>
	<polygon class="st13" points="120.1,179.4 132.3,172.1 132.3,182.6 120.1,189.4 	"/>
</g>
<g>
	<path class="st15" d="M56.9,302.5c0,0,1.5,2.8,6.4,5.2c4.9,2.5,6.2,1.3,7.2,0.6s1.1-2.2-1-3.8s-4.1-3.6-4.1-3.6L56.9,302.5z"/>
	<path class="st15" d="M70.2,299.3c0,0,1.5,2.8,6.4,5.2c4.9,2.5,6.2,1.3,7.2,0.6s1.1-2.2-1-3.8c-2.2-1.6-4.1-3.6-4.1-3.6L70.2,299.3
		z"/>
	<path class="st16" d="M60.6,212c0,0,1-0.2,0.9-2.2c0-2,0-1.8,0-1.8l8.1,0.2c0,0-0.2,1.5,0.1,2.3c0.3,0.8-0.3,5.9-3.6,5.6
		C62.8,215.9,60.6,212,60.6,212z"/>
	<path class="st17" d="M54.9,259.8c0,0,0.7,27.1,0.6,32c0,4.9,1,10.6,1,10.6s3.6,1,6.6,0.6c2.9-0.4,3.2-1.2,3.2-1.2s0.3-23.1,0.5-28
		c0.2-4.8,0.9-9.3,0.9-9.3l2.2,34.7c0,0,2.3,1,5.4,0.9c3.1-0.2,3.6-1.8,3.6-1.8l-0.8-44.3L54.9,259.8z"/>
	<path class="st18" d="M59.3,213.4c0,0,0.7-0.9,1.1-1.2c0.7-0.5,1.3,0.3,3.4,2c2.4,1.9,3.4,1.8,3.4,1.8s1.3-0.9,1.9-2.9
		c0.3-1.1,0.7-2.5,0.7-2.5l0.9,0c0,0,3,6-0.1,17.8S59.3,213.4,59.3,213.4z"/>
	<path class="st16" d="M104.4,207.1c0,0,0.7-1.3,1.9-2c1.2-0.7,1.6-1.8,2.4-1.6c0.8,0.2,0.5,1.6,1,1.7c0.5,0.1-0.1-1.3,1-2
		c1.1-0.6,2.1,0.4,1.6,2.3c-0.5,1.9-1.9,3.3-4,4c-2.1,0.7-3.2,0.4-4.1,1.1C103.3,211.2,104.4,207.1,104.4,207.1z"/>
	<path class="st19" d="M105.8,208.8c-0.7-1.4-2-2.1-2-2.1s-4.4,2.2-11.3,3.9c-6.9,1.7-10.4,1-13.8,0.6c-3.4-0.4-8-0.6-8-0.6
		s1.1,4.1,0.6,9.2c-0.4,5.2-2.2,10.6-2.2,10.6s-1-1-4.1-6.4c-3.1-5.4-5.7-10.7-5.7-10.7s-4.1,2.6-7.8,7.1
		c-3.7,4.5-5.9,18.6-6.2,24.7c-0.3,6,9.2,1.8,9.2,1.8l-0.4,12.5c0,0,5.2,2.7,8.2,3.1c2.5,0.4,4.4,0.8,5.9-1c1.5-1.8,1.8-5,1.8-5
		s0.9,3.1,1.8,4.2c0.9,1.1,2.6,1.2,4.3-0.3c1.7-1.5,2.9-3.3,2.9-3.3s-1.8-17.7-1.8-24.5c0-6.8,0.8-12.6,0.8-12.6s2.8,0.6,11.8-1.5
		s15.3-6.6,15.3-6.6S106.5,210.3,105.8,208.8z M52.9,241.1l1.4-4.1l0.7,2.8L52.9,241.1z"/>
	<polygon class="st20" points="55,239.8 53.3,233.1 62.3,224.9 66.5,241.7 57.8,250 	"/>
	<polygon class="st0" points="55.7,237.2 54.8,233.9 61.9,227.4 65.1,241.1 58.5,247.4 	"/>
	<path class="st20" d="M59.9,237.4c0,0,0.3-0.1,0.4,1.5c0.1,2.1,0.3,5.1-0.4,5.2c-0.7,0-1.6-0.6-1.3-2.9
		C59,237.8,59.9,237.4,59.9,237.4z"/>
	<path class="st16" d="M64.8,234.3c0,0,1-0.4,1.5,0.4s0.9,2.6,0.6,3.3c-0.5,1.8-1.6,1.6-3.5,2.8c-1.4,0.9-4.2,2.4-4.2,2.4
		s-0.1-0.9,0-2.6c0.1-1.7,0.2-1.9,0.2-1.9s1.7-0.7,2-2.6c0.2-1.3,2.7-4.1,3.3-3.4C65.5,233.5,64.8,234.3,64.8,234.3z"/>
	<path class="st19" d="M52.9,241.1l7-3.7c0,0-0.8,0.4-0.8,4.7c0,1.5,0.4,1.9,0.8,2l-7.7,3.7L52.9,241.1z"/>
	<path class="st21" d="M67.5,218.7L67.5,218.7c-0.7,0.1-1.3-0.4-1.3-1.1l0-0.1c-0.1-0.6,0.4-1.2,1.1-1.3l0.1,0
		c0.6-0.1,1.2,0.4,1.3,1.1l0,0.1C68.6,218.1,68.1,218.6,67.5,218.7z"/>
	<polygon class="st21" points="67.4,218.6 66.1,224 69.1,230.5 69.9,223.3 	"/>
	<path class="st16" d="M71.1,198.1c0,0,2.3,10.8-1.5,11.3c-3.7,0.5-8.6,3.3-12.5-4.9C53.2,196.2,66.9,195.9,71.1,198.1z"/>
	<path class="st19" d="M57.7,204.3c0,0-1.5-3.3-0.3-3.8c1.9-0.8,1.9,1,3,0.8s0.9-2.4,0.9-2.4s1.2,2.4,5.6,1.4c4.4-1,5.8-1.3,4-5.5
		c-1.8-4.2-5.9-4.7-9.4-4.4s-7.4,3.4-7,8.6C54.7,204.8,58.6,205.9,57.7,204.3z"/>
</g>
<g>
	<path class="st22" d="M78.6,185.1c0,0,2.1-1.3,3.1-2.3c1-1,1.2-2.7,1.2-2.7s0-4,0-4.6s0.3-2.9-0.9-5.1s-3.5-3.1-3.5-3.1
		s-15.6-7.3-18.5-8.7s-4-0.3-4-0.3l-3.2,2.1"/>
	<path class="st0" d="M53.7,183.1l1.7-7.4c0,0-2.1-1.3-3-2.9s-0.6-4.4-0.6-4.4v-5.3c0,0,0-2,1-2.6c1-0.7,1.6-0.6,4.9,0.7
		c3.3,1.3,18.1,8.1,18.1,8.1s2.3,1.3,3.2,3s0.7,4.6,0.7,4.6v5.3c0,0,0,2.3-1,2.9c-1.1,0.6-2.6,0.3-4.8-0.7c-2-0.9-10.7-5.1-10.7-5.1
		L53.7,183.1z"/>
	
		<ellipse transform="matrix(0.8952 -0.4456 0.4456 0.8952 -69.7436 44.2626)" class="st23" cx="59.3" cy="170.5" rx="1.2" ry="1.6"/>
	<ellipse transform="matrix(0.8952 -0.4456 0.4456 0.8952 -70.407 47.4477)" class="st23" cx="65.7" cy="173.5" rx="1.2" ry="1.6"/>
	
		<ellipse transform="matrix(0.8952 -0.4456 0.4456 0.8952 -71.0703 50.6329)" class="st23" cx="72.1" cy="176.5" rx="1.2" ry="1.6"/>
</g>
<g>
	<polygon class="st24" points="229,105.8 229,170.9 238.7,163.9 238.7,99.8 	"/>
	<polygon class="st25" points="229,106.1 238.4,99.8 269.5,117.8 259.8,123.7 	"/>
	<polygon class="st25" points="229,170.9 259.8,188.8 269.5,181.8 238.7,163.9 	"/>
	<polygon class="st25" points="229,154 259.8,171.9 269.5,164.9 238.7,147 	"/>
	<polygon class="st25" points="229,138 259.8,156 269.5,148.9 238.7,131 	"/>
	<polygon class="st25" points="229,122.1 259.8,140 269.5,133 238.7,115.1 	"/>
	<polygon class="st24" points="259.8,123.7 259.8,188.8 269.5,181.8 269.5,117.8 	"/>
</g>
<g>
	<path class="st26" d="M146.8,184.9c0,0,2.1,6.7,5.8,6.1c3.7-0.6,2.4-6.4,2.4-6.4L146.8,184.9z"/>
	<path class="st27" d="M146.4,184.9l-2.4,2.1c0,0-0.3,3.1,2.3,7.8c2.6,4.7,8.6,13.7,8.6,13.7l2.5-13.7c0,0-1.4-7.5-2-8.7
		s-1.5,0.6-1.5,0.6s-0.5,3.4-1.5,3.7c-1,0.3-4.6-4.2-4.6-4.2L146.4,184.9z"/>
	<path class="st28" d="M160.9,217.8c0,0-1.9,4.2-8.1,5.7c-6.2,1.4-13.1-2.3-13.1-2.3s-1.3-0.2-1.1-3.1c0.2-2.9,0.4-6.2,0.6-8.9
		s-1.5-8.5-1.2-11.6c0.3-3.1,0-4.1,2.1-6.7s4.2-4.2,4.2-4.2s0,2.5,2.2,4.5c2.1,2,3.3,2.8,3.9,4.7s3.9,6.5,3.9,6.5s1.6-5.2,1.6-6.5
		c0-1.3-0.8-2.8-0.3-4.1c0.6-1.3,0-4.6,0-4.6s3.6-0.3,4.2,5.2c0.6,5.5-0.6,15.9,0,19.1C160.2,214.7,161.2,214.4,160.9,217.8z"/>
	<path class="st29" d="M141.7,267.1c0,0-1.4,3,0.8,5.8c2.3,2.8,4.9,5.6,8.1,4.5c3.3-1.1,2.6-2.7,0.6-5c-2-2.4-3-3.3-2.7-5.3
		C148.9,265.1,141.7,267.1,141.7,267.1z"/>
	<path class="st29" d="M150.8,264.4c0,0-0.3,3.3,2.8,5.1s6.5,3.6,9.2,1.4c2.7-2.2,1.5-3.4-1.2-4.9c-2.7-1.5-4-2-4.4-4
		S150.8,264.4,150.8,264.4z"/>
	<path class="st30" d="M152.9,222.6c0,0,3-1.2,5-2.3c2-1.1,3-2.4,3-2.4s-1.3,17.1-1.6,24.1s-0.2,20.9-0.2,20.9s0,1.6-3.2,2.6
		c-3.2,1-5.8-0.5-5.8-0.5L152.9,222.6z"/>
	<path class="st26" d="M161.5,187c0,0-2.2-4.2-2.9-5c-0.7-0.9-2.2-2.5-2.2-2.5s-1.6,4.1-1.4,5.9c0.2,1.8,0.9,2.8,1.8,3
		s0.9,0.6,0.9,0.6S162.4,188.7,161.5,187z"/>
	<path class="st31" d="M139.7,221.2c0,0-0.2,5.7,0.9,8.1c1,2.4,1.4,11.1,1.2,16.1c-0.2,5-3.7,22.2,1,23.1c4.7,0.9,7.4,0.4,7.9-6.1
		c0.5-7.4,2.1-24.4,2.3-28.1c0.2-3.6,0-11.8,0-11.8S146.3,223.6,139.7,221.2z"/>
	<path class="st32" d="M156.7,189.7l6.6,12.7l3.8-2.9l1-7l-2.1,0.3l-3.6-5.9C162.4,186.9,159.3,187,156.7,189.7z"/>
	<polygon class="st33" points="165.4,191.7 165.4,212.6 179.1,206.2 179.5,185.2 	"/>
	<polygon class="st13" points="165.7,191.7 165.7,212.6 179.3,206.2 179.8,185.2 	"/>
	<path class="st34" d="M146.5,184.5c0,0-4.5,1-6.4-3.7c-1.9-4.7-3.3-7.4-1.9-10.2s3.8-2,7.7-3.2c3.9-1.2,5.2-2.8,7.7-0.9
		c2.5,1.9,1,7.6,1,7.6L146.5,184.5z"/>
	<path class="st16" d="M143.8,178.7c0,0-2.3-3.8,0-5.2c2.3-1.3,3.9-0.5,6.8-1.9c2.9-1.4,2.5-1.9,2.5-1.9s1.4,1,2.2,4.2
		c0.8,3.2,1.3,3.5,0.8,6.8c-0.6,3.3-0.1,6-3.3,6.1c-3.2,0.1-5-0.1-6.4-1.9c-1.4-1.8-1.4-1.9-2.3-2.3c-0.9-0.3-1.8-0.5-2.2-2.1
		c-0.4-2,1.2-1.5,1.2-1.5S144.4,179.9,143.8,178.7z"/>
	<polygon class="st35" points="152.4,190.2 151.3,192.5 152.6,193.7 152.2,211.2 155.5,217.8 157.1,210.2 153.2,193.6 154,192.3 	
		"/>
	<path class="st16" d="M160.9,201.6c0,0,1.6-2.1,4.2-2.1s4.4,0.6,4.7,2.1c0.3,1.6-3.1,3.6-4.5,4.5s-2.5,1.2-3.5,1.3
		S160.9,201.6,160.9,201.6z"/>
	<path class="st32" d="M137.1,198.7c0,0-1-3.4,1.4-5.5c2.4-2.1,3.6,0.5,5.6,4c2.1,3.5,4.7,8.2,4.9,9c0.2,0.9,0.3,1.3,0.3,1.3
		l11.6-5.9c0,0-0.2,2.1,0.8,3.7c1,1.6,2,1.7,2,1.7l-11.5,6.9c0,0-2.4,1.7-4.4,1.1c-2-0.6-4.4-4-6.7-7.6
		C138.7,203.9,137.1,198.7,137.1,198.7z"/>
</g>
<polygon class="st36" points="346.8,188.2 346.8,232.4 305.6,255.9 305.6,210.1 "/>
<polygon class="st37" points="305.6,255.9 303.3,254.6 303.3,208.9 305.6,210.2 "/>
<polygon class="st36" points="287.8,161.2 287.8,205.5 246.6,225.9 246.6,176.1 "/>
<polygon class="st37" points="246.6,225.9 244.4,224.7 244.4,174.9 246.6,176.1 "/>
<polygon class="st24" points="347.8,186 282,148.6 241.5,171.8 306.9,209.2 "/>
<polygon class="st37" points="306.9,211 306.9,209.2 241.5,171.8 241.5,173.5 "/>
<polygon class="st38" points="306.9,211 306.9,209.2 347.8,186 347.8,187.8 "/>
<path class="st39" d="M336.5,191.6c0,0,0.1,0.2,0.1,0.5c0,0.5-0.4,0.7-0.4,0.7l-4.1,2.1c0,0-0.7,0.3-1.2,0.3c-0.5,0-0.7-0.1-1.3-0.4
	c-0.7-0.3-1.9-0.9-1.9-0.9s-0.6-0.2-0.4-1C327.3,192,336.5,191.6,336.5,191.6z"/>
<path class="st40" d="M335.6,191l-1.7-0.9c0,0-0.7-0.5-1.7,0c-1,0.5-4.7,2.2-4.7,2.2s-1,0.6,0.3,1.2s2.1,1,2.1,1s0.6,0.4,2.1-0.2
	c1.6-0.6,4-1.9,4-1.9S337.5,191.8,335.6,191z"/>
<polygon class="st41" points="289.8,198.3 305,189.3 278.6,173.2 262.1,182.5 "/>
<path class="st42" d="M289.8,198.3v0.7l13.7-8.5c0,0,0.2,1.1,0.9,1c0.9-0.1,1-0.7,1-1.3c0-0.6-0.3-1-1-0.8
	C303.8,189.5,289.8,198.3,289.8,198.3z"/>
<path class="st43" d="M303.7,204.6c0,0,0.6,1.3,2.6,1s6.3-3.3,6.3-3.3s1-1,0.7-1.7C313,200,303.7,204.6,303.7,204.6z"/>
<path class="st41" d="M303.7,204.6c1,0.7,2,1.1,3.8,0.2c1.8-0.9,2.8-2.2,4-3c1.3-0.7,2.4-1,1.5-1.8c-0.9-0.9-2.8-2.4-4.8-1.4
	C306.3,199.6,300,202.3,303.7,204.6z"/>
<polygon class="st24" points="290.3,224.3 264.5,209.1 233,222.4 266.9,237.7 "/>
<polygon class="st37" points="262,244.8 262,265.7 268.6,262 268.6,241 "/>
<polygon class="st36" points="257.6,263.1 257.6,241.3 262,244.5 262,265.7 "/>
<polygon class="st37" points="283.7,232.2 283.7,253.4 290.3,249.7 290.3,228.6 "/>
<polygon class="st36" points="279.2,250.9 279.2,231.1 283.7,232.2 283.7,253.4 "/>
<polygon class="st37" points="237.6,227.1 237.6,251.6 243.8,248 243.8,231.5 "/>
<polygon class="st36" points="237.6,251.6 233.1,249 233.1,224 237.6,227.1 "/>
<polygon class="st36" points="262,203.4 262,244.8 233.1,230.8 233.1,186.5 "/>
<polygon class="st24" points="262,203.4 233.1,186.5 238.1,183.7 266.9,200.6 "/>
<polygon class="st37" points="266.9,200.6 262,203.4 262,244.8 290.3,228.6 290.3,224.3 266.9,237.7 "/>
<g>
	<path class="st44" d="M320.7,153.1l-41.8-24.1c-0.5-0.2-1.2,0.2-1.2,0.7v25.7v1v2.5c0,0.7,0.2,3.1,2.1,3.9l38.4,22.2
		c1.5,1,3.5-0.9,3.5-2v-1.9v-24.8v-1.7C321.7,154,321.5,153.4,320.7,153.1z"/>
	<path class="st45" d="M319.8,152.5L278,128.4c-0.5-0.2-1.2,0.2-1.2,0.7v25.7v1v2.5c0,0.7,0.2,3.1,2.1,3.9l38.8,22.7
		c1.5,1,3,0,3-1.1v-3.2v-24.8v-1.7C320.8,153.4,320.6,152.8,319.8,152.5z"/>
	<path class="st46" d="M320.8,179.8l-43.1-23v1.9c0,0.7,0.2,3.1,2.1,3.9l38.2,22.2c1.8,1,3.7-0.8,3.7-2.2v-3.2v-0.5L320.8,179.8z"/>
	<path class="st47" d="M295.5,170.9v1.5c0,0,0.1,1.3-0.6,1.8c-0.9,0.6-4.7,2.5-4.7,2.5s-1.1,0.7,0.3,1.5c0.9,0.5,4.4,2.7,6.4,4
		c0.3,0.2,0.5,0.3,0.7,0.4c0,0.2,0.2,0.4,0.4,0.4c0.2,0,0.3-0.1,0.4-0.2c0,0,0,0,0,0c0,0,0,0,0-0.1c0,0,0,0,0-0.1
		c0.1-0.4,0.3-0.6,0.9-1c1.1-0.6,3.6-1.8,3.6-1.8s1.5-0.6,1.5-2.3c0-0.9,0-1.4,0-1.4L295.5,170.9z"/>
	<path class="st46" d="M294.9,170.5v1.5c0,0,0.1,1.3-0.6,1.8c-0.9,0.6-4.7,2.5-4.7,2.5s-1.1,0.7,0.3,1.5c1.3,0.8,8,4.9,8,4.9
		s-0.1-1,1-1.6c1.1-0.6,3.6-1.8,3.6-1.8s1.5-0.6,1.5-2.3c0-0.9,0-1.4,0-1.4L294.9,170.5z"/>
	<path class="st48" d="M276.8,155.9v2.4c0,0.7,0.2,3.1,2.1,3.9l38.8,22.7c1.5,1,3,0,3-1.1v-2.9L276.8,155.9z"/>
	<polygon class="st33" points="278.6,130.9 278.6,154.5 318.9,177.6 318.9,153.9 	"/>
</g>
<path class="st12" d="M313.7,183.1c0.8-3,2.5-5.1,4.4-6.1c0,0,0,0,0,0v-1.9c0-1.4,1.1-2.5,2.5-2.5c1.4,0,2.5,1.1,2.5,2.5v1.9
	c0,0.1,0,0.2,0,0.3c1.1,0.6,2.3,1.7,3.4,3.5c2.6,4.4,1.7,7-1.5,8.6c-3.2,1.5-7.6,0.7-9.2,0S312.6,187.2,313.7,183.1z"/>
<path class="st49" d="M313.7,183.2c0.8-3,2.5-5.1,4.4-6.1c0,0,0,0,0,0v-1.9c0-1.4,1.1-2.5,2.5-2.5c0.5,0,1,0.2,1.4,0.4
	c-1.3,0.1-2.4,1.2-2.4,2.5v1.9c0,0,0,0,0,0c-1.9,1-3.6,3.1-4.4,6.1c-1.1,4.1,0.6,5.6,2.1,6.3c0.1,0,0.2,0.1,0.2,0.1
	c-0.7-0.2-1.3-0.3-1.7-0.5C314.3,188.8,312.6,187.2,313.7,183.2z"/>
<path class="st50" d="M331.4,192.5h0.5v-21.9c0-2.1-0.9-3.6-2.5-4c-1.8-0.5-3.3-0.1-5.2,0.6c-1.9,0.6-3.1,1.7-3.6,3.2
	c-0.5,1.4-0.4,3.2-0.4,3.3l0.5,0c0,0-0.1-1.8,0.4-3.1c0.4-1.3,1.5-2.3,3.2-2.9c1.7-0.6,3.2-1,4.9-0.6c1.8,0.5,2.1,2.4,2.1,3.5V192.5
	z"/>
<path class="st0" d="M331.7,192.5h0.5v-22.1c0-2.2-0.9-3.7-2.6-4.2c-1.9-0.5-3.5-0.1-5.4,0.6c-2,0.7-3.2,1.8-3.8,3.3
	c-0.5,1.5-0.4,3.4-0.4,3.5l0.5,0c0,0-0.1-1.9,0.4-3.3c0.5-1.3,1.6-2.3,3.4-3c1.8-0.6,3.4-1.1,5.1-0.6c1.9,0.5,2.2,2.5,2.2,3.6V192.5
	z"/>
<polygon class="st36" points="415.3,226.9 415.3,271.1 374.1,294.6 374.1,248.8 "/>
<polygon class="st37" points="374.1,294.6 371.9,293.3 371.9,247.7 374.1,248.9 "/>
<polygon class="st36" points="356.4,199.9 356.4,244.3 315.1,264.7 315.1,214.8 "/>
<polygon class="st37" points="315.1,264.7 312.9,263.5 312.9,213.6 315.1,214.8 "/>
<polygon class="st24" points="416.3,224.8 350.6,187.3 310,210.5 375.5,247.9 "/>
<polygon class="st37" points="375.5,249.8 375.5,247.9 310,210.5 310,212.2 "/>
<polygon class="st38" points="375.5,249.8 375.5,247.9 416.3,224.8 416.3,226.5 "/>
<path class="st39" d="M405,230.3c0,0,0.1,0.2,0.1,0.5c0,0.5-0.4,0.7-0.4,0.7l-4.1,2.1c0,0-0.7,0.3-1.2,0.3c-0.5,0-0.7-0.1-1.3-0.4
	c-0.7-0.3-1.9-0.9-1.9-0.9s-0.6-0.2-0.4-1C395.8,230.8,405,230.3,405,230.3z"/>
<path class="st40" d="M404.1,229.7l-1.7-0.9c0,0-0.7-0.5-1.7,0s-4.7,2.2-4.7,2.2s-1,0.6,0.3,1.2c1.4,0.7,2.1,1,2.1,1
	s0.6,0.4,2.1-0.2c1.6-0.6,4-1.9,4-1.9S406,230.5,404.1,229.7z"/>
<polygon class="st41" points="358.3,237 373.5,228 347.1,211.9 330.6,221.2 "/>
<path class="st42" d="M358.3,237v0.7l13.7-8.5c0,0,0.2,1.1,0.9,1c0.9-0.1,1-0.7,1-1.3c0-0.6-0.3-1-1-0.8
	C372.3,228.2,358.3,237,358.3,237z"/>
<path class="st43" d="M372.2,243.3c0,0,0.6,1.3,2.6,1c2-0.2,6.3-3.3,6.3-3.3s1-1,0.7-1.7S372.2,243.3,372.2,243.3z"/>
<path class="st41" d="M372.2,243.3c1,0.7,2,1.1,3.8,0.2c1.8-0.9,2.8-2.2,4-3c1.3-0.7,2.4-1,1.5-1.8c-0.9-0.9-2.8-2.4-4.8-1.4
	C374.8,238.3,368.5,241,372.2,243.3z"/>
<polygon class="st24" points="358.8,263 333.1,247.8 301.5,261.1 335.4,276.4 "/>
<polygon class="st37" points="330.5,283.5 330.5,304.4 337.1,300.7 337.1,279.7 "/>
<polygon class="st36" points="326.1,301.9 326.1,280.1 330.5,283.2 330.5,304.4 "/>
<polygon class="st37" points="352.2,271 352.2,292.2 358.8,288.4 358.8,267.3 "/>
<polygon class="st36" points="347.8,289.6 347.8,269.8 352.2,271 352.2,292.2 "/>
<polygon class="st37" points="306.1,265.8 306.1,290.3 312.3,286.7 312.3,270.3 "/>
<polygon class="st36" points="306.1,290.3 301.6,287.7 301.6,262.7 306.1,265.8 "/>
<polygon class="st36" points="330.5,242.2 330.5,283.5 301.6,269.5 301.6,225.3 "/>
<polygon class="st24" points="330.5,242.2 301.6,225.3 306.6,222.5 335.4,239.3 "/>
<polygon class="st37" points="335.4,239.3 330.5,242.2 330.5,283.5 358.8,267.3 358.8,263 335.4,276.4 "/>
<g>
	<path class="st44" d="M389.3,191.8l-41.8-24.1c-0.5-0.2-1.2,0.2-1.2,0.7v25.7v1v2.5c0,0.7,0.2,3.1,2.1,3.9l38.4,22.2
		c1.5,1,3.5-0.9,3.5-2v-1.9V195v-1.7C390.2,192.7,390,192.2,389.3,191.8z"/>
	<path class="st45" d="M388.3,191.2l-41.8-24.1c-0.5-0.2-1.2,0.2-1.2,0.7v25.7v1v2.5c0,0.7,0.2,3.1,2.1,3.9l38.8,22.7
		c1.5,1,3,0,3-1.1v-3.2v-24.8v-1.7C389.3,192.2,389.1,191.6,388.3,191.2z"/>
	<path class="st46" d="M389.3,218.6l-43.1-23v1.9c0,0.7,0.2,3.1,2.1,3.9l38.2,22.2c1.8,1,3.7-0.8,3.7-2.2v-3.2v-0.5L389.3,218.6z"/>
	<path class="st47" d="M364.1,209.6v1.5c0,0,0.1,1.3-0.6,1.8c-0.9,0.6-4.7,2.5-4.7,2.5s-1.1,0.7,0.3,1.5c0.9,0.5,4.4,2.7,6.4,4
		c0.3,0.2,0.5,0.3,0.7,0.4c0,0.2,0.2,0.4,0.4,0.4c0.2,0,0.3-0.1,0.4-0.2c0,0,0,0,0,0c0,0,0,0,0-0.1c0,0,0,0,0-0.1
		c0.1-0.4,0.3-0.6,0.9-1c1.1-0.6,3.6-1.8,3.6-1.8s1.5-0.6,1.5-2.3c0-0.9,0-1.4,0-1.4L364.1,209.6z"/>
	<path class="st46" d="M363.4,209.3v1.5c0,0,0.1,1.3-0.6,1.8c-0.9,0.6-4.7,2.5-4.7,2.5s-1.1,0.7,0.3,1.5c1.3,0.8,8,4.9,8,4.9
		s-0.1-1,1-1.6c1.1-0.6,3.6-1.8,3.6-1.8s1.5-0.6,1.5-2.3c0-0.9,0-1.4,0-1.4L363.4,209.3z"/>
	<path class="st48" d="M345.3,194.6v2.4c0,0.7,0.2,3.1,2.1,3.9l38.8,22.7c1.5,1,3,0,3-1.1v-2.9L345.3,194.6z"/>
	<polygon class="st33" points="347.1,169.6 347.1,193.2 387.4,216.3 387.4,192.6 	"/>
</g>
<path class="st12" d="M382.2,221.9c0.8-3,2.5-5.1,4.4-6.1c0,0,0,0,0,0v-1.9c0-1.4,1.1-2.5,2.5-2.5c1.4,0,2.5,1.1,2.5,2.5v1.9
	c0,0.1,0,0.2,0,0.3c1.1,0.6,2.3,1.7,3.4,3.5c2.6,4.4,1.7,7-1.5,8.6c-3.2,1.5-7.6,0.7-9.2,0C382.8,227.5,381.1,225.9,382.2,221.9z"/>
<path class="st49" d="M382.2,221.9c0.8-3,2.5-5.1,4.4-6.1c0,0,0,0,0,0v-1.9c0-1.4,1.1-2.5,2.5-2.5c0.5,0,1,0.2,1.4,0.4
	c-1.3,0.1-2.4,1.2-2.4,2.5v1.9c0,0,0,0,0,0c-1.9,1-3.6,3.1-4.4,6.1c-1.1,4.1,0.6,5.6,2.1,6.3c0.1,0,0.2,0.1,0.2,0.1
	c-0.7-0.2-1.3-0.3-1.7-0.5C382.8,227.5,381.1,226,382.2,221.9z"/>
<path class="st50" d="M399.9,231.2h0.5v-21.9c0-2.1-0.9-3.6-2.5-4c-1.8-0.5-3.3-0.1-5.2,0.6c-1.9,0.6-3.1,1.7-3.6,3.2
	c-0.5,1.4-0.4,3.2-0.4,3.3l0.5,0c0,0-0.1-1.8,0.4-3.1c0.4-1.3,1.5-2.3,3.2-2.9c1.7-0.6,3.2-1,4.9-0.6c1.8,0.5,2.1,2.4,2.1,3.5V231.2
	z"/>
<path class="st0" d="M400.2,231.2h0.5v-22.1c0-2.2-0.9-3.7-2.6-4.2c-1.9-0.5-3.5-0.1-5.4,0.6c-2,0.7-3.2,1.8-3.8,3.3
	c-0.5,1.5-0.4,3.4-0.4,3.5l0.5,0c0,0-0.1-1.9,0.4-3.3c0.5-1.3,1.6-2.3,3.4-3c1.8-0.6,3.4-1.1,5.1-0.6c1.9,0.5,2.2,2.5,2.2,3.6V231.2
	z"/>
<polygon class="st51" points="186.7,305.1 241.5,299.1 223.6,341.5 165.7,346.1 "/>
<g>
	<path class="st52" d="M278.9,338l1.2,10.4c0,0,0.7,5.9,9,5.9c8.3,0,9-5.8,9-5.8l1.3-11L278.9,338z"/>
	<ellipse class="st53" cx="289.2" cy="337.6" rx="10.3" ry="5.8"/>
	<ellipse class="st30" cx="289.2" cy="337.4" rx="9" ry="4.9"/>
	<path class="st54" d="M290,316.8h-1.6v21h0c0,0,0,0.1,0,0.1c0,0.4,0.4,0.8,0.8,0.8c0.4,0,0.8-0.4,0.8-0.8c0,0,0-0.1,0-0.1h0V316.8z
		"/>
	<ellipse class="st3" cx="288.9" cy="304.9" rx="15.5" ry="13.4"/>
	<path class="st4" d="M288.9,310.9c-7.1,0-13-4.1-14.9-9.8c-0.4,1.2-0.6,2.4-0.6,3.7c0,7.4,6.9,13.4,15.5,13.4
		c8.5,0,15.5-6,15.5-13.4c0-1.3-0.2-2.5-0.6-3.7C301.9,306.8,296,310.9,288.9,310.9z"/>
</g>
<g>
	<path class="st52" d="M246.9,357.4l1.2,10.4c0,0,0.7,5.9,9,5.9c8.3,0,9-5.8,9-5.8l1.3-11L246.9,357.4z"/>
	<ellipse class="st53" cx="257.2" cy="357" rx="10.3" ry="5.8"/>
	<ellipse class="st30" cx="257.2" cy="356.8" rx="9" ry="4.9"/>
	<path class="st54" d="M258,336.2h-1.6v21h0c0,0,0,0.1,0,0.1c0,0.4,0.4,0.8,0.8,0.8c0.4,0,0.8-0.4,0.8-0.8c0,0,0-0.1,0-0.1h0V336.2z
		"/>
	<ellipse class="st3" cx="256.9" cy="324.3" rx="15.5" ry="13.4"/>
	<path class="st4" d="M256.9,330.3c-7.1,0-13-4.1-14.9-9.8c-0.4,1.2-0.6,2.4-0.6,3.7c0,7.4,6.9,13.4,15.5,13.4
		c8.5,0,15.5-6,15.5-13.4c0-1.3-0.2-2.5-0.6-3.7C269.9,326.2,264,330.3,256.9,330.3z"/>
</g>
</svg>
