<svg id="Layer_1" xmlns="http://www.w3.org/2000/svg" viewBox="0 0 468.3 457.2"><style>.st0{fill:#b6b6ae}.st1{fill:#d6d6ce}.st2{fill:#ebebe7}.st3{fill:#abd7d8}.st4{fill:#69aeaf}.st5{fill:#79bcc2}.st6{fill:#fff}.st7{fill:#f5e9db}.st8{fill:#83cccc}.st9{fill:#fff6ce}.st10{fill:#34373d}.st11{fill:#545454}.st12{fill:#282828}.st13{fill:#414449}.st14{fill:#dddcd7}.st15{fill:#f3f3f3}.st16{fill:#cfcfcf}.st17{fill:#aaa}.st18{fill:#b9b9b9}.st19{fill:#aaacaf}.st20{fill:#b2dc7f}.st21{fill:#fdd8ae}.st22{fill:#fbbe78}.st23{fill:#cb9d81}.st24{fill:#9e7258}.st25{fill:#c6c6c4}.st26{fill:#c9d3d3}.st27{fill:#464b49}.st28{fill:#fce1c8}.st29{fill:#213454}.st30{fill:#fbdfcb}.st31{fill:#384f70}.st32{fill:#e8eef4}.st33{fill:#f7dac5}.st34{fill:#232323}.st35{fill:#30332c}.st36{fill:#ffe0cb}.st37{fill:#3d3f3b}.st38{fill:#535959}.st39{fill:#87888e}.st40{fill:#4b4855}.st41{fill:#a8a8a8}.st42{fill:#e0e0e0}.st43{fill:#7f594a}.st44{fill:#eaab6c}.st45{fill:#f2f1ef}.st46{fill:#af5056}.st47{fill:#ed5f79}.st48{fill:#ab515a}.st49{fill:#ccb06a}.st50{fill:#e8ce82}.st51{fill:#f9e491}.st52{fill:#ced7d8}.st53{fill:#d6e3e5}.st54{fill:#96c5df}.st55{fill:#fffffd}.st56{fill:#225875}.st57{fill:#3b7893}.st58{fill:#f0a795}.st59{fill:#e67d6d}</style><path class="st0" d="M196.2 457.2v-19l272.1-156.9v17.6z"/><path class="st1" d="M0 324.6l196.2 113.6v19L0 343.3z"/><path class="st2" d="M0 324.7l263.4-151.5 204.9 108.1-272.1 157z"/><path class="st3" d="M462.2 285.9L257 176.7V3.3l168.8 89.6 36.4 102.3z"/><path class="st4" d="M462.2 285.9l6.1-4.5v-89l-6.1 2.8z"/><path class="st5" d="M425.8 92.9l6-3.5 36.5 103-6.1 2.8z"/><path class="st6" d="M257 3.3l6.5-3.3 168.3 89.4-6 3.5z"/><ellipse transform="rotate(-35.098 412.568 164.51)" class="st6" cx="412.6" cy="164.5" rx="26.6" ry="46.6"/><ellipse transform="rotate(-35.098 422.6 212.688)" class="st7" cx="422.6" cy="212.7" rx="17.2" ry="30.1"/><ellipse transform="rotate(-35.098 300.408 121.612)" class="st8" cx="300.4" cy="121.6" rx="14.7" ry="25.8"/><path class="st9" d="M343.2 104.7l15.5-24.5 16.2 43.5z"/><path class="st6" d="M281 172.7l9.9-15.7 10.4 27.9z"/><path class="st8" d="M335.7 158.9v37.4l27.1 15.8v-36.3z"/><path class="st10" d="M345.1 298.1l.2 1.5s.4 1.7-2.9 2.5c-3.3.7-5.2-.9-5.1-2.3.2-1.4 7.8-1.7 7.8-1.7z"/><path class="st11" d="M344.7 294.7s.3 1.5.4 2.5c.1 1 .3 3.1-3 3.7s-4.3-1.1-6.4-1.1c-2.1 0-4.6.7-8.2-.1-3.9-.9-5.4-1.7-4.9-3.9s6.6-1.8 8.1-2.1 1.8-.3 1.8-.3 4.9 2.9 12.2 1.3z"/><path class="st12" d="M350 263.1l-.2-9.2s-3.1-2.7-8.4-1.7c-5.3 1-6.1 4.2-5.6 8.5.4 4.3-1 35.5-1 35.5s5.9-.2 9.9 0 5.3-33.1 5.3-33.1z"/><path class="st13" d="M368.6 273.1s-.2 5.7-14.8 5.7-17.9-6.8-17.9-6.8l2.9 26.9s-1 1.5-6.4 1.5-6.1-2.9-6.2-5c-.1-2.1-1.8-27.5-1.8-27.5s-1.2-5.3 3.7-7.8c4.9-2.6 10.9 1 15.2 1.8s6.7 1.3 6.7 1.3l18.6 9.9z"/><path class="st10" d="M339.3 302.3l.2 1.5s.4 1.7-2.9 2.5c-3.3.7-5.2-.9-5.1-2.3.1-1.5 7.8-1.7 7.8-1.7zM330.6 303.6s-1.8 1.4-7.4.9c-5.6-.5-6.7-2.2-6.6-3.6.2-1.3 14 2.7 14 2.7z"/><path class="st11" d="M338.8 298.8s.3 1.5.4 2.5.3 3.1-3 3.7c-3.3.6-4.3-1.1-6.4-1.1-2.1 0-4.6.7-8.2-.1-3.9-.9-5.4-1.7-4.9-3.9s6.6-1.8 8.1-2.1c1.5-.2 1.8-.3 1.8-.3s4.9 3 12.2 1.3z"/><ellipse transform="scale(-1) rotate(-30.532 -999.81 1055.92)" class="st14" cx="288.2" cy="272.9" rx="4.4" ry="7.5"/><path class="st15" d="M151.2 320.9l11.7-6.9 33.4 19.5v30.8l-12.7 7.4v-32.6zM283.4 267l11.8-7 33.4 19.5v30.8l-12.8 7.5v-32.6z"/><path class="st16" d="M315.8 317.8v-32.6L283.4 267v32z"/><path class="st17" d="M316.3 289.8v-2.1l11.8-6.6v2.3zM316.3 293.8v-2.1l11.8-6.6v2.3z"/><path class="st16" d="M316.3 300.4v-2.7l11.8-6.6v2.9zM316.3 305v-2.7l11.8-6.5v2.9z"/><path class="st18" d="M316.3 314.8V312l11.8-6.5v2.9z"/><ellipse transform="scale(-1) rotate(43.675 760.915 -806.175)" class="st19" cx="323.1" cy="304.9" rx="1.5" ry="2.3"/><ellipse transform="scale(-1) rotate(43.675 760.915 -806.176)" class="st20" cx="323.1" cy="304.9" rx=".8" ry="1.6"/><path class="st21" d="M135.5 292l181.4-105.5 64.5 37.5-180.8 105.8z"/><path class="st22" d="M199.7 333.5V386l6.4-3.7v-52.1z"/><path class="st23" d="M200.6 329.8v4.3l-65.1-37.9V292z"/><path class="st22" d="M200.6 334.1v-4.3L381.4 224v4.8z"/><path class="st24" d="M199.7 386l-2.3-1.3v-50.6l-57.9-33.8v50.6l-2.2-1.4v-52.3l62.4 36.3z"/><path class="st22" d="M145.1 303.6v44l-5.6 3.3v-50.6z"/><path class="st23" d="M135.5 292v-36.7l179-103.3h1.5l-.6 35.4z"/><path class="st22" d="M136.2 291.6v-35.8L316 152v35z"/><path class="st23" d="M138.6 290.2v-32.9l175.3-101.1v32z"/><path class="st24" d="M136.2 255.8l-.7-.5V292l.7-.4z"/><path class="st25" d="M183.6 371.7v-32.6l-32.4-18.2v32z"/><ellipse transform="scale(-1) rotate(-30.532 -1227.61 580.315)" class="st14" cx="158.4" cy="335" rx="4.4" ry="7.5"/><path class="st17" d="M184.1 343.7v-2.1l11.7-6.6v2.4zM184.1 347.7v-2.1l11.7-6.6v2.4z"/><path class="st16" d="M184.1 354.3v-2.7l11.7-6.5v2.9zM184.1 359v-2.7l11.7-6.6v2.9z"/><path class="st18" d="M184.1 368.7V366l11.7-6.6v2.9z"/><ellipse transform="scale(-1) rotate(43.675 895.505 -476.247)" class="st19" cx="190.9" cy="358.9" rx="1.5" ry="2.3"/><ellipse transform="scale(-1) rotate(43.675 895.505 -476.247)" class="st20" cx="190.9" cy="358.9" rx=".8" ry="1.6"/><path class="st22" d="M313.3 268.4c-.2.1 0 50.9 0 50.9l-6.2 3.8V272l6.2-3.6z"/><path class="st24" d="M304.8 273.4v48.5l2.4 1.2V272z"/><path class="st22" d="M249.7 225.6l2.7-1.5v-33.2h-2.7zM200.2 254.3l2.7-1.4v-33.2h-2.7z"/><path class="st26" d="M215.4 310.5l-15.3-9.8 30.8-16.8 15.1 9.6z"/><path class="st27" d="M215.4 310.5v.7l-14.1-9.2s-.2 1.2-1 1.1c-1-.1-1-.8-1-1.4 0-.6.4-1.1 1.1-.9s15 9.7 15 9.7z"/><path class="st10" d="M238.4 362.4l.2 1.5s.4 1.7-2.9 2.5c-3.3.7-5.2-.9-5.1-2.3.1-1.5 7.8-1.7 7.8-1.7z"/><path class="st11" d="M237.9 358.9s.3 1.5.4 2.5c.1 1 .3 3.1-3 3.7-3.3.6-4.3-1.1-6.4-1.1-2.1 0-4.6.7-8.2-.1-3.9-.9-5.4-1.7-4.9-3.9s6.6-1.8 8.1-2.1c1.5-.2 1.8-.3 1.8-.3s5 3 12.2 1.3z"/><path class="st12" d="M243.2 327.3l-.2-9.2s-3.1-2.7-8.4-1.7c-5.3 1-6.1 4.2-5.6 8.5.4 4.3-1 35.5-1 35.5s5.9-.2 9.9 0c3.9.2 5.3-33.1 5.3-33.1z"/><path class="st22" d="M232.5 339.3l28.3-16.8 34.7 14.6-37.3 16.9z"/><path class="st24" d="M264 361.8v22.9l-7.3-4v-23.1z"/><path class="st28" d="M306.6 267.8l-65.4-37.3-33.3 19.4 64.6 37.8z"/><path class="st23" d="M268.9 381.9V358l-4.9 3.5v23.2z"/><path class="st24" d="M240.2 348v23.3l-7.3-4.2V344z"/><path class="st23" d="M245.1 368.5v-21.8l-4.9 1.3v23.3z"/><path class="st24" d="M290.9 342.4v26.8l-6.9-3.9v-18.1z"/><path class="st23" d="M290.9 369.2l4.8-2.8v-27.5l-4.8 3.5z"/><path class="st29" d="M242.2 298.2l-7.9-1s-1.2.6-1.5 2.3c-.3 1.7 0 2.9 0 2.9l5.1 1.7s1.7-2.2 4.3-5.9z"/><path class="st30" d="M234.3 297.2s-5.8-1.3-8.2-1c-2.5.3-4.7 1.4-5.8 2.1s-1 1.9-.2 1.7c.8-.2 1.8-1 2.8-1.4s2.9-.7 3-.3c.1.5 0 1.2-1.4 1.6-1.4.5-2.6 1.2-2.4 1.8.2.7 1.8.6 4-.2s2.7-.1 4.2-.5c1-.3 2.3-.1 2.3-.1s-.2-2.3 1.7-3.7z"/><path class="st31" d="M255.8 287s3.4-1.5 5.6.6c2.2 2.1 2 6.1 2 6.1l-7.6-6.7z"/><path class="st32" d="M245.8 293.8s.4-4.8 5.1-7.6c4.4-2.7 5.6-2.2 6-1.4.5.7.4 1.9 0 2-.4 0-5.7 1.2-11.1 7z"/><path class="st33" d="M255.4 284.1l-.1-2.9s-12.2-8.5-14.2-8.9c-2.1-.4-2.2.7-2.2.7s2.1 8.8 2.7 10.7c.6 1.9 1.1 3.7 3 3.9 1.9.2 2.9-.9 3.3-.9.4.1.1 1.8.1 1.8s2.2-3 7.2-4.5"/><path class="st34" d="M237.8 271.9s2.2 1.8 2.7 3.1c.4 1.3.7 4.9 1.8 4.6 1.1-.3 1-1.8.3-3.4-.7-1.6-.6-1.9.2-2.1.8-.2 2.6.9 3.4 3.7.8 2.8 2.1 6 4.8 5.8 2.8-.2 5.1-1.6 6.2-7 1.2-5.4 1-9.4-1.8-12.3-2.9-2.9-8.1-3.7-12.3-1.6-4.2 2.1-6.1 4-6.5 5.3-.5 1.7.1 2.8 1.2 3.9z"/><path class="st35" d="M210.9 319.7s-.7 1.4-2.9 1.1c-2.2-.3-6.8-3.6-6.8-3.6s-1.1-1.1-.8-1.8c.4-.7 10.5 4.3 10.5 4.3z"/><path class="st13" d="M261.8 337.3s-.2 5.7-14.8 5.7c-14.6 0-17.9-6.8-17.9-6.8l2.9 26.9s-1 1.5-6.4 1.5c-5.3 0-6.1-2.9-6.2-5-.1-2.1-1.8-27.5-1.8-27.5s-1.2-5.3 3.7-7.8c4.9-2.6 10.9 1 15.2 1.8 4.3.8 6.7 1.3 6.7 1.3l18.6 9.9z"/><path class="st10" d="M232.6 366.5l.2 1.5s.4 1.7-2.9 2.5-5.2-.9-5.1-2.3c.1-1.5 7.8-1.7 7.8-1.7zM223.9 367.9s-1.8 1.4-7.4.9c-5.6-.5-6.7-2.2-6.6-3.6s14 2.7 14 2.7z"/><path class="st11" d="M232.1 363.1s.3 1.5.4 2.5.3 3.1-3 3.7c-3.3.6-4.3-1.1-6.4-1.1s-4.6.7-8.2-.1c-3.9-.9-5.4-1.7-4.9-3.9s6.6-1.8 8.1-2.1 1.8-.3 1.8-.3 4.9 2.9 12.2 1.3z"/><path class="st29" d="M242.6 304.2s-.7-5.2 2.4-9.4 8.8-7.6 11.7-7.9c2.9-.3 5.5 1.9 7.3 9.2 1.7 7.3 2.3 19.6 2.4 27.1s-2 15.2-8.7 15.8c-6.6.6-10.2-1.5-12.7-5.1-2.4-3.5-2-11.2-2-13.1s-.4-16.6-.4-16.6z"/><path class="st13" d="M210.9 319.7c-1.1.7-2.2 1.1-4.1.2-2-1-3-2.4-4.4-3.2-1.4-.8-2.6-1-1.6-2s3-2.6 5.2-1.5c2.1 1.1 8.8 4 4.9 6.5z"/><path class="st36" d="M218.7 312.2s-4.5-.7-7.5 0c-2.9.7-4.7 2-6 2.5-1.3.5-1 1.6 0 2.2s3.3.8 4.9.5c1.6-.3 5-.9 7-.2s1.6-5 1.6-5z"/><path class="st31" d="M242.2 298.2s3-4.6 7.3-2.1c4.3 2.5.8 8.3-1.6 11.2-2.3 2.9-10 11.3-14.7 11.4s-15.4-1.2-15.4-1.2-1.2.7-1.2-3.6c0-2.5 1.3-3.2 1.3-3.2s12.7.5 14.9-1c2.3-1.3 9.4-11.5 9.4-11.5z"/><path class="st23" d="M264 316.4v45.4l31.7-15.4v-48.6z"/><path class="st22" d="M264 316.4l31.7-18.6-5.4-3.1-31.7 18.5z"/><path class="st24" d="M258.6 313.2l5.4 3.2v45.4L232.9 344v-4.7l25.7 14.7z"/><path class="st37" d="M164.8 253.5l41.8-24.1c.5-.2 1.2.2 1.2.7v29.2c0 .7-.2 3.1-2.1 3.9l-38.4 22.2c-1.5 1-3.5-.9-3.5-2V255c.1-.6.3-1.2 1-1.5z"/><path class="st38" d="M165.8 252.9l41.8-24.1c.5-.2 1.2.2 1.2.7v29.2c0 .7-.2 3.1-2.1 3.9l-38.8 22.7c-1.5 1-3 0-3-1.1v-29.7c-.1-.6.1-1.2.9-1.6z"/><path class="st39" d="M164.8 280.3l43.1-23v1.9c0 .7-.2 3.1-2.1 3.9l-38.2 22.2c-1.8 1-3.7-.8-3.7-2.2v-3.6l.9.8z"/><path class="st40" d="M190 271.3v1.5s-.1 1.3.6 1.8c.9.6 4.7 2.5 4.7 2.5s1.1.7-.3 1.5c-.9.5-4.4 2.7-6.4 4-.3.2-.5.3-.7.4 0 .2-.2.4-.4.4s-.3-.1-.4-.2v-.1-.1c-.1-.4-.3-.6-.9-1-1.1-.6-3.6-1.8-3.6-1.8s-1.5-.6-1.5-2.3v-1.4l8.9-5.2z"/><path class="st39" d="M190.7 271v1.5s-.1 1.3.6 1.8c.9.6 4.7 2.5 4.7 2.5s1.1.7-.3 1.5c-1.3.8-8 4.9-8 4.9s.1-1-1-1.6c-1.1-.6-3.6-1.8-3.6-1.8s-1.5-.6-1.5-2.3v-1.4l9.1-5.1z"/><path class="st41" d="M208.8 256.3v2.4c0 .7-.2 3.1-2.1 3.9l-38.8 22.7c-1.5 1-3 0-3-1.1v-2.9l43.9-25z"/><path class="st42" d="M207 231.3v23.6L166.7 278v-23.7z"/><path class="st26" d="M322.1 246.2l-15.3-9.8 30.8-16.8 15.2 9.7z"/><path class="st27" d="M322.1 246.2v.7l-14.1-9.2s-.2 1.2-1 1.1c-1-.1-1-.8-1-1.4s.4-1.1 1.1-.9c.7.3 15 9.7 15 9.7z"/><path class="st22" d="M339.3 275l28.3-16.7 34.7 14.6-37.4 16.8z"/><path class="st24" d="M370.8 297.5v23l-7.3-4v-23.2z"/><path class="st23" d="M375.6 317.7v-24l-4.8 3.5v23.3z"/><path class="st24" d="M346.9 283.7V307l-7.2-4.1v-23.2z"/><path class="st23" d="M351.8 304.2v-21.7l-4.9 1.2V307z"/><path class="st24" d="M397.6 278.1V305l-6.9-4v-18z"/><path class="st23" d="M397.6 305l4.9-2.8v-27.5l-4.9 3.4z"/><path class="st12" d="M349 233.9l-7.9-1s-1.2.6-1.5 2.3 0 2.9 0 2.9l5.1 1.7c-.1.1 1.7-2.1 4.3-5.9z"/><path class="st30" d="M341 232.9s-5.8-1.3-8.2-1-4.7 1.4-5.8 2.1c-1.1.7-1 1.9-.2 1.7.8-.2 1.8-1 2.8-1.4 1-.4 2.9-.7 3-.3.1.5 0 1.2-1.4 1.6-1.4.5-2.6 1.2-2.4 1.8s1.8.6 4-.2 2.7-.1 4.2-.5c1-.3 2.3-.1 2.3-.1s-.2-2.3 1.7-3.7z"/><path class="st13" d="M362.6 222.8s3.4-1.5 5.6.6c2.2 2.1 2 6.1 2 6.1l-7.6-6.7z"/><path class="st32" d="M352.6 229.5s.4-4.8 5.1-7.6c4.4-2.7 5.6-2.2 6-1.4.5.7.4 1.9 0 2s-5.8 1.3-11.1 7z"/><path class="st33" d="M362.2 219.9l-.2-2.9s-12.2-8.5-14.2-8.9c-2.1-.4-2.2.7-2.2.7s2.1 8.8 2.7 10.7c.6 1.9 1.1 3.7 3 3.9 1.9.2 2.9-.9 3.3-.9s.1 1.8.1 1.8 2.2-3 7.2-4.5"/><path class="st43" d="M344.5 207.7s2.2 1.8 2.7 3.1c.4 1.3.7 4.9 1.8 4.6s1-1.8.3-3.4c-.7-1.6-.6-1.9.2-2.1.8-.2 2.6.9 3.4 3.7.8 2.8 2.1 6 4.8 5.8s5.1-1.6 6.2-7 1-9.4-1.8-12.3c-2.9-2.9-8.1-3.7-12.3-1.6s-6.1 4-6.5 5.3c-.5 1.7.1 2.8 1.2 3.9z"/><path class="st35" d="M317.6 255.5s-.7 1.4-2.9 1.1-6.7-3.6-6.7-3.6-1.1-1.1-.8-1.8c.3-.8 10.4 4.3 10.4 4.3z"/><path class="st12" d="M349.4 239.9s-.7-5.2 2.4-9.4 8.8-7.6 11.7-7.9c2.9-.3 5.5 1.9 7.3 9.2 1.7 7.3 2.3 19.6 2.4 27.1s-2 15.2-8.7 15.8c-6.6.6-10.2-1.5-12.7-5.1s-2-11.2-2-13.1-.4-16.6-.4-16.6z"/><path class="st13" d="M317.6 255.5c-1.1.7-2.2 1.1-4.1.2s-3-2.4-4.4-3.2c-1.4-.8-2.6-1-1.6-2 1-.9 3-2.6 5.2-1.5 2.1 1.1 8.9 3.9 4.9 6.5z"/><path class="st36" d="M325.4 247.9s-4.5-.7-7.5 0c-2.9.7-4.7 2-6 2.5s-1 1.6 0 2.2 3.3.8 4.9.5 5-.9 7-.2c2.1.6 1.6-5 1.6-5z"/><path class="st13" d="M349 233.9s3-4.6 7.3-2.1c4.3 2.5.8 8.3-1.6 11.2-2.3 2.9-10 11.3-14.7 11.4-4.7.1-15.4-1.2-15.4-1.2s-1.2.7-1.2-3.6c0-2.5 1.3-3.2 1.3-3.2s12.7.5 14.9-1c2.2-1.3 9.4-11.5 9.4-11.5z"/><path class="st23" d="M370.8 252.1v45.4l31.7-15.4v-48.6z"/><path class="st22" d="M370.8 252.1l31.7-18.6-5.5-3-31.7 18.5z"/><path class="st24" d="M365.3 249l5.5 3.1v45.4l-31.1-17.8v-4.6l25.6 14.7z"/><path class="st37" d="M271.6 189.2l41.8-24.1c.5-.2 1.2.2 1.2.7V195c0 .7-.2 3.1-2.1 3.9l-38.4 22.2c-1.5 1-3.5-.9-3.5-2v-28.4c0-.5.2-1.1 1-1.5z"/><path class="st38" d="M272.5 188.6l41.8-24.1c.5-.2 1.2.2 1.2.7v29.2c0 .7-.2 3.1-2.1 3.9L274.5 221c-1.5 1-3 0-3-1.1v-29.7c0-.6.3-1.2 1-1.6z"/><path class="st39" d="M271.5 216l43.1-23v1.9c0 .7-.2 3.1-2.1 3.9L274.3 221c-1.8 1-3.7-.8-3.7-2.2v-3.7l.9.9z"/><path class="st40" d="M296.8 207.1v1.5s-.1 1.3.6 1.8c.9.6 4.7 2.5 4.7 2.5s1.1.7-.3 1.5c-.9.5-4.4 2.7-6.4 4-.3.2-.5.3-.7.4 0 .2-.2.4-.4.4s-.3-.1-.4-.2v-.1-.1c-.1-.4-.3-.6-.9-1-1.1-.6-3.6-1.8-3.6-1.8s-1.5-.6-1.5-2.3v-1.4l8.9-5.2z"/><path class="st39" d="M297.4 206.7v1.5s-.1 1.3.6 1.8c.9.6 4.7 2.5 4.7 2.5s1.1.7-.3 1.5c-1.3.8-8 4.9-8 4.9s.1-1-1-1.6c-1.1-.6-3.6-1.8-3.6-1.8s-1.5-.6-1.5-2.3v-1.4l9.1-5.1z"/><path class="st41" d="M315.5 192v2.4c0 .7-.2 3.1-2.1 3.9L274.5 221c-1.5 1-3 0-3-1.1V217l44-25z"/><path class="st42" d="M313.7 167v23.7l-40.3 23.1V190z"/><path class="st44" d="M306.6 267.8v4.5l-34.1 19.9v-4.5z"/><path class="st45" d="M297.2 139l-31-17.3-21.7 11.4 31.6 18.3z"/><path class="st46" d="M257.1 119.3l9.1-5v14.3l-9.1 5.4z"/><path class="st47" d="M262 122v15.3l-4.9-3.1v-14.9z"/><path class="st48" d="M262 122l9.1-5.5v14.8l-9.1 6z"/><path class="st6" d="M269.8 117.3l-3.7-1.7-7.8 4.4 3.7 2z"/><path class="st49" d="M262.8 122.8l9.2-5.1V132l-9.2 5.6z"/><path class="st50" d="M267.7 125.5v15.2l-4.9-3v-14.9z"/><path class="st51" d="M267.7 125.5l9.1-5.5v14.8l-9.1 5.9z"/><path class="st6" d="M275.5 120.8l-3.7-1.7-7.7 4.4 3.6 2z"/><path class="st52" d="M297.2 139v4.1l-21.1 13v-4.7z"/><path class="st53" d="M276.1 151.4l-31.6-18.3v4.7l31.6 18.3z"/><path class="st46" d="M268.6 126.8l9.2-5v14.3l-9.2 5.4z"/><path class="st47" d="M273.5 129.5v15.3l-4.9-3.1v-14.9z"/><path class="st48" d="M273.5 129.5l9.2-5.5v14.8l-9.2 6z"/><path class="st6" d="M281.3 124.8l-3.6-1.7-7.8 4.4 3.6 2z"/><path class="st49" d="M274.4 130.3l9.1-5.1v14.3l-9.1 5.6z"/><path class="st50" d="M279.3 133v15.2l-4.9-3v-14.9z"/><path class="st51" d="M279.3 133l9.1-5.5v14.8l-9.1 5.9z"/><path class="st6" d="M287.1 128.3l-3.7-1.7-7.8 4.4 3.7 2z"/><g><path class="st54" d="M19.6 316.5l1.2 10.4s.7 5.9 9 5.9 9-5.8 9-5.8l1.3-11-20.5.5z"/><ellipse class="st55" cx="29.9" cy="316.1" rx="10.3" ry="5.8"/><ellipse class="st56" cx="29.9" cy="315.9" rx="9" ry="4.9"/><path class="st57" d="M30.7 295.3h-1.6v21.1c0 .4.4.8.8.8s.8-.4.8-.8v-21.1z"/><ellipse class="st58" cx="29.6" cy="283.3" rx="15.5" ry="13.4"/><path class="st59" d="M29.6 289.4c-7.1 0-13-4.1-14.9-9.8-.4 1.2-.6 2.4-.6 3.7 0 7.4 6.9 13.4 15.5 13.4s15.5-6 15.5-13.4c0-1.3-.2-2.5-.6-3.7-1.9 5.7-7.8 9.8-14.9 9.8z"/></g><g><path class="st54" d="M415.9 278.9l1.2 10.4s.7 5.9 9 5.9 9-5.8 9-5.8l1.3-11-20.5.5z"/><ellipse class="st55" cx="426.1" cy="278.5" rx="10.3" ry="5.8"/><ellipse class="st56" cx="426.1" cy="278.3" rx="9" ry="4.9"/><path class="st57" d="M426.9 257.7h-1.6v21.1c0 .4.4.8.8.8s.8-.4.8-.8v-21.1z"/><ellipse class="st58" cx="425.8" cy="245.8" rx="15.5" ry="13.4"/><path class="st59" d="M425.8 251.9c-7.1 0-13-4.1-14.9-9.8-.4 1.2-.6 2.4-.6 3.7 0 7.4 6.9 13.4 15.5 13.4 8.5 0 15.5-6 15.5-13.4 0-1.3-.2-2.5-.6-3.7-1.9 5.6-7.8 9.8-14.9 9.8z"/></g></svg>