<svg id="Layer_1" xmlns="http://www.w3.org/2000/svg" viewBox="0 0 481.5 444.6"><style>.st0{fill:#9e7258}.st1{fill:#fff}.st2{fill:#fff2bb}.st3{fill:none;stroke:#e8d99e;stroke-width:2;stroke-miterlimit:10}.st4{fill:#e8eeef}.st5{fill:#dae0e0}.st6{fill:#d39e91}.st7{fill:#bae1ef}.st8{fill:#e67d6d}.st9{fill:#85938e}.st10{fill:#e4eae9}.st11{fill:#f6fefd}.st12{fill:#0f3d62}.st13{fill:#cb9d81}.st14{fill:#fbbe78}.st15{fill:#ddae94}.st16{fill:#b8b9b1}.st17{fill:#e9e9e8}.st18{fill:#f2f2f2}.st19{fill:#464b49}.st20{fill:#c6cccc}.st21{fill:#3d3d3d}.st22{fill:#303030}.st23{fill:#ffd3c8}.st24{fill:#faf7e6}.st25{fill:#213454}.st26{fill:#384f70}.st27{fill:#3d3f3b}.st28{fill:#535959}.st29{fill:#87888e}.st30{fill:#4b4855}.st31{fill:#a8a8a8}.st32{fill:#e0e0e0}.st33{fill:#30abd6}.st34{fill:#6bd6f2}.st35{fill:#b4cede}.st36{fill:#3f301d}.st37{fill:#111a2c}.st38{fill:#e6f2f9}.st39{fill:#abd7d8}.st40{fill:#142742}.st41{fill:#97b7b7}.st42,.st43{fill-rule:evenodd;clip-rule:evenodd;fill:#060004}.st43{fill:url(#SVGID_1_)}.st44,.st45,.st46,.st47,.st48,.st49{opacity:.29;fill-rule:evenodd;clip-rule:evenodd;fill:#800002}.st45,.st46,.st47,.st48,.st49{opacity:.44;fill:#e51802}.st46,.st47,.st48,.st49{opacity:.73;fill:#e95b4a}.st47,.st48,.st49{opacity:.93;fill:#e51802}.st48,.st49{opacity:.49}.st49{opacity:.4;fill:#f1aca2}.st50{opacity:.18}.st50,.st51{fill-rule:evenodd;clip-rule:evenodd;fill:#fff}.st52{fill:#060004}.st53{fill:#efc2b9}.st54{fill:#ece7ed}.st55{fill:#3f3947}.st56{fill:#1a1f14}.st57{fill:#ff7675}.st58{fill:#84d4d5}.st59{fill:#704646}.st60{fill:#e2e5e8}.st61{fill:#0a1015}.st62{fill:#e3e9f0}.st63{fill:#ffc1c1}.st64{fill:#fcffff}.st65{fill:#578bb8}.st66{fill:#0776b6}.st67{fill:#243f4a}.st68{fill:#38535e}.st69{fill:#ffaca8}.st70{fill:#fffeff}.st71{fill:#7f594a}.st72{fill:#96c5df}.st73{fill:#fffffd}.st74{fill:#225875}.st75{fill:#3b7893}.st76{fill:#f0a795}</style><path class="st0" d="M99.9 255.2l-4-3v-13.4l4-2.2z"/><path class="st1" d="M0 251.7L284 89.2l197.5 114-282.5 164z"/><path class="st2" d="M262 192.7l63.5-35 100 57.7-62.8 35.8z"/><path class="st3" d="M276.8 192.7l49.4-26.8 85.1 49.4-48.7 27.4z"/><path class="st4" d="M0 251.7v17.5l199 116v-18z"/><path class="st5" d="M481.5 203.2L199 367.2v18L481.5 221z"/><path class="st6" d="M88.1 444.6V429l-68.6-39.4v15z"/><path class="st7" d="M88.1 429l10.2-5.8-67.9-39.5-10.9 5.9z"/><path class="st6" d="M98.3 423.2v-15.6l-67.9-39v15.1z"/><path class="st7" d="M98.3 407.6l10.2-5.7-67.1-39.1-10.9 5.9z"/><path class="st6" d="M108.5 401.9v-15.7l-67.2-38.5v15z"/><path class="st7" d="M108.5 386.2l10.4-5.6-66.8-38.9-10.8 6z"/><path class="st6" d="M118.9 380.6v-15.5l-66.8-38.3v15z"/><path class="st7" d="M118.9 365.1l11.3-5.1-67.1-39.1-10.9 5.9z"/><path class="st6" d="M130.2 360v-15.6L63 305.8v15z"/><path class="st8" d="M88.1 444.6l57.1-33v-15L88.1 429zM98.3 423.2l46.9-26.6v-15.1l-46.9 26.1z"/><path class="st8" d="M145.2 366.4v-30.2l-15 8.2v14.7l-11.3 6v15.5l-10.4 5.6v15.7l36.7-20.4v-15.1z"/><path class="st7" d="M130.2 344.4l15-8.2-66.7-38.9-15.5 8.5z"/><path class="st9" d="M179.8 159.5H178v-9.6l1.8-.9z"/><path class="st10" d="M443.9 70.7v98l-115.4-64.9v-96z"/><path class="st11" d="M442 70.7v95l-113.5-64.5v-93z"/><path class="st12" d="M450.8 73c.9-1.6.3-3.6-1.3-4.4L327.5.5c-1.6-.9-3.6-.3-4.4 1.3-.9 1.6-.3 3.6 1.3 4.4l122 68.1c1.6.8 3.5.2 4.4-1.3z"/><path class="st13" d="M138.8 264.4v44.2l41.2 23.5v-45.9z"/><path class="st0" d="M180 332.1l2.3-1.4v-45.6l-2.3 1.3z"/><path class="st13" d="M197.8 237.4v44.3l41.2 20.4v-45.5z"/><path class="st0" d="M239 302.1l2.3-1.2v-45.5l-2.3 1.2z"/><path class="st14" d="M137.8 262.2l57.6-32.9 43.4 21.6-60.1 34.4z"/><path class="st0" d="M178.7 287.2v-1.9l59.9-34.4v1.7z"/><path class="st15" d="M178.7 287.2v-1.9l-40.9-23.1v1.8z"/><path class="st16" d="M149.1 267.7s-.1.2-.1.5c0 .5.4.7.4.7l4.1 2.1s.7.3 1.2.3.7-.1 1.3-.4 1.9-.9 1.9-.9.6-.2.4-1c0-.8-9.2-1.3-9.2-1.3z"/><path class="st17" d="M150 267.1l1.7-.9s.7-.5 1.7 0 4.7 2.2 4.7 2.2 1 .6-.3 1.2-2.1 1-2.1 1-.6.4-2.1-.2c-1.6-.6-4-1.9-4-1.9s-1.5-.6.4-1.4z"/><path class="st18" d="M195.1 274.4l-14.1-9.1 28.5-15.5 14 8.9z"/><path class="st19" d="M195.1 274.4v.7l-13.1-8.5s-.2 1.1-.9 1c-.9-.1-1-.7-1-1.3 0-.6.3-1 1-.8.7.1 14 8.9 14 8.9z"/><path class="st20" d="M181.9 280.8s-.6 1.3-2.6 1c-2-.2-6.3-3.3-6.3-3.3s-1-1-.7-1.7c.3-.7 9.6 4 9.6 4z"/><path class="st18" d="M181.9 280.8c-1 .7-2 1.1-3.8.2-1.8-.9-2.8-2.2-4-3s-2.4-1-1.5-1.8c.9-.9 2.8-2.4 4.8-1.4s8.2 3.6 4.5 6z"/><path class="st21" d="M195.6 315.6c-2.3-.5-3.8-2.7-3.3-5l4.6-22.7c.5-2.3 2.7-3.8 5-3.3s3.8 2.7 3.3 5l-4.6 22.7c-.4 2.3-2.7 3.8-5 3.3z"/><ellipse transform="rotate(14.234 192.854 313.457)" class="st22" cx="192.8" cy="313.4" rx="6.6" ry="3.8"/><path class="st14" d="M195.3 300.5l25.8-15.2 31.6 13.2-34 15.4z"/><path class="st13" d="M223.6 320.9v21l-6.6-3.7v-21.1z"/><path class="st0" d="M228.1 339.3v-21.8l-4.5 3.2v21.2z"/><path class="st13" d="M202 308.4v21.2l-6.7-3.8v-21.1z"/><path class="st0" d="M206.4 327.1v-19.8l-4.4 1.1v21.2z"/><path class="st13" d="M248.1 303.3v24.4l-6.3-3.5v-16.5z"/><path class="st0" d="M248.1 327.7l4.4-2.5v-25.1l-4.4 3.2z"/><path class="st22" d="M232.2 301.9l-25-6.1c-3.7-.9-6.1-4.7-5.1-8.4.9-3.7 4.7-6.1 8.4-5.1l25 6.1c3.7.9 6.1 4.7 5.1 8.4-.8 3.7-4.6 6.1-8.4 5.1z"/><path class="st21" d="M223.5 308.7l-23.3-10.9c-3.5-1.6-5-5.8-3.4-9.3 1.6-3.5 5.8-5 9.3-3.4l23.3 10.9c3.5 1.6 5 5.8 3.4 9.3-1.6 3.5-5.8 5-9.3 3.4z"/><path class="st23" d="M223 250.4s-1.9-1.5-3.6-2c-1.7-.5-2.7 0-2.7 0s1.4.8 2.2 1.7c.8.9 1 1.8.6 1.8-.4-.1-1.7-.4-2.1-.2-.4.2 0 1 .9 1.6 1.2.9 1.6.2 1.6.2s2.4-2.3 3.1-3.1z"/><path class="st24" d="M220.6 252.6s2.7-3.8 9.4-5.1c6.7-1.3 8.6-.5 8.6-.5s2.2 5.2-7.4 7.4c-9.6 2.3-10.6-1.8-10.6-1.8z"/><path class="st25" d="M238.6 247s-1.8 4-6.7 5.6c-5 1.6-11.3 0-11.3 0s-2.7 1.3-3.2 16.3-1.2 26.9 1.9 32.4c3.2 5.5 9.6 12 20.2 1.9s3.9-32 3.9-32l.3-13.3c0-.1.9-9.6-5.1-10.9z"/><path class="st26" d="M209.3 279.1c-2-1.3-2.6-4-1.3-6l10-15.5c1.3-2 4-2.6 6-1.3s2.6 4 1.3 6l-10 15.5c-1.3 2.1-4 2.6-6 1.3z"/><path class="st23" d="M195.3 276.8s-3.4-1-5.6-2.2-1.3-3.7-.9-4.1 1.2 1.6 2.5 1.6 2.3-1.4 4.6-.4c2.3 1.1-.6 5.1-.6 5.1z"/><path class="st26" d="M209.8 271.7c-3.9 1.7-5.7.7-13.6 0h-.2c-.2 1.2-.6 3.2-.6 5 .5.3 1.1.7 1.9 1 11.9 5.3 17 1.3 17 1.3s-.6-9.1-4.5-7.3z"/><path class="st23" d="M219.2 230.7s-1.1 2.5-1.1 7.7-.6 8.3 2.5 9.3 4.6 0 4.6 0l-.3 1.7s1.7-.9 3.5-1.4c2.2-.6 5.9-1 5.9-1l-.2-1.8s-6-9.7-8.3-11.1c-2.3-1.5-6.6-3.4-6.6-3.4z"/><path class="st0" d="M223.6 279.6v41.3l28.9-14v-44.2z"/><path class="st14" d="M223.6 279.6l28.9-16.9-4.9-2.8-28.9 16.8z"/><path class="st13" d="M218.7 276.7l4.9 2.9v41.3l-28.3-16.2v-4.2l23.4 13.4z"/><path class="st25" d="M218.2 235.1s-1.1-1.3-1-4.8c.1-2.9 2.4-6.4 7.2-7.1 4.8-.7 9.7.5 12.6 5.3 2.9 4.8 2 10.9-.8 14.5s-5.9 4-8.6 4.1c-2.7.1-2.8-3.6-2.8-3.6s3.2-.8 3.2-2.9c0-2.1-1.3-2.4-2.6-1.9s-1.5 2.2-1.5 2.2V235s-1.4-.6-2.4-1.5-2.5-2.6-2.5-2.6-.4 1.3-.8 4.2z"/><path class="st27" d="M164.9 229.2l41.8-24.1c.5-.2 1.2.2 1.2.7V235c0 .7-.2 3.1-2.1 3.9l-38.4 22.2c-1.5 1-3.5-.9-3.5-2v-28.4c0-.5.2-1.1 1-1.5z"/><path class="st28" d="M165.8 228.6l41.8-24.1c.5-.2 1.2.2 1.2.7v29.2c0 .7-.2 3.1-2.1 3.9L167.9 261c-1.5 1-3 0-3-1.1v-29.7c-.1-.6.2-1.2.9-1.6z"/><path class="st29" d="M164.8 256l43.1-23v1.9c0 .7-.2 3.1-2.1 3.9L167.6 261c-1.8 1-3.7-.8-3.7-2.2v-3.7l.9.9z"/><path class="st30" d="M190.1 247.1v1.5s-.1 1.3.6 1.8c.9.6 4.7 2.5 4.7 2.5s1.1.7-.3 1.5c-.9.5-4.4 2.7-6.4 4-.3.2-.5.3-.7.4 0 .2-.2.4-.4.4s-.3-.1-.4-.2v-.1-.1c-.1-.4-.3-.6-.9-1-1.1-.6-3.6-1.8-3.6-1.8s-1.5-.6-1.5-2.3v-1.4l8.9-5.2z"/><path class="st29" d="M190.7 246.7v1.5s-.1 1.3.6 1.8c.9.6 4.7 2.5 4.7 2.5s1.1.7-.3 1.5c-1.3.8-8 4.9-8 4.9s.1-1-1-1.6c-1.1-.6-3.6-1.8-3.6-1.8s-1.5-.6-1.5-2.3v-1.4l9.1-5.1z"/><path class="st31" d="M208.8 232v2.4c0 .7-.2 3.1-2.1 3.9L167.9 261c-1.5 1-3 0-3-1.1V257l43.9-25z"/><path class="st32" d="M207 207v23.7l-40.2 23.1V230z"/><path class="st33" d="M171.9 259.3c-.8-3-2.5-5.1-4.4-6.1v-1.9c0-1.4-1.1-2.5-2.5-2.5s-2.5 1.1-2.5 2.5V253.5c-1.1.6-2.3 1.7-3.4 3.5-2.6 4.4-1.7 7 1.5 8.6 3.2 1.5 7.6.7 9.2 0 1.5-.7 3.3-2.2 2.1-6.3z"/><path class="st34" d="M171.9 259.3c-.8-3-2.5-5.1-4.4-6.1v-1.9c0-1.4-1.1-2.5-2.5-2.5-.5 0-1 .2-1.4.4 1.3.1 2.4 1.2 2.4 2.5v1.9c1.9 1 3.6 3.1 4.4 6.1 1.1 4.1-.6 5.6-2.1 6.3-.1 0-.2.1-.2.1.7-.2 1.3-.3 1.7-.5 1.5-.6 3.3-2.2 2.1-6.3z"/><path class="st35" d="M154.2 268.7h-.5v-21.9c0-2.1.9-3.6 2.5-4 1.8-.5 3.3-.1 5.2.6 1.9.6 3.1 1.7 3.6 3.2.5 1.4.4 3.2.4 3.3h-.5s.1-1.8-.4-3.1c-.4-1.3-1.5-2.3-3.2-2.9-1.7-.6-3.2-1-4.9-.6-1.8.5-2.1 2.4-2.1 3.5v21.9z"/><path class="st1" d="M153.9 268.7h-.5v-22.1c0-2.2.9-3.7 2.6-4.2 1.9-.5 3.5-.1 5.4.6 2 .7 3.2 1.8 3.8 3.3.5 1.5.4 3.4.4 3.5h-.5s.1-1.9-.4-3.3c-.5-1.3-1.6-2.3-3.4-3-1.8-.6-3.4-1.1-5.1-.6-1.9.5-2.2 2.5-2.2 3.6v22.2z"/><path class="st36" d="M283.3 139.8s1.5 2.8 6.5 5.3 6.3 1.3 7.3.6c1-.7 1.2-2.3-1-3.8-2.2-1.6-4.2-3.7-4.2-3.7l-8.6 1.6zM296.8 136.7s1.5 2.8 6.5 5.3 6.3 1.3 7.3.6 1.2-2.3-1-3.8c-2.2-1.6-4.2-3.7-4.2-3.7l-8.6 1.6z"/><path class="st23" d="M287.1 48.1s1-.2.9-2.2v-1.8l8.2.2s-.2 1.5.1 2.3c.3.8-.3 6-3.6 5.7-3.4-.2-5.6-4.2-5.6-4.2z"/><path class="st37" d="M281.3 96.6s.7 27.5.7 32.4c0 5 1 10.8 1 10.8s3.7 1 6.6.6c3-.4 3.3-1.2 3.3-1.2s.3-23.5.5-28.4c.2-4.9 1-9.4 1-9.4l2.2 35.2s2.4 1.1 5.5.9c3.1-.2 3.6-1.9 3.6-1.9l-.8-44.9-23.6 5.9z"/><path class="st38" d="M285.7 49.5s.7-.9 1.1-1.3c.7-.5 1.4.3 3.4 2 2.4 1.9 3.4 1.9 3.4 1.9s1.3-.9 1.9-2.9c.3-1.2.7-2.5.7-2.5h.9s3.1 6.1-.1 18-11.3-15.2-11.3-15.2z"/><path class="st23" d="M331.5 43.2s.7-1.3 1.9-2.1c1.2-.7 1.6-1.9 2.5-1.7.8.2.5 1.6 1 1.7.5.1-.1-1.3 1-2 1.2-.7 2.1.4 1.7 2.3s-2 3.3-4.1 4c-2.1.7-3.3.4-4.2 1.1-.9.7.2-3.3.2-3.3z"/><path class="st39" d="M332.9 44.9c-.7-1.4-2.1-2.2-2.1-2.2s-4.4 2.3-11.5 4c-7 1.7-10.6 1-14 .6s-8.1-.6-8.1-.6 1.1 4.1.6 9.4c-.5 5.2-2.3 10.7-2.3 10.7s-1-1-4.1-6.5-5.8-10.8-5.8-10.8-4.1 2.6-7.9 7.2-6 18.9-6.3 25c-.3 6.1 9.4 1.8 9.4 1.8l-.4 12.6s5.3 2.7 8.3 3.2c2.5.4 4.5.8 6-1s1.9-5 1.9-5 1 3.1 1.9 4.2c.9 1.1 2.6 1.2 4.4-.3 1.7-1.5 2.9-3.3 2.9-3.3s-1.8-18-1.8-24.8c0-6.9.8-12.8.8-12.8s2.8.6 12-1.5 15.5-6.7 15.5-6.7 1.3-1.8.6-3.2zm-53.6 32.7l1.4-4.1.7 3-2.1 1.1z"/><path class="st40" d="M281.5 76.7l-1.9-7.2 9.2-8.3 4.3 17-8.9 8.5z"/><path class="st1" d="M282.1 73.6l-.9-3.3 7.2-6.5 3.3 13.8-6.8 6.4z"/><path class="st41" d="M286.4 73.9s.3-.2.4 1.5c.1 2.1.3 5.2-.4 5.3-.7 0-1.6-.6-1.3-2.9.3-3.6 1.3-3.9 1.3-3.9z"/><path class="st23" d="M291.3 70.7s1-.4 1.5.4.9 2.6.7 3.4c-.5 1.8-1.6 1.7-3.5 2.8-1.4.9-4.3 2.4-4.3 2.4s-.1-.9 0-2.6c.1-1.7.2-2 .2-2s1.7-.7 2-2.7c.2-1.3 2.7-4.2 3.3-3.5.8 1 .1 1.8.1 1.8z"/><path class="st39" d="M279.3 77.6l7.1-3.7s-.8.4-.8 4.7c0 1.5.4 2 .8 2.1l-7.8 3.7.7-6.8z"/><path class="st37" d="M294 54.9c-.7.1-1.3-.4-1.4-1.1v-.2c-.1-.6.4-1.2 1.1-1.3h.1c.6-.1 1.2.4 1.3 1.1v.2c.1.7-.4 1.2-1.1 1.3z"/><path class="st37" d="M293.9 54.8l-1.2 5.5 2.9 6.5.9-7.3z"/><path class="st23" d="M298 33s2.4 11.3-1.6 11.8c-3.9.5-9 3.5-13.1-5.1-4.1-8.7 10.3-9 14.7-6.7z"/><path class="st25" d="M283.9 39.5s-1.6-3.5-.4-4c2-.9 2 1.1 3.1.8 1.1-.3.9-2.5.9-2.5s1.2 2.5 5.8 1.4 6.1-1.3 4.2-5.7c-1.9-4.4-6.2-4.9-9.9-4.6-3.7.3-7.7 3.6-7.3 9 .6 6.1 4.6 7.2 3.6 5.6z"/><g><path class="st42" d="M372 76.8l-5.1-2.8v4.7l5.1 2.9v-1.7l-2.7-1.5v-1.3l4.3 2.4v2.6c0 .7-.1 1.1-.4 1.2-.2.1-.7 0-1.4-.4l-4.9-2.8c-.7-.4-1.2-.8-1.4-1.2-.2-.4-.4-.9-.4-1.6v-3.9c0-.7.1-1.1.4-1.2.2-.1.7 0 1.4.4l4.9 2.7c.7.4 1.1.8 1.4 1.1.2.4.4.9.4 1.5v.2l-1.6-.6v-.7zm6.7 6.9l3.1 1.7-1.5-3.9-1.6 2.2zm-3.2 1.2l4-5.3 1.6.9 4.1 9.9-1.8-1-.8-2.1-4.5-2.5-.8 1.2-1.8-1.1zm17.2 3.3l-3.7-2v2.2l3.7 2.1c.3.2.5.2.6.2.1 0 .2-.2.2-.4v-.9c0-.2-.1-.4-.2-.6-.1-.3-.3-.4-.6-.6zm-5.3 3.4v-7.7l6 3.3c.6.3 1 .7 1.2 1 .3.4.4.8.4 1.4v1.8c0 .5-.1.8-.4.9-.3.1-.7 0-1.2-.3l-.9-.5 3.3 4.8-2.4-1.3-2.8-4.5-1.6-.9v2.9l-1.6-.9zm11 6.2V90l1.1.6 5 7.4c.2.2.3.5.4.7.1.2.2.4.4.6 0-.5 0-.8-.1-1V93.7l1.5.8v7.9l-1.1-.6-5.2-7.8c-.1-.2-.2-.4-.3-.5-.1-.2-.2-.3-.3-.4 0 .3 0 .5.1.7v4.8l-1.5-.8zm11.9 6.7v-8l7.2 4v1.4l-5.6-3.1v1.8l3.3 1.8v1.4l-3.3-1.8v2l5.7 3.2v1.5l-7.3-4.2zm13.6 1v6.7l-1.6-.9v-6.7l-3.2-1.8v-1.4l8.1 4.5v1.5l-3.3-1.9z"/><linearGradient id="SVGID_1_" gradientUnits="userSpaceOnUse" x1="351.328" y1="56.537" x2="351.328" y2="85.988"><stop offset="0" stop-color="#e50f03"/><stop offset="1" stop-color="#aa0b05"/></linearGradient><path class="st43" d="M344.5 78l13.7 8 3.8-1.7V70l-3.8-6-13.7-7.5-3.8 1.7V72z"/><path class="st44" d="M351.3 63.4l7.6 12 3.1 8.9-3.8 1.7-6.9-7.1-7.6-12.1-3-8.6 3.8-1.7z"/><path class="st45" d="M343.7 66.8l7.6-3.4 6.9.6 3.8 6-3.1 5.4-7.6 3.5-6.8-.9-3.8-6z"/><path class="st46" d="M340.7 72l5.3 1.5-1.5 4.5zM358.2 64l-1.5 4.6L362 70z"/><path class="st47" d="M340.7 58.2l5.3 4.5-1.5-6.2z"/><path class="st48" d="M358.2 86l-1.5-6.3 5.3 4.6z"/><path class="st49" d="M346 62.7l10.7 5.9v11.1L346 73.5z"/><path class="st50" d="M343.7 66.8l7.6-3.4 7.6 12-7.6 3.5z"/><path class="st51" d="M354.1 69.9l-5.6-3.1V72l5.6 3.2v-2.1l-2.9-1.6v-.9l4.1 2.3v2.4c0 .7-.1 1.1-.4 1.2-.2.1-.7 0-1.3-.4l-4.6-2.6c-.7-.4-1.1-.7-1.3-1.1-.2-.4-.3-.9-.3-1.5v-3.8c0-.7.1-1 .3-1.2.2-.1.7 0 1.3.4l4.6 2.6c.6.4 1.1.7 1.3 1.1.2.4.4.9.4 1.5v.2l-1.2-.7v-1.1z"/><path class="st52" d="M366.1 84.1v.7l2 1.1c.1.1.3.2.4.3.1.1.2.2.2.3.1.1.1.2.1.3v1.1c0 .1-.1.1-.1.2h-.2c-.1 0-.2-.1-.4-.2l-2-1.1c-.2-.1-.3-.2-.4-.3-.1-.1-.2-.2-.2-.3-.1-.1-.1-.2-.1-.3v-.5l.7.3v.4l2.2 1.3v-.7l-2-1.1c-.1-.1-.3-.2-.4-.3-.1-.1-.2-.2-.2-.3-.1-.1-.1-.2-.1-.3v-.8-.4c0-.1.1-.1.1-.2h.2c.1 0 .2.1.4.2l1.8 1c.3.2.5.3.6.5.1.2.2.4.2.7v.1l-.6-.2v-.3l-2.2-1.2zM373.7 88.3c0-.1.1-.1.1-.2h.2c.1 0 .2.1.4.2l2.4 1.3c.1.1.3.2.4.2.1.1.2.2.2.3.1.1.1.2.1.3v2.5c0 .1-.1.1-.1.2h-.2c-.1 0-.2-.1-.4-.2l-2.4-1.4c-.2-.1-.3-.2-.4-.3-.1-.1-.2-.2-.2-.3-.1-.1-.1-.2-.1-.3v-2.1-.2zm3.2 4.1v-2l-2.5-1.4v2l2.5 1.4zM382.5 92.9l3.2 1.8v.6l-2.5-1.4v.9l1.3.8v.6l-1.3-.8v1.2l-.7-.4v-3.3zM391.9 101.6l-.7-.4v-2.7l-1.5-.8V97l3.7 2.1v.6l-1.5-.8v2.7zM397.5 101.5l.8.4.8 2.8.9-1.9.5.3.8 2.8.8-1.9.7.4-1.2 2.7-.5-.3-.9-2.9-.9 1.9-.5-.3-1.3-4zM408.5 107.8l.7.4 1.8 4.5-.8-.5-.4-1-2-1.2-.4.5-.7-.4 1.8-2.3zm1.1 2.6l-.7-1.8-.7 1 1.4.8zM415.4 111.7l2.7 1.6c.2.1.4.3.5.5.1.2.2.4.2.6v.8c0 .2-.1.4-.2.4s-.3 0-.5-.2l-.4-.2 1.4 2.2-1.1-.6-1.3-2.1-.7-.4v1.3l-.7-.4v-3.5zm.8 1.1v1l1.7 1c.1.1.2.1.3.1.1 0 .1-.1.1-.2v-.4c0-.1 0-.2-.1-.3-.1-.1-.1-.1-.3-.2l-1.7-1zM423.7 116.5l3.3 1.9v.6l-2.5-1.4v.8l1.5.8v.6l-1.5-.8v.9l2.6 1.5v.7l-3.3-1.9v-3.7z"/></g><g><path class="st53" d="M455.7 108.6s-2.3 7.2-6.3 6.6c-4-.7-2.6-6.9-2.6-6.9l8.9.3z"/><path class="st54" d="M456.1 108.6l2.5 2.3s.4 3.3-2.4 8.4c-2.8 5.1-9.3 14.8-9.3 14.8l-2.7-14.8s1.5-8.1 2.2-9.4c.7-1.3 1.6.7 1.6.7s.5 3.7 1.6 4c1.1.3 5-4.5 5-4.5l1.5-1.5z"/><path class="st55" d="M440.4 144.1s2.1 4.6 8.7 6.1c6.7 1.5 14.2-2.5 14.2-2.5s1.4-.2 1.2-3.3-.5-6.6-.6-9.6c-.1-2.9 1.6-9.2 1.3-12.5-.3-3.4 0-4.5-2.2-7.3s-4.6-4.6-4.6-4.6 0 2.7-2.3 4.9-3.6 3-4.2 5.1c-.6 2.1-4.2 7-4.2 7s-1.8-5.6-1.7-7c0-1.4.9-3 .3-4.4-.6-1.4 0-4.9 0-4.9s-3.9-.4-4.5 5.6c-.7 6 .6 17.2 0 20.6-.6 3.5-1.7 3.2-1.4 6.8z"/><path class="st56" d="M461.2 197.3s1.6 3.2-.9 6.2c-2.4 3-5.2 6.1-8.8 4.9-3.6-1.2-2.8-2.9-.7-5.4 2.2-2.5 3.3-3.6 2.9-5.7s7.5 0 7.5 0zM451.3 194.4s.3 3.6-3 5.5c-3.3 2-7 3.9-9.9 1.5-2.9-2.4-1.6-3.7 1.3-5.3 2.9-1.6 4.3-2.2 4.7-4.3.4-2.1 6.9 2.6 6.9 2.6z"/><path class="st37" d="M449.1 149.3s-3.3-1.3-5.4-2.5c-2.2-1.2-3.3-2.6-3.3-2.6s1.4 18.4 1.8 26c.4 7.6.2 22.5.2 22.5s0 1.8 3.5 2.8c3.5 1 6.3-.5 6.3-.5l-3.1-45.7z"/><path class="st53" d="M439.8 110.9s2.4-4.5 3.2-5.4l2.4-2.7s1.7 4.4 1.5 6.4c-.2 2-.9 3-1.9 3.2-1 .2-1 .6-1 .6s-5.2-.3-4.2-2.1z"/><path class="st55" d="M463.3 147.8s.2 6.2-.9 8.8c-1.1 2.6-1.5 12-1.3 17.4.2 5.4 4 24-1 24.9s-8 .5-8.5-6.6c-.5-7.9-2.2-26.4-2.4-30.3-.2-3.9 0-12.7 0-12.7s7 1.1 14.1-1.5z"/><path class="st57" d="M444.9 113.7l-7.1 13.8-4.1-3.2-1.1-7.6 2.2.3 3.9-6.4c.1.1 3.5.3 6.2 3.1z"/><path class="st32" d="M435.5 115.9v22.6l-14.7-6.9-.5-22.6z"/><path class="st58" d="M435.3 115.9v22.6l-14.8-6.9-.5-22.6z"/><path class="st37" d="M455.9 108.2s4.9 1.1 6.9-4 3.6-8 2-11c-1.5-3-4.1-2.2-8.3-3.5-4.2-1.3-5.6-3-8.3-1s-1.1 8.2-1.1 8.2l8.8 11.3z"/><path class="st23" d="M458.9 101.9s2.5-4.1 0-5.6c-2.5-1.4-4.2-.5-7.3-2s-2.7-2-2.7-2-1.5 1-2.4 4.5c-.9 3.5-1.4 3.7-.8 7.3s.1 6.5 3.6 6.5c3.4.1 5.4-.1 6.9-2.1s1.5-2.1 2.5-2.4c1-.4 2-.6 2.3-2.3.4-2.2-1.3-1.6-1.3-1.6s-1.5 1.1-.8-.3z"/><path class="st37" d="M449.6 114.3l1.2 2.5-1.4 1.3.5 18.9-3.7 7.1-1.6-8.2 4.1-17.9-.9-1.4z"/><path class="st23" d="M440.4 126.6s-1.8-2.3-4.6-2.3-4.8.6-5.1 2.3c-.4 1.7 3.3 3.9 4.9 4.9s2.7 1.3 3.8 1.4c1 .1 1-6.3 1-6.3z"/><path class="st57" d="M466.1 123.5s1.1-3.6-1.5-5.9-3.8.6-6.1 4.3-5.1 8.8-5.3 9.8c-.2.9-.3 1.4-.3 1.4l-12.5-6.4s.2 2.2-.8 4c-1 1.8-2.2 1.9-2.2 1.9l12.4 7.5s2.6 1.9 4.8 1.2c2.2-.7 4.7-4.3 7.2-8.2 2.6-4 4.3-9.6 4.3-9.6z"/></g><path class="st0" d="M54 257.8l-4.1-2.3v-20.7l4.1 3.1z"/><path class="st13" d="M58.1 233.9v21.5l-4.1 2.4v-21.6z"/><path class="st0" d="M74.7 269.8l-4.1-2.3v-18.2l4.1 2.8z"/><path class="st14" d="M104 232.2l-20.5-11.9-29.4 17 20.6 12z"/><path class="st13" d="M83.5 220.3v-31.8l-29.4 17.1v31.8z"/><path class="st14" d="M83.5 188.5l-4-2.4-29.6 17.2 4.2 2.4z"/><path class="st0" d="M54.1 205.7l-4.2-2.4v34.5l24.8 14.3v-2.8l-20.6-12z"/><path class="st13" d="M104 232.2v3.7l-29.3 17v-3.6z"/><path class="st13" d="M104 233.6v19.2l-4.1 2.4v-18.8zM78.8 250v17.4l-4.1 2.4v-17.7z"/><g><path class="st0" d="M182.9 212l-4-3v-13.3l4-2.3zM137 214.6l-4.1-2.3v-20.7l4.1 3.1z"/><path class="st13" d="M141.1 190.7v21.5l-4.1 2.4V193z"/><path class="st0" d="M157.6 226.6l-4-2.3v-18.2l4 2.8z"/><path class="st14" d="M187 189l-20.5-11.9-29.4 17 20.6 12z"/><path class="st13" d="M166.5 177.1v-31.8l-29.4 17.1v31.8z"/><path class="st14" d="M166.5 145.3l-4-2.4-29.6 17.2 4.2 2.4z"/><path class="st0" d="M137.1 162.5l-4.2-2.4v34.5l24.7 14.3v-2.8l-20.5-12z"/><path class="st13" d="M187 189v3.8l-29.4 16.9v-3.6z"/><path class="st13" d="M187 190.4v19.2l-4.1 2.4v-18.8zM161.7 206.8v17.5l-4.1 2.3v-17.7z"/></g><g><path class="st0" d="M142.8 234.3l-4-3v-13.4l4-2.2zM96.9 236.9l-4.1-2.4v-20.6l4.1 3.1z"/><path class="st13" d="M101 212.9v21.6l-4.1 2.4v-21.6z"/><path class="st0" d="M117.6 248.9l-4.1-2.4v-18.1l4.1 2.8z"/><path class="st14" d="M146.9 211.3l-20.5-12-29.4 17 20.6 12.1z"/><path class="st13" d="M126.4 199.3v-31.8L97 184.7v31.7z"/><path class="st14" d="M126.4 167.5l-4-2.3-29.6 17.1 4.2 2.5z"/><path class="st0" d="M97 184.8l-4.2-2.5v34.5l24.8 14.4v-2.8L97 216.3z"/><path class="st13" d="M146.9 211.3v3.7l-29.3 17v-3.6z"/><path class="st13" d="M146.9 212.7v19.2l-4.1 2.4v-18.9zM121.7 229.1v17.4l-4.1 2.4v-17.7z"/></g><g><path class="st59" d="M105.5 267.1s2.7 2.4 3.9 5.2 1.1 4.4-.7 5.4c-2.5 1.3-4.8-1.2-5.6-1.8s-3.9-2.9-4.2-4.2.5-1.8.5-4.3c.1-2.4 6.1-.3 6.1-.3zM93.7 271s2.6 2.3 3.8 5c1.1 2.7 1.1 4.2-.7 5.2-2.4 1.3-4.6-1.2-5.3-1.8-.7-.6-3.8-2.7-4-4-.2-1.3.5-1.8.5-4.2 0-2.2 5.7-.2 5.7-.2z"/><path class="st60" d="M97.7 232.8s.2.5 1.2-1.5c1-1.9 2.2-3.6 2.2-3.6s-4.2 1.3-3.4 5.1z"/><path class="st23" d="M100 226.9s2.4 2 3.1 2.5 1.1 1.1 1.6 2.4c.5 1.3 2.7 6 1.3 7-1.4.9-2.8-.1-3.3-.7-.4-.6-.6-2.5-1.8-3.8-1.3-1.3-2.7-2.3-3-3.3s-.7-1.4-.7-1.4.5-1.6 2.8-2.7z"/><path class="st1" d="M91.6 199.9s0-4.7-2.9-5.8c-2.9-1.1-4.4 1.3-5.2 4.3-.8 3 .1 5.3.4 9 .3 3.7.7 10.5 2.3 13.1 1.6 2.7 11.5 12.3 11.5 12.3s-.1-2.1 1.3-3.5c1.4-1.4 2.1-1.5 2.1-1.5s-8-10.9-8.9-14.9c-.9-4-.6-13-.6-13z"/><path class="st61" d="M88.2 227.7s12.9 8.1 14.6 13.2c1.6 5.1 2.4 17.9 2.9 21.2.6 3.3 1.4 5.1-1.2 5.9-2.6.8-5.4 2.1-5.8-1.2S94.2 245 94.2 245l-13.6-10.2 2.5-4 5.1-3.1z"/><path class="st61" d="M65.2 228.6s-1.7 1.9-1.5 5.3c.2 3.4 2.3 6 7.4 8.8s12 6.3 12.5 8.8 2.1 10.7 2.7 14.3c.7 3.7 1.5 7.2 1.5 7.2s.7.4 3.8 0c3.1-.4 3.1-1.3 3.1-1.3s-1.9-12.6-1.9-14.6-.7-12.6-3.7-14.9c-2.9-2.2-14.7-12.4-23.9-13.6z"/><path class="st62" d="M85.6 192.7s3.6.7 4.3 5.9c.7 5.1-.6 16.4-1.2 21.7-.6 5.3.1 7.9-1.4 9.8-1.5 1.9-8.2 4.3-14.9 3.7-6.7-.7-7.4-3.9-7.4-8.3v-13c0-5.5-.8-10.4 1.5-13.4s5.2-5.3 5.2-5.3l13.9-1.1z"/><path class="st63" d="M83.2 195s.5 2.5-2.7 3.3c-3.2.8-6.9-3.1-7.4-4.4-.6-1.3 10.1 1.1 10.1 1.1z"/><path class="st25" d="M72.8 191.8s-2.5.7-4.1-2.6c-1.6-3.3-2.9-6.8 0-13.8s12.9-5 15.6-4c2.7 1 5.4 4.8 5.3 7.2-.1 2.4.6 3.8-4.8 4.4-5.4.6-9.9 3.1-9.9 3.1l-2.1 5.7z"/><path class="st23" d="M88 182.3s-.3 7.6-2.4 10.4c-2.1 2.9-3.1 3.8-7.1 3.4s-6.3-2.7-6.4-3.5.5-1.9 0-2c-.5-.1-1.7-.8-1.9-2.6s.7-1.6 1.5-1.4c.8.2.9.9 1.3-.8s.3-3 .7-3.3c.4-.3 4.7 1.3 8.9.7 4.2-.4 5.4-.9 5.4-.9z"/><path class="st64" d="M84 194.7l1.5 6.4-4.7-2.9-2.9 5.6-6.9-9.5 1.1-1.7s3.2 4.9 6.5 5.7c3.8.9 4.6-2.9 4.6-2.9l.8-.7z"/><path class="st65" d="M83.2 199.7l-.5 3.8-2 .4-1.6-2.5 1.6-3.2z"/><path class="st66" d="M82.7 203.5l-2 .4-.1 20.4 2.9 2.6 2-2.7z"/><path class="st60" d="M83.2 233s.5.1-1.3 3.3c-1.7 3.1-2 2-2 1.4s.5-4.5 3.3-4.7z"/><path class="st1" d="M72 205.7s-.3-4.7-3.2-5.6-4.3 1.6-4.9 4.6c-.6 3.1.4 5.3.9 9 .6 3.7 1.3 10.4 3 13S80 238.2 80 238.2s-.2-2.1 1.1-3.6 2-1.6 2-1.6-8.6-10.4-9.8-14.3c-1-4-1.3-13-1.3-13z"/><path class="st23" d="M82.4 233.4s2.7 1.5 3.5 1.8c.8.4 1.3.9 2.1 2 .7 1.1 3.9 5.4 2.7 6.5-1.2 1.2-2.8.5-3.4 0s-1.1-2.4-2.6-3.4-3.1-1.7-3.6-2.6c-.5-.9-1-1.2-1-1.2s.2-1.6 2.3-3.1z"/></g><g><path class="st23" d="M60.8 358.8s.1-2.1-1.5-2.9c-1.6-.9-1.4-.8-1.4-.8s-1.6 1.6-1.8 2.4c-.2.8-1 1.3-1.4 1.2-.4-.1-2-.6-2.8.7-.8 1.3-.2 1.8.8 2.2 1 .3 2.7 1.2 4.8.1 2.1-1.3 3.3-2.9 3.3-2.9z"/><path class="st25" d="M73.6 323.3c-2.9-.4-5.1 1.6-5.4 4.5s-.8 13.5-.8 13.5-3.2 5.1-5.2 8.1-4.5 5.9-4.5 5.9.9.1 2.1 1.6c1.2 1.6 1 2 1 2s11.5-9.9 13-17.5c1.6-7.7 5-17.4-.2-18.1z"/><path class="st67" d="M72.6 401.4s.7 3.7-.4 5.4-3.2 1.7-5.5 2.2c-2.4.5-5.8 1.1-7.1 0-1.4-1.1-1.9-2.7-.4-4.6 1.5-1.9 6-4.4 6-4.4l7.4 1.4z"/><path class="st68" d="M98.4 394.7s-1.5 2.4-1.7 6.6 3.8 4.4 6.6 2.3c2.8-2.1 5.8-9.5 3-11.7-4.9-3.9-7.9 2.8-7.9 2.8z"/><path class="st25" d="M68 353.3s-1.5 5.3-2.1 13.3-.1 11.4-.6 15.8-.6 16.6-.6 16.6-.4 1.3.7 2.1 3.4 1.2 4.7 1.2c1.3 0 2.4.2 2.8-1.5s1.1-8 1.6-11.3c.5-3.3 1-6.1 1.3-10.2s1.9-10.8 1.9-10.8-.1 3.7 1.1 11.5c1.8 11.7 10.4 8.6 10.2 2.1-.2-6.5 3.3-20.9 2.6-24.7-.9-3.9-23.6-4.1-23.6-4.1z"/><path class="st37" d="M91.6 326.3s-1.8-2.5-4.7-4.3-4.4-1.9-4.4-1.9-1.8 3.8-5.2 4-3.9-3.1-3.9-3.1-.1-2.1-1.7.2c-5.4 8.1-5.3 20.2-5.3 20.2s-.3 9.1.4 10.5c.7 1.4 2.4 3 4.3 4.3 3.1 2 16.8 5 20.3 3.2s.2-33.1.2-33.1z"/><path class="st23" d="M91.5 366.6s-.8-2.1-2.7-2.3-1.8-.3-1.8-.3-.9 2.2-.8 3.2c.1.9-.4 1.7-.9 1.7s-2.3.3-2.5 1.9.6 1.9 1.7 1.8c1.1-.1 3.2.1 4.8-1.9 1.6-2 2.2-4.1 2.2-4.1z"/><path class="st25" d="M89.5 325.8c-3 .8-4.4 3.7-3.5 6.7s4.8 13.8 4.8 13.8-1.1 6.4-1.8 10.2-2.1 7.8-2.1 7.8.9-.3 2.8.8c1.8 1.1 1.8 1.5 1.8 1.5s7.4-14.6 5.7-22.9c-1.6-8.2-2.3-19.3-7.7-17.9z"/><path class="st69" d="M76.1 324.2l-1.4-.5c-1.4-.5-1.1-2.5-1.1-2.5s.8 1.1 3.1 1c2.3-.1 4.7-2.1 4.7-2.1l1-.1s-.1 2.5-.6 2.9c-.4.5-5.7 1.3-5.7 1.3z"/><path class="st70" d="M85.4 321.1s.5-.5.4-1.3-.9-1.4-.9-1.4-1.2.9-1.8 1.3c-.6.4-.5.3-.5.3s-1.9 2.5-3.3 3.2-2.9.8-3.6.5c-.4-.2-1.4-.8-1.6-1.5-.2-.5-.3-1-.5-1.3-.1-.2-.4-.4-.8-.6s-.4-.3-.4-.3-1.2 2.3-1.4 4.1c-.2 1.8-.2 3.1-.2 3.1l4.7-3.2s.4 3 .7 4.3c.3 1.2.7 1.7.7 1.7l8.5-8.9z"/><path class="st23" d="M80.5 320.8s-1.6 1.4-3.8 1.4c-2.2 0-3.1-.3-3.1-.3s-6.4-.8-5.6-13.4c.7-11.9 16 2.1 16 2.1l-3.5 10.2z"/><path class="st71" d="M80.1 321.1v-2.7s.3-1.5.8-1.5c.5-.1 1.1-.4 1.2-2.2s-.8-2.9-1.7-2.3-1.5 1.7-1.5 1.7l-.3-2.7s-1.8.6-3.5 0-2.6-3.3-2.6-3.3-.5.5-1.7.3-1.5-1.4-1.5-1.4-1.1.7-1.2 1.5 0 1.5 0 1.5-1.7-3.4.6-6.9c2.3-3.6 6.1-4.9 10.6-4.1 4.5.8 8.2 2.7 8.2 8.9-.1 6.2.8 10.2-7.4 13.2z"/><path class="st25" d="M88.9 382.5l14.6 8.3-6 6.6s-16.5-6.6-17.7-15c-1.3-8.5 9.1.1 9.1.1z"/></g><g><path class="st72" d="M275.7 282.8l1.2 10.4s.7 5.9 9 5.9 9-5.8 9-5.8l1.3-11-20.5.5z"/><ellipse class="st73" cx="286" cy="282.5" rx="10.3" ry="5.8"/><ellipse class="st74" cx="286" cy="282.3" rx="9" ry="4.9"/><path class="st75" d="M286.8 261.7h-1.6v21.1c0 .4.4.8.8.8s.8-.4.8-.8v-21.1z"/><ellipse class="st76" cx="285.7" cy="249.7" rx="15.5" ry="13.4"/><path class="st8" d="M285.7 255.8c-7.1 0-13-4.1-14.9-9.8-.4 1.2-.6 2.4-.6 3.7 0 7.4 6.9 13.4 15.5 13.4 8.5 0 15.5-6 15.5-13.4 0-1.3-.2-2.5-.6-3.7-1.9 5.7-7.8 9.8-14.9 9.8z"/></g></svg>