<svg id="Layer_1" xmlns="http://www.w3.org/2000/svg" viewBox="0 0 468.7 382.7"><style>.st0{fill:#b6b6ae}.st1{fill:#ebebe7}.st2{fill:#d6d6ce}.st3{fill:#abd7d8}.st4{fill:#84b3c5}.st5{fill:#fff}.st6{fill:#f4f0d7}.st7{fill:#f2f1ef}.st8{fill:#84d4d5}.st9{fill:#f5e9db}.st10{fill:#af5056}.st11{fill:#ed5f79}.st12{fill:#ab515a}.st13{fill:#cb9d81}.st14{fill:#9e7258}.st15{fill:#fbbe78}.st16{fill:#ddae94}.st17{fill:#b8b9b1}.st18{fill:#e9e9e8}.st19{fill:#f2f2f2}.st20{fill:#464b49}.st21{fill:#c6cccc}.st22{fill:#3d3d3d}.st23{fill:#303030}.st24{fill:#ffd3c8}.st25{fill:#faf7e6}.st26{fill:#213454}.st27{fill:#384f70}.st28{fill:#3d3f3b}.st29{fill:#535959}.st30{fill:#87888e}.st31{fill:#4b4855}.st32{fill:#a8a8a8}.st33{fill:#e0e0e0}.st34{fill:#30abd6}.st35{fill:#6bd6f2}.st36{fill:#b4cede}.st37{fill:#ccb06a}.st38{fill:#e8ce82}.st39{fill:#f9e491}.st40{fill:#ced7d8}.st41{fill:#d6e3e5}.st42{fill:#c9d3d3}.st43{fill:#30332c}.st44{fill:#414449}.st45{fill:#fd4b50}.st46{fill:#ff7675}.st47{fill:#6e5748}.st48{fill:#f12634}.st49{fill:#f33858}</style><path class="st0" d="M195.7 382.7v-20.3l273-157v18z"/><path class="st1" d="M0 250.9L272.7 92.7l196 112.7-273 157z"/><path class="st2" d="M0 250.9l195.7 111.5v20.3L0 270.4z"/><path class="st3" d="M272.7 98V2.5l4.1-.9 1.6-1.2 190.3 109.3v95.7l-4.6 2.6z"/><path class="st4" d="M468.7 109.9l-4.6 2.7V208l4.6-2.7z"/><path class="st5" d="M464.1 112.6l4.6-2.7L277.8 0l-5.1 2.5zM284 27.8v62.7l55 32V59.9l-55-32.1zm6 9.6l43.2 25.3v49.5L290 87.5V37.4z"/><path class="st6" d="M298.9 42.7v39.7l-8.9 5.1V37.4z"/><path class="st7" d="M333.1 112.3v-10.7l-34.2-19.2-8.9 5.1z"/><path class="st8" d="M333.1 62.8l-34.2-20.1v39.7l34.2 19.2z"/><path class="st9" d="M339 122.4l2.5-2V58.3l-2.5 1.6z"/><path class="st9" d="M284 27.8l3.6-1 53.9 31.5-2.5 1.6z"/><path class="st5" d="M352.3 67.9v62.7l55 32V100l-55-32.1zm6 9.6l43.2 25.3v49.5l-43.2-24.8v-50z"/><path class="st6" d="M367.2 82.8v39.7l-8.9 5.1V77.5z"/><path class="st7" d="M401.5 152.4v-10.7l-34.3-19.2-8.9 5.1z"/><path class="st8" d="M401.5 102.9l-34.3-20.1v39.7l34.3 19.2z"/><path class="st9" d="M407.3 162.5l2.5-2.1v-62l-2.5 1.6z"/><path class="st9" d="M352.3 67.9l3.6-1 53.9 31.5-2.5 1.6z"/><path class="st7" d="M458.1 147.1l-30.9-17.2-21.8 11.4 31.6 18.3z"/><path class="st10" d="M418 127.5l9.1-5.1v14.4l-9.1 5.4z"/><path class="st11" d="M422.9 130.2v15.2l-4.9-3v-14.9z"/><path class="st12" d="M422.9 130.2l9.1-5.5v14.8l-9.1 5.9z"/><path class="st13" d="M184.1 103.4v44.3l41.2 23.4v-45.8z"/><path class="st14" d="M225.3 171.1l2.3-1.3v-45.6l-2.3 1.2z"/><path class="st13" d="M243.1 76.5v44.3l41.2 20.4V95.7z"/><path class="st14" d="M284.3 141.2l2.2-1.2V94.5l-2.2 1.2z"/><path class="st15" d="M183.1 101.3l57.6-32.9L284.1 90 224 124.4z"/><path class="st14" d="M224 126.3v-1.9L283.9 90v1.7z"/><path class="st16" d="M224 126.3v-1.9l-40.9-23.1v1.7z"/><path class="st17" d="M194.4 106.8s-.1.2-.1.5c0 .5.4.7.4.7l4.1 2.1s.7.3 1.2.3.7-.1 1.3-.4c.7-.3 1.9-.9 1.9-.9s.6-.2.4-1c0-.8-9.2-1.3-9.2-1.3z"/><path class="st18" d="M195.3 106.2l1.7-.9s.7-.5 1.7 0 4.7 2.2 4.7 2.2 1 .6-.3 1.2c-1.4.7-2.1 1-2.1 1s-.6.4-2.1-.2c-1.6-.6-4-1.9-4-1.9s-1.5-.6.4-1.4z"/><path class="st19" d="M240.4 113.4l-14.2-9 28.6-15.6 14 8.9z"/><path class="st20" d="M240.4 113.4v.7l-13.1-8.5s-.2 1.1-.9 1c-.9-.1-1-.7-1-1.3 0-.6.3-1 1-.8s14 8.9 14 8.9z"/><path class="st21" d="M227.2 119.8s-.6 1.3-2.6 1c-2-.2-6.3-3.3-6.3-3.3s-1-1-.7-1.7 9.6 4 9.6 4z"/><path class="st19" d="M227.2 119.8c-1 .7-2 1.1-3.8.2-1.8-.9-2.8-2.2-4-3-1.3-.7-2.4-1-1.5-1.8.9-.9 2.8-2.4 4.8-1.4 1.9 1.1 8.2 3.7 4.5 6z"/><path class="st22" d="M240.9 154.7c-2.3-.5-3.8-2.7-3.3-5l4.6-22.7c.5-2.3 2.7-3.8 5-3.3s3.8 2.7 3.3 5l-4.6 22.7c-.5 2.2-2.7 3.7-5 3.3z"/><ellipse transform="rotate(14.234 238.148 152.495)" class="st23" cx="238.1" cy="152.5" rx="6.6" ry="3.8"/><path class="st15" d="M240.6 139.6l25.8-15.3 31.6 13.3-34 15.4z"/><path class="st13" d="M268.9 160v20.9l-6.6-3.7v-21z"/><path class="st14" d="M273.4 178.4v-21.8l-4.5 3.1v21.2z"/><path class="st13" d="M247.2 147.5v21.2l-6.6-3.8v-21.1z"/><path class="st14" d="M251.7 166.1v-19.8l-4.5 1.2v21.2z"/><path class="st13" d="M293.4 142.3v24.5l-6.3-3.6v-16.4z"/><path class="st14" d="M293.4 166.8l4.4-2.6v-25l-4.4 3.1z"/><path class="st23" d="M277.5 141l-25-6.1c-3.7-.9-6.1-4.7-5.1-8.4.9-3.7 4.7-6.1 8.4-5.1l25 6.1c3.7.9 6.1 4.7 5.1 8.4-.9 3.7-4.7 6-8.4 5.1z"/><path class="st22" d="M268.8 147.8l-23.3-10.9c-3.5-1.6-5-5.8-3.4-9.3 1.6-3.5 5.8-5 9.3-3.4l23.3 10.9c3.5 1.6 5 5.8 3.4 9.3-1.6 3.5-5.8 5-9.3 3.4z"/><path class="st24" d="M268.3 89.4s-1.9-1.5-3.6-2c-1.7-.5-2.7 0-2.7 0s1.4.8 2.2 1.7 1 1.8.6 1.8c-.4-.1-1.7-.4-2.1-.2-.4.2 0 1 .9 1.6 1.2.9 1.6.2 1.6.2s2.4-2.2 3.1-3.1z"/><path class="st25" d="M265.8 91.7s2.7-3.8 9.4-5.1c6.7-1.3 8.6-.5 8.6-.5s2.2 5.2-7.4 7.4c-9.5 2.2-10.6-1.8-10.6-1.8z"/><path class="st26" d="M283.9 86.1s-1.8 4-6.7 5.6c-5 1.6-11.3 0-11.3 0s-2.7 1.3-3.2 16.3-1.2 26.9 1.9 32.4c3.2 5.5 9.6 12 20.2 1.9s3.9-32 3.9-32L289 97c0-.1.9-9.6-5.1-10.9z"/><path class="st27" d="M254.6 118.2c-2-1.3-2.6-4-1.3-6l10-15.5c1.3-2 4-2.6 6-1.3s2.6 4 1.3 6l-10 15.5c-1.3 2-4 2.6-6 1.3z"/><path class="st24" d="M240.6 115.8s-3.4-1-5.6-2.2c-2.2-1.2-1.3-3.7-.9-4.1s1.2 1.6 2.5 1.6 2.3-1.4 4.6-.4c2.3 1.1-.6 5.1-.6 5.1z"/><path class="st27" d="M255 110.7c-3.9 1.7-5.7.7-13.6 0h-.2c-.2 1.2-.6 3.2-.6 5 .5.3 1.1.7 1.9 1 11.9 5.3 17 1.3 17 1.3s-.6-9-4.5-7.3z"/><path class="st24" d="M264.5 69.7s-1.1 2.5-1.1 7.7-.6 8.3 2.5 9.3c3.1.9 4.6 0 4.6 0l-.3 1.7s1.7-.9 3.5-1.4c2.2-.6 5.9-1 5.9-1l-.2-1.8s-6-9.7-8.3-11.1c-2.4-1.4-6.6-3.4-6.6-3.4z"/><path class="st14" d="M268.9 118.7V160l28.9-14v-44.2z"/><path class="st15" d="M268.9 118.7l28.9-16.9-4.9-2.8-28.9 16.8z"/><path class="st13" d="M264 115.8l4.9 2.9V160l-28.3-16.2v-4.2L264 153z"/><path class="st26" d="M263.5 74.2s-1.1-1.3-1-4.8c.1-2.9 2.4-6.4 7.2-7.1 4.8-.7 9.7.5 12.6 5.3 2.9 4.8 2 10.9-.8 14.5-2.8 3.6-5.9 4-8.6 4.1-2.7.1-2.8-3.6-2.8-3.6s3.2-.8 3.2-2.9c0-2.1-1.3-2.4-2.6-1.9s-1.5 2.2-1.5 2.2v-5.8s-1.4-.6-2.4-1.5-2.5-2.6-2.5-2.6-.5 1.2-.8 4.1z"/><path class="st28" d="M210.2 68.3L252 44.2c.5-.2 1.2.2 1.2.7V74c0 .7-.2 3.1-2.1 3.9l-38.4 22.2c-1.5 1-3.5-.9-3.5-2V69.8c0-.5.2-1.1 1-1.5z"/><path class="st29" d="M211.1 67.7l41.8-24.1c.5-.2 1.2.2 1.2.7v29.2c0 .7-.2 3.1-2.1 3.9l-38.8 22.7c-1.5 1-3 0-3-1.1V69.2c-.1-.5.2-1.1.9-1.5z"/><path class="st30" d="M210.1 95.1l43.1-23V74c0 .7-.2 3.1-2.1 3.9l-38.2 22.2c-1.8 1-3.7-.8-3.7-2.2v-3.7l.9.9z"/><path class="st31" d="M235.4 86.1v1.5s-.1 1.3.6 1.8c.9.6 4.7 2.5 4.7 2.5s1.1.7-.3 1.5c-.9.5-4.4 2.7-6.4 4-.3.2-.5.3-.7.4 0 .2-.2.4-.4.4s-.3-.1-.4-.2v-.1-.1c-.1-.4-.3-.6-.9-1-1.1-.6-3.6-1.8-3.6-1.8s-1.5-.6-1.5-2.3v-1.4l8.9-5.2z"/><path class="st30" d="M236 85.8v1.5s-.1 1.3.6 1.8c.9.6 4.7 2.5 4.7 2.5s1.1.7-.3 1.5-8 4.9-8 4.9.1-1-1-1.6-3.6-1.8-3.6-1.8-1.4-.6-1.4-2.3v-1.4l9-5.1z"/><path class="st32" d="M254.1 71.1v2.4c0 .7-.2 3.1-2.1 3.9l-38.8 22.7c-1.5 1-3 0-3-1.1v-3l43.9-24.9z"/><path class="st33" d="M252.3 46.1v23.6L212 92.8V69.1z"/><path class="st34" d="M217.2 98.4c-.8-3-2.5-5.1-4.4-6.1v-1.9c0-1.4-1.1-2.5-2.5-2.5s-2.5 1.1-2.5 2.5V92.6c-1.1.6-2.3 1.7-3.4 3.5-2.6 4.4-1.7 7 1.5 8.6 3.2 1.5 7.6.7 9.2 0 1.5-.7 3.2-2.2 2.1-6.3z"/><path class="st35" d="M217.2 98.4c-.8-3-2.5-5.1-4.4-6.1v-1.9c0-1.4-1.1-2.5-2.5-2.5-.5 0-1 .2-1.4.4 1.3.1 2.4 1.2 2.4 2.5v1.9c1.9 1 3.6 3.1 4.4 6.1 1.1 4.1-.6 5.6-2.1 6.3-.1 0-.2.1-.2.1.7-.2 1.3-.3 1.7-.5 1.5-.7 3.2-2.2 2.1-6.3z"/><path class="st36" d="M199.5 107.7h-.5V85.8c0-2.1.9-3.6 2.5-4 1.8-.5 3.3-.1 5.2.6 1.9.6 3.1 1.7 3.6 3.2.5 1.4.4 3.2.4 3.3h-.5s.1-1.8-.4-3.1c-.4-1.3-1.5-2.3-3.2-2.9-1.7-.6-3.2-1-4.9-.6-1.8.5-2.1 2.4-2.1 3.5v21.9z"/><path class="st5" d="M199.2 107.7h-.5V85.6c0-2.2.9-3.7 2.6-4.2 1.9-.5 3.5-.1 5.4.6 2 .7 3.2 1.8 3.8 3.3.5 1.5.4 3.4.4 3.5h-.5s.1-1.9-.4-3.3c-.5-1.3-1.6-2.3-3.4-3-1.8-.6-3.4-1.1-5.1-.6-1.9.5-2.2 2.5-2.2 3.6v22.2z"/><path class="st13" d="M164.9 245.9v44.2l41.2 23.5v-45.8z"/><path class="st14" d="M206.1 313.6l2.3-1.3v-45.6l-2.3 1.2z"/><path class="st13" d="M223.9 218.9v44.4l41.2 20.4v-45.6z"/><path class="st14" d="M265.1 283.7l2.2-1.3V237l-2.2 1.1z"/><path class="st15" d="M163.9 243.7l57.6-32.8 43.4 21.5-60.1 34.5z"/><path class="st14" d="M204.8 268.7v-1.8l59.9-34.4v1.7z"/><path class="st16" d="M204.8 268.7v-1.8l-40.9-23.2v1.8z"/><path class="st17" d="M175.2 249.3s-.1.2-.1.5c0 .5.4.7.4.7l4.1 2.1s.7.3 1.2.3.7-.1 1.3-.4c.7-.3 1.9-.9 1.9-.9s.6-.2.4-1c0-.8-9.2-1.3-9.2-1.3z"/><path class="st18" d="M176.1 248.7l1.7-.9s.7-.5 1.7 0 4.7 2.2 4.7 2.2 1 .6-.3 1.2-2.1 1-2.1 1-.6.4-2.1-.2c-1.6-.6-4-1.9-4-1.9s-1.5-.6.4-1.4z"/><path class="st19" d="M221.2 255.9l-14.2-9.1 28.6-15.5 14 8.9z"/><path class="st20" d="M221.2 255.9v.7l-13.1-8.5s-.2 1.1-.9 1c-.9-.1-1-.7-1-1.3 0-.6.3-1 1-.8s14 8.9 14 8.9z"/><path class="st21" d="M208 262.3s-.6 1.3-2.6 1-6.3-3.3-6.3-3.3-1-1-.7-1.7c.3-.6 9.6 4 9.6 4z"/><path class="st19" d="M208 262.3c-1 .7-2 1.1-3.8.2-1.8-.9-2.8-2.2-4-3s-2.4-1-1.5-1.8c.9-.9 2.8-2.4 4.8-1.4 1.9 1 8.2 3.7 4.5 6z"/><path class="st22" d="M221.7 297.1c-2.3-.5-3.8-2.7-3.3-5l4.6-22.7c.5-2.3 2.7-3.8 5-3.3s3.8 2.7 3.3 5l-4.6 22.7c-.5 2.3-2.7 3.8-5 3.3z"/><ellipse transform="rotate(14.234 218.934 294.997)" class="st23" cx="218.9" cy="294.9" rx="6.6" ry="3.8"/><path class="st15" d="M221.4 282l25.8-15.2 31.6 13.3-34 15.3z"/><path class="st13" d="M249.7 302.5v20.9l-6.6-3.7v-21z"/><path class="st14" d="M254.1 320.9V299l-4.4 3.2v21.2z"/><path class="st13" d="M228 289.9v21.2l-6.6-3.7v-21.1z"/><path class="st14" d="M232.5 308.6v-19.8l-4.5 1.1v21.2z"/><path class="st13" d="M274.1 284.8v24.5l-6.2-3.6v-16.5z"/><path class="st14" d="M274.1 309.3l4.5-2.6v-25l-4.5 3.1z"/><path class="st23" d="M258.3 283.5l-25-6.1c-3.7-.9-6.1-4.7-5.1-8.4.9-3.7 4.7-6.1 8.4-5.1l25 6.1c3.7.9 6.1 4.7 5.1 8.4-.9 3.7-4.7 6-8.4 5.1z"/><path class="st22" d="M249.6 290.2l-23.3-10.9c-3.5-1.6-5-5.8-3.4-9.3 1.6-3.5 5.8-5 9.3-3.4l23.3 10.9c3.5 1.6 5 5.8 3.4 9.3a6.86 6.86 0 0 1-9.3 3.4z"/><path class="st24" d="M249.1 231.9s-1.9-1.5-3.6-2c-1.7-.5-2.7 0-2.7 0s1.4.8 2.2 1.7c.8.9 1 1.8.6 1.8-.4-.1-1.7-.4-2.1-.2-.4.2 0 1 .9 1.6 1.2.9 1.6.2 1.6.2s2.4-2.2 3.1-3.1z"/><path class="st25" d="M246.6 234.1s2.7-3.8 9.4-5.1c6.7-1.3 8.6-.5 8.6-.5s2.2 5.2-7.4 7.4c-9.5 2.3-10.6-1.8-10.6-1.8z"/><path class="st26" d="M264.7 228.5s-1.8 4-6.7 5.6c-5 1.6-11.3 0-11.3 0s-2.7 1.3-3.2 16.3c-.5 14.9-1.2 26.9 1.9 32.4 3.2 5.5 9.6 12 20.2 1.9s3.9-32 3.9-32l.3-13.3s.9-9.6-5.1-10.9z"/><path class="st27" d="M235.4 260.7c-2-1.3-2.6-4-1.3-6l10-15.5c1.3-2 4-2.6 6-1.3s2.6 4 1.3 6l-10 15.5c-1.3 2-4 2.6-6 1.3z"/><path class="st24" d="M221.4 258.3s-3.4-1-5.6-2.2-1.3-3.7-.9-4.1 1.2 1.6 2.5 1.6 2.3-1.4 4.6-.4c2.3 1.1-.6 5.1-.6 5.1z"/><path class="st27" d="M235.8 253.2c-3.9 1.7-5.7.7-13.6 0h-.2c-.2 1.2-.6 3.2-.6 5 .5.3 1.1.7 1.9 1 11.9 5.3 17 1.3 17 1.3s-.6-9-4.5-7.3z"/><path class="st24" d="M245.3 212.2s-1.1 2.5-1.1 7.7-.6 8.3 2.5 9.3 4.6 0 4.6 0l-.3 1.7s1.7-.9 3.5-1.4c2.2-.6 5.9-1 5.9-1l-.2-1.8s-6-9.7-8.3-11.1c-2.4-1.5-6.6-3.4-6.6-3.4z"/><path class="st14" d="M249.7 261.1v41.4l28.9-14v-44.3z"/><path class="st15" d="M249.7 261.1l28.9-16.9-4.9-2.8-28.9 16.9z"/><path class="st13" d="M244.8 258.3l4.9 2.8v41.4l-28.3-16.2V282l23.4 13.4z"/><path class="st26" d="M244.3 216.7s-1.1-1.3-1-4.8c.1-2.9 2.4-6.4 7.2-7.1s9.7.5 12.6 5.3c2.9 4.8 2 10.9-.8 14.5-2.8 3.6-5.9 4-8.6 4.1-2.7.1-2.8-3.6-2.8-3.6s3.2-.8 3.2-2.9-1.3-2.4-2.6-1.9-1.5 2.2-1.5 2.2v-5.8s-1.4-.6-2.4-1.5-2.5-2.6-2.5-2.6-.5 1.1-.8 4.1z"/><path class="st28" d="M191 210.8l41.8-24.1c.5-.2 1.2.2 1.2.7v29.1c0 .7-.2 3.1-2.1 3.9l-38.4 22.2c-1.5 1-3.5-.9-3.5-2v-28.4c0-.5.2-1.1 1-1.4z"/><path class="st29" d="M191.9 210.2l41.8-24.1c.5-.2 1.2.2 1.2.7V216c0 .7-.2 3.1-2.1 3.9L194 242.6c-1.5 1-3 0-3-1.1v-29.7c-.1-.7.2-1.2.9-1.6z"/><path class="st30" d="M190.9 237.6l43.1-23v1.9c0 .7-.2 3.1-2.1 3.9l-38.2 22.2c-1.8 1-3.7-.8-3.7-2.2v-3.7l.9.9z"/><path class="st31" d="M216.2 228.6v1.5s-.1 1.3.6 1.8c.9.6 4.7 2.5 4.7 2.5s1.1.7-.3 1.5c-.9.5-4.4 2.7-6.4 4-.3.2-.5.3-.7.4 0 .2-.2.4-.4.4s-.3-.1-.4-.2v-.1-.1c-.1-.4-.3-.6-.9-1-1.1-.6-3.6-1.8-3.6-1.8s-1.5-.6-1.5-2.3v-1.4l8.9-5.2z"/><path class="st30" d="M216.8 228.3v1.5s-.1 1.3.6 1.8c.9.6 4.7 2.5 4.7 2.5s1.1.7-.3 1.5c-1.3.8-8 4.9-8 4.9s.1-1-1-1.6c-1.1-.6-3.6-1.8-3.6-1.8s-1.5-.6-1.5-2.3v-1.4l9.1-5.1z"/><path class="st32" d="M234.9 213.6v2.4c0 .7-.2 3.1-2.1 3.9L194 242.6c-1.5 1-3 0-3-1.1v-2.9l43.9-25z"/><path class="st33" d="M233.1 188.6v23.6l-40.3 23.1v-23.7z"/><path class="st34" d="M198 240.8c-.8-3-2.5-5.1-4.4-6.1v-1.9c0-1.4-1.1-2.5-2.5-2.5s-2.5 1.1-2.5 2.5V235c-1.1.6-2.3 1.7-3.4 3.5-2.6 4.4-1.7 7 1.5 8.6 3.2 1.5 7.6.7 9.2 0 1.5-.6 3.2-2.2 2.1-6.3z"/><path class="st35" d="M198 240.9c-.8-3-2.5-5.1-4.4-6.1v-1.9c0-1.4-1.1-2.5-2.5-2.5-.5 0-1 .2-1.4.4 1.3.1 2.4 1.2 2.4 2.5v1.9c1.9 1 3.6 3.1 4.4 6.1 1.1 4.1-.6 5.6-2.1 6.3-.1 0-.2.1-.2.1.7-.2 1.3-.3 1.7-.5 1.5-.7 3.2-2.2 2.1-6.3z"/><path class="st36" d="M180.3 250.2h-.5v-21.9c0-2.1.9-3.6 2.5-4 1.8-.5 3.3-.1 5.2.6 1.9.6 3.1 1.7 3.6 3.2.5 1.4.4 3.2.4 3.3h-.5s.1-1.8-.4-3.1c-.4-1.3-1.5-2.3-3.2-2.9-1.7-.6-3.2-1-4.9-.6-1.8.5-2.1 2.4-2.1 3.5v21.9z"/><path class="st5" d="M180 250.2h-.5v-22.1c0-2.2.9-3.7 2.6-4.2 1.9-.5 3.5-.1 5.4.6 2 .7 3.2 1.8 3.8 3.3.5 1.5.4 3.4.4 3.5h-.5s.1-1.9-.4-3.3c-.5-1.3-1.6-2.3-3.4-3-1.8-.6-3.4-1.1-5.1-.6-1.9.5-2.2 2.5-2.2 3.6v22.2zM430.7 125.5l-3.7-1.7-7.7 4.4 3.6 2z"/><path class="st37" d="M423.8 131l9.1-5.1v14.3l-9.1 5.5z"/><path class="st38" d="M428.6 133.7v15.2l-4.9-3v-15z"/><path class="st39" d="M428.6 133.7l9.2-5.5V143l-9.2 5.9z"/><path class="st5" d="M436.4 129l-3.6-1.7-7.8 4.3 3.6 2.1z"/><path class="st40" d="M458.1 147.1v4.2l-21.1 13v-4.7z"/><path class="st41" d="M437 159.6l-31.6-18.3v4.7l31.6 18.3z"/><path class="st10" d="M429.6 135l9.1-5v14.3l-9.1 5.4z"/><path class="st11" d="M434.5 137.7v15.2l-4.9-3V135z"/><path class="st12" d="M434.5 137.7l9.1-5.5V147l-9.1 5.9z"/><path class="st5" d="M442.3 133l-3.7-1.7-7.8 4.4 3.7 2z"/><path class="st37" d="M435.3 138.5l9.2-5.1v14.3l-9.2 5.5z"/><path class="st38" d="M440.2 141.2v15.2l-4.9-3v-15z"/><path class="st39" d="M440.2 141.2l9.1-5.5v14.8l-9.1 5.9z"/><path class="st5" d="M448 136.5l-3.7-1.7-7.7 4.3 3.6 2.1z"/><path class="st13" d="M293.7 170.8v44.1l41.3 23.5v-45.8z"/><path class="st14" d="M335 238.4l2.2-1.3v-45.6l-2.2 1.2z"/><path class="st13" d="M352.7 143.7v44.4l41.2 20.4v-45.6z"/><path class="st14" d="M393.9 208.5l2.3-1.3v-45.4l-2.3 1.1z"/><path class="st15" d="M292.1 168l60.1-34.3 41.5 23.5-60.1 34.5z"/><path class="st14" d="M333.6 193.6v-1.9l59.9-34.4v1.7z"/><path class="st16" d="M333.6 193.6v-1.9L292.1 168v1.8z"/><path class="st17" d="M304 174.1s-.1.2-.1.5c0 .5.4.7.4.7l4.1 2.1s.7.3 1.2.3.7-.1 1.3-.4c.7-.3 1.9-.9 1.9-.9s.6-.2.4-1c.1-.8-9.2-1.3-9.2-1.3z"/><path class="st18" d="M304.9 173.5l1.7-.9s.7-.5 1.7 0 4.7 2.2 4.7 2.2 1 .6-.3 1.2c-1.4.7-2.1 1-2.1 1s-.6.4-2.1-.2c-1.6-.6-4-1.9-4-1.9s-1.5-.6.4-1.4z"/><path class="st42" d="M350 180.7l-14.1-9.1 28.5-15.5 14 8.9z"/><path class="st20" d="M350 180.7v.7l-13.1-8.5s-.2 1.1-.9 1c-.9-.1-1-.7-1-1.3 0-.6.3-1 1-.8.8.2 14 8.9 14 8.9z"/><path class="st43" d="M336.8 187.1s-.6 1.3-2.6 1-6.3-3.3-6.3-3.3-1-1-.7-1.7c.3-.6 9.6 4 9.6 4z"/><path class="st44" d="M336.8 187.1c-1 .7-2 1.1-3.8.2-1.8-.9-2.8-2.2-4-3-1.3-.7-2.4-1-1.5-1.8.9-.9 2.8-2.4 4.8-1.4s8.2 3.7 4.5 6z"/><path class="st22" d="M350.5 222c-2.3-.5-3.8-2.7-3.3-5l4.6-22.7c.5-2.3 2.7-3.8 5-3.3s3.8 2.7 3.3 5l-4.6 22.7c-.4 2.2-2.7 3.7-5 3.3z"/><ellipse transform="rotate(14.234 347.821 219.8)" class="st23" cx="347.8" cy="219.7" rx="6.6" ry="3.8"/><path class="st15" d="M350.3 206.8l25.7-15.2 31.6 13.3-34 15.3z"/><path class="st13" d="M378.6 227.3v20.9l-6.7-3.7v-21z"/><path class="st14" d="M383 245.7v-21.8l-4.4 3.1v21.2z"/><path class="st13" d="M356.9 214.8V236l-6.6-3.8v-21.1z"/><path class="st14" d="M361.3 233.4v-19.8l-4.4 1.2V236z"/><path class="st13" d="M403 209.6v24.5l-6.3-3.6v-16.4z"/><path class="st14" d="M403 234.1l4.5-2.6v-25l-4.5 3.1z"/><path class="st23" d="M387.2 208.3l-25-6.1c-3.7-.9-6.1-4.7-5.1-8.4.9-3.7 4.7-6.1 8.4-5.1l25 6.1c3.7.9 6.1 4.7 5.1 8.4-.9 3.7-4.7 6-8.4 5.1z"/><path class="st22" d="M378.4 215.1l-23.3-10.9c-3.5-1.6-5-5.8-3.4-9.3 1.6-3.5 5.8-5 9.3-3.4l23.3 10.9c3.5 1.6 5 5.8 3.4 9.3-1.6 3.5-5.8 5-9.3 3.4z"/><path class="st24" d="M377.9 156.7s-1.9-1.5-3.6-2c-1.7-.5-2.7 0-2.7 0s1.4.8 2.2 1.7 1 1.8.6 1.8c-.4-.1-1.7-.4-2.1-.2-.4.2 0 1 .9 1.6 1.2.9 1.6.2 1.6.2s2.5-2.2 3.1-3.1z"/><path class="st25" d="M375.5 159s2.7-3.8 9.4-5.1c6.7-1.3 8.6-.5 8.6-.5s2.2 5.2-7.4 7.4c-9.5 2.2-10.6-1.8-10.6-1.8z"/><path class="st45" d="M393.5 153.3s-1.8 4-6.7 5.6c-5 1.6-11.3 0-11.3 0s-2.7 1.3-3.2 16.3c-.5 14.9-1.2 26.9 1.9 32.4 3.2 5.5 9.6 12 20.2 1.9s3.9-32 3.9-32l.3-13.3c.1 0 .9-9.5-5.1-10.9z"/><path class="st46" d="M364.3 185.5c-2-1.3-2.6-4-1.3-6l10-15.5c1.3-2 4-2.6 6-1.3s2.6 4 1.3 6l-10 15.5c-1.3 2-4 2.6-6 1.3z"/><path class="st24" d="M350.3 183.1s-3.4-1-5.6-2.2-1.3-3.7-.9-4.1 1.2 1.6 2.5 1.6 2.3-1.4 4.6-.4c2.2 1.1-.6 5.1-.6 5.1z"/><path class="st46" d="M364.7 178c-3.9 1.7-5.7.7-13.6 0h-.2c-.2 1.2-.6 3.2-.6 5 .5.3 1.1.7 1.9 1 11.9 5.3 17 1.3 17 1.3s-.6-9-4.5-7.3z"/><path class="st24" d="M374.1 137s-1.1 2.5-1.1 7.7-.6 8.3 2.5 9.3 4.6 0 4.6 0l-.3 1.7s1.7-.9 3.5-1.4c2.2-.6 5.9-1 5.9-1l-.2-1.8s-6-9.7-8.3-11.1c-2.3-1.4-6.6-3.4-6.6-3.4z"/><path class="st14" d="M378.6 186v41.3l28.8-14V169z"/><path class="st15" d="M378.6 186l28.8-17-4.9-2.7-28.9 16.8z"/><path class="st13" d="M373.6 183.1l5 2.9v41.3l-28.3-16.2v-4.3l23.3 13.4z"/><path class="st47" d="M373.2 141.5s-1.1-1.3-1-4.8c.1-2.9 2.4-6.4 7.2-7.1s9.7.5 12.6 5.3c2.9 4.8 2 10.9-.8 14.5-2.8 3.6-5.9 4-8.6 4.1-2.7.1-2.8-3.6-2.8-3.6s3.2-.8 3.2-2.9-1.3-2.4-2.6-1.9-1.5 2.2-1.5 2.2v-5.8s-1.4-.6-2.4-1.5c-1-.8-2.5-2.6-2.5-2.6s-.5 1.1-.8 4.1z"/><g><path class="st28" d="M319.8 135.6l41.8-24.1c.5-.2 1.2.2 1.2.7v29.2c0 .7-.2 3.1-2.1 3.9l-38.4 22.2c-1.5 1-3.5-.9-3.5-2V137c0-.5.3-1 1-1.4z"/><path class="st29" d="M320.7 135l41.8-24.1c.5-.2 1.2.2 1.2.7v29.2c0 .7-.2 3.1-2.1 3.9l-38.8 22.7c-1.5 1-3 0-3-1.1v-29.8c0-.5.2-1.1.9-1.5z"/><path class="st30" d="M319.8 162.4l43.1-23v1.9c0 .7-.2 3.1-2.1 3.9l-38.2 22.2c-1.8 1-3.7-.8-3.7-2.2v-3.7l.9.9z"/><path class="st31" d="M345 153.4v1.5s-.1 1.3.6 1.8c.9.6 4.7 2.5 4.7 2.5s1.1.7-.3 1.5c-.9.5-4.4 2.7-6.4 4-.3.2-.5.3-.7.4 0 .2-.2.4-.4.4s-.3-.1-.4-.2v-.1-.1c-.1-.4-.3-.6-.9-1-1.1-.6-3.6-1.8-3.6-1.8s-1.5-.6-1.5-2.3v-1.4l8.9-5.2z"/><path class="st30" d="M345.7 153.1v1.5s-.1 1.3.6 1.8c.9.6 4.7 2.5 4.7 2.5s1.1.7-.3 1.5c-1.3.8-8 4.9-8 4.9s.1-1-1-1.6c-1.1-.6-3.6-1.8-3.6-1.8s-1.5-.6-1.5-2.3v-1.4l9.1-5.1z"/><path class="st32" d="M363.7 138.4v2.4c0 .7-.2 3.1-2.1 3.9l-38.8 22.7c-1.5 1-3 0-3-1.1v-2.9l43.9-25z"/><path class="st33" d="M362 113.4V137l-40.3 23.1v-23.7z"/></g><path class="st48" d="M326.9 165.7c-.8-3-2.5-5.1-4.4-6.1v-1.9c0-1.4-1.1-2.5-2.5-2.5s-2.5 1.1-2.5 2.5V159.9c-1.1.6-2.3 1.7-3.4 3.5-2.6 4.4-1.7 7 1.5 8.6 3.2 1.5 7.6.7 9.2 0s3.2-2.3 2.1-6.3z"/><path class="st49" d="M326.9 165.7c-.8-3-2.5-5.1-4.4-6.1v-1.9c0-1.4-1.1-2.5-2.5-2.5-.5 0-1 .2-1.4.4 1.3.1 2.4 1.2 2.4 2.5v1.9c1.9 1 3.6 3.1 4.4 6.1 1.1 4.1-.6 5.6-2.1 6.3-.1 0-.2.1-.2.1.7-.2 1.3-.3 1.7-.5 1.5-.7 3.2-2.2 2.1-6.3z"/><path class="st36" d="M309.2 175h-.5v-21.9c0-2.1.9-3.6 2.5-4 1.8-.5 3.3-.1 5.2.6 1.9.6 3.1 1.7 3.6 3.2.5 1.4.4 3.2.4 3.3h-.5s.1-1.8-.4-3.1c-.4-1.3-1.5-2.3-3.2-2.9-1.7-.6-3.2-1-4.9-.6-1.8.5-2.1 2.4-2.1 3.5V175z"/><path class="st5" d="M308.9 175h-.5v-22.1c0-2.2.9-3.7 2.6-4.2 1.9-.5 3.5-.1 5.4.6 2 .7 3.2 1.8 3.8 3.3.5 1.5.4 3.4.4 3.5h-.5s.1-1.9-.4-3.3c-.5-1.3-1.6-2.3-3.4-3-1.8-.6-3.4-1.1-5.1-.6-1.9.5-2.2 2.5-2.2 3.6V175z"/></svg>