<?xml version="1.0" encoding="utf-8"?>
<!-- Generator: Adobe Illustrator 19.1.1, SVG Export Plug-In . SVG Version: 6.00 Build 0)  -->
<svg version="1.1" id="Layer_1" xmlns="http://www.w3.org/2000/svg" xmlns:xlink="http://www.w3.org/1999/xlink" x="0px" y="0px"
	 viewBox="-246 398.2 52 12.8" style="enable-background:new -246 398.2 52 12.8;" xml:space="preserve">
<style type="text/css">
	.st0{fill:#FFFFFF;}
	.st1{fill:url(#SVGID_1_);}
	.st2{opacity:0.29;fill:#800002;enable-background:new    ;}
	.st3{opacity:0.44;fill:#E61801;enable-background:new    ;}
	.st4{opacity:0.73;fill:#EA5B4A;enable-background:new    ;}
	.st5{opacity:0.93;fill:#E61801;enable-background:new    ;}
	.st6{opacity:0.49;fill:#E61801;enable-background:new    ;}
	.st7{opacity:0.4;fill:#F2ACA3;enable-background:new    ;}
	.st8{opacity:0.18;fill:#FFFFFF;enable-background:new    ;}
</style>
<path class="st0" d="M-227.2,401.1h-3.1v2.7h3.1v-0.9h-1.6v-0.8h2.6v1.5c0,0.4-0.1,0.7-0.2,0.8c-0.1,0.1-0.4,0.2-0.8,0.2h-2.9
	c-0.4,0-0.7-0.1-0.8-0.2c-0.1-0.1-0.2-0.4-0.2-0.8v-2.2c0-0.4,0.1-0.7,0.2-0.8c0.1-0.1,0.4-0.2,0.8-0.2h2.9c0.4,0,0.7,0.1,0.8,0.2
	c0.1,0.1,0.2,0.4,0.2,0.8v0.1l-1,0.2V401.1L-227.2,401.1z M-223.2,403h1.9l-0.9-1.7L-223.2,403L-223.2,403z M-225.1,404.6l2.4-4.2h1
	l2.4,4.2h-1.1l-0.5-0.9h-2.7l-0.5,0.9H-225.1L-225.1,404.6z M-214.7,401.1h-2.2v1.2h2.2c0.2,0,0.3,0,0.4-0.1c0,0,0.1-0.1,0.1-0.3
	v-0.5c0-0.1,0-0.2-0.1-0.3C-214.4,401.1-214.6,401.1-214.7,401.1L-214.7,401.1z M-217.9,404.6v-4.2h3.6c0.4,0,0.6,0,0.8,0.2
	c0.1,0.1,0.2,0.4,0.2,0.7v1c0,0.3-0.1,0.5-0.2,0.6c-0.1,0.1-0.4,0.2-0.8,0.2h-0.6l1.9,1.6h-1.4l-1.7-1.6h-0.9v1.6H-217.9
	L-217.9,404.6z M-211.3,404.6v-4.2h0.7l3,2.5c0.1,0.1,0.2,0.2,0.3,0.2c0.1,0.1,0.1,0.1,0.2,0.2c0-0.2,0-0.4,0-0.5s0-0.2,0-0.2v-2.3
	h0.9v4.2h-0.7l-3.1-2.6c-0.1-0.1-0.1-0.1-0.2-0.2c0,0-0.1-0.1-0.2-0.2c0,0.1,0,0.3,0,0.4c0,0.1,0,0.2,0,0.3v2.3H-211.3L-211.3,404.6
	z M-204.1,404.6v-4.2h4.3v0.7h-3.4v0.9h1.9v0.7h-1.9v1.1h3.4v0.8L-204.1,404.6L-204.1,404.6z M-196,401.1v3.5h-1v-3.5h-1.9v-0.8h4.9
	v0.8H-196z"/>
<linearGradient id="SVGID_1_" gradientUnits="userSpaceOnUse" x1="-239.5952" y1="395.8097" x2="-239.5952" y2="383.0219" gradientTransform="matrix(1 0 0 -1 0 794)">
	<stop  offset="0" style="stop-color:#E61102"/>
	<stop  offset="1" style="stop-color:#AB0C05"/>
</linearGradient>
<polygon class="st1" points="-243.7,411 -235.5,411 -233.2,408.7 -233.2,400.4 -235.5,398.2 -243.7,398.2 -246,400.4 -246,408.7 "/>
<polygon class="st2" points="-239.6,400 -235,404.6 -233.2,408.7 -235.5,411 -239.6,409.1 -244.2,404.6 -246,400.4 -243.7,398.2 "/>
<polygon class="st3" points="-244.2,404.6 -239.6,400 -235.5,398.2 -233.2,400.4 -235,404.6 -239.6,409.1 -243.7,411 -246,408.7 "/>
<polygon class="st4" points="-246,408.7 -242.8,407.8 -243.7,411 "/>
<polygon class="st4" points="-235.5,398.2 -236.4,401.4 -233.2,400.4 "/>
<polygon class="st5" points="-246,400.4 -242.8,401.4 -243.7,398.2 "/>
<polygon class="st6" points="-235.5,411 -236.4,407.8 -233.2,408.7 "/>
<rect x="-242.8" y="401.4" class="st7" width="6.4" height="6.4"/>
<rect x="-242.8" y="401.4" transform="matrix(0.7071 -0.7071 0.7071 0.7071 -356.2677 -50.938)" class="st8" width="6.4" height="6.4"/>
<path class="st0" d="M-237.9,403h-3.4v3.1h3.4v-1.2h-1.7v-0.5h2.5v1.4c0,0.4-0.1,0.7-0.2,0.8s-0.4,0.2-0.8,0.2h-2.8
	c-0.4,0-0.7-0.1-0.8-0.2c-0.1-0.1-0.2-0.4-0.2-0.8v-2.3c0-0.4,0.1-0.7,0.2-0.8c0.1-0.1,0.4-0.2,0.8-0.2h2.8c0.4,0,0.7,0.1,0.8,0.2
	c0.1,0.1,0.2,0.4,0.2,0.8v0.1h-0.7L-237.9,403L-237.9,403z"/>
<g>
	<path class="st0" d="M-230.7,407.2v0.4h1.2c0.1,0,0.2,0,0.2,0s0.1,0,0.1,0.1c0,0,0,0.1,0.1,0.1c0,0,0,0.1,0,0.2v0.3
		c0,0.1,0,0.2,0,0.2c0,0,0,0.1-0.1,0.1c0,0-0.1,0-0.1,0.1c0,0-0.1,0-0.2,0h-1.2c-0.1,0-0.2,0-0.2,0s-0.1,0-0.1-0.1
		c0,0,0-0.1-0.1-0.1c0,0,0-0.1,0-0.2v0l0.4-0.1v0.2h1.3V408h-1.2c-0.1,0-0.2,0-0.2,0s-0.1,0-0.1-0.1s0-0.1-0.1-0.1c0,0,0-0.1,0-0.2
		v-0.2c0-0.1,0-0.2,0-0.2c0,0,0-0.1,0.1-0.1c0,0,0.1,0,0.1-0.1c0,0,0.1,0,0.2,0h1.1c0.2,0,0.3,0,0.4,0.1c0.1,0,0.1,0.2,0.1,0.3v0
		l-0.4,0.1v-0.2L-230.7,407.2L-230.7,407.2z"/>
	<path class="st0" d="M-226.1,407.2c0,0,0-0.1,0.1-0.1s0.1,0,0.1-0.1c0,0,0.1,0,0.2,0h1.4c0.1,0,0.2,0,0.2,0c0,0,0.1,0,0.1,0.1
		s0,0.1,0.1,0.1c0,0,0,0.1,0,0.2v1c0,0.1,0,0.2,0,0.2c0,0,0,0.1-0.1,0.1c0,0-0.1,0-0.1,0.1c0,0-0.1,0-0.2,0h-1.4c-0.1,0-0.2,0-0.2,0
		c0,0-0.1,0-0.1-0.1c0,0,0-0.1-0.1-0.1c0,0,0-0.1,0-0.2v-1C-226.2,407.3-226.1,407.2-226.1,407.2z M-224.2,408.4v-1.1h-1.5v1.1
		H-224.2z"/>
	<path class="st0" d="M-220.9,406.9h1.9v0.3h-1.5v0.5h0.8v0.4h-0.8v0.7h-0.4L-220.9,406.9L-220.9,406.9z"/>
	<path class="st0" d="M-215.2,408.7h-0.4v-1.5h-0.9v-0.3h2.2v0.3h-0.9V408.7z"/>
	<path class="st0" d="M-211.9,406.9h0.5l0.5,1.3l0.5-1.3h0.3l0.5,1.3l0.5-1.3h0.4l-0.8,1.8h-0.3l-0.6-1.3l-0.5,1.3h-0.3
		L-211.9,406.9z"/>
	<path class="st0" d="M-205.2,406.9h0.4l1.1,1.8h-0.5l-0.2-0.4h-1.2l-0.2,0.4h-0.4L-205.2,406.9z M-204.6,408l-0.4-0.8l-0.4,0.8
		H-204.6z"/>
	<path class="st0" d="M-201.1,406.9h1.6c0.1,0,0.3,0,0.3,0.1c0.1,0,0.1,0.1,0.1,0.3v0.4c0,0.1,0,0.2-0.1,0.3c-0.1,0-0.2,0.1-0.3,0.1
		h-0.3l0.9,0.7h-0.6l-0.8-0.7h-0.4v0.7h-0.4V406.9z M-200.6,407.2v0.5h1c0.1,0,0.1,0,0.1,0c0,0,0,0,0-0.1v-0.2c0,0,0-0.1,0-0.1
		c0,0-0.1,0-0.1,0L-200.6,407.2L-200.6,407.2z"/>
	<path class="st0" d="M-196.1,406.9h1.9v0.3h-1.5v0.4h0.9v0.3h-0.9v0.4h1.5v0.4h-2V406.9z"/>
</g>
</svg>
