<?xml version="1.0" encoding="utf-8"?>
<!-- Generator: Adobe Illustrator 19.1.1, SVG Export Plug-In . SVG Version: 6.00 Build 0)  -->
<svg version="1.1" id="Layer_1" xmlns="http://www.w3.org/2000/svg" xmlns:xlink="http://www.w3.org/1999/xlink" x="0px" y="0px"
	 viewBox="-246 382 117.7 29" style="enable-background:new -246 382 117.7 29;" xml:space="preserve">
<style type="text/css">
	.st0{fill:url(#SVGID_1_);}
	.st1{opacity:0.29;fill:#800002;enable-background:new    ;}
	.st2{opacity:0.44;fill:#E61801;enable-background:new    ;}
	.st3{opacity:0.73;fill:#EA5B4A;enable-background:new    ;}
	.st4{opacity:0.93;fill:#E61801;enable-background:new    ;}
	.st5{opacity:0.49;fill:#E61801;enable-background:new    ;}
	.st6{opacity:0.4;fill:#F2ACA3;enable-background:new    ;}
	.st7{opacity:0.18;fill:#FFFFFF;enable-background:new    ;}
	.st8{fill:#FFFFFF;}
</style>
<path d="M-203.4,388.7h-7v6.1h7v-2.1h-3.6V391h5.8v3.3c0,0.9-0.2,1.5-0.5,1.8c-0.3,0.3-1,0.5-1.9,0.5h-6.6c-0.9,0-1.6-0.2-1.9-0.5
	c-0.3-0.3-0.5-0.9-0.5-1.8v-5c0-0.9,0.2-1.5,0.5-1.8c0.3-0.3,1-0.5,1.9-0.5h6.6c0.9,0,1.6,0.2,1.9,0.5s0.5,0.9,0.5,1.7v0.2l-2.2,0.4
	V388.7L-203.4,388.7z M-194.3,392.8h4.2l-2.1-3.9L-194.3,392.8L-194.3,392.8z M-198.6,396.6l5.4-9.6h2.2l5.5,9.6h-2.5l-1.2-2.1h-6.1
	l-1.1,2.1H-198.6L-198.6,396.6z M-175.2,388.7h-5v2.7h5c0.4,0,0.7-0.1,0.8-0.2c0.1-0.1,0.2-0.3,0.2-0.6v-1.2c0-0.3-0.1-0.5-0.2-0.6
	C-174.5,388.7-174.8,388.7-175.2,388.7L-175.2,388.7z M-182.4,396.6V387h8.2c0.8,0,1.3,0.1,1.7,0.4c0.3,0.3,0.5,0.8,0.5,1.5v2.3
	c0,0.6-0.2,1.1-0.5,1.4c-0.3,0.3-0.9,0.4-1.7,0.4h-1.3l4.4,3.6h-3.2l-3.8-3.6h-2.1v3.6H-182.4L-182.4,396.6z M-167.5,396.6V387h1.5
	l6.8,5.7c0.2,0.2,0.4,0.4,0.6,0.5c0.2,0.2,0.3,0.3,0.5,0.5c0-0.5-0.1-0.9-0.1-1.1c0-0.2,0-0.4,0-0.5V387h2v9.6h-1.5l-7.1-5.9
	c-0.2-0.2-0.3-0.3-0.4-0.4c-0.1-0.1-0.2-0.2-0.4-0.4c0,0.3,0.1,0.6,0.1,0.8c0,0.3,0,0.5,0,0.7v5.2H-167.5L-167.5,396.6z
	 M-151.2,396.6V387h9.8v1.6h-7.6v2.1h4.4v1.6h-4.4v2.4h7.7v1.8h-9.9V396.6z M-132.7,388.7v7.9h-2.2v-7.9h-4.4V387h11.1v1.7H-132.7z"
	/>
<linearGradient id="SVGID_1_" gradientUnits="userSpaceOnUse" x1="-231.5" y1="412" x2="-231.5" y2="383.0495" gradientTransform="matrix(1 0 0 -1 0 794)">
	<stop  offset="0" style="stop-color:#E61102"/>
	<stop  offset="1" style="stop-color:#AB0C05"/>
</linearGradient>
<polygon class="st0" points="-240.9,411 -222.2,411 -217,405.8 -217,387.1 -222.2,382 -240.9,382 -246,387.1 -246,405.8 "/>
<polygon class="st1" points="-231.5,386.1 -221.2,396.5 -217,405.8 -222.2,411 -231.5,406.8 -241.9,396.5 -246,387.1 -240.9,382 "/>
<polygon class="st2" points="-241.9,396.5 -231.5,386.1 -222.2,382 -217,387.1 -221.2,396.5 -231.5,406.8 -240.9,411 -246,405.8 "/>
<polygon class="st3" points="-246,405.8 -238.8,403.8 -240.9,411 "/>
<polygon class="st3" points="-222.2,382 -224.2,389.2 -217,387.1 "/>
<polygon class="st4" points="-246,387.1 -238.8,389.2 -240.9,382 "/>
<polygon class="st5" points="-222.2,411 -224.2,403.8 -217,405.8 "/>
<rect x="-238.8" y="389.2" class="st6" width="14.6" height="14.6"/>
<rect x="-238.9" y="389.2" transform="matrix(0.7071 -0.7071 0.7071 0.7071 -348.1725 -47.6124)" class="st7" width="14.6" height="14.6"/>
<path class="st8" d="M-227.7,392.8h-7.6v7h7.6V397h-3.9v-1.2h5.6v3.1c0,0.9-0.2,1.5-0.5,1.8c-0.3,0.3-0.9,0.5-1.8,0.5h-6.3
	c-0.9,0-1.5-0.2-1.8-0.5c-0.3-0.3-0.5-0.9-0.5-1.8v-5.1c0-0.9,0.2-1.5,0.5-1.8c0.3-0.3,0.9-0.5,1.8-0.5h6.3c0.9,0,1.5,0.2,1.8,0.5
	s0.5,0.9,0.5,1.7v0.2h-1.6L-227.7,392.8L-227.7,392.8z"/>
<g>
	<path d="M-211.4,402.5v0.9h2.7c0.2,0,0.4,0,0.5,0c0.1,0,0.3,0.1,0.3,0.2c0.1,0.1,0.1,0.2,0.2,0.3c0,0.1,0.1,0.3,0.1,0.5v0.6
		c0,0.2,0,0.4-0.1,0.5c0,0.1-0.1,0.2-0.2,0.3c-0.1,0.1-0.2,0.1-0.3,0.2c-0.1,0.1-0.3,0-0.5,0h-2.7c-0.2,0-0.4,0-0.5,0
		c-0.1,0-0.2-0.1-0.3-0.2c-0.1-0.1-0.1-0.2-0.2-0.3c0-0.1-0.1-0.3-0.1-0.5v-0.1l0.9-0.2v0.5h3v-1h-2.7c-0.2,0-0.4,0-0.5,0
		c-0.1,0-0.3-0.1-0.3-0.2s-0.1-0.2-0.2-0.3c0-0.1-0.1-0.3-0.1-0.5v-0.5c0-0.2,0-0.4,0.1-0.5c0-0.1,0.1-0.2,0.2-0.3
		c0.1-0.1,0.2-0.1,0.3-0.2c0.1,0,0.3,0,0.5,0h2.5c0.4,0,0.7,0.1,0.8,0.2c0.2,0.1,0.3,0.4,0.3,0.7v0.1l-0.8,0.3v-0.4h-2.9V402.5z"/>
	<path d="M-201,402.3c0-0.1,0.1-0.2,0.2-0.3c0.1-0.1,0.2-0.1,0.3-0.2c0.1,0,0.3,0,0.5,0h3.2c0.2,0,0.4,0,0.5,0
		c0.1,0,0.2,0.1,0.3,0.2s0.1,0.2,0.2,0.3c0.1,0.1,0.1,0.3,0.1,0.5v2.2c0,0.2,0,0.4-0.1,0.5c-0.1,0.1-0.1,0.2-0.2,0.3
		c-0.1,0.1-0.2,0.1-0.3,0.2c-0.1,0.1-0.3,0-0.5,0h-3.2c-0.2,0-0.4,0-0.5,0s-0.2-0.1-0.3-0.2c-0.1-0.1-0.1-0.2-0.2-0.3
		c0-0.1-0.1-0.3-0.1-0.5v-2.2C-201.1,402.6-201,402.4-201,402.3z M-196.7,405.1v-2.6h-3.3v2.6H-196.7z"/>
	<path d="M-189.1,401.8h4.4v0.7h-3.3v1.1h1.8v0.8h-1.8v1.5h-1v-4.1H-189.1z"/>
	<path d="M-176.3,405.9h-1v-3.4h-2v-0.7h5v0.7h-2V405.9z"/>
	<path d="M-168.7,401.8h1.1l1.1,2.9l1.2-2.9h0.7l1.2,2.9l1.1-2.9h0.9l-1.7,4.1h-0.7l-1.3-2.9l-1.2,2.9h-0.7L-168.7,401.8z"/>
	<path d="M-153.7,401.8h1l2.5,4.1h-1.1l-0.5-0.9h-2.7l-0.5,0.9h-1L-153.7,401.8z M-152.3,404.3l-1-1.7l-0.9,1.7H-152.3z"/>
	<path d="M-144.3,401.8h3.7c0.3,0,0.6,0.1,0.7,0.2c0.2,0.1,0.2,0.3,0.2,0.6v1c0,0.3-0.1,0.5-0.2,0.6c-0.2,0.1-0.4,0.2-0.7,0.2h-0.6
		l2,1.6h-1.4l-1.7-1.6h-1v1.6h-1V401.8z M-143.3,402.5v1.1h2.3c0.2,0,0.3,0,0.3-0.1c0.1,0,0.1-0.1,0.1-0.3v-0.5c0-0.1,0-0.2-0.1-0.3
		c-0.1,0-0.2-0.1-0.3-0.1h-2.3V402.5z"/>
	<path d="M-133,401.8h4.4v0.7h-3.4v0.9h2v0.7h-2v1h3.5v0.8h-4.5V401.8z"/>
</g>
</svg>
