<?xml version="1.0" encoding="utf-8"?>
<!-- Generator: Adobe Illustrator 19.1.1, SVG Export Plug-In . SVG Version: 6.00 Build 0)  -->
<svg version="1.1" id="Layer_1" xmlns="http://www.w3.org/2000/svg" xmlns:xlink="http://www.w3.org/1999/xlink" x="0px" y="0px"
	 viewBox="0 0 34 42" style="enable-background:new 0 0 34 42;" xml:space="preserve">
<style type="text/css">
	.st0{fill:#FFFFFF;}
	.st1{fill-rule:evenodd;clip-rule:evenodd;fill:#3F3F3F;}
	.st2{fill:#E74F4C;}
</style>
<circle class="st0" cx="16.7" cy="15.8" r="13.8"/>
<path class="st1" d="M21.7,12.3h-9.2v8.5h9.2v-3.4h-4.8v-1.5h6.7v3.8c0,1.1-0.2,1.8-0.6,2.2c-0.4,0.4-1.1,0.6-2.2,0.6h-7.6
	c-1.1,0-1.8-0.2-2.2-0.6c-0.4-0.4-0.6-1.1-0.6-2.2v-6.2c0-1.1,0.2-1.8,0.6-2.2c0.4-0.4,1.1-0.6,2.2-0.6h7.6c1.1,0,1.8,0.2,2.2,0.6
	c0.4,0.4,0.6,1.1,0.6,2.1v0.3h-2V12.3z"/>
<path class="st2" d="M17,0C7.6,0,0,7.5,0,16.8C0,31.5,17,42,17,42s17-10.2,17-25.2C34,7.5,26.4,0,17,0z M17.1,29
	c-6.8,0-12.3-5.5-12.3-12.3S10.2,4.3,17.1,4.3c6.8,0,12.3,5.5,12.3,12.3S23.9,29,17.1,29z"/>
</svg>
