<?xml version="1.0" encoding="utf-8"?>
<!-- Generator: Adobe Illustrator 19.1.1, SVG Export Plug-In . SVG Version: 6.00 Build 0)  -->
<svg version="1.1" id="Layer_1" xmlns="http://www.w3.org/2000/svg" xmlns:xlink="http://www.w3.org/1999/xlink" x="0px" y="0px"
	 viewBox="0 0 468.3 457.2" style="enable-background:new 0 0 468.3 457.2;" xml:space="preserve">
<style type="text/css">
	.st0{fill:#B6B6AE;}
	.st1{fill:#D6D6CE;}
	.st2{fill:#EBEBE7;}
	.st3{fill:#ABD7D8;}
	.st4{fill:#69AEAF;}
	.st5{fill:#79BCC2;}
	.st6{fill:#FFFFFF;}
	.st7{fill:#F5E9DB;}
	.st8{fill:#83CCCC;}
	.st9{fill:#FFF6CE;}
	.st10{fill:#34373D;}
	.st11{fill:#545454;}
	.st12{fill:#282828;}
	.st13{fill:#414449;}
	.st14{fill:#DDDCD7;}
	.st15{fill:#F3F3F3;}
	.st16{fill:#CFCFCF;}
	.st17{fill:#AAAAAA;}
	.st18{fill:#B9B9B9;}
	.st19{fill:#AAACAF;}
	.st20{fill:#B2DC7F;}
	.st21{fill:#FDD8AE;}
	.st22{fill:#FBBE78;}
	.st23{fill:#CB9D81;}
	.st24{fill:#9E7258;}
	.st25{fill:#C6C6C4;}
	.st26{fill:#C9D3D3;}
	.st27{fill:#464B49;}
	.st28{fill:#FCE1C8;}
	.st29{fill:#213454;}
	.st30{fill:#FBDFCB;}
	.st31{fill:#384F70;}
	.st32{fill:#E8EEF4;}
	.st33{fill:#F7DAC5;}
	.st34{fill:#232323;}
	.st35{fill:#30332C;}
	.st36{fill:#FFE0CB;}
	.st37{fill:#3D3F3B;}
	.st38{fill:#535959;}
	.st39{fill:#87888E;}
	.st40{fill:#4B4855;}
	.st41{fill:#A8A8A8;}
	.st42{fill:#E0E0E0;}
	.st43{fill:#7F594A;}
	.st44{fill:#EAAB6C;}
	.st45{fill:#F2F1EF;}
	.st46{fill:#AF5056;}
	.st47{fill:#ED5F79;}
	.st48{fill:#AB515A;}
	.st49{fill:#CCB06A;}
	.st50{fill:#E8CE82;}
	.st51{fill:#F9E491;}
	.st52{fill:#CED7D8;}
	.st53{fill:#D6E3E5;}
	.st54{fill:#96C5DF;}
	.st55{fill:#FFFFFD;}
	.st56{fill:#225875;}
	.st57{fill:#3B7893;}
	.st58{fill:#F0A795;}
	.st59{fill:#E67D6D;}
</style>
<polygon class="st0" points="196.2,457.2 196.2,438.2 468.3,281.3 468.3,298.9 "/>
<polygon class="st1" points="0,324.6 196.2,438.2 196.2,457.2 0,343.3 "/>
<polygon class="st2" points="0,324.7 263.4,173.2 468.3,281.3 196.2,438.3 "/>
<polygon class="st3" points="462.2,285.9 257,176.7 257,3.3 425.8,92.9 462.2,195.2 "/>
<polygon class="st4" points="462.2,285.9 468.3,281.4 468.3,192.4 462.2,195.2 "/>
<polygon class="st5" points="425.8,92.9 431.8,89.4 468.3,192.4 462.2,195.2 "/>
<polygon class="st6" points="257,3.3 263.5,0 431.8,89.4 425.8,92.9 "/>
<ellipse transform="matrix(0.8182 -0.575 0.575 0.8182 -19.573 267.141)" class="st6" cx="412.6" cy="164.5" rx="26.6" ry="46.6"/>
<ellipse transform="matrix(0.8182 -0.575 0.575 0.8182 -45.4509 281.6698)" class="st7" cx="422.6" cy="212.7" rx="17.2" ry="30.1"/>
<ellipse transform="matrix(0.8182 -0.575 0.575 0.8182 -15.3013 194.8486)" class="st8" cx="300.4" cy="121.6" rx="14.7" ry="25.8"/>
<polygon class="st9" points="343.2,104.7 358.7,80.2 374.9,123.7 "/>
<polygon class="st6" points="281,172.7 290.9,157 301.3,184.9 "/>
<polygon class="st8" points="335.7,158.9 335.7,196.3 362.8,212.1 362.8,175.8 "/>
<g>
	<path class="st10" d="M345.1,298.1l0.2,1.5c0,0,0.4,1.7-2.9,2.5c-3.3,0.7-5.2-0.9-5.1-2.3C337.5,298.4,345.1,298.1,345.1,298.1z"/>
	<path class="st11" d="M344.7,294.7c0,0,0.3,1.5,0.4,2.5c0.1,1,0.3,3.1-3,3.7s-4.3-1.1-6.4-1.1c-2.1,0-4.6,0.7-8.2-0.1
		c-3.9-0.9-5.4-1.7-4.9-3.9s6.6-1.8,8.1-2.1s1.8-0.3,1.8-0.3S337.4,296.3,344.7,294.7z"/>
</g>
<path class="st12" d="M350,263.1l-0.2-9.2c0,0-3.1-2.7-8.4-1.7c-5.3,1-6.1,4.2-5.6,8.5c0.4,4.3-1,35.5-1,35.5s5.9-0.2,9.9,0
	S350,263.1,350,263.1z"/>
<path class="st13" d="M368.6,273.1c0,0-0.2,5.7-14.8,5.7s-17.9-6.8-17.9-6.8l2.9,26.9c0,0-1,1.5-6.4,1.5s-6.1-2.9-6.2-5
	c-0.1-2.1-1.8-27.5-1.8-27.5s-1.2-5.3,3.7-7.8c4.9-2.6,10.9,1,15.2,1.8s6.7,1.3,6.7,1.3L368.6,273.1z"/>
<path class="st10" d="M339.3,302.3l0.2,1.5c0,0,0.4,1.7-2.9,2.5c-3.3,0.7-5.2-0.9-5.1-2.3C331.6,302.5,339.3,302.3,339.3,302.3z"/>
<path class="st10" d="M330.6,303.6c0,0-1.8,1.4-7.4,0.9c-5.6-0.5-6.7-2.2-6.6-3.6C316.8,299.6,330.6,303.6,330.6,303.6z"/>
<path class="st11" d="M338.8,298.8c0,0,0.3,1.5,0.4,2.5s0.3,3.1-3,3.7c-3.3,0.6-4.3-1.1-6.4-1.1c-2.1,0-4.6,0.7-8.2-0.1
	c-3.9-0.9-5.4-1.7-4.9-3.9c0.5-2.2,6.6-1.8,8.1-2.1c1.5-0.2,1.8-0.3,1.8-0.3S331.5,300.5,338.8,298.8z"/>
<ellipse transform="matrix(-0.8613 0.508 -0.508 -0.8613 675.0316 361.4992)" class="st14" cx="288.2" cy="272.9" rx="4.4" ry="7.5"/>
<polygon class="st15" points="151.2,320.9 162.9,314 196.3,333.5 196.3,364.3 183.6,371.7 183.6,339.1 "/>
<g>
	<polygon class="st15" points="283.4,267 295.2,260 328.6,279.5 328.6,310.3 315.8,317.8 315.8,285.2 	"/>
	<polygon class="st16" points="315.8,317.8 315.8,285.2 283.4,267 283.4,299 	"/>
	<polygon class="st17" points="316.3,289.8 316.3,287.7 328.1,281.1 328.1,283.4 	"/>
	<polygon class="st17" points="316.3,293.8 316.3,291.7 328.1,285.1 328.1,287.4 	"/>
	<polygon class="st16" points="316.3,300.4 316.3,297.7 328.1,291.1 328.1,294 	"/>
	<polygon class="st16" points="316.3,305 316.3,302.3 328.1,295.8 328.1,298.7 	"/>
	<polygon class="st18" points="316.3,314.8 316.3,312 328.1,305.5 328.1,308.4 	"/>
	
		<ellipse transform="matrix(-0.7233 -0.6906 0.6906 -0.7233 346.165 748.5932)" class="st19" cx="323.1" cy="304.9" rx="1.5" ry="2.3"/>
	
		<ellipse transform="matrix(-0.7233 -0.6906 0.6906 -0.7233 346.1651 748.5932)" class="st20" cx="323.1" cy="304.9" rx="0.8" ry="1.6"/>
</g>
<polygon class="st21" points="135.5,292 316.9,186.5 381.4,224 200.6,329.8 "/>
<polygon class="st22" points="199.7,333.5 199.7,386 206.1,382.3 206.1,330.2 "/>
<polygon class="st23" points="200.6,329.8 200.6,334.1 135.5,296.2 135.5,292 "/>
<polygon class="st22" points="200.6,334.1 200.6,329.8 381.4,224 381.4,228.8 "/>
<polygon class="st24" points="199.7,386 197.4,384.7 197.4,334.1 139.5,300.3 139.5,350.9 137.3,349.5 137.3,297.2 199.7,333.5 "/>
<polygon class="st22" points="145.1,303.6 145.1,347.6 139.5,350.9 139.5,300.3 "/>
<polygon class="st23" points="135.5,292 135.5,255.3 314.5,152 316,152 315.4,187.4 "/>
<polygon class="st22" points="136.2,291.6 136.2,255.8 316,152 316,187 "/>
<polygon class="st23" points="138.6,290.2 138.6,257.3 313.9,156.2 313.9,188.2 "/>
<polygon class="st24" points="136.2,255.8 135.5,255.3 135.5,292 136.2,291.6 "/>
<polygon class="st25" points="183.6,371.7 183.6,339.1 151.2,320.9 151.2,352.9 "/>
<ellipse transform="matrix(-0.8613 0.508 -0.508 -0.8613 465.0089 543.1646)" class="st14" cx="158.4" cy="335" rx="4.4" ry="7.5"/>
<polygon class="st17" points="184.1,343.7 184.1,341.6 195.8,335 195.8,337.4 "/>
<polygon class="st17" points="184.1,347.7 184.1,345.6 195.8,339 195.8,341.4 "/>
<polygon class="st16" points="184.1,354.3 184.1,351.6 195.8,345.1 195.8,348 "/>
<polygon class="st16" points="184.1,359 184.1,356.3 195.8,349.7 195.8,352.6 "/>
<polygon class="st18" points="184.1,368.7 184.1,366 195.8,359.4 195.8,362.3 "/>
<ellipse transform="matrix(-0.7233 -0.6906 0.6906 -0.7233 81.069 750.2352)" class="st19" cx="190.9" cy="358.9" rx="1.5" ry="2.3"/>
<ellipse transform="matrix(-0.7233 -0.6906 0.6906 -0.7233 81.0691 750.2352)" class="st20" cx="190.9" cy="358.9" rx="0.8" ry="1.6"/>
<path class="st22" d="M313.3,268.4c-0.2,0.1,0,50.9,0,50.9l-6.2,3.8V272L313.3,268.4z"/>
<polygon class="st24" points="304.8,273.4 304.8,321.9 307.2,323.1 307.2,272 "/>
<polygon class="st22" points="249.7,225.6 252.4,224.1 252.4,190.9 249.7,190.9 "/>
<polygon class="st22" points="200.2,254.3 202.9,252.9 202.9,219.7 200.2,219.7 "/>
<polygon class="st26" points="215.4,310.5 200.1,300.7 230.9,283.9 246,293.5 "/>
<path class="st27" d="M215.4,310.5v0.7l-14.1-9.2c0,0-0.2,1.2-1,1.1c-1-0.1-1-0.8-1-1.4c0-0.6,0.4-1.1,1.1-0.9
	S215.4,310.5,215.4,310.5z"/>
<g>
	<path class="st10" d="M238.4,362.4l0.2,1.5c0,0,0.4,1.7-2.9,2.5c-3.3,0.7-5.2-0.9-5.1-2.3C230.7,362.6,238.4,362.4,238.4,362.4z"/>
	<path class="st11" d="M237.9,358.9c0,0,0.3,1.5,0.4,2.5c0.1,1,0.3,3.1-3,3.7c-3.3,0.6-4.3-1.1-6.4-1.1c-2.1,0-4.6,0.7-8.2-0.1
		c-3.9-0.9-5.4-1.7-4.9-3.9c0.5-2.2,6.6-1.8,8.1-2.1c1.5-0.2,1.8-0.3,1.8-0.3S230.7,360.6,237.9,358.9z"/>
</g>
<path class="st12" d="M243.2,327.3l-0.2-9.2c0,0-3.1-2.7-8.4-1.7c-5.3,1-6.1,4.2-5.6,8.5c0.4,4.3-1,35.5-1,35.5s5.9-0.2,9.9,0
	C241.8,360.6,243.2,327.3,243.2,327.3z"/>
<polygon class="st22" points="232.5,339.3 260.8,322.5 295.5,337.1 258.2,354 "/>
<polygon class="st24" points="264,361.8 264,384.7 256.7,380.7 256.7,357.6 "/>
<polygon class="st28" points="306.6,267.8 241.2,230.5 207.9,249.9 272.5,287.7 "/>
<polygon class="st23" points="268.9,381.9 268.9,358 264,361.5 264,384.7 "/>
<polygon class="st24" points="240.2,348 240.2,371.3 232.9,367.1 232.9,344 "/>
<polygon class="st23" points="245.1,368.5 245.1,346.7 240.2,348 240.2,371.3 "/>
<polygon class="st24" points="290.9,342.4 290.9,369.2 284,365.3 284,347.2 "/>
<polygon class="st23" points="290.9,369.2 295.7,366.4 295.7,338.9 290.9,342.4 "/>
<path class="st29" d="M242.2,298.2l-7.9-1c0,0-1.2,0.6-1.5,2.3c-0.3,1.7,0,2.9,0,2.9l5.1,1.7C237.9,304.1,239.6,301.9,242.2,298.2z"
	/>
<path class="st30" d="M234.3,297.2c0,0-5.8-1.3-8.2-1c-2.5,0.3-4.7,1.4-5.8,2.1s-1,1.9-0.2,1.7c0.8-0.2,1.8-1,2.8-1.4s2.9-0.7,3-0.3
	c0.1,0.5,0,1.2-1.4,1.6c-1.4,0.5-2.6,1.2-2.4,1.8c0.2,0.7,1.8,0.6,4-0.2c2.2-0.8,2.7-0.1,4.2-0.5c1-0.3,2.3-0.1,2.3-0.1
	S232.4,298.6,234.3,297.2z"/>
<path class="st31" d="M255.8,287c0,0,3.4-1.5,5.6,0.6c2.2,2.1,2,6.1,2,6.1L255.8,287z"/>
<path class="st32" d="M245.8,293.8c0,0,0.4-4.8,5.1-7.6c4.4-2.7,5.6-2.2,6-1.4c0.5,0.7,0.4,1.9,0,2
	C256.5,286.8,251.2,288,245.8,293.8z"/>
<path class="st33" d="M255.4,284.1l-0.1-2.9c0,0-12.2-8.5-14.2-8.9c-2.1-0.4-2.2,0.7-2.2,0.7s2.1,8.8,2.7,10.7
	c0.6,1.9,1.1,3.7,3,3.9c1.9,0.2,2.9-0.9,3.3-0.9c0.4,0.1,0.1,1.8,0.1,1.8s2.2-3,7.2-4.5"/>
<path class="st34" d="M237.8,271.9c0,0,2.2,1.8,2.7,3.1c0.4,1.3,0.7,4.9,1.8,4.6c1.1-0.3,1-1.8,0.3-3.4c-0.7-1.6-0.6-1.9,0.2-2.1
	c0.8-0.2,2.6,0.9,3.4,3.7c0.8,2.8,2.1,6,4.8,5.8c2.8-0.2,5.1-1.6,6.2-7c1.2-5.4,1-9.4-1.8-12.3c-2.9-2.9-8.1-3.7-12.3-1.6
	c-4.2,2.1-6.1,4-6.5,5.3C236.1,269.7,236.7,270.8,237.8,271.9z"/>
<path class="st35" d="M210.9,319.7c0,0-0.7,1.4-2.9,1.1c-2.2-0.3-6.8-3.6-6.8-3.6s-1.1-1.1-0.8-1.8
	C200.8,314.7,210.9,319.7,210.9,319.7z"/>
<path class="st13" d="M261.8,337.3c0,0-0.2,5.7-14.8,5.7c-14.6,0-17.9-6.8-17.9-6.8l2.9,26.9c0,0-1,1.5-6.4,1.5
	c-5.3,0-6.1-2.9-6.2-5c-0.1-2.1-1.8-27.5-1.8-27.5s-1.2-5.3,3.7-7.8c4.9-2.6,10.9,1,15.2,1.8c4.3,0.8,6.7,1.3,6.7,1.3L261.8,337.3z"
	/>
<path class="st10" d="M232.6,366.5l0.2,1.5c0,0,0.4,1.7-2.9,2.5s-5.2-0.9-5.1-2.3C224.9,366.7,232.6,366.5,232.6,366.5z"/>
<path class="st10" d="M223.9,367.9c0,0-1.8,1.4-7.4,0.9c-5.6-0.5-6.7-2.2-6.6-3.6S223.9,367.9,223.9,367.9z"/>
<path class="st11" d="M232.1,363.1c0,0,0.3,1.5,0.4,2.5s0.3,3.1-3,3.7c-3.3,0.6-4.3-1.1-6.4-1.1s-4.6,0.7-8.2-0.1
	c-3.9-0.9-5.4-1.7-4.9-3.9c0.5-2.2,6.6-1.8,8.1-2.1s1.8-0.3,1.8-0.3S224.8,364.7,232.1,363.1z"/>
<path class="st29" d="M242.6,304.2c0,0-0.7-5.2,2.4-9.4s8.8-7.6,11.7-7.9c2.9-0.3,5.5,1.9,7.3,9.2c1.7,7.3,2.3,19.6,2.4,27.1
	s-2,15.2-8.7,15.8c-6.6,0.6-10.2-1.5-12.7-5.1c-2.4-3.5-2-11.2-2-13.1S242.6,304.2,242.6,304.2z"/>
<path class="st13" d="M210.9,319.7c-1.1,0.7-2.2,1.1-4.1,0.2c-2-1-3-2.4-4.4-3.2c-1.4-0.8-2.6-1-1.6-2s3-2.6,5.2-1.5
	C208.1,314.3,214.8,317.2,210.9,319.7z"/>
<path class="st36" d="M218.7,312.2c0,0-4.5-0.7-7.5,0c-2.9,0.7-4.7,2-6,2.5c-1.3,0.5-1,1.6,0,2.2s3.3,0.8,4.9,0.5
	c1.6-0.3,5-0.9,7-0.2S218.7,312.2,218.7,312.2z"/>
<path class="st31" d="M242.2,298.2c0,0,3-4.6,7.3-2.1c4.3,2.5,0.8,8.3-1.6,11.2c-2.3,2.9-10,11.3-14.7,11.4s-15.4-1.2-15.4-1.2
	s-1.2,0.7-1.2-3.6c0-2.5,1.3-3.2,1.3-3.2s12.7,0.5,14.9-1C235.1,308.4,242.2,298.2,242.2,298.2z"/>
<polygon class="st23" points="264,316.4 264,361.8 295.7,346.4 295.7,297.8 "/>
<polygon class="st22" points="264,316.4 295.7,297.8 290.3,294.7 258.6,313.2 "/>
<polygon class="st24" points="258.6,313.2 264,316.4 264,361.8 232.9,344 232.9,339.3 258.6,354 "/>
<g>
	<path class="st37" d="M164.8,253.5l41.8-24.1c0.5-0.2,1.2,0.2,1.2,0.7v25.7v1v2.5c0,0.7-0.2,3.1-2.1,3.9l-38.4,22.2
		c-1.5,1-3.5-0.9-3.5-2v-1.9v-24.8v-1.7C163.9,254.4,164.1,253.8,164.8,253.5z"/>
	<path class="st38" d="M165.8,252.9l41.8-24.1c0.5-0.2,1.2,0.2,1.2,0.7v25.7v1v2.5c0,0.7-0.2,3.1-2.1,3.9l-38.8,22.7
		c-1.5,1-3,0-3-1.1v-3.2v-24.8v-1.7C164.8,253.9,165,253.3,165.8,252.9z"/>
	<path class="st39" d="M164.8,280.3l43.1-23v1.9c0,0.7-0.2,3.1-2.1,3.9l-38.2,22.2c-1.8,1-3.7-0.8-3.7-2.2V280v-0.5L164.8,280.3z"/>
	<path class="st40" d="M190,271.3v1.5c0,0-0.1,1.3,0.6,1.8c0.9,0.6,4.7,2.5,4.7,2.5s1.1,0.7-0.3,1.5c-0.9,0.5-4.4,2.7-6.4,4
		c-0.3,0.2-0.5,0.3-0.7,0.4c0,0.2-0.2,0.4-0.4,0.4c-0.2,0-0.3-0.1-0.4-0.2c0,0,0,0,0,0c0,0,0,0,0-0.1c0,0,0,0,0-0.1
		c-0.1-0.4-0.3-0.6-0.9-1c-1.1-0.6-3.6-1.8-3.6-1.8s-1.5-0.6-1.5-2.3c0-0.9,0-1.4,0-1.4L190,271.3z"/>
	<path class="st39" d="M190.7,271v1.5c0,0-0.1,1.3,0.6,1.8c0.9,0.6,4.7,2.5,4.7,2.5s1.1,0.7-0.3,1.5c-1.3,0.8-8,4.9-8,4.9
		s0.1-1-1-1.6c-1.1-0.6-3.6-1.8-3.6-1.8s-1.5-0.6-1.5-2.3c0-0.9,0-1.4,0-1.4L190.7,271z"/>
	<path class="st41" d="M208.8,256.3v2.4c0,0.7-0.2,3.1-2.1,3.9l-38.8,22.7c-1.5,1-3,0-3-1.1v-2.9L208.8,256.3z"/>
	<polygon class="st42" points="207,231.3 207,254.9 166.7,278 166.7,254.3 	"/>
</g>
<polygon class="st26" points="322.1,246.2 306.8,236.4 337.6,219.6 352.8,229.3 "/>
<path class="st27" d="M322.1,246.2v0.7l-14.1-9.2c0,0-0.2,1.2-1,1.1c-1-0.1-1-0.8-1-1.4s0.4-1.1,1.1-0.9
	C307.8,236.8,322.1,246.2,322.1,246.2z"/>
<polygon class="st22" points="339.3,275 367.6,258.3 402.3,272.9 364.9,289.7 "/>
<polygon class="st24" points="370.8,297.5 370.8,320.5 363.5,316.5 363.5,293.3 "/>
<polygon class="st23" points="375.6,317.7 375.6,293.7 370.8,297.2 370.8,320.5 "/>
<polygon class="st24" points="346.9,283.7 346.9,307 339.7,302.9 339.7,279.7 "/>
<polygon class="st23" points="351.8,304.2 351.8,282.5 346.9,283.7 346.9,307 "/>
<polygon class="st24" points="397.6,278.1 397.6,305 390.7,301 390.7,283 "/>
<polygon class="st23" points="397.6,305 402.5,302.2 402.5,274.7 397.6,278.1 "/>
<path class="st12" d="M349,233.9l-7.9-1c0,0-1.2,0.6-1.5,2.3s0,2.9,0,2.9l5.1,1.7C344.6,239.9,346.4,237.7,349,233.9z"/>
<path class="st30" d="M341,232.9c0,0-5.8-1.3-8.2-1s-4.7,1.4-5.8,2.1c-1.1,0.7-1,1.9-0.2,1.7c0.8-0.2,1.8-1,2.8-1.4
	c1-0.4,2.9-0.7,3-0.3c0.1,0.5,0,1.2-1.4,1.6c-1.4,0.5-2.6,1.2-2.4,1.8s1.8,0.6,4-0.2c2.2-0.8,2.7-0.1,4.2-0.5c1-0.3,2.3-0.1,2.3-0.1
	S339.1,234.3,341,232.9z"/>
<path class="st13" d="M362.6,222.8c0,0,3.4-1.5,5.6,0.6c2.2,2.1,2,6.1,2,6.1L362.6,222.8z"/>
<path class="st32" d="M352.6,229.5c0,0,0.4-4.8,5.1-7.6c4.4-2.7,5.6-2.2,6-1.4c0.5,0.7,0.4,1.9,0,2S357.9,223.8,352.6,229.5z"/>
<path class="st33" d="M362.2,219.9L362,217c0,0-12.2-8.5-14.2-8.9c-2.1-0.4-2.2,0.7-2.2,0.7s2.1,8.8,2.7,10.7c0.6,1.9,1.1,3.7,3,3.9
	c1.9,0.2,2.9-0.9,3.3-0.9s0.1,1.8,0.1,1.8s2.2-3,7.2-4.5"/>
<path class="st43" d="M344.5,207.7c0,0,2.2,1.8,2.7,3.1c0.4,1.3,0.7,4.9,1.8,4.6s1-1.8,0.3-3.4c-0.7-1.6-0.6-1.9,0.2-2.1
	c0.8-0.2,2.6,0.9,3.4,3.7c0.8,2.8,2.1,6,4.8,5.8s5.1-1.6,6.2-7s1-9.4-1.8-12.3c-2.9-2.9-8.1-3.7-12.3-1.6s-6.1,4-6.5,5.3
	C342.8,205.5,343.4,206.6,344.5,207.7z"/>
<path class="st35" d="M317.6,255.5c0,0-0.7,1.4-2.9,1.1S308,253,308,253s-1.1-1.1-0.8-1.8C307.5,250.4,317.6,255.5,317.6,255.5z"/>
<path class="st12" d="M349.4,239.9c0,0-0.7-5.2,2.4-9.4s8.8-7.6,11.7-7.9c2.9-0.3,5.5,1.9,7.3,9.2c1.7,7.3,2.3,19.6,2.4,27.1
	s-2,15.2-8.7,15.8c-6.6,0.6-10.2-1.5-12.7-5.1s-2-11.2-2-13.1S349.4,239.9,349.4,239.9z"/>
<path class="st13" d="M317.6,255.5c-1.1,0.7-2.2,1.1-4.1,0.2s-3-2.4-4.4-3.2c-1.4-0.8-2.6-1-1.6-2c1-0.9,3-2.6,5.2-1.5
	C314.8,250.1,321.6,252.9,317.6,255.5z"/>
<path class="st36" d="M325.4,247.9c0,0-4.5-0.7-7.5,0c-2.9,0.7-4.7,2-6,2.5s-1,1.6,0,2.2s3.3,0.8,4.9,0.5s5-0.9,7-0.2
	C325.9,253.5,325.4,247.9,325.4,247.9z"/>
<path class="st13" d="M349,233.9c0,0,3-4.6,7.3-2.1c4.3,2.5,0.8,8.3-1.6,11.2c-2.3,2.9-10,11.3-14.7,11.4
	c-4.7,0.1-15.4-1.2-15.4-1.2s-1.2,0.7-1.2-3.6c0-2.5,1.3-3.2,1.3-3.2s12.7,0.5,14.9-1C341.8,244.1,349,233.9,349,233.9z"/>
<polygon class="st23" points="370.8,252.1 370.8,297.5 402.5,282.1 402.5,233.5 "/>
<polygon class="st22" points="370.8,252.1 402.5,233.5 397,230.5 365.3,249 "/>
<polygon class="st24" points="365.3,249 370.8,252.1 370.8,297.5 339.7,279.7 339.7,275.1 365.3,289.8 "/>
<g>
	<path class="st37" d="M271.6,189.2l41.8-24.1c0.5-0.2,1.2,0.2,1.2,0.7v25.7v1v2.5c0,0.7-0.2,3.1-2.1,3.9l-38.4,22.2
		c-1.5,1-3.5-0.9-3.5-2v-1.9v-24.8v-1.7C270.6,190.2,270.8,189.6,271.6,189.2z"/>
	<path class="st38" d="M272.5,188.6l41.8-24.1c0.5-0.2,1.2,0.2,1.2,0.7v25.7v1v2.5c0,0.7-0.2,3.1-2.1,3.9L274.5,221
		c-1.5,1-3,0-3-1.1v-3.2v-24.8v-1.7C271.5,189.6,271.8,189,272.5,188.6z"/>
	<path class="st39" d="M271.5,216l43.1-23v1.9c0,0.7-0.2,3.1-2.1,3.9l-38.2,22.2c-1.8,1-3.7-0.8-3.7-2.2v-3.2v-0.5L271.5,216z"/>
	<path class="st40" d="M296.8,207.1v1.5c0,0-0.1,1.3,0.6,1.8c0.9,0.6,4.7,2.5,4.7,2.5s1.1,0.7-0.3,1.5c-0.9,0.5-4.4,2.7-6.4,4
		c-0.3,0.2-0.5,0.3-0.7,0.4c0,0.2-0.2,0.4-0.4,0.4c-0.2,0-0.3-0.1-0.4-0.2l0,0c0,0,0,0,0-0.1c0,0,0,0,0-0.1c-0.1-0.4-0.3-0.6-0.9-1
		c-1.1-0.6-3.6-1.8-3.6-1.8s-1.5-0.6-1.5-2.3c0-0.9,0-1.4,0-1.4L296.8,207.1z"/>
	<path class="st39" d="M297.4,206.7v1.5c0,0-0.1,1.3,0.6,1.8c0.9,0.6,4.7,2.5,4.7,2.5s1.1,0.7-0.3,1.5c-1.3,0.8-8,4.9-8,4.9
		s0.1-1-1-1.6c-1.1-0.6-3.6-1.8-3.6-1.8s-1.5-0.6-1.5-2.3c0-0.9,0-1.4,0-1.4L297.4,206.7z"/>
	<path class="st41" d="M315.5,192v2.4c0,0.7-0.2,3.1-2.1,3.9L274.5,221c-1.5,1-3,0-3-1.1v-2.9L315.5,192z"/>
	<polygon class="st42" points="313.7,167 313.7,190.7 273.4,213.8 273.4,190 	"/>
</g>
<polygon class="st44" points="306.6,267.8 306.6,272.3 272.5,292.2 272.5,287.7 "/>
<polygon class="st45" points="297.2,139 266.2,121.7 244.5,133.1 276.1,151.4 "/>
<polygon class="st46" points="257.1,119.3 266.2,114.3 266.2,128.6 257.1,134 "/>
<polygon class="st47" points="262,122 262,137.3 257.1,134.2 257.1,119.3 "/>
<polygon class="st48" points="262,122 271.1,116.5 271.1,131.3 262,137.3 "/>
<polygon class="st6" points="269.8,117.3 266.1,115.6 258.3,120 262,122 "/>
<polygon class="st49" points="262.8,122.8 272,117.7 272,132 262.8,137.6 "/>
<polygon class="st50" points="267.7,125.5 267.7,140.7 262.8,137.7 262.8,122.8 "/>
<polygon class="st51" points="267.7,125.5 276.8,120 276.8,134.8 267.7,140.7 "/>
<polygon class="st6" points="275.5,120.8 271.8,119.1 264.1,123.5 267.7,125.5 "/>
<polygon class="st52" points="297.2,139 297.2,143.1 276.1,156.1 276.1,151.4 "/>
<polygon class="st53" points="276.1,151.4 244.5,133.1 244.5,137.8 276.1,156.1 "/>
<polygon class="st46" points="268.6,126.8 277.8,121.8 277.8,136.1 268.6,141.5 "/>
<polygon class="st47" points="273.5,129.5 273.5,144.8 268.6,141.7 268.6,126.8 "/>
<polygon class="st48" points="273.5,129.5 282.7,124 282.7,138.8 273.5,144.8 "/>
<polygon class="st6" points="281.3,124.8 277.7,123.1 269.9,127.5 273.5,129.5 "/>
<polygon class="st49" points="274.4,130.3 283.5,125.2 283.5,139.5 274.4,145.1 "/>
<polygon class="st50" points="279.3,133 279.3,148.2 274.4,145.2 274.4,130.3 "/>
<polygon class="st51" points="279.3,133 288.4,127.5 288.4,142.3 279.3,148.2 "/>
<polygon class="st6" points="287.1,128.3 283.4,126.6 275.6,131 279.3,133 "/>
<g>
	<path class="st54" d="M19.6,316.5l1.2,10.4c0,0,0.7,5.9,9,5.9s9-5.8,9-5.8l1.3-11L19.6,316.5z"/>
	<ellipse class="st55" cx="29.9" cy="316.1" rx="10.3" ry="5.8"/>
	<ellipse class="st56" cx="29.9" cy="315.9" rx="9" ry="4.9"/>
	<path class="st57" d="M30.7,295.3h-1.6v21h0c0,0,0,0.1,0,0.1c0,0.4,0.4,0.8,0.8,0.8c0.4,0,0.8-0.4,0.8-0.8c0,0,0-0.1,0-0.1h0V295.3
		z"/>
	<ellipse class="st58" cx="29.6" cy="283.3" rx="15.5" ry="13.4"/>
	<path class="st59" d="M29.6,289.4c-7.1,0-13-4.1-14.9-9.8c-0.4,1.2-0.6,2.4-0.6,3.7c0,7.4,6.9,13.4,15.5,13.4s15.5-6,15.5-13.4
		c0-1.3-0.2-2.5-0.6-3.7C42.6,285.3,36.7,289.4,29.6,289.4z"/>
</g>
<g>
	<path class="st54" d="M415.9,278.9l1.2,10.4c0,0,0.7,5.9,9,5.9s9-5.8,9-5.8l1.3-11L415.9,278.9z"/>
	<ellipse class="st55" cx="426.1" cy="278.5" rx="10.3" ry="5.8"/>
	<ellipse class="st56" cx="426.1" cy="278.3" rx="9" ry="4.9"/>
	<path class="st57" d="M426.9,257.7h-1.6v21h0c0,0,0,0.1,0,0.1c0,0.4,0.4,0.8,0.8,0.8c0.4,0,0.8-0.4,0.8-0.8c0,0,0-0.1,0-0.1h0
		V257.7z"/>
	<ellipse class="st58" cx="425.8" cy="245.8" rx="15.5" ry="13.4"/>
	<path class="st59" d="M425.8,251.9c-7.1,0-13-4.1-14.9-9.8c-0.4,1.2-0.6,2.4-0.6,3.7c0,7.4,6.9,13.4,15.5,13.4
		c8.5,0,15.5-6,15.5-13.4c0-1.3-0.2-2.5-0.6-3.7C438.8,247.7,432.9,251.9,425.8,251.9z"/>
</g>
</svg>
