<?xml version="1.0" encoding="utf-8"?>
<!-- Generator: Adobe Illustrator 19.1.1, SVG Export Plug-In . SVG Version: 6.00 Build 0)  -->
<svg version="1.1" id="Layer_1" xmlns="http://www.w3.org/2000/svg" xmlns:xlink="http://www.w3.org/1999/xlink" x="0px" y="0px"
	 viewBox="0 0 553.3 576.5" style="enable-background:new 0 0 553.3 576.5;" xml:space="preserve">
<style type="text/css">
	.st0{fill:#B6B6AE;}
	.st1{fill:#D6D6CE;}
	.st2{fill:#EBEBE7;}
	.st3{fill:#F4F1EC;}
	.st4{fill:#F48691;}
	.st5{fill:#F2F1EF;}
	.st6{fill:#AF5056;}
	.st7{fill:#ED5F79;}
	.st8{fill:#AB515A;}
	.st9{fill:#FFFFFF;}
	.st10{fill:#CCB06A;}
	.st11{fill:#E8CE82;}
	.st12{fill:#F9E491;}
	.st13{fill:#CED7D8;}
	.st14{fill:#D6E3E5;}
	.st15{fill:#F4F0D7;}
	.st16{fill:#84D4D5;}
	.st17{fill:#F5E9DB;}
	.st18{fill:#FFF2BB;}
	.st19{fill:#225875;}
	.st20{fill:#FFB6BA;}
	.st21{fill:#F69294;}
	.st22{fill:#ACF7F9;}
	.st23{fill:#79BCC2;}
	.st24{fill:#87D2D5;}
	.st25{fill:#88D2D3;}
	.st26{fill:#34373D;}
	.st27{fill:#545454;}
	.st28{fill:#282828;}
	.st29{fill:#414449;}
	.st30{fill:#DDDCD7;}
	.st31{fill:#F3F3F3;}
	.st32{fill:#CFCFCF;}
	.st33{fill:#AAAAAA;}
	.st34{fill:#B9B9B9;}
	.st35{fill:#AAACAF;}
	.st36{fill:#B2DC7F;}
	.st37{fill:#FDD8AE;}
	.st38{fill:#FBBE78;}
	.st39{fill:#CB9D81;}
	.st40{fill:#9E7258;}
	.st41{fill:#C6C6C4;}
	.st42{fill:#C9D3D3;}
	.st43{fill:#464B49;}
	.st44{fill:#FCE1C8;}
	.st45{fill:#FD4B50;}
	.st46{fill:#FBDFCB;}
	.st47{fill:#FF7675;}
	.st48{fill:#E8EEF4;}
	.st49{fill:#F7DAC5;}
	.st50{fill:#232323;}
	.st51{fill:#30332C;}
	.st52{fill:#FFE0CB;}
	.st53{fill:#3D3F3B;}
	.st54{fill:#535959;}
	.st55{fill:#87888E;}
	.st56{fill:#4B4855;}
	.st57{fill:#A8A8A8;}
	.st58{fill:#E0E0E0;}
	.st59{fill:#7F594A;}
	.st60{fill:#EAAB6C;}
	.st61{fill:#704646;}
	.st62{fill:#E2E5E8;}
	.st63{fill:#FFD3C8;}
	.st64{fill:#0A1015;}
	.st65{fill:#E3E9F0;}
	.st66{fill:#FFC1C1;}
	.st67{fill:#213454;}
	.st68{fill:#FCFFFF;}
	.st69{fill:#578BB8;}
	.st70{fill:#0776B6;}
	.st71{fill:#96C5DF;}
	.st72{fill:#FFFFFD;}
	.st73{fill:#3B7893;}
	.st74{fill:#F0A795;}
	.st75{fill:#E67D6D;}
</style>
<polygon class="st0" points="304.8,576.5 304.8,557 553.3,414.5 553.3,431.5 "/>
<polygon class="st1" points="304.8,576.5 304.8,557 0,379 0,397 "/>
<polygon class="st2" points="304.8,557.8 553.3,415.3 246.3,236.3 0,379.8 "/>
<polygon class="st2" points="0.9,135.8 0.9,379.2 8.5,383.8 8.5,140.5 "/>
<polygon class="st3" points="8.5,140.5 253.4,0 240.2,0 0.9,135.8 "/>
<polygon class="st4" points="8.5,383.8 253.4,239.7 253.4,0 8.5,140.5 "/>
<polygon class="st5" points="88.9,258 119.9,240.7 141.6,252.2 110,270.4 "/>
<polygon class="st6" points="129,238.3 119.9,233.3 119.9,247.6 129,253 "/>
<polygon class="st7" points="124.1,241.1 124.1,256.3 129,253.2 129,238.3 "/>
<polygon class="st8" points="124.1,241.1 115,235.5 115,250.3 124.1,256.3 "/>
<polygon class="st9" points="116.3,236.3 120,234.7 127.8,239 124.1,241.1 "/>
<polygon class="st10" points="123.3,241.8 114.1,236.8 114.1,251.1 123.3,256.6 "/>
<polygon class="st11" points="118.4,244.5 118.4,259.8 123.3,256.7 123.3,241.8 "/>
<polygon class="st12" points="118.4,244.5 109.3,239 109.3,253.8 118.4,259.8 "/>
<polygon class="st9" points="110.6,239.8 114.3,238.1 122,242.5 118.4,244.5 "/>
<polygon class="st13" points="88.9,258 88.9,262.2 110,275.2 110,270.4 "/>
<polygon class="st14" points="110,270.4 141.6,252.2 141.6,256.8 110,275.2 "/>
<path class="st9" d="M31.2,191.6v62.5l55-32v-62.7L31.2,191.6z M80.2,219.2L37,243.9v-49.5l43.2-25.3V219.2z"/>
<polygon class="st15" points="71.2,174.3 71.2,214.1 80.2,219.2 80.2,169.1 "/>
<polygon class="st6" points="117.5,245.8 108.3,240.8 108.3,255.1 117.5,260.6 "/>
<polygon class="st5" points="37,243.9 37,233.2 71.2,214.1 80.2,219.2 "/>
<polygon class="st16" points="37,194.4 71.2,174.3 71.2,214.1 37,233.2 "/>
<polygon class="st17" points="31.2,254.1 28.7,252 28.7,189.9 31.2,191.6 "/>
<polygon class="st17" points="86.2,159.4 82.6,158.4 28.7,189.9 31.2,191.6 "/>
<polygon class="st5" points="134.3,232.2 165.2,214.9 186.9,226.3 155.4,244.6 "/>
<polygon class="st13" points="134.3,232.2 134.3,236.3 155.4,249.3 155.4,244.6 "/>
<polygon class="st14" points="155.4,244.6 186.9,226.3 186.9,231 155.4,249.3 "/>
<polygon class="st9" points="103.2,187 101.6,186.7 101.6,168.3 115.6,160 117.9,160 "/>
<polygon class="st13" points="103.2,168.5 117.9,160 117.9,177.5 103.2,187 "/>
<polygon class="st9" points="107.5,161.9 106.3,161.7 106.3,148.6 116.2,142.8 117.9,142.8 "/>
<polygon class="st16" points="107.5,148.8 117.9,142.8 117.9,155.2 107.5,161.9 "/>
<polygon class="st7" points="112.6,248.6 112.6,263.8 117.5,260.7 117.5,245.8 "/>
<polygon class="st8" points="112.6,248.6 103.4,243.1 103.4,257.8 112.6,263.8 "/>
<polygon class="st9" points="104.8,243.8 108.4,242.2 116.2,246.5 112.6,248.6 "/>
<polygon class="st10" points="111.7,249.3 102.6,244.3 102.6,258.6 111.7,264.1 "/>
<polygon class="st9" points="143.2,141.7 142.1,141.5 142.1,128.4 152,122.6 153.6,122.6 "/>
<polygon class="st18" points="143.2,128.6 153.6,122.6 153.6,134.9 143.2,141.7 "/>
<polygon class="st9" points="123.7,182.1 121.9,181.8 121.9,155.6 141.8,144.4 144.2,144.4 "/>
<polygon class="st19" points="123.7,156.2 144.2,144.4 144.2,168.8 123.7,182.1 "/>
<polygon class="st20" points="123.5,152.9 121.9,152.6 121.9,130.2 138.9,120.5 141,120.5 "/>
<polygon class="st21" points="123.5,130.7 141,120.5 141,142.9 123.5,152.9 "/>
<polygon class="st11" points="106.8,252 106.8,267.3 111.7,264.2 111.7,249.3 "/>
<polygon class="st12" points="106.8,252 97.7,246.5 97.7,261.3 106.8,267.3 "/>
<polygon class="st9" points="99,247.3 102.7,245.6 110.5,250 106.8,252 "/>
<polygon class="st18" points="153.6,153.4 181.2,169.1 181.2,204.8 153.6,188.8 "/>
<path class="st22" d="M181.2,169.1v35.8l32-17v-36.5L181.2,169.1z M211.6,186.8l-28.8,15.1v-31.8l28.8-15.8V186.8z"/>
<polygon class="st23" points="211.6,186.8 182.8,170.1 211.6,154.3 "/>
<polygon class="st24" points="182.8,170.1 182.8,201.8 211.6,186.8 "/>
<polygon class="st25" points="153.6,153.4 184.2,135.6 213.2,151.3 181.2,169.1 "/>
<g>
	<path class="st26" d="M156.6,420.4l-0.2,1.5c0,0-0.4,1.7,2.9,2.5c3.3,0.7,5.2-0.9,5.1-2.3C164.3,420.6,156.6,420.4,156.6,420.4z"/>
	<path class="st27" d="M157.1,417c0,0-0.3,1.5-0.4,2.5c-0.1,1-0.3,3.1,3,3.7c3.3,0.6,4.3-1.1,6.4-1.1c2.1,0,4.6,0.7,8.2-0.1
		c3.9-0.9,5.4-1.7,4.9-3.9c-0.5-2.2-6.6-1.8-8.1-2.1c-1.5-0.2-1.8-0.3-1.8-0.3S164.3,418.6,157.1,417z"/>
</g>
<path class="st28" d="M151.8,385.4l0.2-9.2c0,0,3.1-2.7,8.4-1.7c5.3,1,6.1,4.2,5.6,8.5c-0.4,4.3,1,35.5,1,35.5s-5.9-0.2-9.9,0
	C153.2,418.6,151.8,385.4,151.8,385.4z"/>
<path class="st29" d="M133.2,395.3c0,0,0.2,5.7,14.8,5.7s17.9-6.8,17.9-6.8l-2.9,26.9c0,0,1,1.5,6.4,1.5c5.3,0,6.1-2.9,6.2-5
	c0.1-2.1,1.8-27.5,1.8-27.5s1.2-5.3-3.7-7.8c-4.9-2.6-10.9,1-15.2,1.8c-4.3,0.8-6.7,1.3-6.7,1.3L133.2,395.3z"/>
<path class="st26" d="M162.4,424.5l-0.2,1.5c0,0-0.4,1.7,2.9,2.5c3.3,0.7,5.2-0.9,5.1-2.3C170.1,424.8,162.4,424.5,162.4,424.5z"/>
<path class="st26" d="M171.1,425.9c0,0,1.8,1.4,7.4,0.9c5.6-0.5,6.7-2.2,6.6-3.6S171.1,425.9,171.1,425.9z"/>
<path class="st27" d="M162.9,421.1c0,0-0.3,1.5-0.4,2.5s-0.3,3.1,3,3.7c3.3,0.6,4.3-1.1,6.4-1.1s4.6,0.7,8.2-0.1
	c3.9-0.9,5.4-1.7,4.9-3.9c-0.5-2.2-6.6-1.8-8.1-2.1s-1.8-0.3-1.8-0.3S170.2,422.7,162.9,421.1z"/>
<ellipse transform="matrix(0.8613 0.508 -0.508 0.8613 230.3429 -53.7007)" class="st30" cx="213.6" cy="395.1" rx="4.4" ry="7.5"/>
<polygon class="st31" points="350.5,443.2 338.8,436.3 305.4,455.7 305.4,486.5 318.2,494 318.2,461.4 "/>
<g>
	<polygon class="st31" points="218.3,389.2 206.6,382.3 173.2,401.8 173.2,432.6 185.9,440.1 185.9,407.5 	"/>
	<polygon class="st32" points="185.9,440.1 185.9,407.5 218.3,389.2 218.3,421.2 	"/>
	<polygon class="st33" points="185.4,412.1 185.4,409.9 173.7,403.4 173.7,405.7 	"/>
	<polygon class="st33" points="185.4,416.1 185.4,413.9 173.7,407.4 173.7,409.7 	"/>
	<polygon class="st32" points="185.4,422.7 185.4,419.9 173.7,413.4 173.7,416.3 	"/>
	<polygon class="st32" points="185.4,427.3 185.4,424.6 173.7,418 173.7,421 	"/>
	<polygon class="st34" points="185.4,437 185.4,434.3 173.7,427.7 173.7,430.7 	"/>
	
		<ellipse transform="matrix(0.7233 -0.6906 0.6906 0.7233 -245.578 241.6048)" class="st35" cx="178.7" cy="427.2" rx="1.5" ry="2.3"/>
	
		<ellipse transform="matrix(0.7233 -0.6906 0.6906 0.7233 -245.578 241.6047)" class="st36" cx="178.7" cy="427.2" rx="0.8" ry="1.6"/>
</g>
<polygon class="st37" points="366.2,414.2 184.8,308.7 120.3,346.2 301.2,452 "/>
<polygon class="st38" points="302.1,455.8 302.1,508.3 295.7,504.6 295.7,452.4 "/>
<polygon class="st39" points="301.2,452 301.2,456.3 366.2,418.4 366.2,414.2 "/>
<polygon class="st38" points="301.2,456.3 301.2,452 120.3,346.2 120.3,351 "/>
<polygon class="st40" points="302.1,508.3 304.4,507 304.4,456.3 362.3,422.6 362.3,473.1 364.5,471.8 364.5,419.5 302.1,455.8 "/>
<polygon class="st38" points="356.6,425.9 356.6,469.9 362.3,473.1 362.3,422.6 "/>
<polygon class="st39" points="366.2,414.2 366.2,377.6 187.2,274.3 185.7,274.3 186.4,309.6 "/>
<polygon class="st38" points="365.5,413.8 365.5,378 185.7,274.3 185.7,309.2 "/>
<polygon class="st39" points="363.2,412.5 363.2,379.6 187.8,278.5 187.8,310.5 "/>
<polygon class="st40" points="365.5,378 366.2,377.6 366.2,414.2 365.5,413.8 "/>
<polygon class="st41" points="318.2,494 318.2,461.4 350.5,443.2 350.5,475.2 "/>
<ellipse transform="matrix(0.8613 0.508 -0.508 0.8613 279.9243 -111.0216)" class="st30" cx="343.4" cy="457.3" rx="4.4" ry="7.5"/>
<polygon class="st33" points="317.6,466 317.6,463.9 305.9,457.3 305.9,459.7 "/>
<polygon class="st33" points="317.6,470 317.6,467.9 305.9,461.3 305.9,463.6 "/>
<polygon class="st32" points="317.6,476.6 317.6,473.9 305.9,467.3 305.9,470.3 "/>
<polygon class="st32" points="317.6,481.2 317.6,478.5 305.9,472 305.9,474.9 "/>
<polygon class="st34" points="317.6,491 317.6,488.2 305.9,481.7 305.9,484.6 "/>
<ellipse transform="matrix(0.7233 -0.6906 0.6906 0.7233 -246.236 347.841)" class="st35" cx="310.9" cy="481.1" rx="1.5" ry="2.3"/>
<ellipse transform="matrix(0.7233 -0.6906 0.6906 0.7233 -246.236 347.8409)" class="st36" cx="310.9" cy="481.1" rx="0.8" ry="1.6"/>
<path class="st38" d="M188.4,390.7c0.2,0.1,0,50.9,0,50.9l6.2,3.8v-51.1L188.4,390.7z"/>
<polygon class="st40" points="196.9,395.6 196.9,444.1 194.6,445.4 194.6,394.3 "/>
<polygon class="st38" points="252,347.9 249.4,346.4 249.4,313.2 252,313.2 "/>
<polygon class="st38" points="301.5,376.6 298.9,375.1 298.9,341.9 301.5,341.9 "/>
<polygon class="st42" points="286.4,432.7 301.7,422.9 270.8,406.2 255.7,415.8 "/>
<path class="st43" d="M286.4,432.7v0.7l14.1-9.2c0,0,0.2,1.2,1,1.1c1-0.1,1-0.8,1-1.4c0-0.6-0.4-1.1-1.1-0.9
	C300.7,423.3,286.4,432.7,286.4,432.7z"/>
<g>
	<path class="st26" d="M263.3,484.7l-0.2,1.5c0,0-0.4,1.7,2.9,2.5c3.3,0.7,5.2-0.9,5.1-2.3S263.3,484.7,263.3,484.7z"/>
	<path class="st27" d="M263.8,481.2c0,0-0.3,1.5-0.4,2.5c-0.1,1-0.3,3.1,3,3.7c3.3,0.6,4.3-1.1,6.4-1.1c2.1,0,4.6,0.7,8.2-0.1
		c3.9-0.9,5.4-1.7,4.9-3.9s-6.6-1.8-8.1-2.1c-1.5-0.2-1.8-0.3-1.8-0.3S271.1,482.9,263.8,481.2z"/>
</g>
<path class="st28" d="M258.5,449.6l0.2-9.2c0,0,3.1-2.7,8.4-1.7s6.1,4.2,5.6,8.5c-0.4,4.3,1,35.5,1,35.5s-5.9-0.2-9.9,0
	S258.5,449.6,258.5,449.6z"/>
<polygon class="st38" points="269.2,461.5 240.9,444.8 206.2,459.4 243.5,476.2 "/>
<polygon class="st40" points="237.7,484 237.7,507 245,503 245,479.9 "/>
<polygon class="st44" points="195.1,390.1 260.6,352.8 293.9,372.1 229.2,409.9 "/>
<polygon class="st39" points="232.8,504.2 232.8,480.3 237.7,483.7 237.7,507 "/>
<polygon class="st40" points="261.5,470.3 261.5,493.5 268.8,489.4 268.8,466.2 "/>
<polygon class="st39" points="256.7,490.8 256.7,469 261.5,470.3 261.5,493.5 "/>
<polygon class="st40" points="210.9,464.6 210.9,491.5 217.8,487.6 217.8,469.5 "/>
<polygon class="st39" points="210.9,491.5 206,488.7 206,461.2 210.9,464.6 "/>
<path class="st45" d="M259.5,420.5l7.9-1c0,0,1.2,0.6,1.5,2.3s0,2.9,0,2.9l-5.1,1.7C263.8,426.4,262.1,424.2,259.5,420.5z"/>
<path class="st46" d="M267.4,419.5c0,0,5.8-1.3,8.2-1c2.5,0.3,4.7,1.4,5.8,2.1c1.1,0.7,1,1.9,0.2,1.7c-0.8-0.2-1.8-1-2.8-1.4
	c-1-0.4-2.9-0.7-3-0.3s0,1.2,1.4,1.6c1.4,0.5,2.6,1.2,2.4,1.8c-0.2,0.7-1.8,0.6-4-0.2c-2.2-0.8-2.7-0.1-4.2-0.5
	c-1-0.3-2.3-0.1-2.3-0.1S269.4,420.8,267.4,419.5z"/>
<path class="st47" d="M245.9,409.3c0,0-3.4-1.5-5.6,0.6c-2.2,2.1-2,6.1-2,6.1L245.9,409.3z"/>
<path class="st48" d="M255.9,416c0,0-0.4-4.8-5.1-7.6c-4.4-2.7-5.6-2.2-6-1.4c-0.5,0.7-0.4,1.9,0,2
	C245.2,409.1,250.5,410.3,255.9,416z"/>
<path class="st49" d="M246.3,406.4l0.1-2.9c0,0,12.2-8.5,14.2-8.9c2.1-0.4,2.2,0.7,2.2,0.7s-2.1,8.8-2.7,10.7
	c-0.6,1.9-1.1,3.7-3,3.9c-1.9,0.2-2.9-0.9-3.3-0.9c-0.4,0.1-0.1,1.8-0.1,1.8s-2.2-3-7.2-4.5"/>
<path class="st50" d="M263.9,394.2c0,0-2.2,1.8-2.7,3.1c-0.4,1.3-0.7,4.9-1.8,4.6c-1.1-0.3-1-1.8-0.3-3.4c0.7-1.6,0.6-1.9-0.2-2.1
	c-0.8-0.2-2.6,0.9-3.4,3.7s-2.1,6-4.8,5.8c-2.8-0.2-5.1-1.6-6.2-7c-1.2-5.4-1-9.4,1.8-12.3c2.9-2.9,8.1-3.7,12.3-1.6
	c4.2,2.1,6.1,4,6.5,5.3C265.7,392,265,393.1,263.9,394.2z"/>
<path class="st51" d="M290.9,442c0,0,0.7,1.4,2.9,1.1c2.2-0.3,6.8-3.6,6.8-3.6s1.1-1.1,0.8-1.8C301,437,290.9,442,290.9,442z"/>
<path class="st29" d="M239.9,459.6c0,0,0.2,5.7,14.8,5.7s17.9-6.8,17.9-6.8l-2.9,26.9c0,0,1,1.5,6.4,1.5s6.1-2.9,6.2-5
	c0.1-2.1,1.8-27.5,1.8-27.5s1.2-5.3-3.7-7.8c-4.9-2.6-10.9,1-15.2,1.8c-4.3,0.8-6.7,1.3-6.7,1.3L239.9,459.6z"/>
<path class="st26" d="M269.2,488.8l-0.2,1.5c0,0-0.4,1.7,2.9,2.5c3.3,0.7,5.2-0.9,5.1-2.3C276.9,489,269.2,488.8,269.2,488.8z"/>
<path class="st26" d="M277.8,490.1c0,0,1.8,1.4,7.4,0.9c5.6-0.5,6.7-2.2,6.6-3.6C291.6,486.1,277.8,490.1,277.8,490.1z"/>
<path class="st27" d="M269.7,485.3c0,0-0.3,1.5-0.4,2.5c-0.1,1-0.3,3.1,3,3.7c3.3,0.6,4.3-1.1,6.4-1.1c2.1,0,4.6,0.7,8.2-0.1
	c3.9-0.9,5.4-1.7,4.9-3.9s-6.6-1.8-8.1-2.1s-1.8-0.3-1.8-0.3S276.9,487,269.7,485.3z"/>
<path class="st45" d="M259.1,426.4c0,0,0.7-5.2-2.4-9.4c-3.1-4.2-8.8-7.6-11.7-7.9c-2.9-0.3-5.5,1.9-7.3,9.2
	c-1.7,7.3-2.3,19.6-2.4,27.1c-0.1,7.4,2,15.2,8.7,15.8c6.6,0.6,10.2-1.5,12.7-5.1c2.4-3.5,2-11.2,2-13.1S259.1,426.4,259.1,426.4z"
	/>
<path class="st29" d="M290.9,442c1.1,0.7,2.2,1.1,4.1,0.2c2-1,3-2.4,4.4-3.2c1.4-0.8,2.6-1,1.6-2c-1-0.9-3-2.6-5.2-1.5
	C293.6,436.6,286.9,439.5,290.9,442z"/>
<path class="st52" d="M283.1,434.4c0,0,4.5-0.7,7.5,0c2.9,0.7,4.7,2,6,2.5c1.3,0.5,1,1.6,0,2.2c-1,0.6-3.3,0.8-4.9,0.5
	c-1.6-0.3-5-0.9-7-0.2S283.1,434.4,283.1,434.4z"/>
<path class="st47" d="M259.5,420.5c0,0-3-4.6-7.3-2.1c-4.3,2.5-0.8,8.3,1.6,11.2c2.3,2.9,10,11.3,14.7,11.4
	c4.7,0.1,15.4-1.2,15.4-1.2s1.2,0.7,1.2-3.6c0-2.5-1.3-3.2-1.3-3.2s-12.7,0.5-14.9-1C266.6,430.6,259.5,420.5,259.5,420.5z"/>
<polygon class="st39" points="237.7,438.6 237.7,484 206,468.7 206,420.1 "/>
<polygon class="st38" points="237.7,438.6 206,420.1 211.4,417 243.2,435.5 "/>
<polygon class="st40" points="243.2,435.5 237.7,438.6 237.7,484 268.8,466.2 268.8,461.6 243.2,476.3 "/>
<g>
	<path class="st53" d="M336.9,375.7l-41.8-24.1c-0.5-0.2-1.2,0.2-1.2,0.7V378v1v2.5c0,0.7,0.2,3.1,2.1,3.9l38.4,22.2
		c1.5,1,3.5-0.9,3.5-2v-1.9v-24.8v-1.7C337.9,376.7,337.6,376.1,336.9,375.7z"/>
	<path class="st54" d="M336,375.2L294.1,351c-0.5-0.2-1.2,0.2-1.2,0.7v25.7v1v2.5c0,0.7,0.2,3.1,2.1,3.9l38.8,22.7c1.5,1,3,0,3-1.1
		v-3.2v-24.8v-1.7C337,376.1,336.7,375.5,336,375.2z"/>
	<path class="st55" d="M337,402.5l-43.1-23v1.9c0,0.7,0.2,3.1,2.1,3.9l38.2,22.2c1.8,1,3.7-0.8,3.7-2.2v-3.2v-0.5L337,402.5z"/>
	<path class="st56" d="M311.7,393.6v1.5c0,0,0.1,1.3-0.6,1.8c-0.9,0.6-4.7,2.5-4.7,2.5s-1.1,0.7,0.3,1.5c0.9,0.5,4.4,2.7,6.4,4
		c0.3,0.2,0.5,0.3,0.7,0.4c0,0.2,0.2,0.4,0.4,0.4c0.2,0,0.3-0.1,0.4-0.2c0,0,0,0,0,0c0,0,0,0,0-0.1c0,0,0,0,0-0.1
		c0.1-0.4,0.3-0.6,0.9-1c1.1-0.6,3.6-1.8,3.6-1.8s1.5-0.6,1.5-2.3c0-0.9,0-1.4,0-1.4L311.7,393.6z"/>
	<path class="st55" d="M311,393.2v1.5c0,0,0.1,1.3-0.6,1.8c-0.9,0.6-4.7,2.5-4.7,2.5s-1.1,0.7,0.3,1.5c1.3,0.8,8,4.9,8,4.9
		s-0.1-1,1-1.6c1.1-0.6,3.6-1.8,3.6-1.8s1.5-0.6,1.5-2.3c0-0.9,0-1.4,0-1.4L311,393.2z"/>
	<path class="st57" d="M293,378.5v2.4c0,0.7,0.2,3.1,2.1,3.9l38.8,22.7c1.5,1,3,0,3-1.1v-2.9L293,378.5z"/>
	<polygon class="st58" points="294.7,353.5 294.7,377.2 335,400.3 335,376.5 	"/>
</g>
<polygon class="st42" points="179.6,368.5 194.9,358.7 164.1,341.9 149,351.5 "/>
<path class="st43" d="M179.6,368.5v0.7l14.1-9.2c0,0,0.2,1.2,1,1.1c1-0.1,1-0.8,1-1.4c0-0.6-0.4-1.1-1.1-0.9
	C194,359,179.6,368.5,179.6,368.5z"/>
<polygon class="st38" points="162.5,397.3 134.2,380.6 99.5,395.1 136.8,412 "/>
<polygon class="st40" points="131,419.8 131,442.8 138.3,438.7 138.3,415.6 "/>
<polygon class="st39" points="126.1,440 126.1,416 131,419.5 131,442.8 "/>
<polygon class="st40" points="154.8,406 154.8,429.3 162.1,425.2 162.1,402 "/>
<polygon class="st39" points="149.9,426.5 149.9,404.8 154.8,406 154.8,429.3 "/>
<polygon class="st40" points="104.1,400.4 104.1,427.2 111,423.3 111,405.2 "/>
<polygon class="st39" points="104.1,427.2 99.3,424.4 99.3,396.9 104.1,400.4 "/>
<path class="st28" d="M152.8,356.2l7.9-1c0,0,1.2,0.6,1.5,2.3c0.3,1.7,0,2.9,0,2.9l-5.1,1.7C157.1,362.1,155.4,359.9,152.8,356.2z"
	/>
<path class="st46" d="M160.7,355.2c0,0,5.8-1.3,8.2-1c2.5,0.3,4.7,1.4,5.8,2.1c1.1,0.7,1,1.9,0.2,1.7c-0.8-0.2-1.8-1-2.8-1.4
	c-1-0.4-2.9-0.7-3-0.3c-0.1,0.5,0,1.2,1.4,1.6c1.4,0.5,2.6,1.2,2.4,1.8c-0.2,0.7-1.8,0.6-4-0.2c-2.2-0.8-2.7-0.1-4.2-0.5
	c-1-0.3-2.3-0.1-2.3-0.1S162.6,356.6,160.7,355.2z"/>
<path class="st29" d="M139.2,345.1c0,0-3.4-1.5-5.6,0.6c-2.2,2.1-2,6.1-2,6.1L139.2,345.1z"/>
<path class="st48" d="M149.2,351.8c0,0-0.4-4.8-5.1-7.6c-4.4-2.7-5.6-2.2-6-1.4c-0.5,0.7-0.4,1.9,0,2
	C138.5,344.8,143.8,346.1,149.2,351.8z"/>
<path class="st49" d="M139.6,342.1l0.1-2.9c0,0,12.2-8.5,14.2-8.9c2.1-0.4,2.2,0.7,2.2,0.7s-2.1,8.8-2.7,10.7
	c-0.6,1.9-1.1,3.7-3,3.9s-2.9-0.9-3.3-0.9c-0.4,0.1-0.1,1.8-0.1,1.8s-2.2-3-7.2-4.5"/>
<path class="st59" d="M157.2,330c0,0-2.2,1.8-2.7,3.1c-0.4,1.3-0.7,4.9-1.8,4.6c-1.1-0.3-1-1.8-0.3-3.4c0.7-1.6,0.6-1.9-0.2-2.1
	c-0.8-0.2-2.6,0.9-3.4,3.7c-0.8,2.8-2.1,6-4.8,5.8c-2.8-0.2-5.1-1.6-6.2-7c-1.2-5.4-1-9.4,1.8-12.3c2.9-2.9,8.1-3.7,12.3-1.6
	c4.2,2.1,6.1,4,6.5,5.3C158.9,327.7,158.3,328.8,157.2,330z"/>
<path class="st51" d="M184.1,377.7c0,0,0.7,1.4,2.9,1.1c2.2-0.3,6.8-3.6,6.8-3.6s1.1-1.1,0.8-1.8S184.1,377.7,184.1,377.7z"/>
<path class="st28" d="M152.4,362.2c0,0,0.7-5.2-2.4-9.4s-8.8-7.6-11.7-7.9c-2.9-0.3-5.5,1.9-7.3,9.2c-1.7,7.3-2.3,19.6-2.4,27.1
	s2,15.2,8.7,15.8c6.6,0.6,10.2-1.5,12.7-5.1c2.4-3.5,2-11.2,2-13.1S152.4,362.2,152.4,362.2z"/>
<path class="st29" d="M184.1,377.7c1.1,0.7,2.2,1.1,4.1,0.2c2-1,3-2.4,4.4-3.2c1.4-0.8,2.6-1,1.6-2s-3-2.6-5.2-1.5
	C186.9,372.3,180.2,375.2,184.1,377.7z"/>
<path class="st52" d="M176.3,370.2c0,0,4.5-0.7,7.5,0c2.9,0.7,4.7,2,6,2.5c1.3,0.5,1,1.6,0,2.2s-3.3,0.8-4.9,0.5
	c-1.6-0.3-5-0.9-7-0.2S176.3,370.2,176.3,370.2z"/>
<path class="st29" d="M152.8,356.2c0,0-3-4.6-7.3-2.1c-4.3,2.5-0.8,8.3,1.6,11.2c2.3,2.9,10,11.3,14.7,11.4s15.4-1.2,15.4-1.2
	s1.2,0.7,1.2-3.6c0-2.5-1.3-3.2-1.3-3.2s-12.7,0.5-14.9-1C159.9,366.4,152.8,356.2,152.8,356.2z"/>
<polygon class="st39" points="131,374.4 131,419.8 99.3,404.4 99.3,355.8 "/>
<polygon class="st38" points="131,374.4 99.3,355.8 104.7,352.7 136.4,371.2 "/>
<polygon class="st40" points="136.4,371.2 131,374.4 131,419.8 162.1,402 162.1,397.3 136.4,412 "/>
<g>
	<path class="st53" d="M230.2,311.5l-41.8-24.1c-0.5-0.2-1.2,0.2-1.2,0.7v25.7v1v2.5c0,0.7,0.2,3.1,2.1,3.9l38.4,22.2
		c1.5,1,3.5-0.9,3.5-2v-1.9v-24.8v-1.7C231.1,312.5,230.9,311.9,230.2,311.5z"/>
	<path class="st54" d="M229.2,310.9l-41.8-24.1c-0.5-0.2-1.2,0.2-1.2,0.7v25.7v1v2.5c0,0.7,0.2,3.1,2.1,3.9l38.8,22.7
		c1.5,1,3,0,3-1.1v-3.2v-24.8v-1.7C230.2,311.9,230,311.3,229.2,310.9z"/>
	<path class="st55" d="M230.2,338.3l-43.1-23v1.9c0,0.7,0.2,3.1,2.1,3.9l38.2,22.2c1.8,1,3.7-0.8,3.7-2.2V338v-0.5L230.2,338.3z"/>
	<path class="st56" d="M205,329.4v1.5c0,0,0.1,1.3-0.6,1.8c-0.9,0.6-4.7,2.5-4.7,2.5s-1.1,0.7,0.3,1.5c0.9,0.5,4.4,2.7,6.4,4
		c0.3,0.2,0.5,0.3,0.7,0.4c0,0.2,0.2,0.4,0.4,0.4c0.2,0,0.3-0.1,0.4-0.2l0,0c0,0,0,0,0-0.1c0,0,0,0,0-0.1c0.1-0.4,0.3-0.6,0.9-1
		c1.1-0.6,3.6-1.8,3.6-1.8s1.5-0.6,1.5-2.3c0-0.9,0-1.4,0-1.4L205,329.4z"/>
	<path class="st55" d="M204.3,329v1.5c0,0,0.1,1.3-0.6,1.8c-0.9,0.6-4.7,2.5-4.7,2.5s-1.1,0.7,0.3,1.5c1.3,0.8,8,4.9,8,4.9
		s-0.1-1,1-1.6c1.1-0.6,3.6-1.8,3.6-1.8s1.5-0.6,1.5-2.3c0-0.9,0-1.4,0-1.4L204.3,329z"/>
	<path class="st57" d="M186.2,314.3v2.4c0,0.7,0.2,3.1,2.1,3.9l38.8,22.7c1.5,1,3,0,3-1.1v-2.9L186.2,314.3z"/>
	<polygon class="st58" points="188,289.3 188,312.9 228.3,336 228.3,312.3 	"/>
</g>
<polygon class="st60" points="195.1,390.1 195.1,394.5 229.2,414.4 229.2,409.9 "/>
<g>
	<polygon class="st40" points="263.1,279.9 259,276.9 259,263.5 263.1,261.3 	"/>
	<polygon class="st40" points="217.1,282.5 213.1,280.1 213.1,259.5 217.1,262.6 	"/>
	<polygon class="st39" points="221.2,258.5 221.2,280.1 217.1,282.5 217.1,260.9 	"/>
	<polygon class="st40" points="237.8,294.5 233.8,292.1 233.8,274 237.8,276.8 	"/>
	<polygon class="st38" points="267.2,256.9 246.7,244.9 217.3,261.9 237.8,274 	"/>
	<polygon class="st39" points="246.7,244.9 246.7,213.1 217.3,230.3 217.3,262 	"/>
	<polygon class="st38" points="246.7,213.1 242.6,210.8 213.1,227.9 217.3,230.4 	"/>
	<polygon class="st40" points="217.3,230.4 213.1,227.9 213.1,262.4 237.8,276.8 237.8,274 217.3,261.9 	"/>
	<polygon class="st39" points="267.2,256.9 267.2,260.6 237.8,277.6 237.8,274 	"/>
	<polygon class="st39" points="267.2,258.3 267.2,277.5 263.1,279.9 263.1,261 	"/>
	<polygon class="st39" points="241.9,274.7 241.9,292.1 237.8,294.5 237.8,276.8 	"/>
</g>
<g>
	<polygon class="st40" points="346.4,484.8 350.4,481.8 350.4,468.5 346.4,466.2 	"/>
	<polygon class="st40" points="392.3,487.4 396.3,485.1 396.3,464.4 392.3,467.5 	"/>
	<polygon class="st39" points="388.2,463.5 388.2,485 392.3,487.4 392.3,465.8 	"/>
	<polygon class="st40" points="371.6,499.4 375.6,497.1 375.6,478.9 371.6,481.7 	"/>
	<polygon class="st38" points="342.3,461.8 362.7,449.9 392.1,466.9 371.6,478.9 	"/>
	<polygon class="st39" points="362.7,449.9 362.7,418.1 392.1,435.2 392.1,467 	"/>
	<polygon class="st38" points="362.7,418.1 366.8,415.7 396.3,432.9 392.1,435.3 	"/>
	<polygon class="st40" points="392.1,435.3 396.3,432.9 396.3,467.4 371.6,481.7 371.6,478.9 392.1,466.9 	"/>
	<polygon class="st39" points="342.3,461.8 342.3,465.6 371.6,482.5 371.6,478.9 	"/>
	<polygon class="st39" points="342.3,463.2 342.3,482.4 346.4,484.8 346.4,466 	"/>
	<polygon class="st39" points="367.5,479.6 367.5,497 371.6,499.4 371.6,481.7 	"/>
	<g>
		<path class="st61" d="M340.8,496.7c0,0-2.7,2.4-3.9,5.2c-1.2,2.8-1.1,4.4,0.7,5.4c2.5,1.3,4.8-1.2,5.6-1.8s3.9-2.9,4.2-4.2
			s-0.5-1.8-0.5-4.3C346.8,494.6,340.8,496.7,340.8,496.7z"/>
		<path class="st61" d="M352.6,500.6c0,0-2.6,2.3-3.8,5c-1.1,2.7-1.1,4.2,0.7,5.2c2.4,1.3,4.6-1.2,5.3-1.8c0.7-0.6,3.8-2.7,4-4
			c0.2-1.3-0.5-1.8-0.5-4.2S352.6,500.6,352.6,500.6z"/>
		<path class="st62" d="M348.6,462.4c0,0-0.2,0.5-1.2-1.5c-1-1.9-2.2-3.6-2.2-3.6S349.4,458.6,348.6,462.4z"/>
		<path class="st63" d="M346.3,456.6c0,0-2.4,2-3.1,2.5c-0.7,0.5-1.1,1.1-1.6,2.4c-0.5,1.3-2.7,6-1.3,7c1.4,0.9,2.8-0.1,3.3-0.7
			c0.4-0.6,0.6-2.5,1.8-3.8c1.3-1.3,2.7-2.3,3-3.3c0.3-1,0.7-1.4,0.7-1.4S348.6,457.6,346.3,456.6z"/>
		<path class="st9" d="M354.7,429.5c0,0,0-4.7,2.9-5.8c2.9-1.1,4.4,1.3,5.2,4.3c0.8,3-0.1,5.3-0.4,9c-0.3,3.7-0.7,10.5-2.3,13.1
			c-1.6,2.7-11.5,12.3-11.5,12.3s0.1-2.1-1.3-3.5s-2.1-1.5-2.1-1.5s8-10.9,8.9-14.9C355,438.5,354.7,429.5,354.7,429.5z"/>
		<path class="st64" d="M358.1,457.4c0,0-12.9,8.1-14.6,13.2s-2.4,17.9-2.9,21.2c-0.6,3.3-1.4,5.1,1.2,5.9s5.4,2.1,5.8-1.2
			s4.4-21.8,4.4-21.8l13.6-10.2l-2.5-4L358.1,457.4z"/>
		<path class="st64" d="M381.1,458.2c0,0,1.7,1.9,1.5,5.3c-0.2,3.4-2.3,6-7.4,8.8c-5,2.9-12,6.3-12.5,8.8s-2.1,10.7-2.7,14.3
			c-0.7,3.7-1.5,7.2-1.5,7.2s-0.7,0.4-3.8,0c-3.1-0.4-3.1-1.3-3.1-1.3s1.9-12.6,1.9-14.6s0.7-12.6,3.7-14.9S371.9,459.4,381.1,458.2
			z"/>
		<path class="st65" d="M360.7,422.3c0,0-3.6,0.7-4.3,5.9s0.6,16.4,1.2,21.7s-0.1,7.9,1.4,9.8s8.2,4.3,14.9,3.7s7.4-3.9,7.4-8.3
			s0-7.5,0-13c0-5.5,0.8-10.4-1.5-13.4c-2.3-3-5.2-5.3-5.2-5.3L360.7,422.3z"/>
		<path class="st66" d="M363.1,424.6c0,0-0.5,2.5,2.7,3.3c3.2,0.8,6.9-3.1,7.4-4.4C373.8,422.2,363.1,424.6,363.1,424.6z"/>
		<path class="st67" d="M373.5,421.5c0,0,2.5,0.7,4.1-2.6c1.6-3.3,2.9-6.8,0-13.8c-2.9-7.1-12.9-5-15.6-4c-2.7,1-5.4,4.8-5.3,7.2
			s-0.6,3.8,4.8,4.4s9.9,3.1,9.9,3.1L373.5,421.5z"/>
		<path class="st63" d="M358.3,411.9c0,0,0.3,7.6,2.4,10.4c2.1,2.9,3.1,3.8,7.1,3.4c4-0.4,6.3-2.7,6.4-3.5s-0.5-1.9,0-2
			s1.7-0.8,1.9-2.6c0.2-1.7-0.7-1.6-1.5-1.4c-0.8,0.2-0.9,0.9-1.3-0.8s-0.3-3-0.7-3.3c-0.4-0.3-4.7,1.3-8.9,0.7
			C359.5,412.4,358.3,411.9,358.3,411.9z"/>
		<path class="st68" d="M362.3,424.3l-1.5,6.4l4.7-2.9l2.9,5.6l6.9-9.5l-1.1-1.7c0,0-3.2,4.9-6.5,5.7c-3.8,0.9-4.6-2.9-4.6-2.9
			L362.3,424.3z"/>
		<polygon class="st69" points="363.1,429.3 363.6,433.1 365.6,433.5 367.2,431.1 365.5,427.8 		"/>
		<polygon class="st70" points="363.6,433.1 365.6,433.5 365.7,453.9 362.8,456.6 360.8,453.8 		"/>
		<path class="st62" d="M363.1,462.6c0,0-0.5,0.1,1.3,3.3c1.7,3.1,2,2,2,1.4C366.3,466.7,365.9,462.8,363.1,462.6z"/>
		<path class="st9" d="M374.3,435.3c0,0,0.3-4.7,3.2-5.6c2.9-0.9,4.3,1.6,4.9,4.6c0.6,3.1-0.4,5.3-0.9,9c-0.6,3.7-1.3,10.4-3,13
			c-1.7,2.6-12.2,11.6-12.2,11.6s0.2-2.1-1.1-3.6c-1.3-1.5-2-1.6-2-1.6s8.6-10.4,9.8-14.3S374.3,435.3,374.3,435.3z"/>
		<path class="st63" d="M363.9,463c0,0-2.7,1.5-3.5,1.8c-0.8,0.4-1.3,0.9-2.1,2c-0.7,1.1-3.9,5.4-2.7,6.5c1.2,1.2,2.8,0.5,3.4,0
			c0.6-0.5,1.1-2.4,2.6-3.4c1.5-1,3.1-1.7,3.6-2.6c0.5-0.9,1-1.2,1-1.2S366,464.5,363.9,463z"/>
	</g>
</g>
<g>
	<path class="st71" d="M493.3,411.3l1.2,10.4c0,0,0.7,5.9,9,5.9s9-5.8,9-5.8l1.3-11L493.3,411.3z"/>
	<ellipse class="st72" cx="503.6" cy="410.9" rx="10.3" ry="5.8"/>
	<ellipse class="st19" cx="503.6" cy="410.7" rx="9" ry="4.9"/>
	<path class="st73" d="M504.4,390.1h-1.6v21h0c0,0,0,0.1,0,0.1c0,0.4,0.4,0.8,0.8,0.8c0.4,0,0.8-0.4,0.8-0.8c0,0,0-0.1,0-0.1h0
		V390.1z"/>
	<ellipse class="st74" cx="503.3" cy="378.1" rx="15.5" ry="13.4"/>
	<path class="st75" d="M503.3,384.2c-7.1,0-13-4.1-14.9-9.8c-0.4,1.2-0.6,2.4-0.6,3.7c0,7.4,6.9,13.4,15.5,13.4
		c8.5,0,15.5-6,15.5-13.4c0-1.3-0.2-2.5-0.6-3.7C516.3,380.1,510.4,384.2,503.3,384.2z"/>
</g>
<g>
	<path class="st71" d="M36.1,370.9l1.2,10.4c0,0,0.7,5.9,9,5.9s9-5.8,9-5.8l1.3-11L36.1,370.9z"/>
	<ellipse class="st72" cx="46.4" cy="370.6" rx="10.3" ry="5.8"/>
	<ellipse class="st19" cx="46.4" cy="370.4" rx="9" ry="4.9"/>
	<path class="st73" d="M47.2,349.8h-1.6v21h0c0,0,0,0.1,0,0.1c0,0.4,0.4,0.8,0.8,0.8c0.4,0,0.8-0.4,0.8-0.8c0,0,0-0.1,0-0.1h0V349.8
		z"/>
	<ellipse class="st74" cx="46.1" cy="337.8" rx="15.5" ry="13.4"/>
	<path class="st75" d="M46.1,343.9c-7.1,0-13-4.1-14.9-9.8c-0.4,1.2-0.6,2.4-0.6,3.7c0,7.4,6.9,13.4,15.5,13.4s15.5-6,15.5-13.4
		c0-1.3-0.2-2.5-0.6-3.7C59.1,339.7,53.1,343.9,46.1,343.9z"/>
</g>
</svg>
