<?xml version="1.0" encoding="utf-8"?>
<!-- Generator: Adobe Illustrator 19.1.1, SVG Export Plug-In . SVG Version: 6.00 Build 0)  -->
<svg version="1.1" id="Layer_1" xmlns="http://www.w3.org/2000/svg" xmlns:xlink="http://www.w3.org/1999/xlink" x="0px" y="0px"
	 viewBox="0 0 481.5 444.6" style="enable-background:new 0 0 481.5 444.6;" xml:space="preserve">
<style type="text/css">
	.st0{fill:#9E7258;}
	.st1{fill:#FFFFFF;}
	.st2{fill:#FFF2BB;}
	.st3{fill:none;stroke:#E8D99E;stroke-width:2;stroke-miterlimit:10;}
	.st4{fill:#E8EEEF;}
	.st5{fill:#DAE0E0;}
	.st6{fill:#D39E91;}
	.st7{fill:#BAE1EF;}
	.st8{fill:#E67D6D;}
	.st9{fill:#85938E;}
	.st10{fill:#E4EAE9;}
	.st11{fill:#F6FEFD;}
	.st12{fill:#0F3D62;}
	.st13{fill:#CB9D81;}
	.st14{fill:#FBBE78;}
	.st15{fill:#DDAE94;}
	.st16{fill:#B8B9B1;}
	.st17{fill:#E9E9E8;}
	.st18{fill:#F2F2F2;}
	.st19{fill:#464B49;}
	.st20{fill:#C6CCCC;}
	.st21{fill:#3D3D3D;}
	.st22{fill:#303030;}
	.st23{fill:#FFD3C8;}
	.st24{fill:#FAF7E6;}
	.st25{fill:#213454;}
	.st26{fill:#384F70;}
	.st27{fill:#3D3F3B;}
	.st28{fill:#535959;}
	.st29{fill:#87888E;}
	.st30{fill:#4B4855;}
	.st31{fill:#A8A8A8;}
	.st32{fill:#E0E0E0;}
	.st33{fill:#30ABD6;}
	.st34{fill:#6BD6F2;}
	.st35{fill:#B4CEDE;}
	.st36{fill:#3F301D;}
	.st37{fill:#111A2C;}
	.st38{fill:#E6F2F9;}
	.st39{fill:#ABD7D8;}
	.st40{fill:#142742;}
	.st41{fill:#97B7B7;}
	.st42{fill-rule:evenodd;clip-rule:evenodd;fill:#060004;}
	.st43{fill-rule:evenodd;clip-rule:evenodd;fill:url(#SVGID_1_);}
	.st44{opacity:0.29;fill-rule:evenodd;clip-rule:evenodd;fill:#800002;}
	.st45{opacity:0.44;fill-rule:evenodd;clip-rule:evenodd;fill:#E51802;}
	.st46{opacity:0.73;fill-rule:evenodd;clip-rule:evenodd;fill:#E95B4A;}
	.st47{opacity:0.93;fill-rule:evenodd;clip-rule:evenodd;fill:#E51802;}
	.st48{opacity:0.49;fill-rule:evenodd;clip-rule:evenodd;fill:#E51802;}
	.st49{opacity:0.4;fill-rule:evenodd;clip-rule:evenodd;fill:#F1ACA2;}
	.st50{opacity:0.18;fill-rule:evenodd;clip-rule:evenodd;fill:#FFFFFF;}
	.st51{fill-rule:evenodd;clip-rule:evenodd;fill:#FFFFFF;}
	.st52{fill:#060004;}
	.st53{fill:#EFC2B9;}
	.st54{fill:#ECE7ED;}
	.st55{fill:#3F3947;}
	.st56{fill:#1A1F14;}
	.st57{fill:#FF7675;}
	.st58{fill:#84D4D5;}
	.st59{fill:#704646;}
	.st60{fill:#E2E5E8;}
	.st61{fill:#0A1015;}
	.st62{fill:#E3E9F0;}
	.st63{fill:#FFC1C1;}
	.st64{fill:#FCFFFF;}
	.st65{fill:#578BB8;}
	.st66{fill:#0776B6;}
	.st67{fill:#243F4A;}
	.st68{fill:#38535E;}
	.st69{fill:#FFACA8;}
	.st70{fill:#FFFEFF;}
	.st71{fill:#7F594A;}
	.st72{fill:#96C5DF;}
	.st73{fill:#FFFFFD;}
	.st74{fill:#225875;}
	.st75{fill:#3B7893;}
	.st76{fill:#F0A795;}
</style>
<polygon class="st0" points="99.9,255.2 95.9,252.2 95.9,238.8 99.9,236.6 "/>
<polygon class="st1" points="0,251.7 284,89.2 481.5,203.2 199,367.2 "/>
<polygon class="st2" points="262,192.7 325.5,157.7 425.5,215.4 362.7,251.2 "/>
<polygon class="st3" points="276.8,192.7 326.2,165.9 411.3,215.3 362.6,242.7 "/>
<polygon class="st4" points="0,251.7 0,269.2 199,385.2 199,367.2 "/>
<polygon class="st5" points="481.5,203.2 199,367.2 199,385.2 481.5,221 "/>
<polygon class="st6" points="88.1,444.6 88.1,429 19.5,389.6 19.5,404.6 "/>
<polygon class="st7" points="88.1,429 98.3,423.2 30.4,383.7 19.5,389.6 "/>
<polygon class="st6" points="98.3,423.2 98.3,407.6 30.4,368.6 30.4,383.7 "/>
<polygon class="st7" points="98.3,407.6 108.5,401.9 41.4,362.8 30.5,368.7 "/>
<polygon class="st6" points="108.5,401.9 108.5,386.2 41.3,347.7 41.3,362.7 "/>
<polygon class="st7" points="108.5,386.2 118.9,380.6 52.1,341.7 41.3,347.7 "/>
<polygon class="st6" points="118.9,380.6 118.9,365.1 52.1,326.8 52.1,341.8 "/>
<polygon class="st7" points="118.9,365.1 130.2,360 63.1,320.9 52.2,326.8 "/>
<polygon class="st6" points="130.2,360 130.2,344.4 63,305.8 63,320.8 "/>
<g>
	<polygon class="st8" points="88.1,444.6 145.2,411.6 145.2,396.6 88.1,429 	"/>
	<polygon class="st8" points="98.3,423.2 145.2,396.6 145.2,381.5 98.3,407.6 	"/>
	<polygon class="st8" points="145.2,366.4 145.2,351.3 145.2,336.2 130.2,344.4 130.2,359.1 118.9,365.1 118.9,380.6 108.5,386.2 
		108.5,401.9 145.2,381.5 145.2,366.4 	"/>
</g>
<polygon class="st7" points="130.2,344.4 145.2,336.2 78.5,297.3 63,305.8 "/>
<polygon class="st9" points="179.8,159.5 178,159.5 178,149.9 179.8,149 "/>
<g>
	<polygon class="st10" points="443.9,70.7 443.9,168.7 328.5,103.8 328.5,7.8 	"/>
	<polygon class="st11" points="442,70.7 442,165.7 328.5,101.2 328.5,8.2 	"/>
	<path class="st12" d="M450.8,73L450.8,73c0.9-1.6,0.3-3.6-1.3-4.4l-122-68.1c-1.6-0.9-3.6-0.3-4.4,1.3v0c-0.9,1.6-0.3,3.6,1.3,4.4
		l122,68.1C448,75.1,449.9,74.5,450.8,73z"/>
</g>
<polygon class="st13" points="138.8,264.4 138.8,308.6 180,332.1 180,286.2 "/>
<polygon class="st0" points="180,332.1 182.3,330.7 182.3,285.1 180,286.4 "/>
<polygon class="st13" points="197.8,237.4 197.8,281.7 239,302.1 239,256.6 "/>
<polygon class="st0" points="239,302.1 241.3,300.9 241.3,255.4 239,256.6 "/>
<polygon class="st14" points="137.8,262.2 195.4,229.3 238.8,250.9 178.7,285.3 "/>
<polygon class="st0" points="178.7,287.2 178.7,285.3 238.6,250.9 238.6,252.6 "/>
<polygon class="st15" points="178.7,287.2 178.7,285.3 137.8,262.2 137.8,264 "/>
<path class="st16" d="M149.1,267.7c0,0-0.1,0.2-0.1,0.5c0,0.5,0.4,0.7,0.4,0.7l4.1,2.1c0,0,0.7,0.3,1.2,0.3c0.5,0,0.7-0.1,1.3-0.4
	s1.9-0.9,1.9-0.9s0.6-0.2,0.4-1C158.3,268.2,149.1,267.7,149.1,267.7z"/>
<path class="st17" d="M150,267.1l1.7-0.9c0,0,0.7-0.5,1.7,0c1,0.5,4.7,2.2,4.7,2.2s1,0.6-0.3,1.2s-2.1,1-2.1,1s-0.6,0.4-2.1-0.2
	c-1.6-0.6-4-1.9-4-1.9S148.1,267.9,150,267.1z"/>
<polygon class="st18" points="195.1,274.4 181,265.3 209.5,249.8 223.5,258.7 "/>
<path class="st19" d="M195.1,274.4v0.7l-13.1-8.5c0,0-0.2,1.1-0.9,1c-0.9-0.1-1-0.7-1-1.3c0-0.6,0.3-1,1-0.8
	C181.8,265.6,195.1,274.4,195.1,274.4z"/>
<path class="st20" d="M181.9,280.8c0,0-0.6,1.3-2.6,1c-2-0.2-6.3-3.3-6.3-3.3s-1-1-0.7-1.7C172.6,276.1,181.9,280.8,181.9,280.8z"/>
<path class="st18" d="M181.9,280.8c-1,0.7-2,1.1-3.8,0.2c-1.8-0.9-2.8-2.2-4-3s-2.4-1-1.5-1.8c0.9-0.9,2.8-2.4,4.8-1.4
	C179.4,275.8,185.6,278.4,181.9,280.8z"/>
<path class="st21" d="M195.6,315.6L195.6,315.6c-2.3-0.5-3.8-2.7-3.3-5l4.6-22.7c0.5-2.3,2.7-3.8,5-3.3h0c2.3,0.5,3.8,2.7,3.3,5
	l-4.6,22.7C200.2,314.6,197.9,316.1,195.6,315.6z"/>
<ellipse transform="matrix(0.9693 0.2459 -0.2459 0.9693 82.9998 -37.7996)" class="st22" cx="192.8" cy="313.4" rx="6.6" ry="3.8"/>
<polygon class="st14" points="195.3,300.5 221.1,285.3 252.7,298.5 218.7,313.9 "/>
<polygon class="st13" points="223.6,320.9 223.6,341.9 217,338.2 217,317.1 "/>
<polygon class="st0" points="228.1,339.3 228.1,317.5 223.6,320.7 223.6,341.9 "/>
<polygon class="st13" points="202,308.4 202,329.6 195.3,325.8 195.3,304.7 "/>
<polygon class="st0" points="206.4,327.1 206.4,307.3 202,308.4 202,329.6 "/>
<polygon class="st13" points="248.1,303.3 248.1,327.7 241.8,324.2 241.8,307.7 "/>
<polygon class="st0" points="248.1,327.7 252.5,325.2 252.5,300.1 248.1,303.3 "/>
<path class="st22" d="M232.2,301.9l-25-6.1c-3.7-0.9-6.1-4.7-5.1-8.4h0c0.9-3.7,4.7-6.1,8.4-5.1l25,6.1c3.7,0.9,6.1,4.7,5.1,8.4l0,0
	C239.8,300.5,236,302.9,232.2,301.9z"/>
<path class="st21" d="M223.5,308.7l-23.3-10.9c-3.5-1.6-5-5.8-3.4-9.3h0c1.6-3.5,5.8-5,9.3-3.4l23.3,10.9c3.5,1.6,5,5.8,3.4,9.3h0
	C231.2,308.8,227,310.3,223.5,308.7z"/>
<path class="st23" d="M223,250.4c0,0-1.9-1.5-3.6-2c-1.7-0.5-2.7,0-2.7,0s1.4,0.8,2.2,1.7c0.8,0.9,1,1.8,0.6,1.8
	c-0.4-0.1-1.7-0.4-2.1-0.2c-0.4,0.2,0,1,0.9,1.6c1.2,0.9,1.6,0.2,1.6,0.2S222.3,251.2,223,250.4z"/>
<path class="st24" d="M220.6,252.6c0,0,2.7-3.8,9.4-5.1c6.7-1.3,8.6-0.5,8.6-0.5s2.2,5.2-7.4,7.4
	C221.6,256.7,220.6,252.6,220.6,252.6z"/>
<path class="st25" d="M238.6,247c0,0-1.8,4-6.7,5.6c-5,1.6-11.3,0-11.3,0s-2.7,1.3-3.2,16.3s-1.2,26.9,1.9,32.4
	c3.2,5.5,9.6,12,20.2,1.9c10.6-10.1,3.9-32,3.9-32l0.3-13.3C243.7,257.8,244.6,248.3,238.6,247z"/>
<path class="st26" d="M209.3,279.1L209.3,279.1c-2-1.3-2.6-4-1.3-6l10-15.5c1.3-2,4-2.6,6-1.3h0c2,1.3,2.6,4,1.3,6l-10,15.5
	C214,279.9,211.3,280.4,209.3,279.1z"/>
<path class="st23" d="M195.3,276.8c0,0-3.4-1-5.6-2.2s-1.3-3.7-0.9-4.1s1.2,1.6,2.5,1.6s2.3-1.4,4.6-0.4
	C198.2,272.8,195.3,276.8,195.3,276.8z"/>
<path class="st26" d="M209.8,271.7c-3.9,1.7-5.7,0.7-13.6,0c-0.1,0-0.1,0-0.2,0c-0.2,1.2-0.6,3.2-0.6,5c0.5,0.3,1.1,0.7,1.9,1
	c11.9,5.3,17,1.3,17,1.3S213.7,269.9,209.8,271.7z"/>
<path class="st23" d="M219.2,230.7c0,0-1.1,2.5-1.1,7.7s-0.6,8.3,2.5,9.3s4.6,0,4.6,0l-0.3,1.7c0,0,1.7-0.9,3.5-1.4
	c2.2-0.6,5.9-1,5.9-1l-0.2-1.8c0,0-6-9.7-8.3-11.1C223.5,232.6,219.2,230.7,219.2,230.7z"/>
<polygon class="st0" points="223.6,279.6 223.6,320.9 252.5,306.9 252.5,262.7 "/>
<polygon class="st14" points="223.6,279.6 252.5,262.7 247.6,259.9 218.7,276.7 "/>
<polygon class="st13" points="218.7,276.7 223.6,279.6 223.6,320.9 195.3,304.7 195.3,300.5 218.7,313.9 "/>
<path class="st25" d="M218.2,235.1c0,0-1.1-1.3-1-4.8c0.1-2.9,2.4-6.4,7.2-7.1c4.8-0.7,9.7,0.5,12.6,5.3c2.9,4.8,2,10.9-0.8,14.5
	s-5.9,4-8.6,4.1c-2.7,0.1-2.8-3.6-2.8-3.6s3.2-0.8,3.2-2.9c0-2.1-1.3-2.4-2.6-1.9s-1.5,2.2-1.5,2.2V235c0,0-1.4-0.6-2.4-1.5
	s-2.5-2.6-2.5-2.6S218.6,232.2,218.2,235.1z"/>
<g>
	<path class="st27" d="M164.9,229.2l41.8-24.1c0.5-0.2,1.2,0.2,1.2,0.7v25.7v1v2.5c0,0.7-0.2,3.1-2.1,3.9l-38.4,22.2
		c-1.5,1-3.5-0.9-3.5-2v-1.9v-24.8v-1.7C163.9,230.2,164.1,229.6,164.9,229.2z"/>
	<path class="st28" d="M165.8,228.6l41.8-24.1c0.5-0.2,1.2,0.2,1.2,0.7v25.7v1v2.5c0,0.7-0.2,3.1-2.1,3.9L167.9,261
		c-1.5,1-3,0-3-1.1v-3.2v-24.8v-1.7C164.8,229.6,165.1,229,165.8,228.6z"/>
	<path class="st29" d="M164.8,256l43.1-23v1.9c0,0.7-0.2,3.1-2.1,3.9l-38.2,22.2c-1.8,1-3.7-0.8-3.7-2.2v-3.2v-0.5L164.8,256z"/>
	<path class="st30" d="M190.1,247.1v1.5c0,0-0.1,1.3,0.6,1.8c0.9,0.6,4.7,2.5,4.7,2.5s1.1,0.7-0.3,1.5c-0.9,0.5-4.4,2.7-6.4,4
		c-0.3,0.2-0.5,0.3-0.7,0.4c0,0.2-0.2,0.4-0.4,0.4c-0.2,0-0.3-0.1-0.4-0.2c0,0,0,0,0,0c0,0,0,0,0-0.1c0,0,0,0,0-0.1
		c-0.1-0.4-0.3-0.6-0.9-1c-1.1-0.6-3.6-1.8-3.6-1.8s-1.5-0.6-1.5-2.3c0-0.9,0-1.4,0-1.4L190.1,247.1z"/>
	<path class="st29" d="M190.7,246.7v1.5c0,0-0.1,1.3,0.6,1.8c0.9,0.6,4.7,2.5,4.7,2.5s1.1,0.7-0.3,1.5c-1.3,0.8-8,4.9-8,4.9
		s0.1-1-1-1.6c-1.1-0.6-3.6-1.8-3.6-1.8s-1.5-0.6-1.5-2.3c0-0.9,0-1.4,0-1.4L190.7,246.7z"/>
	<path class="st31" d="M208.8,232v2.4c0,0.7-0.2,3.1-2.1,3.9L167.9,261c-1.5,1-3,0-3-1.1v-2.9L208.8,232z"/>
	<polygon class="st32" points="207,207 207,230.7 166.8,253.8 166.8,230 	"/>
</g>
<path class="st33" d="M171.9,259.3c-0.8-3-2.5-5.1-4.4-6.1c0,0,0,0,0,0v-1.9c0-1.4-1.1-2.5-2.5-2.5c-1.4,0-2.5,1.1-2.5,2.5v1.9
	c0,0.1,0,0.2,0,0.3c-1.1,0.6-2.3,1.7-3.4,3.5c-2.6,4.4-1.7,7,1.5,8.6c3.2,1.5,7.6,0.7,9.2,0C171.3,264.9,173.1,263.4,171.9,259.3z"
	/>
<path class="st34" d="M171.9,259.3c-0.8-3-2.5-5.1-4.4-6.1c0,0,0,0,0,0v-1.9c0-1.4-1.1-2.5-2.5-2.5c-0.5,0-1,0.2-1.4,0.4
	c1.3,0.1,2.4,1.2,2.4,2.5v1.9c0,0,0,0,0,0c1.9,1,3.6,3.1,4.4,6.1c1.1,4.1-0.6,5.6-2.1,6.3c-0.1,0-0.2,0.1-0.2,0.1
	c0.7-0.2,1.3-0.3,1.7-0.5C171.3,265,173.1,263.4,171.9,259.3z"/>
<path class="st35" d="M154.2,268.7h-0.5v-21.9c0-2.1,0.9-3.6,2.5-4c1.8-0.5,3.3-0.1,5.2,0.6c1.9,0.6,3.1,1.7,3.6,3.2
	c0.5,1.4,0.4,3.2,0.4,3.3l-0.5,0c0,0,0.1-1.8-0.4-3.1c-0.4-1.3-1.5-2.3-3.2-2.9c-1.7-0.6-3.2-1-4.9-0.6c-1.8,0.5-2.1,2.4-2.1,3.5
	V268.7z"/>
<path class="st1" d="M153.9,268.7h-0.5v-22.1c0-2.2,0.9-3.7,2.6-4.2c1.9-0.5,3.5-0.1,5.4,0.6c2,0.7,3.2,1.8,3.8,3.3
	c0.5,1.5,0.4,3.4,0.4,3.5l-0.5,0c0,0,0.1-1.9-0.4-3.3c-0.5-1.3-1.6-2.3-3.4-3c-1.8-0.6-3.4-1.1-5.1-0.6c-1.9,0.5-2.2,2.5-2.2,3.6
	V268.7z"/>
<g>
	<path class="st36" d="M283.3,139.8c0,0,1.5,2.8,6.5,5.3c5,2.5,6.3,1.3,7.3,0.6c1-0.7,1.2-2.3-1-3.8c-2.2-1.6-4.2-3.7-4.2-3.7
		L283.3,139.8z"/>
	<path class="st36" d="M296.8,136.7c0,0,1.5,2.8,6.5,5.3c5,2.5,6.3,1.3,7.3,0.6s1.2-2.3-1-3.8c-2.2-1.6-4.2-3.7-4.2-3.7L296.8,136.7
		z"/>
	<path class="st23" d="M287.1,48.1c0,0,1-0.2,0.9-2.2c0-2,0-1.8,0-1.8l8.2,0.2c0,0-0.2,1.5,0.1,2.3c0.3,0.8-0.3,6-3.6,5.7
		C289.3,52.1,287.1,48.1,287.1,48.1z"/>
	<path class="st37" d="M281.3,96.6c0,0,0.7,27.5,0.7,32.4c0,5,1,10.8,1,10.8s3.7,1,6.6,0.6c3-0.4,3.3-1.2,3.3-1.2s0.3-23.5,0.5-28.4
		c0.2-4.9,1-9.4,1-9.4l2.2,35.2c0,0,2.4,1.1,5.5,0.9c3.1-0.2,3.6-1.9,3.6-1.9l-0.8-44.9L281.3,96.6z"/>
	<path class="st38" d="M285.7,49.5c0,0,0.7-0.9,1.1-1.3c0.7-0.5,1.4,0.3,3.4,2c2.4,1.9,3.4,1.9,3.4,1.9s1.3-0.9,1.9-2.9
		c0.3-1.2,0.7-2.5,0.7-2.5l0.9,0c0,0,3.1,6.1-0.1,18S285.7,49.5,285.7,49.5z"/>
	<path class="st23" d="M331.5,43.2c0,0,0.7-1.3,1.9-2.1c1.2-0.7,1.6-1.9,2.5-1.7c0.8,0.2,0.5,1.6,1,1.7c0.5,0.1-0.1-1.3,1-2
		c1.2-0.7,2.1,0.4,1.7,2.3s-2,3.3-4.1,4c-2.1,0.7-3.3,0.4-4.2,1.1C330.4,47.2,331.5,43.2,331.5,43.2z"/>
	<path class="st39" d="M332.9,44.9c-0.7-1.4-2.1-2.2-2.1-2.2s-4.4,2.3-11.5,4c-7,1.7-10.6,1-14,0.6s-8.1-0.6-8.1-0.6
		s1.1,4.1,0.6,9.4c-0.5,5.2-2.3,10.7-2.3,10.7s-1-1-4.1-6.5s-5.8-10.8-5.8-10.8s-4.1,2.6-7.9,7.2s-6,18.9-6.3,25
		c-0.3,6.1,9.4,1.8,9.4,1.8l-0.4,12.6c0,0,5.3,2.7,8.3,3.2c2.5,0.4,4.5,0.8,6-1c1.5-1.8,1.9-5,1.9-5s1,3.1,1.9,4.2
		c0.9,1.1,2.6,1.2,4.4-0.3c1.7-1.5,2.9-3.3,2.9-3.3s-1.8-18-1.8-24.8c0-6.9,0.8-12.8,0.8-12.8s2.8,0.6,12-1.5
		c9.2-2.1,15.5-6.7,15.5-6.7S333.6,46.3,332.9,44.9z M279.3,77.6l1.4-4.1l0.7,3L279.3,77.6z"/>
	<polygon class="st40" points="281.5,76.7 279.6,69.5 288.8,61.2 293.1,78.2 284.2,86.7 	"/>
	<polygon class="st1" points="282.1,73.6 281.2,70.3 288.4,63.8 291.7,77.6 284.9,84 	"/>
	<path class="st41" d="M286.4,73.9c0,0,0.3-0.2,0.4,1.5c0.1,2.1,0.3,5.2-0.4,5.3c-0.7,0-1.6-0.6-1.3-2.9
		C285.4,74.2,286.4,73.9,286.4,73.9z"/>
	<path class="st23" d="M291.3,70.7c0,0,1-0.4,1.5,0.4c0.5,0.8,0.9,2.6,0.7,3.4c-0.5,1.8-1.6,1.7-3.5,2.8c-1.4,0.9-4.3,2.4-4.3,2.4
		s-0.1-0.9,0-2.6c0.1-1.7,0.2-2,0.2-2s1.7-0.7,2-2.7c0.2-1.3,2.7-4.2,3.3-3.5C292,69.9,291.3,70.7,291.3,70.7z"/>
	<path class="st39" d="M279.3,77.6l7.1-3.7c0,0-0.8,0.4-0.8,4.7c0,1.5,0.4,2,0.8,2.1l-7.8,3.7L279.3,77.6z"/>
	<path class="st37" d="M294,54.9L294,54.9c-0.7,0.1-1.3-0.4-1.4-1.1l0-0.2c-0.1-0.6,0.4-1.2,1.1-1.3l0.1,0c0.6-0.1,1.2,0.4,1.3,1.1
		l0,0.2C295.2,54.3,294.7,54.8,294,54.9z"/>
	<polygon class="st37" points="293.9,54.8 292.7,60.3 295.6,66.8 296.5,59.5 	"/>
	<path class="st23" d="M298,33c0,0,2.4,11.3-1.6,11.8c-3.9,0.5-9,3.5-13.1-5.1C279.2,31,293.6,30.7,298,33z"/>
	<path class="st25" d="M283.9,39.5c0,0-1.6-3.5-0.4-4c2-0.9,2,1.1,3.1,0.8c1.1-0.3,0.9-2.5,0.9-2.5s1.2,2.5,5.8,1.4s6.1-1.3,4.2-5.7
		c-1.9-4.4-6.2-4.9-9.9-4.6c-3.7,0.3-7.7,3.6-7.3,9C280.9,40,284.9,41.1,283.9,39.5z"/>
</g>
<g>
	<g>
		<path class="st42" d="M372,76.8l-5.1-2.8v4.7l5.1,2.9v-1.7l-2.7-1.5v-1.3l4.3,2.4v2.6c0,0.7-0.1,1.1-0.4,1.2
			c-0.2,0.1-0.7,0-1.4-0.4l-4.9-2.8c-0.7-0.4-1.2-0.8-1.4-1.2c-0.2-0.4-0.4-0.9-0.4-1.6v-3.9c0-0.7,0.1-1.1,0.4-1.2
			c0.2-0.1,0.7,0,1.4,0.4l4.9,2.7c0.7,0.4,1.1,0.8,1.4,1.1c0.2,0.4,0.4,0.9,0.4,1.5v0.2l-1.6-0.6V76.8L372,76.8z M378.7,83.7
			l3.1,1.7l-1.5-3.9L378.7,83.7L378.7,83.7z M375.5,84.9l4-5.3l1.6,0.9l4.1,9.9l-1.8-1l-0.8-2.1l-4.5-2.5l-0.8,1.2L375.5,84.9
			L375.5,84.9z M392.7,88.2l-3.7-2v2.2l3.7,2.1c0.3,0.2,0.5,0.2,0.6,0.2c0.1,0,0.2-0.2,0.2-0.4v-0.9c0-0.2-0.1-0.4-0.2-0.6
			C393.2,88.5,393,88.4,392.7,88.2L392.7,88.2z M387.4,91.6v-7.7l6,3.3c0.6,0.3,1,0.7,1.2,1c0.3,0.4,0.4,0.8,0.4,1.4v1.8
			c0,0.5-0.1,0.8-0.4,0.9c-0.3,0.1-0.7,0-1.2-0.3l-0.9-0.5l3.3,4.8l-2.4-1.3l-2.8-4.5l-1.6-0.9v2.9L387.4,91.6L387.4,91.6z
			 M398.4,97.8V90l1.1,0.6l5,7.4c0.2,0.2,0.3,0.5,0.4,0.7c0.1,0.2,0.2,0.4,0.4,0.6c0-0.5,0-0.8-0.1-1c0-0.2,0-0.3,0-0.4v-4.2
			l1.5,0.8v7.9l-1.1-0.6l-5.2-7.8c-0.1-0.2-0.2-0.4-0.3-0.5c-0.1-0.2-0.2-0.3-0.3-0.4c0,0.3,0,0.5,0.1,0.7c0,0.2,0,0.4,0,0.6v4.2
			L398.4,97.8L398.4,97.8z M410.3,104.5v-8l7.2,4v1.4l-5.6-3.1v1.8l3.3,1.8v1.4l-3.3-1.8v2l5.7,3.2v1.5L410.3,104.5L410.3,104.5z
			 M423.9,105.5v6.7l-1.6-0.9v-6.7l-3.2-1.8v-1.4l8.1,4.5v1.5L423.9,105.5z"/>
		<linearGradient id="SVGID_1_" gradientUnits="userSpaceOnUse" x1="351.3278" y1="56.537" x2="351.3277" y2="85.9878">
			<stop  offset="0" style="stop-color:#E50F03"/>
			<stop  offset="1" style="stop-color:#AA0B05"/>
		</linearGradient>
		<polygon class="st43" points="344.5,78 358.2,86 362,84.3 362,70 358.2,64 344.5,56.5 340.7,58.2 340.7,72 		"/>
		<polygon class="st44" points="351.3,63.4 358.9,75.4 362,84.3 358.2,86 351.3,78.9 343.7,66.8 340.7,58.2 344.5,56.5 		"/>
		<polygon class="st45" points="343.7,66.8 351.3,63.4 358.2,64 362,70 358.9,75.4 351.3,78.9 344.5,78 340.7,72 		"/>
		<polygon class="st46" points="340.7,72 346,73.5 344.5,78 		"/>
		<polygon class="st46" points="358.2,64 356.7,68.6 362,70 		"/>
		<polygon class="st47" points="340.7,58.2 346,62.7 344.5,56.5 		"/>
		<polygon class="st48" points="358.2,86 356.7,79.7 362,84.3 		"/>
		<polygon class="st49" points="346,62.7 356.7,68.6 356.7,79.7 346,73.5 		"/>
		<polygon class="st50" points="343.7,66.8 351.3,63.4 358.9,75.4 351.3,78.9 		"/>
		<path class="st51" d="M354.1,69.9l-5.6-3.1V72l5.6,3.2v-2.1l-2.9-1.6v-0.9l4.1,2.3v2.4c0,0.7-0.1,1.1-0.4,1.2
			c-0.2,0.1-0.7,0-1.3-0.4l-4.6-2.6c-0.7-0.4-1.1-0.7-1.3-1.1c-0.2-0.4-0.3-0.9-0.3-1.5v-3.8c0-0.7,0.1-1,0.3-1.2
			c0.2-0.1,0.7,0,1.3,0.4l4.6,2.6c0.6,0.4,1.1,0.7,1.3,1.1c0.2,0.4,0.4,0.9,0.4,1.5v0.2l-1.2-0.7V69.9z"/>
		<g>
			<path class="st52" d="M366.1,84.1v0.7l2,1.1c0.1,0.1,0.3,0.2,0.4,0.3c0.1,0.1,0.2,0.2,0.2,0.3c0.1,0.1,0.1,0.2,0.1,0.3
				c0,0.1,0,0.2,0,0.4v0.4c0,0.2,0,0.3,0,0.3c0,0.1-0.1,0.1-0.1,0.2c-0.1,0-0.1,0-0.2,0c-0.1,0-0.2-0.1-0.4-0.2l-2-1.1
				c-0.2-0.1-0.3-0.2-0.4-0.3c-0.1-0.1-0.2-0.2-0.2-0.3c-0.1-0.1-0.1-0.2-0.1-0.3c0-0.1,0-0.2,0-0.4v-0.1l0.7,0.3v0.4l2.2,1.3v-0.7
				l-2-1.1c-0.1-0.1-0.3-0.2-0.4-0.3c-0.1-0.1-0.2-0.2-0.2-0.3c-0.1-0.1-0.1-0.2-0.1-0.3c0-0.1,0-0.2,0-0.4v-0.4c0-0.2,0-0.3,0-0.4
				c0-0.1,0.1-0.1,0.1-0.2c0.1,0,0.1,0,0.2,0c0.1,0,0.2,0.1,0.4,0.2l1.8,1c0.3,0.2,0.5,0.3,0.6,0.5c0.1,0.2,0.2,0.4,0.2,0.7v0.1
				l-0.6-0.2v-0.3L366.1,84.1z"/>
			<path class="st52" d="M373.7,88.3c0-0.1,0.1-0.1,0.1-0.2c0.1,0,0.1,0,0.2,0c0.1,0,0.2,0.1,0.4,0.2l2.4,1.3
				c0.1,0.1,0.3,0.2,0.4,0.2c0.1,0.1,0.2,0.2,0.2,0.3c0.1,0.1,0.1,0.2,0.1,0.3c0,0.1,0,0.3,0,0.4v1.7c0,0.2,0,0.3,0,0.4
				c0,0.1-0.1,0.1-0.1,0.2c-0.1,0-0.1,0-0.2,0c-0.1,0-0.2-0.1-0.4-0.2l-2.4-1.4c-0.2-0.1-0.3-0.2-0.4-0.3c-0.1-0.1-0.2-0.2-0.2-0.3
				c-0.1-0.1-0.1-0.2-0.1-0.3c0-0.1,0-0.2,0-0.4v-1.7C373.7,88.5,373.7,88.4,373.7,88.3z M376.9,92.4v-2l-2.5-1.4v2L376.9,92.4z"/>
			<path class="st52" d="M382.5,92.9l3.2,1.8v0.6l-2.5-1.4v0.9l1.3,0.8v0.6l-1.3-0.8v1.2l-0.7-0.4V92.9z"/>
			<path class="st52" d="M391.9,101.6l-0.7-0.4v-2.7l-1.5-0.8V97l3.7,2.1v0.6l-1.5-0.8V101.6z"/>
			<path class="st52" d="M397.5,101.5l0.8,0.4l0.8,2.8l0.9-1.9l0.5,0.3l0.8,2.8l0.8-1.9l0.7,0.4l-1.2,2.7l-0.5-0.3l-0.9-2.9
				l-0.9,1.9l-0.5-0.3L397.5,101.5z"/>
			<path class="st52" d="M408.5,107.8l0.7,0.4l1.8,4.5l-0.8-0.5l-0.4-1l-2-1.2l-0.4,0.5l-0.7-0.4L408.5,107.8z M409.6,110.4
				l-0.7-1.8l-0.7,1L409.6,110.4z"/>
			<path class="st52" d="M415.4,111.7l2.7,1.6c0.2,0.1,0.4,0.3,0.5,0.5c0.1,0.2,0.2,0.4,0.2,0.6v0.8c0,0.2-0.1,0.4-0.2,0.4
				c-0.1,0-0.3,0-0.5-0.2l-0.4-0.2l1.4,2.2l-1.1-0.6l-1.3-2.1l-0.7-0.4v1.3l-0.7-0.4V111.7z M416.2,112.8v1l1.7,1
				c0.1,0.1,0.2,0.1,0.3,0.1c0.1,0,0.1-0.1,0.1-0.2v-0.4c0-0.1,0-0.2-0.1-0.3c-0.1-0.1-0.1-0.1-0.3-0.2L416.2,112.8z"/>
			<path class="st52" d="M423.7,116.5l3.3,1.9v0.6l-2.5-1.4v0.8l1.5,0.8v0.6l-1.5-0.8v0.9l2.6,1.5v0.7l-3.3-1.9V116.5z"/>
		</g>
	</g>
</g>
<g>
	<path class="st53" d="M455.7,108.6c0,0-2.3,7.2-6.3,6.6c-4-0.7-2.6-6.9-2.6-6.9L455.7,108.6z"/>
	<path class="st54" d="M456.1,108.6l2.5,2.3c0,0,0.4,3.3-2.4,8.4c-2.8,5.1-9.3,14.8-9.3,14.8l-2.7-14.8c0,0,1.5-8.1,2.2-9.4
		c0.7-1.3,1.6,0.7,1.6,0.7s0.5,3.7,1.6,4c1.1,0.3,5-4.5,5-4.5L456.1,108.6z"/>
	<path class="st55" d="M440.4,144.1c0,0,2.1,4.6,8.7,6.1c6.7,1.5,14.2-2.5,14.2-2.5s1.4-0.2,1.2-3.3s-0.5-6.6-0.6-9.6
		c-0.1-2.9,1.6-9.2,1.3-12.5c-0.3-3.4,0-4.5-2.2-7.3c-2.2-2.8-4.6-4.6-4.6-4.6s0,2.7-2.3,4.9c-2.3,2.2-3.6,3-4.2,5.1
		c-0.6,2.1-4.2,7-4.2,7s-1.8-5.6-1.7-7c0-1.4,0.9-3,0.3-4.4c-0.6-1.4,0-4.9,0-4.9s-3.9-0.4-4.5,5.6c-0.7,6,0.6,17.2,0,20.6
		C441.2,140.8,440.1,140.5,440.4,144.1z"/>
	<path class="st56" d="M461.2,197.3c0,0,1.6,3.2-0.9,6.2c-2.4,3-5.2,6.1-8.8,4.9c-3.6-1.2-2.8-2.9-0.7-5.4c2.2-2.5,3.3-3.6,2.9-5.7
		S461.2,197.3,461.2,197.3z"/>
	<path class="st56" d="M451.3,194.4c0,0,0.3,3.6-3,5.5c-3.3,2-7,3.9-9.9,1.5c-2.9-2.4-1.6-3.7,1.3-5.3c2.9-1.6,4.3-2.2,4.7-4.3
		C444.8,189.7,451.3,194.4,451.3,194.4z"/>
	<path class="st37" d="M449.1,149.3c0,0-3.3-1.3-5.4-2.5c-2.2-1.2-3.3-2.6-3.3-2.6s1.4,18.4,1.8,26c0.4,7.6,0.2,22.5,0.2,22.5
		s0,1.8,3.5,2.8c3.5,1,6.3-0.5,6.3-0.5L449.1,149.3z"/>
	<path class="st53" d="M439.8,110.9c0,0,2.4-4.5,3.2-5.4c0.8-0.9,2.4-2.7,2.4-2.7s1.7,4.4,1.5,6.4c-0.2,2-0.9,3-1.9,3.2
		c-1,0.2-1,0.6-1,0.6S438.8,112.7,439.8,110.9z"/>
	<path class="st55" d="M463.3,147.8c0,0,0.2,6.2-0.9,8.8c-1.1,2.6-1.5,12-1.3,17.4c0.2,5.4,4,24-1,24.9s-8,0.5-8.5-6.6
		c-0.5-7.9-2.2-26.4-2.4-30.3c-0.2-3.9,0-12.7,0-12.7S456.2,150.4,463.3,147.8z"/>
	<path class="st57" d="M444.9,113.7l-7.1,13.8l-4.1-3.2l-1.1-7.6l2.2,0.3l3.9-6.4C438.8,110.7,442.2,110.9,444.9,113.7z"/>
	<polygon class="st32" points="435.5,115.9 435.5,138.5 420.8,131.6 420.3,109 	"/>
	<polygon class="st58" points="435.3,115.9 435.3,138.5 420.5,131.6 420,109 	"/>
	<path class="st37" d="M455.9,108.2c0,0,4.9,1.1,6.9-4c2-5.1,3.6-8,2-11c-1.5-3-4.1-2.2-8.3-3.5c-4.2-1.3-5.6-3-8.3-1
		s-1.1,8.2-1.1,8.2L455.9,108.2z"/>
	<path class="st23" d="M458.9,101.9c0,0,2.5-4.1,0-5.6c-2.5-1.4-4.2-0.5-7.3-2s-2.7-2-2.7-2s-1.5,1-2.4,4.5
		c-0.9,3.5-1.4,3.7-0.8,7.3s0.1,6.5,3.6,6.5c3.4,0.1,5.4-0.1,6.9-2.1c1.5-2,1.5-2.1,2.5-2.4c1-0.4,2-0.6,2.3-2.3
		c0.4-2.2-1.3-1.6-1.3-1.6S458.2,103.3,458.9,101.9z"/>
	<polygon class="st37" points="449.6,114.3 450.8,116.8 449.4,118.1 449.9,137 446.2,144.1 444.6,135.9 448.7,118 447.8,116.6 	"/>
	<path class="st23" d="M440.4,126.6c0,0-1.8-2.3-4.6-2.3s-4.8,0.6-5.1,2.3c-0.4,1.7,3.3,3.9,4.9,4.9s2.7,1.3,3.8,1.4
		C440.4,133,440.4,126.6,440.4,126.6z"/>
	<path class="st57" d="M466.1,123.5c0,0,1.1-3.6-1.5-5.9s-3.8,0.6-6.1,4.3s-5.1,8.8-5.3,9.8c-0.2,0.9-0.3,1.4-0.3,1.4l-12.5-6.4
		c0,0,0.2,2.2-0.8,4c-1,1.8-2.2,1.9-2.2,1.9l12.4,7.5c0,0,2.6,1.9,4.8,1.2c2.2-0.7,4.7-4.3,7.2-8.2
		C464.4,129.1,466.1,123.5,466.1,123.5z"/>
</g>
<polygon class="st0" points="54,257.8 49.9,255.5 49.9,234.8 54,237.9 "/>
<polygon class="st13" points="58.1,233.9 58.1,255.4 54,257.8 54,236.2 "/>
<polygon class="st0" points="74.7,269.8 70.6,267.5 70.6,249.3 74.7,252.1 "/>
<polygon class="st14" points="104,232.2 83.5,220.3 54.1,237.3 74.7,249.3 "/>
<polygon class="st13" points="83.5,220.3 83.5,188.5 54.1,205.6 54.1,237.4 "/>
<polygon class="st14" points="83.5,188.5 79.5,186.1 49.9,203.3 54.1,205.7 "/>
<polygon class="st0" points="54.1,205.7 49.9,203.3 49.9,237.8 74.7,252.1 74.7,249.3 54.1,237.3 "/>
<polygon class="st13" points="104,232.2 104,235.9 74.7,252.9 74.7,249.3 "/>
<polygon class="st13" points="104,233.6 104,252.8 99.9,255.2 99.9,236.4 "/>
<polygon class="st13" points="78.8,250 78.8,267.4 74.7,269.8 74.7,252.1 "/>
<g>
	<polygon class="st0" points="182.9,212 178.9,209 178.9,195.7 182.9,193.4 	"/>
	<polygon class="st0" points="137,214.6 132.9,212.3 132.9,191.6 137,194.7 	"/>
	<polygon class="st13" points="141.1,190.7 141.1,212.2 137,214.6 137,193 	"/>
	<polygon class="st0" points="157.6,226.6 153.6,224.3 153.6,206.1 157.6,208.9 	"/>
	<polygon class="st14" points="187,189 166.5,177.1 137.1,194.1 157.7,206.1 	"/>
	<polygon class="st13" points="166.5,177.1 166.5,145.3 137.1,162.4 137.1,194.2 	"/>
	<polygon class="st14" points="166.5,145.3 162.5,142.9 132.9,160.1 137.1,162.5 	"/>
	<polygon class="st0" points="137.1,162.5 132.9,160.1 132.9,194.6 157.6,208.9 157.6,206.1 137.1,194.1 	"/>
	<polygon class="st13" points="187,189 187,192.8 157.6,209.7 157.6,206.1 	"/>
	<polygon class="st13" points="187,190.4 187,209.6 182.9,212 182.9,193.2 	"/>
	<polygon class="st13" points="161.7,206.8 161.7,224.3 157.6,226.6 157.6,208.9 	"/>
</g>
<g>
	<polygon class="st0" points="142.8,234.3 138.8,231.3 138.8,217.9 142.8,215.7 	"/>
	<polygon class="st0" points="96.9,236.9 92.8,234.5 92.8,213.9 96.9,217 	"/>
	<polygon class="st13" points="101,212.9 101,234.5 96.9,236.9 96.9,215.3 	"/>
	<polygon class="st0" points="117.6,248.9 113.5,246.5 113.5,228.4 117.6,231.2 	"/>
	<polygon class="st14" points="146.9,211.3 126.4,199.3 97,216.3 117.6,228.4 	"/>
	<polygon class="st13" points="126.4,199.3 126.4,167.5 97,184.7 97,216.4 	"/>
	<polygon class="st14" points="126.4,167.5 122.4,165.2 92.8,182.3 97,184.8 	"/>
	<polygon class="st0" points="97,184.8 92.8,182.3 92.8,216.8 117.6,231.2 117.6,228.4 97,216.3 	"/>
	<polygon class="st13" points="146.9,211.3 146.9,215 117.6,232 117.6,228.4 	"/>
	<polygon class="st13" points="146.9,212.7 146.9,231.9 142.8,234.3 142.8,215.4 	"/>
	<polygon class="st13" points="121.7,229.1 121.7,246.5 117.6,248.9 117.6,231.2 	"/>
</g>
<g>
	<path class="st59" d="M105.5,267.1c0,0,2.7,2.4,3.9,5.2s1.1,4.4-0.7,5.4c-2.5,1.3-4.8-1.2-5.6-1.8s-3.9-2.9-4.2-4.2
		s0.5-1.8,0.5-4.3C99.5,265,105.5,267.1,105.5,267.1z"/>
	<path class="st59" d="M93.7,271c0,0,2.6,2.3,3.8,5c1.1,2.7,1.1,4.2-0.7,5.2c-2.4,1.3-4.6-1.2-5.3-1.8c-0.7-0.6-3.8-2.7-4-4
		c-0.2-1.3,0.5-1.8,0.5-4.2C88,269,93.7,271,93.7,271z"/>
	<path class="st60" d="M97.7,232.8c0,0,0.2,0.5,1.2-1.5c1-1.9,2.2-3.6,2.2-3.6S96.9,229,97.7,232.8z"/>
	<path class="st23" d="M100,226.9c0,0,2.4,2,3.1,2.5s1.1,1.1,1.6,2.4c0.5,1.3,2.7,6,1.3,7c-1.4,0.9-2.8-0.1-3.3-0.7
		c-0.4-0.6-0.6-2.5-1.8-3.8c-1.3-1.3-2.7-2.3-3-3.3s-0.7-1.4-0.7-1.4S97.7,228,100,226.9z"/>
	<path class="st1" d="M91.6,199.9c0,0,0-4.7-2.9-5.8c-2.9-1.1-4.4,1.3-5.2,4.3c-0.8,3,0.1,5.3,0.4,9c0.3,3.7,0.7,10.5,2.3,13.1
		c1.6,2.7,11.5,12.3,11.5,12.3s-0.1-2.1,1.3-3.5c1.4-1.4,2.1-1.5,2.1-1.5s-8-10.9-8.9-14.9C91.3,208.9,91.6,199.9,91.6,199.9z"/>
	<path class="st61" d="M88.2,227.7c0,0,12.9,8.1,14.6,13.2c1.6,5.1,2.4,17.9,2.9,21.2c0.6,3.3,1.4,5.1-1.2,5.9
		c-2.6,0.8-5.4,2.1-5.8-1.2S94.2,245,94.2,245l-13.6-10.2l2.5-4L88.2,227.7z"/>
	<path class="st61" d="M65.2,228.6c0,0-1.7,1.9-1.5,5.3c0.2,3.4,2.3,6,7.4,8.8s12,6.3,12.5,8.8s2.1,10.7,2.7,14.3
		c0.7,3.7,1.5,7.2,1.5,7.2s0.7,0.4,3.8,0c3.1-0.4,3.1-1.3,3.1-1.3s-1.9-12.6-1.9-14.6c0-2-0.7-12.6-3.7-14.9
		C86.2,240,74.4,229.8,65.2,228.6z"/>
	<path class="st62" d="M85.6,192.7c0,0,3.6,0.7,4.3,5.9c0.7,5.1-0.6,16.4-1.2,21.7c-0.6,5.3,0.1,7.9-1.4,9.8
		c-1.5,1.9-8.2,4.3-14.9,3.7c-6.7-0.7-7.4-3.9-7.4-8.3c0-4.4,0-7.5,0-13c0-5.5-0.8-10.4,1.5-13.4c2.3-3,5.2-5.3,5.2-5.3L85.6,192.7z
		"/>
	<path class="st63" d="M83.2,195c0,0,0.5,2.5-2.7,3.3c-3.2,0.8-6.9-3.1-7.4-4.4C72.5,192.6,83.2,195,83.2,195z"/>
	<path class="st25" d="M72.8,191.8c0,0-2.5,0.7-4.1-2.6c-1.6-3.3-2.9-6.8,0-13.8s12.9-5,15.6-4c2.7,1,5.4,4.8,5.3,7.2
		c-0.1,2.4,0.6,3.8-4.8,4.4c-5.4,0.6-9.9,3.1-9.9,3.1L72.8,191.8z"/>
	<path class="st23" d="M88,182.3c0,0-0.3,7.6-2.4,10.4c-2.1,2.9-3.1,3.8-7.1,3.4s-6.3-2.7-6.4-3.5s0.5-1.9,0-2
		c-0.5-0.1-1.7-0.8-1.9-2.6s0.7-1.6,1.5-1.4c0.8,0.2,0.9,0.9,1.3-0.8s0.3-3,0.7-3.3c0.4-0.3,4.7,1.3,8.9,0.7
		C86.8,182.8,88,182.3,88,182.3z"/>
	<path class="st64" d="M84,194.7l1.5,6.4l-4.7-2.9l-2.9,5.6l-6.9-9.5l1.1-1.7c0,0,3.2,4.9,6.5,5.7c3.8,0.9,4.6-2.9,4.6-2.9L84,194.7
		z"/>
	<polygon class="st65" points="83.2,199.7 82.7,203.5 80.7,203.9 79.1,201.4 80.7,198.2 	"/>
	<polygon class="st66" points="82.7,203.5 80.7,203.9 80.6,224.3 83.5,226.9 85.5,224.2 	"/>
	<path class="st60" d="M83.2,233c0,0,0.5,0.1-1.3,3.3c-1.7,3.1-2,2-2,1.4S80.4,233.2,83.2,233z"/>
	<path class="st1" d="M72,205.7c0,0-0.3-4.7-3.2-5.6s-4.3,1.6-4.9,4.6c-0.6,3.1,0.4,5.3,0.9,9c0.6,3.7,1.3,10.4,3,13
		S80,238.2,80,238.2s-0.2-2.1,1.1-3.6c1.3-1.5,2-1.6,2-1.6s-8.6-10.4-9.8-14.3C72.3,214.7,72,205.7,72,205.7z"/>
	<path class="st23" d="M82.4,233.4c0,0,2.7,1.5,3.5,1.8c0.8,0.4,1.3,0.9,2.1,2c0.7,1.1,3.9,5.4,2.7,6.5c-1.2,1.2-2.8,0.5-3.4,0
		s-1.1-2.4-2.6-3.4c-1.5-1-3.1-1.7-3.6-2.6c-0.5-0.9-1-1.2-1-1.2S80.3,234.9,82.4,233.4z"/>
</g>
<g>
	<path class="st23" d="M60.8,358.8c0,0,0.1-2.1-1.5-2.9c-1.6-0.9-1.4-0.8-1.4-0.8s-1.6,1.6-1.8,2.4c-0.2,0.8-1,1.3-1.4,1.2
		c-0.4-0.1-2-0.6-2.8,0.7c-0.8,1.3-0.2,1.8,0.8,2.2c1,0.3,2.7,1.2,4.8,0.1C59.6,360.4,60.8,358.8,60.8,358.8z"/>
	<path class="st25" d="M73.6,323.3c-2.9-0.4-5.1,1.6-5.4,4.5s-0.8,13.5-0.8,13.5s-3.2,5.1-5.2,8.1c-2,3-4.5,5.9-4.5,5.9
		s0.9,0.1,2.1,1.6c1.2,1.6,1,2,1,2s11.5-9.9,13-17.5C75.4,333.7,78.8,324,73.6,323.3z"/>
	<path class="st67" d="M72.6,401.4c0,0,0.7,3.7-0.4,5.4s-3.2,1.7-5.5,2.2c-2.4,0.5-5.8,1.1-7.1,0c-1.4-1.1-1.9-2.7-0.4-4.6
		c1.5-1.9,6-4.4,6-4.4L72.6,401.4z"/>
	<path class="st68" d="M98.4,394.7c0,0-1.5,2.4-1.7,6.6s3.8,4.4,6.6,2.3c2.8-2.1,5.8-9.5,3-11.7C101.4,388,98.4,394.7,98.4,394.7z"
		/>
	<path class="st25" d="M68,353.3c0,0-1.5,5.3-2.1,13.3s-0.1,11.4-0.6,15.8s-0.6,16.6-0.6,16.6s-0.4,1.3,0.7,2.1s3.4,1.2,4.7,1.2
		c1.3,0,2.4,0.2,2.8-1.5s1.1-8,1.6-11.3c0.5-3.3,1-6.1,1.3-10.2s1.9-10.8,1.9-10.8s-0.1,3.7,1.1,11.5c1.8,11.7,10.4,8.6,10.2,2.1
		c-0.2-6.5,3.3-20.9,2.6-24.7C90.7,353.5,68,353.3,68,353.3z"/>
	<path class="st37" d="M91.6,326.3c0,0-1.8-2.5-4.7-4.3s-4.4-1.9-4.4-1.9s-1.8,3.8-5.2,4s-3.9-3.1-3.9-3.1s-0.1-2.1-1.7,0.2
		c-5.4,8.1-5.3,20.2-5.3,20.2s-0.3,9.1,0.4,10.5c0.7,1.4,2.4,3,4.3,4.3c3.1,2,16.8,5,20.3,3.2S91.6,326.3,91.6,326.3z"/>
	<path class="st23" d="M91.5,366.6c0,0-0.8-2.1-2.7-2.3S87,364,87,364s-0.9,2.2-0.8,3.2c0.1,0.9-0.4,1.7-0.9,1.7
		c-0.5,0-2.3,0.3-2.5,1.9s0.6,1.9,1.7,1.8c1.1-0.1,3.2,0.1,4.8-1.9C90.9,368.7,91.5,366.6,91.5,366.6z"/>
	<path class="st25" d="M89.5,325.8c-3,0.8-4.4,3.7-3.5,6.7s4.8,13.8,4.8,13.8s-1.1,6.4-1.8,10.2s-2.1,7.8-2.1,7.8s0.9-0.3,2.8,0.8
		c1.8,1.1,1.8,1.5,1.8,1.5s7.4-14.6,5.7-22.9C95.6,335.5,94.9,324.4,89.5,325.8z"/>
	<path class="st69" d="M76.1,324.2c0,0,0,0-1.4-0.5c-1.4-0.5-1.1-2.5-1.1-2.5s0.8,1.1,3.1,1c2.3-0.1,4.7-2.1,4.7-2.1s1-0.1,1-0.1
		s-0.1,2.5-0.6,2.9C81.4,323.4,76.1,324.2,76.1,324.2z"/>
	<path class="st70" d="M85.4,321.1c0,0,0.5-0.5,0.4-1.3s-0.9-1.4-0.9-1.4s-1.2,0.9-1.8,1.3c-0.6,0.4-0.5,0.3-0.5,0.3
		s-1.9,2.5-3.3,3.2s-2.9,0.8-3.6,0.5c-0.4-0.2-1.4-0.8-1.6-1.5c-0.2-0.5-0.3-1-0.5-1.3c-0.1-0.2-0.4-0.4-0.8-0.6s-0.4-0.3-0.4-0.3
		s-1.2,2.3-1.4,4.1c-0.2,1.8-0.2,3.1-0.2,3.1l4.7-3.2c0,0,0.4,3,0.7,4.3c0.3,1.2,0.7,1.7,0.7,1.7L85.4,321.1z"/>
	<path class="st23" d="M80.5,320.8c0,0-1.6,1.4-3.8,1.4c-2.2,0-3.1-0.3-3.1-0.3s-6.4-0.8-5.6-13.4c0.7-11.9,16,2.1,16,2.1
		L80.5,320.8z"/>
	<path class="st71" d="M80.1,321.1v-2.7c0,0,0.3-1.5,0.8-1.5c0.5-0.1,1.1-0.4,1.2-2.2s-0.8-2.9-1.7-2.3s-1.5,1.7-1.5,1.7l-0.3-2.7
		c0,0-1.8,0.6-3.5,0s-2.6-3.3-2.6-3.3s-0.5,0.5-1.7,0.3c-1.2-0.2-1.5-1.4-1.5-1.4s-1.1,0.7-1.2,1.5s0,1.5,0,1.5s-1.7-3.4,0.6-6.9
		c2.3-3.6,6.1-4.9,10.6-4.1c4.5,0.8,8.2,2.7,8.2,8.9C87.4,314.1,88.3,318.1,80.1,321.1z"/>
	<path class="st25" d="M88.9,382.5l14.6,8.3l-6,6.6c0,0-16.5-6.6-17.7-15C78.5,373.9,88.9,382.5,88.9,382.5z"/>
</g>
<g>
	<path class="st72" d="M275.7,282.8l1.2,10.4c0,0,0.7,5.9,9,5.9c8.3,0,9-5.8,9-5.8l1.3-11L275.7,282.8z"/>
	<ellipse class="st73" cx="286" cy="282.5" rx="10.3" ry="5.8"/>
	<ellipse class="st74" cx="286" cy="282.3" rx="9" ry="4.9"/>
	<path class="st75" d="M286.8,261.7h-1.6v21h0c0,0,0,0.1,0,0.1c0,0.4,0.4,0.8,0.8,0.8c0.4,0,0.8-0.4,0.8-0.8c0,0,0-0.1,0-0.1h0
		V261.7z"/>
	<ellipse class="st76" cx="285.7" cy="249.7" rx="15.5" ry="13.4"/>
	<path class="st8" d="M285.7,255.8c-7.1,0-13-4.1-14.9-9.8c-0.4,1.2-0.6,2.4-0.6,3.7c0,7.4,6.9,13.4,15.5,13.4
		c8.5,0,15.5-6,15.5-13.4c0-1.3-0.2-2.5-0.6-3.7C298.7,251.7,292.8,255.8,285.7,255.8z"/>
</g>
</svg>
