<?xml version="1.0" encoding="utf-8"?>
<!-- Generator: Adobe Illustrator 19.1.1, SVG Export Plug-In . SVG Version: 6.00 Build 0)  -->
<svg version="1.1" id="Layer_1" xmlns="http://www.w3.org/2000/svg" xmlns:xlink="http://www.w3.org/1999/xlink" x="0px" y="0px"
	 viewBox="0 0 468.7 382.7" style="enable-background:new 0 0 468.7 382.7;" xml:space="preserve">
<style type="text/css">
	.st0{fill:#B6B6AE;}
	.st1{fill:#EBEBE7;}
	.st2{fill:#D6D6CE;}
	.st3{fill:#ABD7D8;}
	.st4{fill:#84B3C5;}
	.st5{fill:#FFFFFF;}
	.st6{fill:#F4F0D7;}
	.st7{fill:#F2F1EF;}
	.st8{fill:#84D4D5;}
	.st9{fill:#F5E9DB;}
	.st10{fill:#AF5056;}
	.st11{fill:#ED5F79;}
	.st12{fill:#AB515A;}
	.st13{fill:#CB9D81;}
	.st14{fill:#9E7258;}
	.st15{fill:#FBBE78;}
	.st16{fill:#DDAE94;}
	.st17{fill:#B8B9B1;}
	.st18{fill:#E9E9E8;}
	.st19{fill:#F2F2F2;}
	.st20{fill:#464B49;}
	.st21{fill:#C6CCCC;}
	.st22{fill:#3D3D3D;}
	.st23{fill:#303030;}
	.st24{fill:#FFD3C8;}
	.st25{fill:#FAF7E6;}
	.st26{fill:#213454;}
	.st27{fill:#384F70;}
	.st28{fill:#3D3F3B;}
	.st29{fill:#535959;}
	.st30{fill:#87888E;}
	.st31{fill:#4B4855;}
	.st32{fill:#A8A8A8;}
	.st33{fill:#E0E0E0;}
	.st34{fill:#30ABD6;}
	.st35{fill:#6BD6F2;}
	.st36{fill:#B4CEDE;}
	.st37{fill:#CCB06A;}
	.st38{fill:#E8CE82;}
	.st39{fill:#F9E491;}
	.st40{fill:#CED7D8;}
	.st41{fill:#D6E3E5;}
	.st42{fill:#C9D3D3;}
	.st43{fill:#30332C;}
	.st44{fill:#414449;}
	.st45{fill:#FD4B50;}
	.st46{fill:#FF7675;}
	.st47{fill:#6E5748;}
	.st48{fill:#F12634;}
	.st49{fill:#F33858;}
</style>
<polygon class="st0" points="195.7,382.7 195.7,362.4 468.7,205.4 468.7,223.4 "/>
<polygon class="st1" points="0,250.9 272.7,92.7 468.7,205.4 195.7,362.4 "/>
<polygon class="st2" points="0,250.9 195.7,362.4 195.7,382.7 0,270.4 "/>
<polygon class="st3" points="272.7,98 272.7,2.5 276.8,1.6 278.4,0.4 468.7,109.7 468.7,205.4 464.1,208 "/>
<polygon class="st4" points="468.7,109.9 464.1,112.6 464.1,208 468.7,205.3 "/>
<polygon class="st5" points="464.1,112.6 468.7,109.9 277.8,0 272.7,2.5 "/>
<path class="st5" d="M284,27.8v62.7l55,32V59.9L284,27.8z M290,37.4l43.2,25.3v49.5L290,87.5V37.4z"/>
<polygon class="st6" points="298.9,42.7 298.9,82.4 290,87.5 290,37.4 "/>
<polygon class="st7" points="333.1,112.3 333.1,101.6 298.9,82.4 290,87.5 "/>
<polygon class="st8" points="333.1,62.8 298.9,42.7 298.9,82.4 333.1,101.6 "/>
<polygon class="st9" points="339,122.4 341.5,120.4 341.5,58.3 339,59.9 "/>
<polygon class="st9" points="284,27.8 287.6,26.8 341.5,58.3 339,59.9 "/>
<path class="st5" d="M352.3,67.9v62.7l55,32V100L352.3,67.9z M358.3,77.5l43.2,25.3v49.5l-43.2-24.8V77.5z"/>
<polygon class="st6" points="367.2,82.8 367.2,122.5 358.3,127.6 358.3,77.5 "/>
<polygon class="st7" points="401.5,152.4 401.5,141.7 367.2,122.5 358.3,127.6 "/>
<polygon class="st8" points="401.5,102.9 367.2,82.8 367.2,122.5 401.5,141.7 "/>
<polygon class="st9" points="407.3,162.5 409.8,160.4 409.8,98.4 407.3,100 "/>
<polygon class="st9" points="352.3,67.9 355.9,66.9 409.8,98.4 407.3,100 "/>
<polygon class="st7" points="458.1,147.1 427.2,129.9 405.4,141.3 437,159.6 "/>
<polygon class="st10" points="418,127.5 427.1,122.4 427.1,136.8 418,142.2 "/>
<polygon class="st11" points="422.9,130.2 422.9,145.4 418,142.4 418,127.5 "/>
<polygon class="st12" points="422.9,130.2 432,124.7 432,139.5 422.9,145.4 "/>
<polygon class="st13" points="184.1,103.4 184.1,147.7 225.3,171.1 225.3,125.3 "/>
<polygon class="st14" points="225.3,171.1 227.6,169.8 227.6,124.2 225.3,125.4 "/>
<polygon class="st13" points="243.1,76.5 243.1,120.8 284.3,141.2 284.3,95.7 "/>
<polygon class="st14" points="284.3,141.2 286.5,140 286.5,94.5 284.3,95.7 "/>
<polygon class="st15" points="183.1,101.3 240.7,68.4 284.1,90 224,124.4 "/>
<polygon class="st14" points="224,126.3 224,124.4 283.9,90 283.9,91.7 "/>
<polygon class="st16" points="224,126.3 224,124.4 183.1,101.3 183.1,103 "/>
<path class="st17" d="M194.4,106.8c0,0-0.1,0.2-0.1,0.5c0,0.5,0.4,0.7,0.4,0.7l4.1,2.1c0,0,0.7,0.3,1.2,0.3s0.7-0.1,1.3-0.4
	c0.7-0.3,1.9-0.9,1.9-0.9s0.6-0.2,0.4-1C203.6,107.3,194.4,106.8,194.4,106.8z"/>
<path class="st18" d="M195.3,106.2l1.7-0.9c0,0,0.7-0.5,1.7,0c1,0.5,4.7,2.2,4.7,2.2s1,0.6-0.3,1.2c-1.4,0.7-2.1,1-2.1,1
	s-0.6,0.4-2.1-0.2c-1.6-0.6-4-1.9-4-1.9S193.4,107,195.3,106.2z"/>
<polygon class="st19" points="240.4,113.4 226.2,104.4 254.8,88.8 268.8,97.7 "/>
<path class="st20" d="M240.4,113.4v0.7l-13.1-8.5c0,0-0.2,1.1-0.9,1c-0.9-0.1-1-0.7-1-1.3c0-0.6,0.3-1,1-0.8
	S240.4,113.4,240.4,113.4z"/>
<path class="st21" d="M227.2,119.8c0,0-0.6,1.3-2.6,1c-2-0.2-6.3-3.3-6.3-3.3s-1-1-0.7-1.7S227.2,119.8,227.2,119.8z"/>
<path class="st19" d="M227.2,119.8c-1,0.7-2,1.1-3.8,0.2c-1.8-0.9-2.8-2.2-4-3c-1.3-0.7-2.4-1-1.5-1.8c0.9-0.9,2.8-2.4,4.8-1.4
	C224.6,114.9,230.9,117.5,227.2,119.8z"/>
<path class="st22" d="M240.9,154.7L240.9,154.7c-2.3-0.5-3.8-2.7-3.3-5l4.6-22.7c0.5-2.3,2.7-3.8,5-3.3h0c2.3,0.5,3.8,2.7,3.3,5
	l-4.6,22.7C245.4,153.6,243.2,155.1,240.9,154.7z"/>
<ellipse transform="matrix(0.9693 0.2459 -0.2459 0.9693 44.8097 -53.8789)" class="st23" cx="238.1" cy="152.5" rx="6.6" ry="3.8"/>
<polygon class="st15" points="240.6,139.6 266.4,124.3 298,137.6 264,153 "/>
<polygon class="st13" points="268.9,160 268.9,180.9 262.3,177.2 262.3,156.2 "/>
<polygon class="st14" points="273.4,178.4 273.4,156.6 268.9,159.7 268.9,180.9 "/>
<polygon class="st13" points="247.2,147.5 247.2,168.7 240.6,164.9 240.6,143.8 "/>
<polygon class="st14" points="251.7,166.1 251.7,146.3 247.2,147.5 247.2,168.7 "/>
<polygon class="st13" points="293.4,142.3 293.4,166.8 287.1,163.2 287.1,146.8 "/>
<polygon class="st14" points="293.4,166.8 297.8,164.2 297.8,139.2 293.4,142.3 "/>
<path class="st23" d="M277.5,141l-25-6.1c-3.7-0.9-6.1-4.7-5.1-8.4v0c0.9-3.7,4.7-6.1,8.4-5.1l25,6.1c3.7,0.9,6.1,4.7,5.1,8.4v0
	C285,139.6,281.2,141.9,277.5,141z"/>
<path class="st22" d="M268.8,147.8l-23.3-10.9c-3.5-1.6-5-5.8-3.4-9.3v0c1.6-3.5,5.8-5,9.3-3.4l23.3,10.9c3.5,1.6,5,5.8,3.4,9.3l0,0
	C276.5,147.9,272.3,149.4,268.8,147.8z"/>
<path class="st24" d="M268.3,89.4c0,0-1.9-1.5-3.6-2c-1.7-0.5-2.7,0-2.7,0s1.4,0.8,2.2,1.7s1,1.8,0.6,1.8c-0.4-0.1-1.7-0.4-2.1-0.2
	c-0.4,0.2,0,1,0.9,1.6c1.2,0.9,1.6,0.2,1.6,0.2S267.6,90.3,268.3,89.4z"/>
<path class="st25" d="M265.8,91.7c0,0,2.7-3.8,9.4-5.1c6.7-1.3,8.6-0.5,8.6-0.5s2.2,5.2-7.4,7.4C266.9,95.7,265.8,91.7,265.8,91.7z"
	/>
<path class="st26" d="M283.9,86.1c0,0-1.8,4-6.7,5.6c-5,1.6-11.3,0-11.3,0s-2.7,1.3-3.2,16.3s-1.2,26.9,1.9,32.4
	c3.2,5.5,9.6,12,20.2,1.9c10.6-10.1,3.9-32,3.9-32l0.3-13.3C289,96.9,289.9,87.4,283.9,86.1z"/>
<path class="st27" d="M254.6,118.2L254.6,118.2c-2-1.3-2.6-4-1.3-6l10-15.5c1.3-2,4-2.6,6-1.3l0,0c2,1.3,2.6,4,1.3,6l-10,15.5
	C259.3,118.9,256.6,119.5,254.6,118.2z"/>
<path class="st24" d="M240.6,115.8c0,0-3.4-1-5.6-2.2c-2.2-1.2-1.3-3.7-0.9-4.1s1.2,1.6,2.5,1.6c1.3,0,2.3-1.4,4.6-0.4
	C243.5,111.8,240.6,115.8,240.6,115.8z"/>
<path class="st27" d="M255,110.7c-3.9,1.7-5.7,0.7-13.6,0c-0.1,0-0.1,0-0.2,0c-0.2,1.2-0.6,3.2-0.6,5c0.5,0.3,1.1,0.7,1.9,1
	c11.9,5.3,17,1.3,17,1.3S258.9,109,255,110.7z"/>
<path class="st24" d="M264.5,69.7c0,0-1.1,2.5-1.1,7.7s-0.6,8.3,2.5,9.3c3.1,0.9,4.6,0,4.6,0l-0.3,1.7c0,0,1.7-0.9,3.5-1.4
	c2.2-0.6,5.9-1,5.9-1l-0.2-1.8c0,0-6-9.7-8.3-11.1C268.7,71.7,264.5,69.7,264.5,69.7z"/>
<polygon class="st14" points="268.9,118.7 268.9,160 297.8,146 297.8,101.8 "/>
<polygon class="st15" points="268.9,118.7 297.8,101.8 292.9,99 264,115.8 "/>
<polygon class="st13" points="264,115.8 268.9,118.7 268.9,160 240.6,143.8 240.6,139.6 264,153 "/>
<path class="st26" d="M263.5,74.2c0,0-1.1-1.3-1-4.8c0.1-2.9,2.4-6.4,7.2-7.1c4.8-0.7,9.7,0.5,12.6,5.3c2.9,4.8,2,10.9-0.8,14.5
	c-2.8,3.6-5.9,4-8.6,4.1c-2.7,0.1-2.8-3.6-2.8-3.6s3.2-0.8,3.2-2.9c0-2.1-1.3-2.4-2.6-1.9c-1.3,0.5-1.5,2.2-1.5,2.2v-5.8
	c0,0-1.4-0.6-2.4-1.5s-2.5-2.6-2.5-2.6S263.8,71.3,263.5,74.2z"/>
<g>
	<path class="st28" d="M210.2,68.3L252,44.2c0.5-0.2,1.2,0.2,1.2,0.7v25.7v1V74c0,0.7-0.2,3.1-2.1,3.9l-38.4,22.2
		c-1.5,1-3.5-0.9-3.5-2v-1.9V71.5v-1.7C209.2,69.3,209.4,68.7,210.2,68.3z"/>
	<path class="st29" d="M211.1,67.7l41.8-24.1c0.5-0.2,1.2,0.2,1.2,0.7V70v1v2.5c0,0.7-0.2,3.1-2.1,3.9l-38.8,22.7c-1.5,1-3,0-3-1.1
		v-3.2V70.9v-1.7C210.1,68.7,210.4,68.1,211.1,67.7z"/>
	<path class="st30" d="M210.1,95.1l43.1-23V74c0,0.7-0.2,3.1-2.1,3.9l-38.2,22.2c-1.8,1-3.7-0.8-3.7-2.2v-3.2v-0.5L210.1,95.1z"/>
	<path class="st31" d="M235.4,86.1v1.5c0,0-0.1,1.3,0.6,1.8c0.9,0.6,4.7,2.5,4.7,2.5s1.1,0.7-0.3,1.5c-0.9,0.5-4.4,2.7-6.4,4
		c-0.3,0.2-0.5,0.3-0.7,0.4c0,0.2-0.2,0.4-0.4,0.4c-0.2,0-0.3-0.1-0.4-0.2c0,0,0,0,0,0c0,0,0,0,0-0.1c0,0,0,0,0-0.1
		c-0.1-0.4-0.3-0.6-0.9-1c-1.1-0.6-3.6-1.8-3.6-1.8s-1.5-0.6-1.5-2.3c0-0.9,0-1.4,0-1.4L235.4,86.1z"/>
	<path class="st30" d="M236,85.8v1.5c0,0-0.1,1.3,0.6,1.8c0.9,0.6,4.7,2.5,4.7,2.5s1.1,0.7-0.3,1.5s-8,4.9-8,4.9s0.1-1-1-1.6
		s-3.6-1.8-3.6-1.8S227,94,227,92.3c0-0.9,0-1.4,0-1.4L236,85.8z"/>
	<path class="st32" d="M254.1,71.1v2.4c0,0.7-0.2,3.1-2.1,3.9l-38.8,22.7c-1.5,1-3,0-3-1.1V96L254.1,71.1z"/>
	<polygon class="st33" points="252.3,46.1 252.3,69.7 212,92.8 212,69.1 	"/>
</g>
<path class="st34" d="M217.2,98.4c-0.8-3-2.5-5.1-4.4-6.1c0,0,0,0,0,0v-1.9c0-1.4-1.1-2.5-2.5-2.5c-1.4,0-2.5,1.1-2.5,2.5v1.9
	c0,0.1,0,0.2,0,0.3c-1.1,0.6-2.3,1.7-3.4,3.5c-2.6,4.4-1.7,7,1.5,8.6c3.2,1.5,7.6,0.7,9.2,0C216.6,104,218.3,102.5,217.2,98.4z"/>
<path class="st35" d="M217.2,98.4c-0.8-3-2.5-5.1-4.4-6.1c0,0,0,0,0,0v-1.9c0-1.4-1.1-2.5-2.5-2.5c-0.5,0-1,0.2-1.4,0.4
	c1.3,0.1,2.4,1.2,2.4,2.5v1.9c0,0,0,0,0,0c1.9,1,3.6,3.1,4.4,6.1c1.1,4.1-0.6,5.6-2.1,6.3c-0.1,0-0.2,0.1-0.2,0.1
	c0.7-0.2,1.3-0.3,1.7-0.5C216.6,104,218.3,102.5,217.2,98.4z"/>
<path class="st36" d="M199.5,107.7H199V85.8c0-2.1,0.9-3.6,2.5-4c1.8-0.5,3.3-0.1,5.2,0.6c1.9,0.6,3.1,1.7,3.6,3.2
	c0.5,1.4,0.4,3.2,0.4,3.3l-0.5,0c0,0,0.1-1.8-0.4-3.1c-0.4-1.3-1.5-2.3-3.2-2.9c-1.7-0.6-3.2-1-4.9-0.6c-1.8,0.5-2.1,2.4-2.1,3.5
	V107.7z"/>
<path class="st5" d="M199.2,107.7h-0.5V85.6c0-2.2,0.9-3.7,2.6-4.2c1.9-0.5,3.5-0.1,5.4,0.6c2,0.7,3.2,1.8,3.8,3.3
	c0.5,1.5,0.4,3.4,0.4,3.5l-0.5,0c0,0,0.1-1.9-0.4-3.3c-0.5-1.3-1.6-2.3-3.4-3c-1.8-0.6-3.4-1.1-5.1-0.6c-1.9,0.5-2.2,2.5-2.2,3.6
	V107.7z"/>
<polygon class="st13" points="164.9,245.9 164.9,290.1 206.1,313.6 206.1,267.8 "/>
<polygon class="st14" points="206.1,313.6 208.4,312.3 208.4,266.7 206.1,267.9 "/>
<polygon class="st13" points="223.9,218.9 223.9,263.3 265.1,283.7 265.1,238.1 "/>
<polygon class="st14" points="265.1,283.7 267.3,282.4 267.3,237 265.1,238.1 "/>
<polygon class="st15" points="163.9,243.7 221.5,210.9 264.9,232.4 204.8,266.9 "/>
<polygon class="st14" points="204.8,268.7 204.8,266.9 264.7,232.5 264.7,234.2 "/>
<polygon class="st16" points="204.8,268.7 204.8,266.9 163.9,243.7 163.9,245.5 "/>
<path class="st17" d="M175.2,249.3c0,0-0.1,0.2-0.1,0.5c0,0.5,0.4,0.7,0.4,0.7l4.1,2.1c0,0,0.7,0.3,1.2,0.3c0.5,0,0.7-0.1,1.3-0.4
	c0.7-0.3,1.9-0.9,1.9-0.9s0.6-0.2,0.4-1C184.4,249.8,175.2,249.3,175.2,249.3z"/>
<path class="st18" d="M176.1,248.7l1.7-0.9c0,0,0.7-0.5,1.7,0c1,0.5,4.7,2.2,4.7,2.2s1,0.6-0.3,1.2s-2.1,1-2.1,1s-0.6,0.4-2.1-0.2
	c-1.6-0.6-4-1.9-4-1.9S174.2,249.5,176.1,248.7z"/>
<polygon class="st19" points="221.2,255.9 207,246.8 235.6,231.3 249.6,240.2 "/>
<path class="st20" d="M221.2,255.9v0.7l-13.1-8.5c0,0-0.2,1.1-0.9,1c-0.9-0.1-1-0.7-1-1.3c0-0.6,0.3-1,1-0.8
	S221.2,255.9,221.2,255.9z"/>
<path class="st21" d="M208,262.3c0,0-0.6,1.3-2.6,1s-6.3-3.3-6.3-3.3s-1-1-0.7-1.7C198.7,257.7,208,262.3,208,262.3z"/>
<path class="st19" d="M208,262.3c-1,0.7-2,1.1-3.8,0.2c-1.8-0.9-2.8-2.2-4-3s-2.4-1-1.5-1.8c0.9-0.9,2.8-2.4,4.8-1.4
	C205.4,257.3,211.7,260,208,262.3z"/>
<path class="st22" d="M221.7,297.1L221.7,297.1c-2.3-0.5-3.8-2.7-3.3-5l4.6-22.7c0.5-2.3,2.7-3.8,5-3.3h0c2.3,0.5,3.8,2.7,3.3,5
	l-4.6,22.7C226.2,296.1,224,297.6,221.7,297.1z"/>
<ellipse transform="matrix(0.9693 0.2459 -0.2459 0.9693 79.2611 -44.7794)" class="st23" cx="218.9" cy="294.9" rx="6.6" ry="3.8"/>
<polygon class="st15" points="221.4,282 247.2,266.8 278.8,280.1 244.8,295.4 "/>
<polygon class="st13" points="249.7,302.5 249.7,323.4 243.1,319.7 243.1,298.7 "/>
<polygon class="st14" points="254.1,320.9 254.1,299 249.7,302.2 249.7,323.4 "/>
<polygon class="st13" points="228,289.9 228,311.1 221.4,307.4 221.4,286.3 "/>
<polygon class="st14" points="232.5,308.6 232.5,288.8 228,289.9 228,311.1 "/>
<polygon class="st13" points="274.1,284.8 274.1,309.3 267.9,305.7 267.9,289.2 "/>
<polygon class="st14" points="274.1,309.3 278.6,306.7 278.6,281.7 274.1,284.8 "/>
<path class="st23" d="M258.3,283.5l-25-6.1c-3.7-0.9-6.1-4.7-5.1-8.4l0,0c0.9-3.7,4.7-6.1,8.4-5.1l25,6.1c3.7,0.9,6.1,4.7,5.1,8.4v0
	C265.8,282.1,262,284.4,258.3,283.5z"/>
<path class="st22" d="M249.6,290.2l-23.3-10.9c-3.5-1.6-5-5.8-3.4-9.3l0,0c1.6-3.5,5.8-5,9.3-3.4l23.3,10.9c3.5,1.6,5,5.8,3.4,9.3v0
	C257.3,290.4,253.1,291.9,249.6,290.2z"/>
<path class="st24" d="M249.1,231.9c0,0-1.9-1.5-3.6-2c-1.7-0.5-2.7,0-2.7,0s1.4,0.8,2.2,1.7c0.8,0.9,1,1.8,0.6,1.8
	c-0.4-0.1-1.7-0.4-2.1-0.2c-0.4,0.2,0,1,0.9,1.6c1.2,0.9,1.6,0.2,1.6,0.2S248.4,232.8,249.1,231.9z"/>
<path class="st25" d="M246.6,234.1c0,0,2.7-3.8,9.4-5.1c6.7-1.3,8.6-0.5,8.6-0.5s2.2,5.2-7.4,7.4
	C247.7,238.2,246.6,234.1,246.6,234.1z"/>
<path class="st26" d="M264.7,228.5c0,0-1.8,4-6.7,5.6c-5,1.6-11.3,0-11.3,0s-2.7,1.3-3.2,16.3c-0.5,14.9-1.2,26.9,1.9,32.4
	c3.2,5.5,9.6,12,20.2,1.9c10.6-10.1,3.9-32,3.9-32l0.3-13.3C269.8,239.4,270.7,229.8,264.7,228.5z"/>
<path class="st27" d="M235.4,260.7L235.4,260.7c-2-1.3-2.6-4-1.3-6l10-15.5c1.3-2,4-2.6,6-1.3h0c2,1.3,2.6,4,1.3,6l-10,15.5
	C240.1,261.4,237.4,262,235.4,260.7z"/>
<path class="st24" d="M221.4,258.3c0,0-3.4-1-5.6-2.2s-1.3-3.7-0.9-4.1s1.2,1.6,2.5,1.6s2.3-1.4,4.6-0.4
	C224.3,254.3,221.4,258.3,221.4,258.3z"/>
<path class="st27" d="M235.8,253.2c-3.9,1.7-5.7,0.7-13.6,0c-0.1,0-0.1,0-0.2,0c-0.2,1.2-0.6,3.2-0.6,5c0.5,0.3,1.1,0.7,1.9,1
	c11.9,5.3,17,1.3,17,1.3S239.7,251.5,235.8,253.2z"/>
<path class="st24" d="M245.3,212.2c0,0-1.1,2.5-1.1,7.7s-0.6,8.3,2.5,9.3s4.6,0,4.6,0l-0.3,1.7c0,0,1.7-0.9,3.5-1.4
	c2.2-0.6,5.9-1,5.9-1l-0.2-1.8c0,0-6-9.7-8.3-11.1C249.5,214.1,245.3,212.2,245.3,212.2z"/>
<polygon class="st14" points="249.7,261.1 249.7,302.5 278.6,288.5 278.6,244.2 "/>
<polygon class="st15" points="249.7,261.1 278.6,244.2 273.7,241.4 244.8,258.3 "/>
<polygon class="st13" points="244.8,258.3 249.7,261.1 249.7,302.5 221.4,286.3 221.4,282 244.8,295.4 "/>
<path class="st26" d="M244.3,216.7c0,0-1.1-1.3-1-4.8c0.1-2.9,2.4-6.4,7.2-7.1s9.7,0.5,12.6,5.3c2.9,4.8,2,10.9-0.8,14.5
	c-2.8,3.6-5.9,4-8.6,4.1c-2.7,0.1-2.8-3.6-2.8-3.6s3.2-0.8,3.2-2.9s-1.3-2.4-2.6-1.9c-1.3,0.5-1.5,2.2-1.5,2.2v-5.8
	c0,0-1.4-0.6-2.4-1.5s-2.5-2.6-2.5-2.6S244.6,213.7,244.3,216.7z"/>
<g>
	<path class="st28" d="M191,210.8l41.8-24.1c0.5-0.2,1.2,0.2,1.2,0.7V213v1v2.5c0,0.7-0.2,3.1-2.1,3.9l-38.4,22.2
		c-1.5,1-3.5-0.9-3.5-2v-1.9v-24.8v-1.7C190,211.7,190.2,211.1,191,210.8z"/>
	<path class="st29" d="M191.9,210.2l41.8-24.1c0.5-0.2,1.2,0.2,1.2,0.7v25.7v1v2.5c0,0.7-0.2,3.1-2.1,3.9l-38.8,22.7
		c-1.5,1-3,0-3-1.1v-3.2v-24.8v-1.7C190.9,211.1,191.2,210.6,191.9,210.2z"/>
	<path class="st30" d="M190.9,237.6l43.1-23v1.9c0,0.7-0.2,3.1-2.1,3.9l-38.2,22.2c-1.8,1-3.7-0.8-3.7-2.2v-3.2v-0.5L190.9,237.6z"
		/>
	<path class="st31" d="M216.2,228.6v1.5c0,0-0.1,1.3,0.6,1.8c0.9,0.6,4.7,2.5,4.7,2.5s1.1,0.7-0.3,1.5c-0.9,0.5-4.4,2.7-6.4,4
		c-0.3,0.2-0.5,0.3-0.7,0.4c0,0.2-0.2,0.4-0.4,0.4c-0.2,0-0.3-0.1-0.4-0.2c0,0,0,0,0,0c0,0,0,0,0-0.1c0,0,0,0,0-0.1
		c-0.1-0.4-0.3-0.6-0.9-1c-1.1-0.6-3.6-1.8-3.6-1.8s-1.5-0.6-1.5-2.3c0-0.9,0-1.4,0-1.4L216.2,228.6z"/>
	<path class="st30" d="M216.8,228.3v1.5c0,0-0.1,1.3,0.6,1.8c0.9,0.6,4.7,2.5,4.7,2.5s1.1,0.7-0.3,1.5c-1.3,0.8-8,4.9-8,4.9
		s0.1-1-1-1.6c-1.1-0.6-3.6-1.8-3.6-1.8s-1.5-0.6-1.5-2.3c0-0.9,0-1.4,0-1.4L216.8,228.3z"/>
	<path class="st32" d="M234.9,213.6v2.4c0,0.7-0.2,3.1-2.1,3.9l-38.8,22.7c-1.5,1-3,0-3-1.1v-2.9L234.9,213.6z"/>
	<polygon class="st33" points="233.1,188.6 233.1,212.2 192.8,235.3 192.8,211.6 	"/>
</g>
<path class="st34" d="M198,240.8c-0.8-3-2.5-5.1-4.4-6.1c0,0,0,0,0,0v-1.9c0-1.4-1.1-2.5-2.5-2.5c-1.4,0-2.5,1.1-2.5,2.5v1.9
	c0,0.1,0,0.2,0,0.3c-1.1,0.6-2.3,1.7-3.4,3.5c-2.6,4.4-1.7,7,1.5,8.6c3.2,1.5,7.6,0.7,9.2,0C197.4,246.5,199.1,244.9,198,240.8z"/>
<path class="st35" d="M198,240.9c-0.8-3-2.5-5.1-4.4-6.1c0,0,0,0,0,0v-1.9c0-1.4-1.1-2.5-2.5-2.5c-0.5,0-1,0.2-1.4,0.4
	c1.3,0.1,2.4,1.2,2.4,2.5v1.9c0,0,0,0,0,0c1.9,1,3.6,3.1,4.4,6.1c1.1,4.1-0.6,5.6-2.1,6.3c-0.1,0-0.2,0.1-0.2,0.1
	c0.7-0.2,1.3-0.3,1.7-0.5C197.4,246.5,199.1,245,198,240.9z"/>
<path class="st36" d="M180.3,250.2h-0.5v-21.9c0-2.1,0.9-3.6,2.5-4c1.8-0.5,3.3-0.1,5.2,0.6c1.9,0.6,3.1,1.7,3.6,3.2
	c0.5,1.4,0.4,3.2,0.4,3.3l-0.5,0c0,0,0.1-1.8-0.4-3.1c-0.4-1.3-1.5-2.3-3.2-2.9c-1.7-0.6-3.2-1-4.9-0.6c-1.8,0.5-2.1,2.4-2.1,3.5
	V250.2z"/>
<path class="st5" d="M180,250.2h-0.5v-22.1c0-2.2,0.9-3.7,2.6-4.2c1.9-0.5,3.5-0.1,5.4,0.6c2,0.7,3.2,1.8,3.8,3.3
	c0.5,1.5,0.4,3.4,0.4,3.5l-0.5,0c0,0,0.1-1.9-0.4-3.3c-0.5-1.3-1.6-2.3-3.4-3c-1.8-0.6-3.4-1.1-5.1-0.6c-1.9,0.5-2.2,2.5-2.2,3.6
	V250.2z"/>
<polygon class="st5" points="430.7,125.5 427,123.8 419.3,128.2 422.9,130.2 "/>
<polygon class="st37" points="423.8,131 432.9,125.9 432.9,140.2 423.8,145.7 "/>
<polygon class="st38" points="428.6,133.7 428.6,148.9 423.7,145.9 423.7,130.9 "/>
<polygon class="st39" points="428.6,133.7 437.8,128.2 437.8,143 428.6,148.9 "/>
<polygon class="st5" points="436.4,129 432.8,127.3 425,131.6 428.6,133.7 "/>
<polygon class="st40" points="458.1,147.1 458.1,151.3 437,164.3 437,159.6 "/>
<polygon class="st41" points="437,159.6 405.4,141.3 405.4,146 437,164.3 "/>
<polygon class="st10" points="429.6,135 438.7,130 438.7,144.3 429.6,149.7 "/>
<polygon class="st11" points="434.5,137.7 434.5,152.9 429.6,149.9 429.6,135 "/>
<polygon class="st12" points="434.5,137.7 443.6,132.2 443.6,147 434.5,152.9 "/>
<polygon class="st5" points="442.3,133 438.6,131.3 430.8,135.7 434.5,137.7 "/>
<polygon class="st37" points="435.3,138.5 444.5,133.4 444.5,147.7 435.3,153.2 "/>
<polygon class="st38" points="440.2,141.2 440.2,156.4 435.3,153.4 435.3,138.4 "/>
<polygon class="st39" points="440.2,141.2 449.3,135.7 449.3,150.5 440.2,156.4 "/>
<polygon class="st5" points="448,136.5 444.3,134.8 436.6,139.1 440.2,141.2 "/>
<polygon class="st13" points="293.7,170.8 293.7,214.9 335,238.4 335,192.6 "/>
<polygon class="st14" points="335,238.4 337.2,237.1 337.2,191.5 335,192.7 "/>
<polygon class="st13" points="352.7,143.7 352.7,188.1 393.9,208.5 393.9,162.9 "/>
<polygon class="st14" points="393.9,208.5 396.2,207.2 396.2,161.8 393.9,162.9 "/>
<polygon class="st15" points="292.1,168 352.2,133.7 393.7,157.2 333.6,191.7 "/>
<polygon class="st14" points="333.6,193.6 333.6,191.7 393.5,157.3 393.5,159 "/>
<polygon class="st16" points="333.6,193.6 333.6,191.7 292.1,168 292.1,169.8 "/>
<path class="st17" d="M304,174.1c0,0-0.1,0.2-0.1,0.5c0,0.5,0.4,0.7,0.4,0.7l4.1,2.1c0,0,0.7,0.3,1.2,0.3c0.5,0,0.7-0.1,1.3-0.4
	c0.7-0.3,1.9-0.9,1.9-0.9s0.6-0.2,0.4-1C313.3,174.6,304,174.1,304,174.1z"/>
<path class="st18" d="M304.9,173.5l1.7-0.9c0,0,0.7-0.5,1.7,0c1,0.5,4.7,2.2,4.7,2.2s1,0.6-0.3,1.2c-1.4,0.7-2.1,1-2.1,1
	s-0.6,0.4-2.1-0.2c-1.6-0.6-4-1.9-4-1.9S303,174.3,304.9,173.5z"/>
<polygon class="st42" points="350,180.7 335.9,171.6 364.4,156.1 378.4,165 "/>
<path class="st20" d="M350,180.7v0.7l-13.1-8.5c0,0-0.2,1.1-0.9,1c-0.9-0.1-1-0.7-1-1.3c0-0.6,0.3-1,1-0.8
	C336.8,172,350,180.7,350,180.7z"/>
<path class="st43" d="M336.8,187.1c0,0-0.6,1.3-2.6,1s-6.3-3.3-6.3-3.3s-1-1-0.7-1.7C327.5,182.5,336.8,187.1,336.8,187.1z"/>
<path class="st44" d="M336.8,187.1c-1,0.7-2,1.1-3.8,0.2c-1.8-0.9-2.8-2.2-4-3c-1.3-0.7-2.4-1-1.5-1.8c0.9-0.9,2.8-2.4,4.8-1.4
	C334.3,182.1,340.5,184.8,336.8,187.1z"/>
<path class="st22" d="M350.5,222L350.5,222c-2.3-0.5-3.8-2.7-3.3-5l4.6-22.7c0.5-2.3,2.7-3.8,5-3.3h0c2.3,0.5,3.8,2.7,3.3,5
	l-4.6,22.7C355.1,220.9,352.8,222.4,350.5,222z"/>
<ellipse transform="matrix(0.9693 0.2459 -0.2459 0.9693 64.7271 -78.7813)" class="st23" cx="347.8" cy="219.7" rx="6.6" ry="3.8"/>
<polygon class="st15" points="350.3,206.8 376,191.6 407.6,204.9 373.6,220.2 "/>
<polygon class="st13" points="378.6,227.3 378.6,248.2 371.9,244.5 371.9,223.5 "/>
<polygon class="st14" points="383,245.7 383,223.9 378.6,227 378.6,248.2 "/>
<polygon class="st13" points="356.9,214.8 356.9,236 350.3,232.2 350.3,211.1 "/>
<polygon class="st14" points="361.3,233.4 361.3,213.6 356.9,214.8 356.9,236 "/>
<polygon class="st13" points="403,209.6 403,234.1 396.7,230.5 396.7,214.1 "/>
<polygon class="st14" points="403,234.1 407.5,231.5 407.5,206.5 403,209.6 "/>
<path class="st23" d="M387.2,208.3l-25-6.1c-3.7-0.9-6.1-4.7-5.1-8.4l0,0c0.9-3.7,4.7-6.1,8.4-5.1l25,6.1c3.7,0.9,6.1,4.7,5.1,8.4v0
	C394.7,206.9,390.9,209.2,387.2,208.3z"/>
<path class="st22" d="M378.4,215.1l-23.3-10.9c-3.5-1.6-5-5.8-3.4-9.3v0c1.6-3.5,5.8-5,9.3-3.4l23.3,10.9c3.5,1.6,5,5.8,3.4,9.3v0
	C386.1,215.2,381.9,216.7,378.4,215.1z"/>
<path class="st24" d="M377.9,156.7c0,0-1.9-1.5-3.6-2c-1.7-0.5-2.7,0-2.7,0s1.4,0.8,2.2,1.7s1,1.8,0.6,1.8c-0.4-0.1-1.7-0.4-2.1-0.2
	c-0.4,0.2,0,1,0.9,1.6c1.2,0.9,1.6,0.2,1.6,0.2S377.3,157.6,377.9,156.7z"/>
<path class="st25" d="M375.5,159c0,0,2.7-3.8,9.4-5.1c6.7-1.3,8.6-0.5,8.6-0.5s2.2,5.2-7.4,7.4C376.6,163,375.5,159,375.5,159z"/>
<path class="st45" d="M393.5,153.3c0,0-1.8,4-6.7,5.6c-5,1.6-11.3,0-11.3,0s-2.7,1.3-3.2,16.3c-0.5,14.9-1.2,26.9,1.9,32.4
	c3.2,5.5,9.6,12,20.2,1.9c10.6-10.1,3.9-32,3.9-32l0.3-13.3C398.7,164.2,399.5,154.7,393.5,153.3z"/>
<path class="st46" d="M364.3,185.5L364.3,185.5c-2-1.3-2.6-4-1.3-6l10-15.5c1.3-2,4-2.6,6-1.3l0,0c2,1.3,2.6,4,1.3,6l-10,15.5
	C369,186.2,366.3,186.8,364.3,185.5z"/>
<path class="st24" d="M350.3,183.1c0,0-3.4-1-5.6-2.2s-1.3-3.7-0.9-4.1s1.2,1.6,2.5,1.6s2.3-1.4,4.6-0.4
	C353.1,179.1,350.3,183.1,350.3,183.1z"/>
<path class="st46" d="M364.7,178c-3.9,1.7-5.7,0.7-13.6,0c-0.1,0-0.1,0-0.2,0c-0.2,1.2-0.6,3.2-0.6,5c0.5,0.3,1.1,0.7,1.9,1
	c11.9,5.3,17,1.3,17,1.3S368.6,176.3,364.7,178z"/>
<path class="st24" d="M374.1,137c0,0-1.1,2.5-1.1,7.7s-0.6,8.3,2.5,9.3s4.6,0,4.6,0l-0.3,1.7c0,0,1.7-0.9,3.5-1.4
	c2.2-0.6,5.9-1,5.9-1l-0.2-1.8c0,0-6-9.7-8.3-11.1C378.4,139,374.1,137,374.1,137z"/>
<polygon class="st14" points="378.6,186 378.6,227.3 407.4,213.3 407.4,169 "/>
<polygon class="st15" points="378.6,186 407.4,169 402.5,166.3 373.6,183.1 "/>
<polygon class="st13" points="373.6,183.1 378.6,186 378.6,227.3 350.3,211.1 350.3,206.8 373.6,220.2 "/>
<path class="st47" d="M373.2,141.5c0,0-1.1-1.3-1-4.8c0.1-2.9,2.4-6.4,7.2-7.1s9.7,0.5,12.6,5.3c2.9,4.8,2,10.9-0.8,14.5
	c-2.8,3.6-5.9,4-8.6,4.1c-2.7,0.1-2.8-3.6-2.8-3.6s3.2-0.8,3.2-2.9s-1.3-2.4-2.6-1.9c-1.3,0.5-1.5,2.2-1.5,2.2v-5.8
	c0,0-1.4-0.6-2.4-1.5c-1-0.8-2.5-2.6-2.5-2.6S373.5,138.5,373.2,141.5z"/>
<g>
	<path class="st28" d="M319.8,135.6l41.8-24.1c0.5-0.2,1.2,0.2,1.2,0.7v25.7v1v2.5c0,0.7-0.2,3.1-2.1,3.9l-38.4,22.2
		c-1.5,1-3.5-0.9-3.5-2v-1.9v-24.8V137C318.8,136.5,319.1,136,319.8,135.6z"/>
	<path class="st29" d="M320.7,135l41.8-24.1c0.5-0.2,1.2,0.2,1.2,0.7v25.7v1v2.5c0,0.7-0.2,3.1-2.1,3.9l-38.8,22.7c-1.5,1-3,0-3-1.1
		V163v-24.8v-1.7C319.8,136,320,135.4,320.7,135z"/>
	<path class="st30" d="M319.8,162.4l43.1-23v1.9c0,0.7-0.2,3.1-2.1,3.9l-38.2,22.2c-1.8,1-3.7-0.8-3.7-2.2v-3.2v-0.5L319.8,162.4z"
		/>
	<path class="st31" d="M345,153.4v1.5c0,0-0.1,1.3,0.6,1.8c0.9,0.6,4.7,2.5,4.7,2.5s1.1,0.7-0.3,1.5c-0.9,0.5-4.4,2.7-6.4,4
		c-0.3,0.2-0.5,0.3-0.7,0.4c0,0.2-0.2,0.4-0.4,0.4c-0.2,0-0.3-0.1-0.4-0.2c0,0,0,0,0,0c0,0,0,0,0-0.1c0,0,0,0,0-0.1
		c-0.1-0.4-0.3-0.6-0.9-1c-1.1-0.6-3.6-1.8-3.6-1.8s-1.5-0.6-1.5-2.3c0-0.9,0-1.4,0-1.4L345,153.4z"/>
	<path class="st30" d="M345.7,153.1v1.5c0,0-0.1,1.3,0.6,1.8c0.9,0.6,4.7,2.5,4.7,2.5s1.1,0.7-0.3,1.5c-1.3,0.8-8,4.9-8,4.9
		s0.1-1-1-1.6c-1.1-0.6-3.6-1.8-3.6-1.8s-1.5-0.6-1.5-2.3c0-0.9,0-1.4,0-1.4L345.7,153.1z"/>
	<path class="st32" d="M363.7,138.4v2.4c0,0.7-0.2,3.1-2.1,3.9l-38.8,22.7c-1.5,1-3,0-3-1.1v-2.9L363.7,138.4z"/>
	<polygon class="st33" points="362,113.4 362,137 321.7,160.1 321.7,136.4 	"/>
</g>
<path class="st48" d="M326.9,165.7c-0.8-3-2.5-5.1-4.4-6.1c0,0,0,0,0,0v-1.9c0-1.4-1.1-2.5-2.5-2.5c-1.4,0-2.5,1.1-2.5,2.5v1.9
	c0,0.1,0,0.2,0,0.3c-1.1,0.6-2.3,1.7-3.4,3.5c-2.6,4.4-1.7,7,1.5,8.6c3.2,1.5,7.6,0.7,9.2,0S328,169.7,326.9,165.7z"/>
<path class="st49" d="M326.9,165.7c-0.8-3-2.5-5.1-4.4-6.1c0,0,0,0,0,0v-1.9c0-1.4-1.1-2.5-2.5-2.5c-0.5,0-1,0.2-1.4,0.4
	c1.3,0.1,2.4,1.2,2.4,2.5v1.9c0,0,0,0,0,0c1.9,1,3.6,3.1,4.4,6.1c1.1,4.1-0.6,5.6-2.1,6.3c-0.1,0-0.2,0.1-0.2,0.1
	c0.7-0.2,1.3-0.3,1.7-0.5C326.3,171.3,328,169.8,326.9,165.7z"/>
<path class="st36" d="M309.2,175h-0.5v-21.9c0-2.1,0.9-3.6,2.5-4c1.8-0.5,3.3-0.1,5.2,0.6c1.9,0.6,3.1,1.7,3.6,3.2
	c0.5,1.4,0.4,3.2,0.4,3.3l-0.5,0c0,0,0.1-1.8-0.4-3.1c-0.4-1.3-1.5-2.3-3.2-2.9c-1.7-0.6-3.2-1-4.9-0.6c-1.8,0.5-2.1,2.4-2.1,3.5
	V175z"/>
<path class="st5" d="M308.9,175h-0.5v-22.1c0-2.2,0.9-3.7,2.6-4.2c1.9-0.5,3.5-0.1,5.4,0.6c2,0.7,3.2,1.8,3.8,3.3
	c0.5,1.5,0.4,3.4,0.4,3.5l-0.5,0c0,0,0.1-1.9-0.4-3.3c-0.5-1.3-1.6-2.3-3.4-3c-1.8-0.6-3.4-1.1-5.1-0.6c-1.9,0.5-2.2,2.5-2.2,3.6
	V175z"/>
</svg>
