<?xml version="1.0" encoding="utf-8"?>
<!-- Generator: Adobe Illustrator 19.1.1, SVG Export Plug-In . SVG Version: 6.00 Build 0)  -->
<svg version="1.1" id="Layer_1" xmlns="http://www.w3.org/2000/svg" xmlns:xlink="http://www.w3.org/1999/xlink" x="0px" y="0px"
	 viewBox="0 0 441.5 374.2" style="enable-background:new 0 0 441.5 374.2;" xml:space="preserve">
<style type="text/css">
	.st0{fill:#EBEBE7;}
	.st1{fill:#D6D6CE;}
	.st2{fill:#B6B6AE;}
	.st3{fill:#225875;}
	.st4{fill:#30ABD6;}
	.st5{fill:#FFF2BB;}
	.st6{fill:#ACF7F9;}
	.st7{fill:#79BCC2;}
	.st8{fill:#87D2D5;}
	.st9{fill:#88D2D3;}
	.st10{fill:#F2F1EF;}
	.st11{fill:#CED7D8;}
	.st12{fill:#D6E3E5;}
	.st13{fill:#AF5056;}
	.st14{fill:#ED5F79;}
	.st15{fill:#AB515A;}
	.st16{fill:#FFFFFF;}
	.st17{fill:#CCB06A;}
	.st18{fill:#E8CE82;}
	.st19{fill:#F9E491;}
	.st20{fill:#F4F0D7;}
	.st21{fill:#84D4D5;}
	.st22{fill:#F5E9DB;}
	.st23{fill:#CB9D81;}
	.st24{fill:#9E7258;}
	.st25{fill:#FBBE78;}
	.st26{fill:#DDAE94;}
	.st27{fill:#B8B9B1;}
	.st28{fill:#E9E9E8;}
	.st29{fill:#F2F2F2;}
	.st30{fill:#464B49;}
	.st31{fill:#C6CCCC;}
	.st32{fill:#3D3D3D;}
	.st33{fill:#303030;}
	.st34{fill:#FFD3C8;}
	.st35{fill:#FAF7E6;}
	.st36{fill:#213454;}
	.st37{fill:#384F70;}
	.st38{fill:#3D3F3B;}
	.st39{fill:#535959;}
	.st40{fill:#87888E;}
	.st41{fill:#4B4855;}
	.st42{fill:#A8A8A8;}
	.st43{fill:#E0E0E0;}
	.st44{fill:#6BD6F2;}
	.st45{fill:#B4CEDE;}
	.st46{fill:#F12634;}
	.st47{fill:#F33858;}
	.st48{fill:#243F4A;}
	.st49{fill:#38535E;}
	.st50{fill:#FF6777;}
	.st51{fill:#FFA796;}
	.st52{fill:#F4575C;}
	.st53{fill:#FFACA8;}
	.st54{fill:#FFFEFF;}
	.st55{fill:#704646;}
	.st56{fill:#96C5DF;}
	.st57{fill:#FFFFFD;}
	.st58{fill:#3B7893;}
	.st59{fill:#F0A795;}
	.st60{fill:#E67D6D;}
</style>
<polygon class="st0" points="0,215.7 239.5,355.2 441.5,239.9 200,99.2 "/>
<polygon class="st1" points="0,215.7 0,233.7 239.5,374.2 239.5,355.2 "/>
<polygon class="st2" points="239.5,374.2 239.5,355.2 441.5,239.9 441.5,258.2 "/>
<g>
	<path class="st3" d="M0,215.7l7.3,4.3L165,7.9c0,0-37.8-35-101.6,42.2C12,112.1,0,215.7,0,215.7z"/>
	<path class="st4" d="M7.3,220c0,0,19.7-160.1,106.9-208.8c81.4-45.4,94,93.2,94,93.2L7.3,220z"/>
	<polygon class="st5" points="121.6,57.5 149.2,73.2 149.2,108.9 121.6,92.9 	"/>
	<path class="st6" d="M149.2,73.2v35.8l32-17V55.4L149.2,73.2z M179.6,90.9l-28.8,15.1V74.2l28.8-15.8V90.9z"/>
	<polygon class="st7" points="179.6,90.9 150.8,74.2 179.6,58.4 	"/>
	<polygon class="st8" points="150.8,74.2 150.8,105.9 179.6,90.9 	"/>
	<polygon class="st9" points="121.6,57.5 152.2,39.7 181.2,55.4 149.2,73.2 	"/>
	<polygon class="st10" points="77.6,80.4 108.6,63.1 130.3,74.5 98.7,92.8 	"/>
	<polygon class="st11" points="77.6,80.4 77.6,84.5 98.7,97.5 98.7,92.8 	"/>
	<polygon class="st12" points="98.7,92.8 130.3,74.5 130.3,79.2 98.7,97.5 	"/>
	<polygon class="st13" points="110.5,65 101.3,59.9 101.3,74.2 110.5,79.7 	"/>
	<polygon class="st14" points="105.6,67.7 105.6,82.9 110.5,79.9 110.5,64.9 	"/>
	<polygon class="st15" points="105.6,67.7 96.4,62.2 96.4,77 105.6,82.9 	"/>
	<polygon class="st16" points="97.8,63 101.4,61.3 109.2,65.7 105.6,67.7 	"/>
	<polygon class="st17" points="104.7,68.4 95.6,63.4 95.6,77.7 104.7,83.2 	"/>
	<polygon class="st18" points="99.8,71.2 99.8,86.4 104.7,83.3 104.7,68.4 	"/>
	<polygon class="st19" points="99.8,71.2 90.7,65.7 90.7,80.4 99.8,86.4 	"/>
	<polygon class="st16" points="92,66.5 95.7,64.8 103.5,69.1 99.8,71.2 	"/>
	<path class="st16" d="M47.3,131.5v49.6l43.6-25.4V106L47.3,131.5z M86.2,153.4l-34.2,19.6v-39.3l34.2-20.1V153.4z"/>
	<polygon class="st20" points="79.1,117.9 79.1,149.4 86.2,153.4 86.2,113.7 	"/>
	<polygon class="st10" points="51.9,173.1 51.9,164.6 79.1,149.4 86.2,153.4 	"/>
	<polygon class="st21" points="51.9,133.8 79.1,117.9 79.1,149.4 51.9,164.6 	"/>
	<polygon class="st22" points="47.3,181.1 45.3,179.5 45.3,130.3 47.3,131.5 	"/>
	<polygon class="st22" points="90.9,106 88.1,105.2 45.3,130.3 47.3,131.5 	"/>
</g>
<polygon class="st23" points="188.2,184.5 188.2,228.7 146.9,252.2 146.9,206.4 "/>
<polygon class="st24" points="146.9,252.2 144.7,250.8 144.7,205.2 146.9,206.5 "/>
<polygon class="st23" points="129.2,157.5 129.2,201.8 88,222.2 88,176.7 "/>
<polygon class="st24" points="88,222.2 85.7,221 85.7,175.6 88,176.7 "/>
<polygon class="st25" points="189.1,182.3 131.5,149.5 88.2,171 148.3,205.4 "/>
<polygon class="st24" points="148.3,207.3 148.3,205.4 88.4,171.1 88.4,172.8 "/>
<polygon class="st26" points="148.3,207.3 148.3,205.4 189.1,182.3 189.1,184.1 "/>
<path class="st27" d="M177.9,187.8c0,0,0.1,0.2,0.1,0.5c0,0.5-0.4,0.7-0.4,0.7l-4.1,2.1c0,0-0.7,0.3-1.2,0.3s-0.7-0.1-1.3-0.4
	s-1.9-0.9-1.9-0.9s-0.6-0.2-0.4-1C168.6,188.3,177.9,187.8,177.9,187.8z"/>
<path class="st28" d="M177,187.3l-1.7-0.9c0,0-0.7-0.5-1.7,0s-4.7,2.2-4.7,2.2s-1,0.6,0.3,1.2s2.1,1,2.1,1s0.6,0.4,2.1-0.2
	c1.6-0.6,4-1.9,4-1.9S178.9,188,177,187.3z"/>
<polygon class="st29" points="131.8,194.5 146,185.4 117.5,169.9 103.5,178.8 "/>
<path class="st30" d="M131.8,194.5v0.7l13.1-8.5c0,0,0.2,1.1,0.9,1c0.9-0.1,1-0.7,1-1.3c0-0.6-0.3-1-1-0.8
	C145.1,185.8,131.8,194.5,131.8,194.5z"/>
<path class="st31" d="M145,200.9c0,0,0.6,1.3,2.6,1c2-0.2,6.3-3.3,6.3-3.3s1-1,0.7-1.7C154.4,196.2,145,200.9,145,200.9z"/>
<path class="st29" d="M145,200.9c1,0.7,2,1.1,3.8,0.2c1.8-0.9,2.8-2.2,4-3s2.4-1,1.5-1.8c-0.9-0.9-2.8-2.4-4.8-1.4
	C147.6,195.9,141.4,198.6,145,200.9z"/>
<path class="st32" d="M131.4,235.7L131.4,235.7c2.3-0.5,3.8-2.7,3.3-5l-4.6-22.7c-0.5-2.3-2.7-3.8-5-3.3h0c-2.3,0.5-3.8,2.7-3.3,5
	l4.6,22.7C126.8,234.7,129.1,236.2,131.4,235.7z"/>
<ellipse transform="matrix(-0.9693 0.2459 -0.2459 -0.9693 321.5758 426.8458)" class="st33" cx="134.1" cy="233.5" rx="6.6" ry="3.8"/>
<polygon class="st25" points="131.6,220.6 105.9,205.4 74.3,218.7 108.3,234 "/>
<polygon class="st23" points="103.3,241.1 103.3,262 109.9,258.3 109.9,237.3 "/>
<polygon class="st24" points="98.9,259.4 98.9,237.6 103.3,240.8 103.3,262 "/>
<polygon class="st23" points="125,228.5 125,249.7 131.6,245.9 131.6,224.9 "/>
<polygon class="st24" points="120.6,247.2 120.6,227.4 125,228.5 125,249.7 "/>
<polygon class="st23" points="78.9,223.4 78.9,247.9 85.1,244.3 85.1,227.8 "/>
<polygon class="st24" points="78.9,247.9 74.4,245.3 74.4,220.2 78.9,223.4 "/>
<path class="st33" d="M94.7,222.1l25-6.1c3.7-0.9,6.1-4.7,5.1-8.4l0,0c-0.9-3.7-4.7-6.1-8.4-5.1l-25,6.1c-3.7,0.9-6.1,4.7-5.1,8.4v0
	C87.2,220.7,91,223,94.7,222.1z"/>
<path class="st32" d="M103.4,228.8l23.3-10.9c3.5-1.6,5-5.8,3.4-9.3l0,0c-1.6-3.5-5.8-5-9.3-3.4l-23.3,10.9c-3.5,1.6-5,5.8-3.4,9.3
	l0,0C95.8,228.9,100,230.5,103.4,228.8z"/>
<path class="st34" d="M103.9,170.5c0,0,1.9-1.5,3.6-2s2.7,0,2.7,0s-1.4,0.8-2.2,1.7s-1,1.8-0.6,1.8c0.4-0.1,1.7-0.4,2.1-0.2
	c0.4,0.2,0,1-0.9,1.6c-1.2,0.9-1.6,0.2-1.6,0.2S104.6,171.3,103.9,170.5z"/>
<path class="st35" d="M106.4,172.7c0,0-2.7-3.8-9.4-5.1c-6.7-1.3-8.6-0.5-8.6-0.5s-2.2,5.2,7.4,7.4
	C105.3,176.8,106.4,172.7,106.4,172.7z"/>
<path class="st36" d="M88.3,167.1c0,0,1.8,4,6.7,5.6c5,1.6,11.3,0,11.3,0s2.7,1.3,3.2,16.3c0.5,14.9,1.2,26.9-1.9,32.4
	c-3.2,5.5-9.6,12-20.2,1.9s-3.9-32-3.9-32L83.2,178C83.2,178,82.3,168.4,88.3,167.1z"/>
<path class="st37" d="M117.6,199.3L117.6,199.3c2-1.3,2.6-4,1.3-6l-10-15.5c-1.3-2-4-2.6-6-1.3h0c-2,1.3-2.6,4-1.3,6l10,15.5
	C112.9,200,115.6,200.6,117.6,199.3z"/>
<path class="st34" d="M131.6,196.9c0,0,3.4-1,5.6-2.2c2.2-1.2,1.3-3.7,0.9-4.1s-1.2,1.6-2.5,1.6c-1.3,0-2.3-1.4-4.6-0.4
	C128.8,192.9,131.6,196.9,131.6,196.9z"/>
<path class="st37" d="M117.2,191.8c3.9,1.7,5.7,0.7,13.6,0c0.1,0,0.1,0,0.2,0c0.2,1.2,0.6,3.2,0.6,5c-0.5,0.3-1.1,0.7-1.9,1
	c-11.9,5.3-17,1.3-17,1.3S113.3,190.1,117.2,191.8z"/>
<path class="st34" d="M107.8,150.8c0,0,1.1,2.5,1.1,7.7c0,5.1,0.6,8.3-2.5,9.3s-4.6,0-4.6,0l0.3,1.7c0,0-1.7-0.9-3.5-1.4
	c-2.2-0.6-5.9-1-5.9-1l0.2-1.8c0,0,6-9.7,8.3-11.1C103.5,152.7,107.8,150.8,107.8,150.8z"/>
<polygon class="st24" points="103.3,199.7 103.3,241.1 74.5,227.1 74.5,182.8 "/>
<polygon class="st25" points="103.3,199.7 74.5,182.8 79.4,180 108.3,196.9 "/>
<polygon class="st23" points="108.3,196.9 103.3,199.7 103.3,241.1 131.6,224.9 131.6,220.6 108.3,234 "/>
<path class="st36" d="M108.7,155.3c0,0,1.1-1.3,1-4.8c-0.1-2.9-2.4-6.4-7.2-7.1c-4.8-0.7-9.7,0.5-12.6,5.3c-2.9,4.8-2,10.9,0.8,14.5
	s5.9,4,8.6,4.1c2.7,0.1,2.8-3.6,2.8-3.6s-3.2-0.8-3.2-2.9s1.3-2.4,2.6-1.9c1.3,0.5,1.5,2.2,1.5,2.2v-5.8c0,0,1.4-0.6,2.4-1.5
	c1-0.8,2.5-2.6,2.5-2.6S108.4,152.3,108.7,155.3z"/>
<g>
	<path class="st38" d="M162.1,149.4l-41.8-24.1c-0.5-0.2-1.2,0.2-1.2,0.7v25.7v1v2.5c0,0.7,0.2,3.1,2.1,3.9l38.4,22.2
		c1.5,1,3.5-0.9,3.5-2v-1.9v-24.8v-1.7C163.1,150.3,162.8,149.7,162.1,149.4z"/>
	<path class="st39" d="M161.2,148.8l-41.8-24.1c-0.5-0.2-1.2,0.2-1.2,0.7V151v1v2.5c0,0.7,0.2,3.1,2.1,3.9l38.8,22.7
		c1.5,1,3,0,3-1.1v-3.2v-24.8v-1.7C162.1,149.7,161.9,149.1,161.2,148.8z"/>
	<path class="st40" d="M162.1,176.1l-43.1-23v1.9c0,0.7,0.2,3.1,2.1,3.9l38.2,22.2c1.8,1,3.7-0.8,3.7-2.2v-3.2v-0.5L162.1,176.1z"/>
	<path class="st41" d="M136.9,167.2v1.5c0,0,0.1,1.3-0.6,1.8c-0.9,0.6-4.7,2.5-4.7,2.5s-1.1,0.7,0.3,1.5c0.9,0.5,4.4,2.7,6.4,4
		c0.3,0.2,0.5,0.3,0.7,0.4c0,0.2,0.2,0.4,0.4,0.4c0.2,0,0.3-0.1,0.4-0.2c0,0,0,0,0,0c0,0,0,0,0-0.1c0,0,0,0,0-0.1
		c0.1-0.4,0.3-0.6,0.9-1c1.1-0.6,3.6-1.8,3.6-1.8s1.5-0.6,1.5-2.3c0-0.9,0-1.4,0-1.4L136.9,167.2z"/>
	<path class="st40" d="M136.2,166.8v1.5c0,0,0.1,1.3-0.6,1.8c-0.9,0.6-4.7,2.5-4.7,2.5s-1.1,0.7,0.3,1.5c1.3,0.8,8,4.9,8,4.9
		s-0.1-1,1-1.6s3.6-1.8,3.6-1.8s1.5-0.6,1.5-2.3c0-0.9,0-1.4,0-1.4L136.2,166.8z"/>
	<path class="st42" d="M118.2,152.1v2.4c0,0.7,0.2,3.1,2.1,3.9l38.8,22.7c1.5,1,3,0,3-1.1V177L118.2,152.1z"/>
	<polygon class="st43" points="119.9,127.1 119.9,150.8 160.2,173.9 160.2,150.1 	"/>
</g>
<path class="st4" d="M155,179.4c0.8-3,2.5-5.1,4.4-6.1c0,0,0,0,0,0v-1.9c0-1.4,1.1-2.5,2.5-2.5c1.4,0,2.5,1.1,2.5,2.5v1.9
	c0,0.1,0,0.2,0,0.3c1.1,0.6,2.3,1.7,3.4,3.5c2.6,4.4,1.7,7-1.5,8.6c-3.2,1.5-7.6,0.7-9.2,0C155.6,185,153.9,183.5,155,179.4z"/>
<path class="st44" d="M155,179.5c0.8-3,2.5-5.1,4.4-6.1c0,0,0,0,0,0v-1.9c0-1.4,1.1-2.5,2.5-2.5c0.5,0,1,0.2,1.4,0.4
	c-1.3,0.1-2.4,1.2-2.4,2.5v1.9c0,0,0,0,0,0c-1.9,1-3.6,3.1-4.4,6.1c-1.1,4.1,0.6,5.6,2.1,6.3c0.1,0,0.2,0.1,0.2,0.1
	c-0.7-0.2-1.3-0.3-1.7-0.5C155.6,185.1,153.9,183.5,155,179.5z"/>
<path class="st45" d="M172.7,188.8h0.5v-21.9c0-2.1-0.9-3.6-2.5-4c-1.8-0.5-3.3-0.1-5.2,0.6c-1.9,0.6-3.1,1.7-3.6,3.2
	c-0.5,1.4-0.4,3.2-0.4,3.3l0.5,0c0,0-0.1-1.8,0.4-3.1c0.4-1.3,1.5-2.3,3.2-2.9c1.7-0.6,3.2-1,4.9-0.6c1.8,0.5,2.1,2.4,2.1,3.5V188.8
	z"/>
<path class="st16" d="M173,188.8h0.5v-22.1c0-2.2-0.9-3.7-2.6-4.2c-1.9-0.5-3.5-0.1-5.4,0.6c-2,0.7-3.2,1.8-3.8,3.3
	c-0.5,1.5-0.4,3.4-0.4,3.5l0.5,0c0,0-0.1-1.9,0.4-3.3c0.5-1.3,1.6-2.3,3.4-3c1.8-0.6,3.4-1.1,5.1-0.6c1.9,0.5,2.2,2.5,2.2,3.6V188.8
	z"/>
<g>
	<polygon class="st23" points="275.3,233.6 275.3,277.8 234,301.3 234,255.4 	"/>
	<polygon class="st24" points="234,301.3 231.8,299.9 231.8,254.3 234,255.6 	"/>
	<polygon class="st23" points="216.3,206.6 216.3,250.9 175,271.3 175,225.8 	"/>
	<polygon class="st24" points="175,271.3 172.8,270.1 172.8,224.6 175,225.8 	"/>
	<polygon class="st25" points="276.2,231.4 218.6,198.5 175.2,220.1 235.4,254.5 	"/>
	<polygon class="st24" points="235.4,256.4 235.4,254.5 175.5,220.1 175.5,221.8 	"/>
	<polygon class="st26" points="235.4,256.4 235.4,254.5 276.2,231.4 276.2,233.2 	"/>
	<path class="st27" d="M264.9,236.9c0,0,0.1,0.2,0.1,0.5c0,0.5-0.4,0.7-0.4,0.7l-4.1,2.1c0,0-0.7,0.3-1.2,0.3
		c-0.5,0-0.7-0.1-1.3-0.4c-0.7-0.3-1.9-0.9-1.9-0.9s-0.6-0.2-0.4-1C255.7,237.4,264.9,236.9,264.9,236.9z"/>
	<path class="st28" d="M264.1,236.4l-1.7-0.9c0,0-0.7-0.5-1.7,0c-1,0.5-4.7,2.2-4.7,2.2s-1,0.6,0.3,1.2c1.4,0.7,2.1,1,2.1,1
		s0.6,0.4,2.1-0.2c1.6-0.6,4-1.9,4-1.9S266,237.1,264.1,236.4z"/>
	<polygon class="st29" points="218.9,243.6 233.1,234.5 204.6,219 190.5,227.9 	"/>
	<path class="st30" d="M218.9,243.6v0.7l13.1-8.5c0,0,0.2,1.1,0.9,1c0.9-0.1,1-0.7,1-1.3c0-0.6-0.3-1-1-0.8
		C232.2,234.8,218.9,243.6,218.9,243.6z"/>
	<path class="st31" d="M232.1,250c0,0,0.6,1.3,2.6,1c2-0.2,6.3-3.3,6.3-3.3s1-1,0.7-1.7S232.1,250,232.1,250z"/>
	<path class="st29" d="M232.1,250c1,0.7,2,1.1,3.8,0.2c1.8-0.9,2.8-2.2,4-3c1.3-0.7,2.4-1,1.5-1.8c-0.9-0.9-2.8-2.4-4.8-1.4
		C234.7,245,228.4,247.6,232.1,250z"/>
	<path class="st32" d="M218.4,284.8L218.4,284.8c2.3-0.5,3.8-2.7,3.3-5l-4.6-22.7c-0.5-2.3-2.7-3.8-5-3.3l0,0
		c-2.3,0.5-3.8,2.7-3.3,5l4.6,22.7C213.9,283.8,216.1,285.3,218.4,284.8z"/>
	
		<ellipse transform="matrix(-0.9693 0.2459 -0.2459 -0.9693 505.1503 502.0869)" class="st33" cx="221.2" cy="282.6" rx="6.6" ry="3.8"/>
	<polygon class="st25" points="218.7,269.7 193,254.5 161.4,267.7 195.4,283.1 	"/>
	<polygon class="st23" points="190.4,290.1 190.4,311.1 197,307.4 197,286.3 	"/>
	<polygon class="st24" points="186,308.5 186,286.7 190.4,289.9 190.4,311.1 	"/>
	<polygon class="st23" points="212.1,277.6 212.1,298.8 218.7,295 218.7,273.9 	"/>
	<polygon class="st24" points="207.7,296.3 207.7,276.5 212.1,277.6 212.1,298.8 	"/>
	<polygon class="st23" points="166,272.5 166,296.9 172.2,293.4 172.2,276.9 	"/>
	<polygon class="st24" points="166,296.9 161.5,294.4 161.5,269.3 166,272.5 	"/>
	<path class="st33" d="M181.8,271.1l25-6.1c3.7-0.9,6.1-4.7,5.1-8.4l0,0c-0.9-3.7-4.7-6.1-8.4-5.1l-25,6.1c-3.7,0.9-6.1,4.7-5.1,8.4
		l0,0C174.3,269.7,178.1,272.1,181.8,271.1z"/>
	<path class="st32" d="M190.5,277.9l23.3-10.9c3.5-1.6,5-5.8,3.4-9.3h0c-1.6-3.5-5.8-5-9.3-3.4l-23.3,10.9c-3.5,1.6-5,5.8-3.4,9.3
		l0,0C182.9,278,187,279.5,190.5,277.9z"/>
	<path class="st34" d="M191,219.6c0,0,1.9-1.5,3.6-2c1.7-0.5,2.7,0,2.7,0s-1.4,0.8-2.2,1.7c-0.8,0.9-1,1.8-0.6,1.8
		c0.4-0.1,1.7-0.4,2.1-0.2c0.4,0.2,0,1-0.9,1.6c-1.2,0.9-1.6,0.2-1.6,0.2S191.7,220.4,191,219.6z"/>
	<path class="st35" d="M193.5,221.8c0,0-2.7-3.8-9.4-5.1s-8.6-0.5-8.6-0.5s-2.2,5.2,7.4,7.4C192.4,225.9,193.5,221.8,193.5,221.8z"
		/>
	<path class="st36" d="M175.4,216.2c0,0,1.8,4,6.7,5.6c5,1.6,11.3,0,11.3,0s2.7,1.3,3.2,16.3c0.5,14.9,1.2,26.9-1.9,32.4
		s-9.6,12-20.2,1.9c-10.6-10.1-3.9-32-3.9-32l-0.3-13.3C170.3,227.1,169.4,217.5,175.4,216.2z"/>
	<path class="st37" d="M204.7,248.3L204.7,248.3c2-1.3,2.6-4,1.3-6l-10-15.5c-1.3-2-4-2.6-6-1.3h0c-2,1.3-2.6,4-1.3,6l10,15.5
		C200,249.1,202.7,249.6,204.7,248.3z"/>
	<path class="st34" d="M218.7,246c0,0,3.4-1,5.6-2.2c2.2-1.2,1.3-3.7,0.9-4.1s-1.2,1.6-2.5,1.6c-1.3,0-2.3-1.4-4.6-0.4
		S218.7,246,218.7,246z"/>
	<path class="st37" d="M204.3,240.9c3.9,1.7,5.7,0.7,13.6,0c0.1,0,0.1,0,0.2,0c0.2,1.2,0.6,3.2,0.6,5c-0.5,0.3-1.1,0.7-1.9,1
		c-11.9,5.3-17,1.3-17,1.3S200.4,239.2,204.3,240.9z"/>
	<path class="st34" d="M194.8,199.9c0,0,1.1,2.5,1.1,7.7s0.6,8.3-2.5,9.3c-3.1,0.9-4.6,0-4.6,0l0.3,1.7c0,0-1.7-0.9-3.5-1.4
		c-2.2-0.6-5.9-1-5.9-1l0.2-1.8c0,0,6-9.7,8.3-11.1C190.6,201.8,194.8,199.9,194.8,199.9z"/>
	<polygon class="st24" points="190.4,248.8 190.4,290.1 161.5,276.1 161.5,231.9 	"/>
	<polygon class="st25" points="190.4,248.8 161.5,231.9 166.5,229.1 195.4,245.9 	"/>
	<polygon class="st23" points="195.4,245.9 190.4,248.8 190.4,290.1 218.7,273.9 218.7,269.7 195.4,283.1 	"/>
	<path class="st36" d="M195.8,204.3c0,0,1.1-1.3,1-4.8c-0.1-2.9-2.4-6.4-7.2-7.1s-9.7,0.5-12.6,5.3s-2,10.9,0.8,14.5s5.9,4,8.6,4.1
		c2.7,0.1,2.8-3.6,2.8-3.6s-3.2-0.8-3.2-2.9s1.3-2.4,2.6-1.9c1.3,0.5,1.5,2.2,1.5,2.2v-5.8c0,0,1.4-0.6,2.4-1.5s2.5-2.6,2.5-2.6
		S195.5,201.4,195.8,204.3z"/>
	<g>
		<path class="st38" d="M249.2,198.4l-41.8-24.1c-0.5-0.2-1.2,0.2-1.2,0.7v25.7v1v2.5c0,0.7,0.2,3.1,2.1,3.9l38.4,22.2
			c1.5,1,3.5-0.9,3.5-2v-1.9v-24.8v-1.7C250.1,199.4,249.9,198.8,249.2,198.4z"/>
		<path class="st39" d="M248.2,197.8l-41.8-24.1c-0.5-0.2-1.2,0.2-1.2,0.7v25.7v1v2.5c0,0.7,0.2,3.1,2.1,3.9l38.8,22.7
			c1.5,1,3,0,3-1.1v-3.2V201v-1.7C249.2,198.8,249,198.2,248.2,197.8z"/>
		<path class="st40" d="M249.2,225.2l-43.1-23v1.9c0,0.7,0.2,3.1,2.1,3.9l38.2,22.2c1.8,1,3.7-0.8,3.7-2.2V225v-0.5L249.2,225.2z"/>
		<path class="st41" d="M224,216.3v1.5c0,0,0.1,1.3-0.6,1.8c-0.9,0.6-4.7,2.5-4.7,2.5s-1.1,0.7,0.3,1.5c0.9,0.5,4.4,2.7,6.4,4
			c0.3,0.2,0.5,0.3,0.7,0.4c0,0.2,0.2,0.4,0.4,0.4c0.2,0,0.3-0.1,0.4-0.2c0,0,0,0,0,0c0,0,0,0,0-0.1c0,0,0,0,0-0.1
			c0.1-0.4,0.3-0.6,0.9-1c1.1-0.6,3.6-1.8,3.6-1.8s1.5-0.6,1.5-2.3c0-0.9,0-1.4,0-1.4L224,216.3z"/>
		<path class="st40" d="M223.3,215.9v1.5c0,0,0.1,1.3-0.6,1.8c-0.9,0.6-4.7,2.5-4.7,2.5s-1.1,0.7,0.3,1.5c1.3,0.8,8,4.9,8,4.9
			s-0.1-1,1-1.6s3.6-1.8,3.6-1.8s1.5-0.6,1.5-2.3c0-0.9,0-1.4,0-1.4L223.3,215.9z"/>
		<path class="st42" d="M205.2,201.2v2.4c0,0.7,0.2,3.1,2.1,3.9l38.8,22.7c1.5,1,3,0,3-1.1v-2.9L205.2,201.2z"/>
		<polygon class="st43" points="207,176.2 207,199.9 247.3,223 247.3,199.2 		"/>
	</g>
	<path class="st46" d="M242.1,228.5c0.8-3,2.5-5.1,4.4-6.1c0,0,0,0,0,0v-1.9c0-1.4,1.1-2.5,2.5-2.5c1.4,0,2.5,1.1,2.5,2.5v1.9
		c0,0.1,0,0.2,0,0.3c1.1,0.6,2.3,1.7,3.4,3.5c2.6,4.4,1.7,7-1.5,8.6c-3.2,1.5-7.6,0.7-9.2,0C242.7,234.1,241,232.6,242.1,228.5z"/>
	<path class="st47" d="M242.1,228.5c0.8-3,2.5-5.1,4.4-6.1c0,0,0,0,0,0v-1.9c0-1.4,1.1-2.5,2.5-2.5c0.5,0,1,0.2,1.4,0.4
		c-1.3,0.1-2.4,1.2-2.4,2.5v1.9c0,0,0,0,0,0c-1.9,1-3.6,3.1-4.4,6.1c-1.1,4.1,0.6,5.6,2.1,6.3c0.1,0,0.2,0.1,0.2,0.1
		c-0.7-0.2-1.3-0.3-1.7-0.5C242.7,234.2,241,232.6,242.1,228.5z"/>
	<path class="st45" d="M259.8,237.9h0.5v-21.9c0-2.1-0.9-3.6-2.5-4c-1.8-0.5-3.3-0.1-5.2,0.6c-1.9,0.6-3.1,1.7-3.6,3.2
		c-0.5,1.4-0.4,3.2-0.4,3.3l0.5,0c0,0-0.1-1.8,0.4-3.1c0.4-1.3,1.5-2.3,3.2-2.9c1.7-0.6,3.2-1,4.9-0.6c1.8,0.5,2.1,2.4,2.1,3.5
		V237.9z"/>
	<path class="st16" d="M260.1,237.9h0.5v-22.1c0-2.2-0.9-3.7-2.6-4.2c-1.9-0.5-3.5-0.1-5.4,0.6c-2,0.7-3.2,1.8-3.8,3.3
		c-0.5,1.5-0.4,3.4-0.4,3.5l0.5,0c0,0-0.1-1.9,0.4-3.3c0.5-1.3,1.6-2.3,3.4-3c1.8-0.6,3.4-1.1,5.1-0.6c1.9,0.5,2.2,2.5,2.2,3.6
		V237.9z"/>
</g>
<path class="st48" d="M333.9,292.4c0,0-0.7,3.7,0.4,5.5c1.1,1.8,3.2,1.7,5.6,2.2c2.4,0.5,5.8,1.1,7.2,0c1.4-1.1,2-2.8,0.4-4.7
	c-1.6-1.9-6.1-4.5-6.1-4.5L333.9,292.4z"/>
<path class="st34" d="M355.1,244.1c0,0,1.5,1.7,4,2.9c2.5,1.2,4.6,0.7,5.8,0.2c1.2-0.5,1.5-1.7,0-1.9c-1.5-0.2-3.5-1.3-3.8-1.9
	s0.2-1,1.1-0.9c0.9,0.1,1.9-0.1,1.9-0.7s-1-0.9-2.6-1c-1.6,0-3.3-0.8-3.3-0.8s-2.1-0.3-3,0.8C354.4,242,355.1,244.1,355.1,244.1z"/>
<path class="st49" d="M319.1,291.4c0,0,2.3,1.7,4.1,5.6c1.8,3.8-1.9,5.6-5.3,4.7c-3.5-0.9-9.3-6.8-7.2-9.9
	C312.7,288.6,319.1,291.4,319.1,291.4z"/>
<path class="st24" d="M338.5,243.6c0,0,1.5,5.3,2.1,13.5c0.5,8.1,0.1,11.5,0.7,16c0.5,4.5,0.7,16.8,0.7,16.8s0.4,1.3-0.7,2.1
	c-1.1,0.8-3.4,1.2-4.8,1.2s-2.4,0.2-2.8-1.5c-0.4-1.8-1.1-8.1-1.6-11.5s-1-6.2-1.3-10.3c-0.3-4.2-1.9-11-1.9-11s1.1,4-1.1,11.7
	c-2.1,7.7-4.2,13.9-5.6,17c-1.4,3.2-1.2,4.7-4.1,5s-7.3-0.9-7.3-0.9s6.4-12.4,6.6-19.1c0.2-6.6-3.3-13-2.6-16.9
	C315.5,251.9,338.5,243.6,338.5,243.6z"/>
<path class="st4" d="M314.6,216.3c0,0,1.8-2.6,4.7-4.4c3-1.8,4.4-2,4.4-2s1.9,3.8,5.2,4.1c3.4,0.2,3.9-3.1,3.9-3.1s2.4-2.5,4.7-0.9
	c2.3,1.5,3.3,3,4.6,7c1.3,4.1,2.6,10.8,2.6,10.8l13.4,12.3c0,0-1.4,0.1-2.6,1.6c-1.1,1.4-0.6,2.5-0.6,2.5L340,231.5
	c0,0,0.3,9.2-0.4,10.6c-0.7,1.4-2.4,3-4.3,4.3c-1.9,1.3-12.1,4.6-15.7,2.8C316,247.3,314.6,216.3,314.6,216.3z"/>
<path class="st50" d="M331.3,241.3c0,0,0.1-0.4-0.9-1c-1-0.5-17.7-10.6-17.7-10.6s-3.5,0.6-4,2.7c-0.6,2.1,18.4,10.7,18.4,10.7
	L331.3,241.3z"/>
<polygon class="st51" points="308.7,232.5 326.7,242.8 326.7,262.9 308.7,252.5 "/>
<path class="st34" d="M314.7,257.1c0,0,0.8-2.1,2.8-2.3s1.8-0.3,1.8-0.3s0.9,2.3,0.8,3.2c-0.1,0.9,0.4,1.7,0.9,1.8
	c0.5,0,2.3,0.3,2.6,1.9c0.2,1.6-0.6,1.9-1.7,1.9c-1.1-0.1-3.3,0.1-4.9-1.9C315.3,259.2,314.7,257.1,314.7,257.1z"/>
<path class="st8" d="M316.7,215.8c3.1,0.8,4.5,3.7,3.5,6.8s-4.8,13.9-4.8,13.9s1.1,6.5,1.9,10.3c0.8,3.8,2.1,7.9,2.1,7.9
	s-0.9-0.3-2.8,0.8s-1.8,1.6-1.8,1.6s-7.5-14.8-5.8-23.2S311.2,214.4,316.7,215.8z"/>
<path class="st16" d="M327.5,262l3.1-1.7v-18.9c0,0-0.8-0.6-2.3,0.5c-1.5,1-1.2,3-1.2,3L327.5,262z"/>
<path class="st52" d="M330.7,259.8v1.1l0.7-0.4v-19.2c0,0-0.4-0.7-2-0.2c-2,0.6-2.6,1.7-2.6,1.7v20.1l0.9-0.4v-19.4
	c0,0,0.4-0.7,1.7-1.2c1-0.4,1.3,0,1.3,0L330.7,259.8z"/>
<path class="st53" d="M330.3,214.2c0,0,0,0,1.4-0.5s1.1-2.6,1.1-2.6s-0.8,1.1-3.2,1s-4.7-2.1-4.8-2.1s-1-0.1-1-0.1s0.1,2.5,0.7,3
	S330.3,214.2,330.3,214.2z"/>
<path class="st54" d="M320.9,211c0,0-0.5-0.5-0.4-1.3c0.2-0.8,0.9-1.4,0.9-1.4s1.2,1,1.8,1.4c0.6,0.4,0.5,0.3,0.5,0.3s2,2.5,3.3,3.2
	s2.9,0.8,3.7,0.6c0.4-0.2,1.4-0.8,1.6-1.6c0.2-0.6,0.3-1,0.5-1.3c0.1-0.2,0.4-0.4,0.8-0.6c0.3-0.2,0.5-0.3,0.5-0.3s1.2,2.4,1.4,4.2
	s0.2,3.1,0.2,3.1l-4.8-3.3c0,0-0.4,3-0.7,4.3c-0.3,1.3-0.7,1.8-0.7,1.8L320.9,211z"/>
<path class="st34" d="M325.8,210.7c0,0,1.6,1.5,3.8,1.5c2.2,0,3.2-0.3,3.2-0.3s6.4-0.8,5.7-13.6c-0.7-12-16.2,2.1-16.2,2.1
	L325.8,210.7z"/>
<path class="st55" d="M326.3,211v-2.7c0,0-0.3-1.5-0.8-1.6c-0.5-0.1-1.2-0.4-1.2-2.2s0.8-3,1.7-2.4c0.9,0.6,1.5,1.8,1.5,1.8l0.3-2.7
	c0,0,1.9,0.7,3.6,0c1.7-0.7,2.6-3.3,2.6-3.3s0.5,0.5,1.7,0.3c1.2-0.2,1.6-1.4,1.6-1.4s1.1,0.7,1.2,1.5s0,1.5,0,1.5s1.7-3.4-0.7-7
	c-2.4-3.6-6.1-4.9-10.7-4.1s-8.3,2.7-8.3,9C318.9,204,317.9,207.9,326.3,211z"/>
<g>
	<path class="st56" d="M354.2,209.9l1.2,10.4c0,0,0.7,5.9,9,5.9c8.3,0,9-5.8,9-5.8l1.3-11L354.2,209.9z"/>
	<ellipse class="st57" cx="364.5" cy="209.6" rx="10.3" ry="5.8"/>
	<ellipse class="st3" cx="364.5" cy="209.4" rx="9" ry="4.9"/>
	<path class="st58" d="M365.3,188.8h-1.6v21h0c0,0,0,0.1,0,0.1c0,0.4,0.4,0.8,0.8,0.8c0.4,0,0.8-0.4,0.8-0.8c0,0,0-0.1,0-0.1h0
		V188.8z"/>
	<ellipse class="st59" cx="364.2" cy="176.8" rx="15.5" ry="13.4"/>
	<path class="st60" d="M364.2,182.9c-7.1,0-13-4.1-14.9-9.8c-0.4,1.2-0.6,2.4-0.6,3.7c0,7.4,6.9,13.4,15.5,13.4
		c8.5,0,15.5-6,15.5-13.4c0-1.3-0.2-2.5-0.6-3.7C377.2,178.7,371.3,182.9,364.2,182.9z"/>
</g>
<g>
	<path class="st56" d="M398.6,231.5l1.2,10.4c0,0,0.7,5.9,9,5.9c8.3,0,9-5.8,9-5.8l1.3-11L398.6,231.5z"/>
	<ellipse class="st57" cx="408.9" cy="231.2" rx="10.3" ry="5.8"/>
	<ellipse class="st3" cx="408.9" cy="231" rx="9" ry="4.9"/>
	<path class="st58" d="M409.7,210.4h-1.6v21h0c0,0,0,0.1,0,0.1c0,0.4,0.4,0.8,0.8,0.8c0.4,0,0.8-0.4,0.8-0.8c0,0,0-0.1,0-0.1h0
		V210.4z"/>
	<ellipse class="st59" cx="408.6" cy="198.4" rx="15.5" ry="13.4"/>
	<path class="st60" d="M408.6,204.5c-7.1,0-13-4.1-14.9-9.8c-0.4,1.2-0.6,2.4-0.6,3.7c0,7.4,6.9,13.4,15.5,13.4s15.5-6,15.5-13.4
		c0-1.3-0.2-2.5-0.6-3.7C421.6,200.4,415.6,204.5,408.6,204.5z"/>
</g>
</svg>
